%FSTAX23Y23*%
%MOIN*%
%SFA1B1*%

%IPPOS*%
%ADD13C,0.009843*%
%ADD96C,0.027559*%
%ADD99C,0.013780*%
%ADD100C,0.047244*%
%ADD101C,0.148031*%
%ADD102C,0.236220*%
%ADD103C,0.027559*%
%LNslave-1*%
%LPD*%
G36*
X07567Y0603D02*
X07235Y05698D01*
X07231Y05693*
X0723Y05687*
Y05599*
X07228Y05598*
X07223Y0559*
X07221Y0558*
X07223Y05571*
X07228Y05563*
X07236Y05558*
X07242Y05557*
X07244Y05551*
X07078Y05385*
X07076Y05386*
X07066Y05384*
X07059Y05379*
X07053Y05371*
X07051Y05362*
X07053Y05352*
X07059Y05344*
X07066Y05339*
X07076Y05337*
X07085Y05339*
X07093Y05344*
X07098Y05352*
X071Y05362*
X071Y05364*
X07732Y05996*
X12846*
X12962Y0588*
X12961Y05877*
X12963Y05868*
X12966Y05863*
X12964Y05859*
X12909*
X12818*
X12809Y05857*
X12805Y05854*
X09773*
Y04007*
X09147*
Y05854*
X0806*
X08058Y05856*
X08057Y05872*
X08052Y05888*
X08044Y05903*
X08034Y05916*
X08021Y05926*
X08006Y05934*
X0799Y05938*
X07974Y0594*
X07957Y05938*
X07942Y05934*
X0794Y05933*
X07938Y05932*
X07927Y05926*
X07914Y05916*
X07904Y05903*
X07896Y05888*
X07891Y05872*
X0789Y05856*
X07891Y05839*
X07896Y05824*
X07904Y05809*
X07914Y05796*
X07927Y05786*
X0794Y05778*
Y05723*
X07927Y05716*
X07914Y05705*
X07904Y05692*
X07896Y05678*
X07891Y05662*
X0789Y05646*
X07891Y05629*
X07896Y05613*
X07904Y05599*
X07914Y05586*
X07927Y05575*
X0794Y05568*
Y03956*
X05427*
Y04206*
X05324*
Y04253*
X05427*
Y06035*
X07565*
X07567Y0603*
G37*
G36*
X14633Y06031D02*
Y05854D01*
Y05726*
X13886*
X13885Y05727*
X13884Y05731*
X13879Y05739*
X13766Y05851*
X13759Y05857*
X13757Y05857*
X13749Y05859*
X13008*
X13005Y05863*
X13008Y05868*
X1301Y05877*
X13008Y05887*
X13003Y05895*
X12995Y059*
X12986Y05902*
X12983Y05901*
X12876Y06009*
X12877Y06014*
X13747*
X13899Y05862*
X13964Y05797*
X13963Y05795*
X13965Y05785*
X1397Y05777*
X13978Y05772*
X13988Y0577*
X13997Y05772*
X14005Y05777*
X1401Y05785*
X14012Y05795*
X1401Y05804*
X14005Y05812*
X13997Y05817*
X13988Y05819*
X13985Y05818*
X13947Y05857*
X13775Y06029*
X13777Y06034*
X14629Y06034*
X14633Y06031*
G37*
G36*
X07701Y06009D02*
X07275Y05582D01*
X07269Y05584*
X07268Y0559*
X07263Y05598*
X07261Y05599*
Y05681*
X07594Y06014*
X077*
X07701Y06009*
G37*
%LNslave-2*%
%LPC*%
G36*
X07076Y05947D02*
X07067Y05945D01*
X07059Y0594*
X07058Y05938*
X06048*
X06046Y0594*
X06038Y05945*
X06029Y05947*
X0602Y05945*
X06012Y0594*
X06007Y05932*
X06005Y05923*
X06007Y05913*
X06012Y05905*
X0602Y059*
X06029Y05898*
X06038Y059*
X06046Y05905*
X06048Y05907*
X07058*
X07059Y05905*
X07061Y05904*
Y05596*
X06827Y05362*
X06824Y05358*
X06823Y05352*
Y05191*
X06821Y0519*
X06816Y05182*
X06814Y05173*
X06816Y05163*
X0682Y05158*
X06817Y05153*
X06768*
Y0537*
X06767Y05374*
X06766Y05375*
X06764Y05379*
X06761Y05381*
X06757Y05382*
X06437*
X06433Y05381*
X06429Y05379*
X06427Y05375*
X06426Y05372*
Y05366*
X06398*
X06397Y05366*
X06396Y05366*
X06377*
X06375Y05371*
X06392Y05382*
X06412Y054*
X0643Y0542*
X06444Y05442*
X06456Y05465*
X06464Y0549*
X0647Y05516*
X06472Y05543*
X0647Y05569*
X06464Y05595*
X06456Y0562*
X06444Y05644*
X0643Y05666*
X06412Y05686*
X06392Y05703*
X0637Y05718*
X06347Y0573*
X06322Y05738*
X06296Y05743*
X06269Y05745*
X06243Y05743*
X06217Y05738*
X06192Y0573*
X06168Y05718*
X06146Y05703*
X06126Y05686*
X06109Y05666*
X06094Y05644*
X06082Y0562*
X06074Y05595*
X06069Y05569*
X06067Y05543*
X06069Y05516*
X06074Y0549*
X06082Y05465*
X06094Y05442*
X06109Y0542*
X06126Y054*
X06146Y05382*
X06168Y05368*
X06171Y05366*
X06172Y05365*
X06173Y05362*
Y0536*
X06171Y05356*
X0617Y05354*
X0617Y05353*
Y05352*
Y05352*
Y0535*
Y05349*
X0617Y05348*
Y05348*
X06171Y05346*
X06171Y05345*
X06174Y05341*
X06175Y05336*
X06174Y05331*
X06171Y05326*
X06166Y05323*
X06161Y05322*
X06156Y05324*
X06151Y05326*
X06148Y05331*
X06147Y05336*
X06148Y05341*
X06151Y05345*
X06151Y05346*
X06152Y05348*
Y05348*
X06152Y05349*
Y0535*
Y05352*
Y05352*
Y05353*
X06151Y05354*
X06151Y05356*
X06148Y05361*
X06148Y05362*
X06147Y05363*
X06146Y05363*
X06146Y05364*
X06145Y05364*
X06143Y05365*
X06143*
X06142Y05366*
X06141*
X06139Y05366*
X05954*
X0595Y05365*
X05947Y05363*
X05945Y0536*
X05944Y05356*
Y05253*
X05945Y0525*
X05947Y05246*
X0595Y05244*
X05954Y05243*
X06198*
X06202Y05244*
X06205Y05246*
X06208Y0525*
X06209Y05253*
Y05294*
X0653*
X06532Y0529*
X06501Y05259*
X06291*
X06285Y05258*
X0628Y05254*
X06134Y05108*
X06131Y05109*
X06122Y05107*
X06114Y05101*
X06109Y05094*
X06107Y05084*
X06109Y05075*
X06114Y05067*
X06122Y05062*
X06131Y0506*
X06141Y05062*
X06149Y05067*
X0615Y0507*
X06155*
X06157Y05067*
X06165Y05062*
X06174Y0506*
X06183Y05062*
X06191Y05067*
X06193Y0507*
X06198*
X062Y05067*
X06207Y05062*
X06217Y0506*
X06226Y05062*
X06234Y05067*
X06235Y0507*
X0624*
X06242Y05067*
X0625Y05062*
X06259Y0506*
X06269Y05062*
X06277Y05067*
X06279Y05071*
X06285*
X06288Y05067*
X06296Y05062*
X06305Y0506*
X06307Y05061*
X06334Y05034*
X06339Y05031*
X06345Y05029*
X06371*
X06374Y05024*
X06373Y05017*
X06375Y05008*
X0638Y05*
X06384Y04998*
Y04993*
X0638Y0499*
X06375Y04983*
X06373Y04973*
X06375Y04964*
X0638Y04956*
X06384Y04953*
Y04949*
X0638Y04946*
X06375Y04938*
X06373Y04929*
X06375Y0492*
X0638Y04912*
X06384Y04909*
Y04905*
X0638Y04902*
X06375Y04894*
X06373Y04885*
X06375Y04875*
X0638Y04868*
X06384Y04865*
Y04861*
X0638Y04858*
X06375Y0485*
X06373Y04841*
X06375Y04831*
X0638Y04824*
X06384Y04821*
Y04816*
X0638Y04814*
X06375Y04806*
X06373Y04797*
X06374Y04792*
X06369Y04789*
X06368Y0479*
X06364Y04791*
X0609*
Y05183*
X06091Y05185*
X0609Y05186*
Y05198*
X0609Y05202*
X06087Y05205*
X06084Y05208*
X0608Y05209*
X06068*
X06066Y05209*
X06065Y05209*
X06053*
X06049Y05208*
X06046Y05205*
X06043Y05202*
X06042Y05198*
Y05186*
X06042Y05185*
X06042Y05183*
Y04781*
Y04751*
X06042Y0475*
X06042Y04748*
Y04709*
X06043Y04707*
X06043Y04705*
X06044Y04703*
X06046Y04701*
X06049Y04698*
X06051Y04697*
X06052Y04696*
X06054Y04696*
X06056Y04695*
X06339Y04697*
X06441Y04602*
X06443Y04601*
X06444Y046*
X06445*
X06446Y046*
X06448Y046*
X06474*
X06478Y046*
X06481Y04603*
X06483Y04604*
X06488Y04602*
Y04401*
X06489Y04395*
X06493Y0439*
X06521Y04362*
X0652Y0436*
X06522Y0435*
X06527Y04342*
X06535Y04337*
X06545Y04335*
X06554Y04337*
X06562Y04342*
X06567Y0435*
X06569Y0436*
X06567Y04369*
X06562Y04377*
X06554Y04382*
X06545Y04384*
X06542Y04383*
X06519Y04407*
Y047*
X06518Y04706*
X06514Y04711*
X0642Y04806*
Y04806*
X06414Y04814*
X06411Y04816*
Y04821*
X06414Y04824*
X06416Y04825*
X06634*
X06912Y04548*
X06917Y04544*
X06923Y04543*
X07548*
X07549Y04541*
X07557Y04536*
X07566Y04534*
X07576Y04536*
X07584Y04541*
X07589Y04549*
X07591Y04559*
X07589Y04568*
X07584Y04576*
X07583Y04576*
X07582Y04582*
X07587Y04588*
X07589Y04598*
X07587Y04607*
X07582Y04615*
X07574Y0462*
X07564Y04622*
X07555Y0462*
X07547Y04615*
X07546Y04613*
X06978*
X06695Y04896*
X0669Y04899*
X06685Y049*
X06416*
X06414Y04902*
X06411Y04905*
Y04909*
X06414Y04912*
X06416Y04914*
X06706*
X06974Y04646*
X06979Y04643*
X06985Y04642*
X07544*
X07547Y04637*
X07555Y04631*
X07564Y04629*
X07574Y04631*
X07582Y04637*
X07587Y04644*
X07589Y04653*
X07587Y04663*
X07582Y04671*
X07576Y04674*
Y0468*
X07582Y04684*
X07587Y04692*
X07589Y04701*
X07587Y04711*
X07582Y04718*
X07576Y04722*
Y04728*
X07582Y04731*
X07587Y04739*
X07589Y04749*
X07587Y04758*
X07582Y04766*
X07576Y0477*
Y04775*
X07582Y04779*
X07587Y04787*
X07589Y04796*
X07587Y04805*
X07582Y04813*
X07576Y04817*
Y04823*
X07582Y04826*
X07587Y04834*
X07589Y04844*
X07587Y04853*
X07582Y04861*
X07576Y04864*
Y0487*
X07582Y04874*
X07587Y04882*
X07589Y04891*
X07587Y049*
X07582Y04908*
X07574Y04913*
X07564Y04915*
X07555Y04913*
X07547Y04908*
X07546Y04906*
X07165*
X06924Y05148*
X06919Y05151*
X06913Y05153*
X06859*
X06857Y05158*
X06861Y05163*
X06862Y05173*
X06861Y0518*
X06864Y05185*
X07102*
X07106Y05186*
X07109Y05188*
X07111Y05191*
X07112Y05195*
Y05285*
X07111Y05289*
X07109Y05292*
X07106Y05294*
X07102Y05295*
X06853*
Y05346*
X07087Y05579*
X0709Y05584*
X07092Y0559*
Y05904*
X07094Y05905*
X07099Y05913*
X07101Y05923*
X07099Y05932*
X07094Y0594*
X07086Y05945*
X07076Y05947*
G37*
G36*
X09694Y05942D02*
X09244D01*
X09237Y0594*
X09231Y05937*
X09198Y05904*
X09189Y05902*
X09181Y05897*
X09176Y05889*
X09174Y05879*
X09176Y0587*
X09181Y05862*
X09189Y05857*
X09198Y05855*
X09208Y05857*
X09216Y05862*
X09221Y0587*
X09223Y05879*
X09251Y05907*
X09687*
X09715Y05879*
X09717Y0587*
X09722Y05862*
X0973Y05857*
X0974Y05855*
X09749Y05857*
X09757Y05862*
X09762Y0587*
X09764Y05879*
X09762Y05889*
X09757Y05897*
X09749Y05902*
X0974Y05904*
X09707Y05937*
X09701Y0594*
X09694Y05942*
G37*
G36*
X0644Y05796D02*
X06431Y05794D01*
X0643Y05793*
X05853*
X05848Y05792*
X05843Y05788*
X05546Y05492*
X05544Y05492*
X05535Y0549*
X05527Y05485*
X05522Y05477*
X0552Y05468*
X05522Y05459*
X05527Y05451*
X05535Y05446*
X05544Y05444*
X05553Y05446*
X05561Y05451*
X05566Y05459*
X05568Y05468*
X05568Y0547*
X0586Y05762*
X06418*
Y05762*
X06423Y05754*
X06431Y05749*
X0644Y05747*
X0645Y05749*
X06458Y05754*
X06463Y05762*
X06465Y05771*
X06463Y05781*
X06458Y05788*
X0645Y05794*
X0644Y05796*
G37*
G36*
X09692Y05785D02*
X09244D01*
X09238Y05783*
X09232Y05779*
X09198Y05746*
X09189Y05744*
X09181Y05738*
X09176Y05731*
X09174Y05722*
X09176Y05712*
X09181Y05704*
X09189Y05699*
X09198Y05697*
X09208Y05699*
X09216Y05704*
X09221Y05712*
X09223Y05721*
X09251Y0575*
X09685*
X09715Y0572*
X09717Y05711*
X09722Y05703*
X0973Y05698*
X0974Y05696*
X09749Y05698*
X09757Y05703*
X09762Y05711*
X09764Y0572*
X09762Y05729*
X09757Y05737*
X09749Y05742*
X0974Y05744*
X09705Y05779*
X09699Y05783*
X09692Y05785*
G37*
G36*
X06824Y0587D02*
X06712D01*
X06708Y05869*
X06705Y05867*
X06703Y05864*
X06702Y0586*
Y0561*
X06703Y05606*
X06705Y05603*
X06708Y056*
X06712Y056*
X06919*
X06923Y056*
X06926Y05603*
X06928Y05606*
X06929Y0561*
Y05683*
X06928Y05687*
X06926Y0569*
X06923Y05692*
X06919Y05693*
X06835*
Y0586*
X06834Y05864*
X06831Y05867*
X06828Y05869*
X06824Y0587*
G37*
G36*
X09695Y05625D02*
X09243D01*
X09236Y05624*
X09231Y0562*
X09198Y05588*
X09189Y05586*
X09181Y05581*
X09176Y05573*
X09174Y05563*
X09176Y05554*
X09181Y05546*
X09189Y05541*
X09198Y05539*
X09208Y05541*
X09216Y05546*
X09221Y05554*
X09223Y05563*
X0925Y0559*
X09688*
X09715Y05563*
X09717Y05554*
X09722Y05546*
X0973Y05541*
X0974Y05539*
X09749Y05541*
X09757Y05546*
X09762Y05554*
X09764Y05563*
X09762Y05573*
X09757Y05581*
X09749Y05586*
X0974Y05588*
X09707Y0562*
X09702Y05624*
X09695Y05625*
G37*
G36*
X07311Y05457D02*
X07301Y05455D01*
X07293Y0545*
X07288Y05442*
X07286Y05433*
X07288Y05423*
X07293Y05415*
X07301Y0541*
X07304Y0541*
X07304Y05405*
X07244*
X07243Y05407*
X07235Y05412*
X07226Y05414*
X07216Y05412*
X07209Y05407*
X07203Y05399*
X07201Y05389*
X07203Y0538*
X07209Y05372*
X07216Y05367*
X07226Y05365*
X07235Y05367*
X07243Y05372*
X07244Y05374*
X07517*
X07756Y05135*
Y04025*
X07754Y04024*
X07749Y04016*
X07747Y04006*
X07749Y03997*
X07754Y03989*
X07762Y03984*
X07771Y03982*
X07781Y03984*
X07788Y03989*
X07794Y03997*
X07796Y04006*
X07794Y04016*
X07788Y04024*
X07787Y04025*
Y05141*
X07785Y05147*
X07782Y05152*
X07534Y054*
X07529Y05403*
X07523Y05405*
X07317*
X07317Y0541*
X0732Y0541*
X07328Y05415*
X07333Y05423*
X07335Y05433*
X07333Y05442*
X07328Y0545*
X0732Y05455*
X07311Y05457*
G37*
G36*
X09695Y05468D02*
X09243D01*
X09237Y05466*
X09231Y05462*
X09198Y0543*
X09189Y05428*
X09181Y05423*
X09176Y05415*
X09174Y05405*
X09176Y05396*
X09181Y05388*
X09189Y05383*
X09198Y05381*
X09208Y05383*
X09216Y05388*
X09221Y05396*
X09223Y05405*
X0925Y05433*
X09688*
X09715Y05405*
X09717Y05396*
X09722Y05388*
X0973Y05383*
X0974Y05381*
X09749Y05383*
X09757Y05388*
X09762Y05396*
X09764Y05405*
X09762Y05415*
X09757Y05423*
X09749Y05428*
X0974Y05429*
X09707Y05462*
X09701Y05466*
X09695Y05468*
G37*
G36*
X09694Y0531D02*
X09244D01*
X09237Y05309*
X09231Y05305*
X09198Y05272*
X09189Y0527*
X09181Y05264*
X09176Y05257*
X09174Y05248*
X09176Y05238*
X09181Y0523*
X09189Y05225*
X09198Y05223*
X09208Y05225*
X09216Y0523*
X09221Y05238*
X09223Y05247*
X09251Y05275*
X09687*
X09715Y05247*
X09717Y05238*
X09722Y0523*
X0973Y05225*
X0974Y05223*
X09749Y05225*
X09757Y0523*
X09762Y05238*
X09764Y05248*
X09762Y05257*
X09757Y05264*
X09749Y0527*
X0974Y05272*
X09707Y05305*
X09701Y05309*
X09694Y0531*
G37*
G36*
X09696Y05151D02*
X09242D01*
X09236Y05149*
X0923Y05146*
X09198Y05114*
X09189Y05112*
X09181Y05107*
X09176Y05099*
X09174Y05089*
X09176Y0508*
X09181Y05072*
X09189Y05067*
X09198Y05065*
X09208Y05067*
X09216Y05072*
X09221Y0508*
X09223Y05089*
X0925Y05116*
X09688*
X09715Y05089*
X09717Y0508*
X09722Y05072*
X0973Y05067*
X0974Y05065*
X09749Y05067*
X09757Y05072*
X09762Y0508*
X09764Y05089*
X09762Y05099*
X09757Y05107*
X09749Y05112*
X0974Y05114*
X09708Y05146*
X09702Y05149*
X09696Y05151*
G37*
G36*
X06Y0501D02*
X0599Y05008D01*
X05982Y05003*
X05977Y04995*
X05975Y04986*
X05977Y04976*
X05982Y04968*
X05984Y04967*
Y04931*
X0598Y04929*
X05979Y04929*
X0597Y04931*
X05968Y04931*
X05941Y04957*
X05937Y04961*
X05931Y04962*
X05582*
X05576Y04961*
X05572Y04957*
X05537Y04923*
X05535Y04924*
X05525Y04922*
X05518Y04916*
X05512Y04909*
X05511Y04899*
X05512Y0489*
X05518Y04882*
X05525Y04877*
X05535Y04875*
X05544Y04877*
X05552Y04882*
X05557Y0489*
X05559Y04899*
X05559Y04901*
X05588Y04931*
X05924*
X05946Y04909*
X05946Y04907*
X05948Y04898*
X05953Y0489*
X05961Y04885*
X0597Y04883*
X05979Y04885*
X0598Y04885*
X05984Y04883*
Y04872*
X0598Y0487*
X05979Y0487*
X0597Y04872*
X05961Y0487*
X05953Y04865*
X05951Y04863*
X05664*
X05631Y04897*
X05631Y04899*
X05629Y04909*
X05624Y04916*
X05616Y04922*
X05607Y04924*
X05598Y04922*
X0559Y04916*
X05585Y04909*
X05583Y04899*
X05585Y0489*
X0559Y04882*
X05598Y04877*
X05607Y04875*
X05609Y04875*
X05648Y04837*
X05652Y04834*
X05658Y04833*
X05951*
X05953Y04831*
X05961Y04825*
X0597Y04824*
X05979Y04825*
X0598Y04826*
X05984Y04824*
Y04187*
X05985Y04181*
X05989Y04176*
X06009Y04155*
X06009Y04153*
X06011Y04144*
X06016Y04136*
X06024Y04131*
X06033Y04129*
X06042Y04131*
X0605Y04136*
X06055Y04144*
X06057Y04153*
X06055Y04162*
X0605Y0417*
X06042Y04175*
X06033Y04177*
X06031Y04177*
X06015Y04193*
Y04967*
X06017Y04968*
X06022Y04976*
X06024Y04986*
X06022Y04995*
X06017Y05003*
X06009Y05008*
X06Y0501*
G37*
G36*
X09695Y04993D02*
X09243D01*
X09236Y04992*
X09231Y04988*
X09198Y04955*
X09189Y04954*
X09181Y04948*
X09176Y0494*
X09174Y04931*
X09176Y04922*
X09181Y04914*
X09189Y04909*
X09198Y04907*
X09208Y04909*
X09216Y04914*
X09221Y04922*
X09223Y04931*
X0925Y04959*
X09688*
X09715Y04931*
X09717Y04922*
X09722Y04914*
X0973Y04909*
X0974Y04907*
X09749Y04909*
X09757Y04914*
X09762Y04922*
X09764Y04931*
X09762Y0494*
X09757Y04948*
X09749Y04954*
X0974Y04955*
X09707Y04988*
X09702Y04992*
X09695Y04993*
G37*
G36*
X09695Y04836D02*
X09243D01*
X09237Y04834*
X09231Y04831*
X09198Y04798*
X09189Y04796*
X09181Y0479*
X09176Y04783*
X09174Y04774*
X09176Y04764*
X09181Y04756*
X09189Y04751*
X09198Y04749*
X09208Y04751*
X09216Y04756*
X09221Y04764*
X09223Y04773*
X09251Y04801*
X09687*
X09715Y04773*
X09717Y04764*
X09722Y04756*
X0973Y04751*
X0974Y04749*
X09749Y04751*
X09757Y04756*
X09762Y04764*
X09764Y04774*
X09762Y04783*
X09757Y0479*
X09749Y04796*
X0974Y04798*
X09707Y04831*
X09701Y04834*
X09695Y04836*
G37*
G36*
X09694Y04678D02*
X09244D01*
X09237Y04677*
X09232Y04673*
X09198Y0464*
X09189Y04638*
X09181Y04633*
X09176Y04625*
X09174Y04615*
X09176Y04606*
X09181Y04598*
X09189Y04593*
X09198Y04591*
X09208Y04593*
X09216Y04598*
X09221Y04606*
X09223Y04615*
X09251Y04644*
X09687*
X09715Y04615*
X09717Y04606*
X09722Y04598*
X0973Y04593*
X0974Y04591*
X09749Y04593*
X09757Y04598*
X09762Y04606*
X09764Y04615*
X09762Y04625*
X09757Y04633*
X09749Y04638*
X0974Y0464*
X09706Y04673*
X09701Y04677*
X09694Y04678*
G37*
G36*
X09695Y04521D02*
X09244D01*
X09238Y04519*
X09232Y04516*
X09198Y04481*
X09189Y0448*
X09181Y04474*
X09176Y04466*
X09174Y04457*
X09176Y04448*
X09181Y0444*
X09189Y04435*
X09198Y04433*
X09208Y04435*
X09216Y0444*
X09221Y04448*
X09223Y04457*
X09251Y04486*
X09687*
X09715Y04457*
X09717Y04448*
X09722Y0444*
X0973Y04435*
X0974Y04433*
X09749Y04435*
X09757Y0444*
X09762Y04448*
X09764Y04457*
X09762Y04466*
X09757Y04474*
X09749Y0448*
X0974Y04481*
X09709Y04512*
X09707Y04516*
X09701Y04519*
X09695Y04521*
G37*
G36*
Y04361D02*
X09243D01*
X09237Y0436*
X09231Y04356*
X09198Y04324*
X09189Y04322*
X09181Y04316*
X09176Y04309*
X09174Y04299*
X09176Y0429*
X09181Y04282*
X09189Y04277*
X09198Y04275*
X09208Y04277*
X09216Y04282*
X09221Y0429*
X09223Y04299*
X0925Y04327*
X09688*
X09715Y04299*
X09717Y0429*
X09722Y04282*
X0973Y04277*
X0974Y04275*
X09749Y04277*
X09757Y04282*
X09762Y0429*
X09764Y04299*
X09762Y04309*
X09757Y04316*
X09749Y04322*
X0974Y04324*
X09707Y04356*
X09701Y0436*
X09695Y04361*
G37*
G36*
X05525Y04264D02*
X05516Y04262D01*
X05508Y04259*
X05501Y04254*
X05496Y04247*
X05492Y04238*
X05491Y0423*
X05492Y04221*
X05496Y04213*
X05501Y04206*
X05508Y042*
X05516Y04197*
X05525Y04196*
X05534Y04197*
X05542Y042*
X05549Y04206*
X05555Y04213*
X05558Y04221*
X05559Y0423*
X05558Y04238*
X05555Y04247*
X05549Y04254*
X05542Y04259*
X05534Y04262*
X05525Y04264*
G37*
G36*
X06883Y04363D02*
X06867Y04361D01*
X06851Y04357*
X06837Y04349*
X06824Y04338*
X06813Y04325*
X06805Y04311*
X06801Y04295*
X06799Y04279*
X06801Y04262*
X06805Y04246*
X06813Y04232*
X06824Y04219*
X06837Y04209*
X06851Y04201*
X06867Y04196*
X06883Y04194*
X069Y04196*
X06916Y04201*
X0693Y04209*
X06943Y04219*
X06953Y04232*
X06961Y04246*
X06966Y04262*
X06968Y04279*
X06966Y04295*
X06961Y04311*
X06953Y04325*
X06943Y04338*
X0693Y04349*
X06916Y04357*
X069Y04361*
X06883Y04363*
G37*
G36*
X09694Y04204D02*
X09244D01*
X09237Y04202*
X09231Y04199*
X09198Y04166*
X09189Y04164*
X09181Y04159*
X09176Y04151*
X09174Y04141*
X09176Y04132*
X09181Y04124*
X09189Y04119*
X09198Y04117*
X09208Y04119*
X09216Y04124*
X09221Y04132*
X09223Y04141*
X09251Y04169*
X09687*
X09715Y04141*
X09717Y04132*
X09722Y04124*
X0973Y04119*
X0974Y04117*
X09749Y04119*
X09757Y04124*
X09762Y04132*
X09764Y04141*
X09762Y04151*
X09757Y04159*
X09749Y04164*
X0974Y04166*
X09707Y04199*
X09701Y04202*
X09694Y04204*
G37*
G36*
X06269Y04674D02*
X06243Y04672D01*
X06217Y04667*
X06192Y04659*
X06168Y04647*
X06146Y04633*
X06126Y04615*
X06109Y04595*
X06094Y04573*
X06082Y0455*
X06074Y04524*
X06069Y04498*
X06067Y04472*
X06069Y04446*
X06074Y0442*
X06082Y04394*
X06094Y04371*
X06109Y04349*
X06126Y04329*
X06146Y04311*
X06168Y04297*
X06192Y04285*
X06217Y04277*
X06217*
X06217Y04272*
X06102*
X06098Y04271*
X06095Y04268*
X06092Y04265*
X06092Y04261*
Y04192*
X06092Y04188*
X06095Y04185*
X06098Y04183*
X06102Y04182*
X06348*
Y04125*
X06348Y04121*
X06351Y04117*
X06354Y04115*
X06358Y04114*
X06437*
X0644Y04115*
X06444Y04117*
X06446Y04121*
X06447Y04125*
Y04259*
X06446Y04263*
X06445Y04265*
X06443Y04268*
X0644Y04271*
X06436Y04272*
X06322*
X06321Y04277*
X06322*
X06347Y04285*
X0637Y04297*
X06392Y04311*
X06412Y04329*
X0643Y04349*
X06444Y04371*
X06456Y04394*
X06464Y0442*
X0647Y04446*
X06472Y04472*
X0647Y04498*
X06464Y04524*
X06456Y0455*
X06444Y04573*
X0643Y04595*
X06412Y04615*
X06392Y04633*
X0637Y04647*
X06347Y04659*
X06322Y04667*
X06296Y04672*
X06269Y04674*
G37*
G36*
X07708Y05122D02*
X07086D01*
X07082Y05121*
X07079Y05119*
X07077Y05115*
X07076Y05111*
Y05029*
X07077Y05025*
X07079Y05022*
X07082Y0502*
X07086Y05019*
X07633*
Y04138*
X07525*
X07521Y04137*
X07518Y04135*
X07516Y04131*
X07515Y04127*
Y04062*
X07516Y04059*
X07518Y04055*
X07521Y04053*
X07525Y04052*
X07675*
X07708*
X07712Y04053*
X07715Y04055*
X07718Y04059*
X07718Y04062*
Y04124*
Y05111*
X07718Y05115*
X07715Y05119*
X07712Y05121*
X07708Y05122*
G37*
G36*
X06883Y04153D02*
X06867Y04151D01*
X06851Y04146*
X06837Y04138*
X06824Y04128*
X06813Y04115*
X06805Y04101*
X06801Y04085*
X06799Y04068*
X06801Y04052*
X06805Y04036*
X06813Y04022*
X06824Y04009*
X06837Y03998*
X06851Y0399*
X06867Y03986*
X06883Y03984*
X069Y03986*
X06916Y0399*
X0693Y03998*
X06943Y04009*
X06953Y04022*
X06961Y04036*
X06966Y04052*
X06968Y04068*
X06966Y04085*
X06961Y04101*
X06953Y04115*
X06943Y04128*
X0693Y04138*
X06916Y04146*
X069Y04151*
X06883Y04153*
G37*
%LNslave-3*%
%LPD*%
G36*
X06757Y0537D02*
Y05153D01*
X06685*
Y05305*
X06593*
X06591Y05314*
X06586Y05322*
X06578Y05327*
X06569Y05329*
X06559Y05327*
X06551Y05322*
X06546Y05314*
X06544Y05305*
X06198*
Y05253*
X05954*
Y05356*
X06139*
X06142Y05351*
X06138Y05346*
X06137Y05336*
X06138Y05327*
X06144Y05319*
X06151Y05314*
X06161Y05312*
X0617Y05314*
X06178Y05319*
X06183Y05327*
X06185Y05336*
X06183Y05346*
X0618Y05351*
X06183Y05356*
X06192*
X06217Y05348*
X06243Y05342*
X06269Y0534*
X06296Y05342*
X06322Y05348*
X06346Y05356*
X06437*
Y05372*
X06757*
X06757Y0537*
G37*
G36*
X07102Y05195D02*
X06853D01*
Y05285*
X07102*
Y05195*
G37*
G36*
X0608Y04781D02*
X06364D01*
X06478Y04667*
Y04613*
X06474Y0461*
X06448*
X06343Y04707*
X06056Y04705*
X06053Y04709*
Y04781*
Y05198*
X0608*
Y04781*
G37*
G36*
X06824Y05683D02*
X06919D01*
Y0561*
X06712*
Y0586*
X06824*
Y05683*
G37*
G36*
X06437Y04259D02*
Y04125D01*
X06358*
Y04192*
X06102*
Y04261*
X06436*
X06437Y04259*
G37*
G36*
X07708Y04124D02*
D01*
Y04062*
X07675*
X07525*
Y04127*
X07643*
Y05029*
X07086*
Y05111*
X07708*
Y04124*
G37*
G54D13*
X05658Y04848D02*
X0597D01*
X05607Y04899D02*
X05658Y04848D01*
X16383Y04899D02*
Y05407D01*
X15998Y05793D02*
X16383Y05407D01*
X15383Y05793D02*
X15998D01*
X16317Y05361D02*
X1635Y05328D01*
Y04899D02*
Y05328D01*
X16317Y04866D02*
X1635Y04899D01*
X06685Y04885D02*
X06972Y04598D01*
X07564*
X07771Y04006D02*
Y05141D01*
X06985Y04657D02*
X07564D01*
X06712Y04929D02*
X06985Y04657D01*
X07523Y05389D02*
X07771Y05141D01*
X07022Y04701D02*
X07564D01*
X0675Y04973D02*
X07022Y04701D01*
X05853Y05778D02*
X06434D01*
X05544Y05468D02*
X05853Y05778D01*
X07076Y0559D02*
Y05923D01*
X06838Y05352D02*
X07076Y0559D01*
X07587Y06029D02*
X13753D01*
X07246Y05687D02*
X07587Y06029D01*
X13753D02*
X13988Y05795D01*
X16383Y04899D02*
X16417Y04866D01*
X12852Y06011D02*
X12986Y05877D01*
X07725Y06011D02*
X12852D01*
X07059Y04749D02*
X07564D01*
X06803Y05005D02*
X07059Y04749D01*
X07103Y04796D02*
X07564D01*
X06855Y05045D02*
X07103Y04796D01*
X06345Y05045D02*
X06855D01*
X06397Y04973D02*
X0675D01*
X06901Y05084D02*
X07142Y04844D01*
X07564*
X0664Y04841D02*
X06923Y04559D01*
X07566*
X07246Y0558D02*
Y05687D01*
X07076Y05362D02*
X07725Y06011D01*
X06838Y05173D02*
Y05352D01*
X06508Y05244D02*
X06569Y05305D01*
X06291Y05244D02*
X06508D01*
X06308Y05218D02*
X0659D01*
X06174Y05084D02*
X06308Y05218D01*
X06312Y05137D02*
X06913D01*
X06315Y05183D02*
X06606D01*
X06397Y05084D02*
X06901D01*
X06217D02*
X06315Y05183D01*
X06131Y05084D02*
X06291Y05244D01*
X06407Y04797D02*
X06503Y047D01*
Y04401D02*
Y047D01*
Y04401D02*
X06545Y0436D01*
X15381Y05795D02*
X15383Y05793D01*
X06434Y05778D02*
X0644Y05771D01*
X07226Y05389D02*
X07523D01*
X06397Y04841D02*
X0664D01*
X06409Y05005D02*
X06803D01*
X07159Y04891D02*
X07564D01*
X06913Y05137D02*
X07159Y04891D01*
X06259Y05084D02*
X06312Y05137D01*
X06397Y04885D02*
X06685D01*
X06397Y04929D02*
X06712D01*
X06397Y04797D02*
X06407D01*
X06397Y05017D02*
X06409Y05005D01*
X06029Y05923D02*
X07076D01*
X06305Y05084D02*
X06345Y05045D01*
X06Y04187D02*
X06033Y04153D01*
X06Y04187D02*
Y04986D01*
X05931Y04946D02*
X0597Y04907D01*
X05582Y04946D02*
X05931D01*
X05535Y04899D02*
X05582Y04946D01*
G54D96*
X04551Y04613D02*
X04801Y04364D01*
X04551Y04613D02*
Y0472D01*
Y04796*
X0434Y0472D02*
X04551D01*
X04425Y04922D02*
X04551Y04796D01*
X04734Y05072D02*
X04889D01*
X04583Y04922D02*
X04734Y05072D01*
X04425Y04922D02*
X04583D01*
X04891Y04364D02*
X05025Y0423D01*
X04801Y04364D02*
X04891D01*
X04366Y04982D02*
X04425Y04922D01*
X04244Y04982D02*
X04366D01*
X11417Y04929D02*
X11576Y04769D01*
X10496Y04929D02*
X11417D01*
X10376Y04809D02*
X10496Y04929D01*
X10419Y04988D02*
X11469D01*
X10398Y04967D02*
X10419Y04988D01*
X10232Y04967D02*
X10398D01*
X08234Y04205D02*
Y04387D01*
X14893Y04905D02*
Y05974D01*
X14834Y04846D02*
X14893Y04905D01*
X04005Y04744D02*
X04244Y04982D01*
X04005Y04431D02*
Y04744D01*
X08477Y03962D02*
X12618D01*
X08234Y04205D02*
X08477Y03962D01*
X15188Y04846D02*
X1525Y04907D01*
Y05523*
X12436Y04062D02*
X12498Y04125D01*
X10232Y04062D02*
X12436D01*
X12726Y0421D02*
X12781Y04265D01*
X11651Y0421D02*
X12726D01*
X11171Y0469D02*
X11651Y0421D01*
X10799Y0469D02*
X11171D01*
X10285Y04177D02*
X10799Y0469D01*
X10232Y04177D02*
X10285D01*
X12727Y0435D02*
X12781Y04404D01*
X11622Y0435D02*
X12727D01*
X11222Y0475D02*
X11622Y0435D01*
X10742Y0475D02*
X11222D01*
X10327Y04335D02*
X10742Y0475D01*
X10232Y04335D02*
X10327D01*
X12728Y0449D02*
X12781Y04543D01*
X1162Y0449D02*
X12728D01*
X113Y04809D02*
X1162Y0449D01*
X10663Y04809D02*
X113D01*
X10347Y04493D02*
X10663Y04809D01*
X10232Y04493D02*
X10347D01*
X12726Y04627D02*
X12781Y04683D01*
X11572Y04627D02*
X12726D01*
X1133Y0487D02*
X11572Y04627D01*
X10574Y0487D02*
X1133D01*
X10355Y04651D02*
X10574Y0487D01*
X10232Y04651D02*
X10355D01*
X12726Y04907D02*
X12781Y04962D01*
X1155Y04907D02*
X12726D01*
X11469Y04988D02*
X1155Y04907D01*
X12728Y04769D02*
X12781Y04822D01*
X11576Y04769D02*
X12728D01*
X10232Y04809D02*
X10376D01*
X12726Y05047D02*
X12781Y05102D01*
X1031Y05047D02*
X12726D01*
X10232Y05125D02*
X1031Y05047D01*
X12727Y05187D02*
X12781Y0524D01*
X11559Y05187D02*
X12727D01*
X11474Y05102D02*
X11559Y05187D01*
X10417Y05102D02*
X11474D01*
X10236Y05283D02*
X10417Y05102D01*
X10232Y05283D02*
X10236D01*
X12726Y05324D02*
X12781Y05379D01*
X11586Y05324D02*
X12726D01*
X11419Y05157D02*
X11586Y05324D01*
X10486Y05157D02*
X11419D01*
X10232Y05411D02*
X10486Y05157D01*
X10232Y05411D02*
Y05441D01*
X12727Y05464D02*
X12781Y05518D01*
X11596Y05464D02*
X12727D01*
X11346Y05214D02*
X11596Y05464D01*
X10547Y05214D02*
X11346D01*
X10232Y05529D02*
X10547Y05214D01*
X10232Y05529D02*
Y05599D01*
X12726Y05602D02*
X12781Y05657D01*
X11596Y05602D02*
X12726D01*
X11263Y05269D02*
X11596Y05602D01*
X10649Y05269D02*
X11263D01*
X10232Y05687D02*
X10649Y05269D01*
X10232Y05687D02*
Y05757D01*
X12781Y05797D02*
X12818Y05834D01*
X12778Y04122D02*
X12781D01*
X12618Y03962D02*
X12778Y04122D01*
X12781D02*
X1369D01*
X12781Y04265D02*
X12838Y04208D01*
X12781Y04404D02*
X12784D01*
X12937Y04251*
X12781Y04543D02*
X12943Y04705D01*
Y04708*
X12781Y04683D02*
Y04686D01*
X12855Y04759*
X13828Y04822D02*
X13831Y04825D01*
X12781Y04822D02*
X13828D01*
X12781Y04962D02*
Y04965D01*
X12874Y05059*
X12781Y05102D02*
X13742D01*
X12781Y0524D02*
X13781D01*
X12781Y05379D02*
X12784D01*
X12843Y0532*
X12781Y05518D02*
X13026Y05763D01*
X13078*
X12781Y05657D02*
X12923Y05799D01*
X12996*
X12818Y05834D02*
X12909D01*
X13078Y05763D02*
X1362D01*
X12909Y05834D02*
X13749D01*
X13862Y05722*
X1362Y05763D02*
X13862Y05522D01*
X14775Y03998D02*
Y04112D01*
X14657Y03962D02*
Y04112D01*
X14893Y04033D02*
Y04112D01*
X1369Y04122D02*
X13862Y04295D01*
X13675Y04208D02*
X13862Y04395D01*
X12838Y04208D02*
X13675D01*
X12937Y04251D02*
X13618D01*
X13862Y04495*
X13748Y04708D02*
X13862Y04595D01*
X12943Y04708D02*
X13748D01*
X13797Y04759D02*
X13862Y04695D01*
X12855Y04759D02*
X13797D01*
X13831Y04825D02*
X13862Y04795D01*
X13799Y05059D02*
X13862Y05122D01*
X12874Y05059D02*
X13799D01*
X13742Y05102D02*
X13862Y05222D01*
X13781Y0524D02*
X13862Y05322D01*
X12843Y0532D02*
X13761D01*
X13862Y05422*
X13685Y05799D02*
X13862Y05622D01*
X12996Y05799D02*
X13685D01*
X15307Y04846D02*
X15624Y05163D01*
X14598Y04846D02*
X14657Y04905D01*
X1507Y04846D02*
X15129Y04905D01*
Y05903*
X14952Y04846D02*
X15011Y04905D01*
Y05938*
X14716Y04846D02*
X14775Y04905D01*
Y06009*
X14657Y04905D02*
Y06045D01*
X14255Y04294D02*
X14755D01*
X14255Y04394D02*
X14737D01*
X14718Y04494D02*
X1507Y04846D01*
X14255Y04494D02*
X14718D01*
X147Y04594D02*
X14952Y04846D01*
X14255Y04594D02*
X147D01*
X14682Y04694D02*
X14834Y04846D01*
X14255Y04694D02*
X14682D01*
X14664Y04794D02*
X14716Y04846D01*
X14255Y04794D02*
X14664D01*
X14737Y04394D02*
X15188Y04846D01*
X14755Y04294D02*
X15307Y04846D01*
G54D99*
X09244Y04187D02*
X09694D01*
X09198Y04141D02*
X09244Y04187D01*
X09694D02*
X0974Y04141D01*
X09695Y04344D02*
X0974Y04299D01*
X09243Y04344D02*
X09695D01*
X09198Y04299D02*
X09243Y04344D01*
X09695Y04502D02*
X0974Y04457D01*
X09695Y04502D02*
Y04503D01*
X09244D02*
X09695D01*
X09198Y04457D02*
X09244Y04503D01*
X09694Y04661D02*
X0974Y04615D01*
X09244Y04661D02*
X09694D01*
X09198Y04615D02*
X09244Y04661D01*
X09695Y04818D02*
X0974Y04774D01*
X09243Y04818D02*
X09695D01*
X09198Y04774D02*
X09243Y04818D01*
X09695Y04976D02*
X0974Y04931D01*
X09243Y04976D02*
X09695D01*
X09198Y04931D02*
X09243Y04976D01*
X09696Y05133D02*
X0974Y05089D01*
X09242Y05133D02*
X09696D01*
X09198Y05089D02*
X09242Y05133D01*
X09694Y05293D02*
X0974Y05248D01*
X09244Y05293D02*
X09694D01*
X09198Y05248D02*
X09244Y05293D01*
X09695Y0545D02*
X0974Y05405D01*
X09243Y0545D02*
X09695D01*
X09198Y05405D02*
X09243Y0545D01*
X09695Y05608D02*
X0974Y05563D01*
X09243Y05608D02*
X09695D01*
X09198Y05563D02*
X09243Y05608D01*
X09692Y05767D02*
X0974Y0572D01*
X09244Y05767D02*
X09692D01*
X09198Y05722D02*
X09244Y05767D01*
X09694Y05925D02*
X0974Y05879D01*
X09244Y05925D02*
X09694D01*
X09198Y05879D02*
X09244Y05925D01*
G54D100*
X05525Y0423D03*
X05325D03*
X05025D03*
X04925D03*
G54D101*
X13141Y04956D03*
X12931D03*
X06883Y04068D03*
Y04279D03*
X16262Y05137D03*
X16472D03*
X05212Y05903D03*
Y05693D03*
X07974Y05646D03*
Y05856D03*
G54D102*
X13356Y04472D03*
X15718D03*
X17076Y05375D03*
X15718Y05543D03*
X13356D03*
X10994D03*
X08631D03*
X06269D03*
X04094Y05708D03*
X06269Y04472D03*
X08631D03*
X10994D03*
X17076Y04639D03*
G54D103*
X04551Y0472D03*
X04889Y05072D03*
X04425Y04922D03*
X0434Y0472D03*
X14257Y05849D03*
X08234Y04387D03*
X06856Y05842D03*
X06146Y04905D03*
X05607Y04899D03*
X05962Y04572D03*
X05793Y05549D03*
X07564Y04598D03*
X06582Y04559D03*
X05447Y04797D03*
X04244Y04982D03*
X05505Y04562D03*
X05454Y05073D03*
X05525Y04017D03*
X05486D03*
X05567D03*
X05486Y04057D03*
X05525D03*
X05567D03*
X07885Y05057D03*
Y05099D03*
Y05138D03*
X07771Y04006D03*
X07564Y04653D03*
X07846Y05057D03*
Y05138D03*
Y05099D03*
X1525Y05523D03*
X06307Y0493D03*
X0619Y04818D03*
X07214Y04956D03*
X07277Y05509D03*
X07128Y05549D03*
X06946Y05552D03*
X07015Y05738D03*
X05917Y04876D03*
X07553Y05937D03*
X07446Y0439D03*
X16317Y05361D03*
Y04866D03*
X13125Y05877D03*
X12889D03*
X12986D03*
X06161Y05336D03*
X07425Y04627D03*
X05946Y0398D03*
Y04142D03*
X07468Y05258D03*
X0736Y04933D03*
X05468Y05466D03*
X07564Y04749D03*
Y04796D03*
X07566Y04559D03*
X07446Y04496D03*
X05445Y04923D03*
X06887Y05647D03*
X06767Y05818D03*
X07246Y0558D03*
X05544Y05468D03*
X06874Y05251D03*
X07068Y05226D03*
X06569Y05305D03*
X0659Y05218D03*
X06606Y05183D03*
X05984Y05284D03*
X06397Y05342D03*
X06838Y05173D03*
X06789D03*
X07076Y05362D03*
X06726Y05173D03*
X06453Y04635D03*
X06066Y05185D03*
Y0475D03*
X13988Y05795D03*
X15381D03*
X16417Y04866D03*
X0644Y05771D03*
X07311Y05433D03*
X07226Y05389D03*
X06401Y04175D03*
X06144Y0423D03*
X07572Y04095D03*
X07679Y0496D03*
X07362Y05072D03*
X07143Y05081D03*
X12498Y04125D03*
X10232Y04062D03*
Y04177D03*
Y04335D03*
Y04493D03*
Y04651D03*
Y04809D03*
Y04967D03*
Y05125D03*
Y05283D03*
Y05441D03*
Y05599D03*
Y05757D03*
X0974Y04141D03*
Y04299D03*
Y04457D03*
Y04615D03*
Y04774D03*
Y04931D03*
Y05089D03*
Y05248D03*
Y05405D03*
Y05563D03*
Y0572D03*
Y05879D03*
X09602D03*
Y04141D03*
Y04299D03*
Y04457D03*
Y04615D03*
Y04774D03*
Y04931D03*
Y05089D03*
Y05248D03*
Y05405D03*
Y05563D03*
Y05722D03*
X09198Y04141D03*
Y04299D03*
Y04457D03*
Y04615D03*
Y04774D03*
Y04931D03*
Y05089D03*
Y05248D03*
Y05405D03*
Y05563D03*
Y05722D03*
Y05879D03*
X04005Y04431D03*
X07564Y04701D03*
X06397Y05017D03*
Y04929D03*
Y04841D03*
Y04885D03*
Y04973D03*
Y04797D03*
X06545Y0436D03*
X07076Y05923D03*
X06029D03*
X06217Y05084D03*
X06259D03*
X06174D03*
X06033Y04153D03*
X06Y04986D03*
X06131Y05084D03*
X07564Y04844D03*
Y04891D03*
X06397Y05084D03*
X06305D03*
X0597Y04848D03*
Y04907D03*
X05535Y04899D03*
X14775Y03998D03*
X14657Y03962D03*
X12781Y04122D03*
Y04265D03*
Y04404D03*
Y04543D03*
Y04683D03*
Y04822D03*
Y04962D03*
Y05102D03*
Y0524D03*
Y05379D03*
Y05518D03*
Y05657D03*
Y05797D03*
X15624Y05163D03*
X13862Y05622D03*
Y05522D03*
Y05422D03*
Y05322D03*
Y05222D03*
Y05122D03*
Y04795D03*
Y04695D03*
Y04595D03*
Y04495D03*
Y04395D03*
Y04295D03*
Y05722D03*
Y04895D03*
X14255Y04894D03*
X15129Y05903D03*
X15011Y05938D03*
X14893Y05974D03*
X14775Y06009D03*
X14657Y06045D03*
X14598Y04846D03*
X14716D03*
X14893Y04112D03*
X14775D03*
X14657D03*
X14893Y04033D03*
X14952Y04846D03*
X14834D03*
X14255Y04294D03*
Y04394D03*
Y04494D03*
Y04594D03*
Y04694D03*
Y04794D03*
Y05121D03*
Y05221D03*
X15307Y04846D03*
X15188D03*
X1507D03*
X15307Y05238D03*
X14716D03*
X14598D03*
M02*