%FSTAX23Y23*%
%MOIN*%
%SFA1B1*%

%IPPOS*%
%ADD13C,0.009843*%
%ADD14C,0.007874*%
%ADD104C,0.005905*%
%LNslave-1*%
%LPD*%
G54D13*
X03937Y03545D02*
X03996Y03565D01*
X03937Y03545D02*
X03996Y03525D01*
X1715D02*
X1721Y03545D01*
X1715Y03565D02*
X1721Y03545D01*
X03937D02*
X10381D01*
X10733D02*
X1721D01*
X03937Y03535D02*
Y03923D01*
X1721Y03535D02*
Y04468D01*
X03153Y06078D02*
X03173Y06018D01*
X03133D02*
X03153Y06078D01*
X03133Y03996D02*
X03153Y03937D01*
X03173Y03996*
X03153Y05142D02*
Y06078D01*
Y03937D02*
Y0484D01*
X03143Y06078D02*
X03923D01*
X03143Y03937D02*
X03923D01*
G54D14*
X1721Y04482D02*
Y05533D01*
X1684D02*
X1721D01*
X1684Y04482D02*
X1721D01*
X1684Y03937D02*
Y04482D01*
Y05533D02*
Y06078D01*
X04094Y05708D02*
X04346D01*
X03937Y06078D02*
X1684D01*
X03937Y03937D02*
X1684D01*
X03937D02*
Y06078D01*
G54D104*
X10398Y03559D02*
X10407Y03569D01*
X10427*
X10437Y03559*
Y03549*
X10427Y03539*
X10417*
X10427*
X10437Y03529*
Y03519*
X10427Y03509*
X10407*
X10398Y03519*
X10457Y03559D02*
X10467Y03569D01*
X10487*
X10498Y03559*
Y03549*
X10487Y03539*
X10477*
X10487*
X10498Y03529*
Y03519*
X10487Y03509*
X10467*
X10457Y03519*
X10517Y03569D02*
X10557D01*
Y03559*
X10517Y03519*
Y03509*
X10577D02*
Y03519D01*
X10587*
Y03509*
X10577*
X10627D02*
X10647D01*
X10637*
Y03569*
X10627Y03559*
X10717Y03569D02*
X10677D01*
Y03539*
X10697Y03549*
X10707*
X10717Y03539*
Y03519*
X10707Y03509*
X10687*
X10677Y03519*
X03129Y04896D02*
Y04857D01*
X03159*
X03149Y04876*
Y04887*
X03159Y04896*
X03179*
X03189Y04887*
Y04866*
X03179Y04857*
X03189Y04946D02*
X03129D01*
X03159Y04916*
Y04956*
X03189Y04976D02*
X03179D01*
Y04987*
X03189*
Y04976*
Y05056D02*
X03129D01*
X03159Y05026*
Y05066*
X03139Y05087D02*
X03129Y05096D01*
Y05116*
X03139Y05126*
X03179*
X03189Y05116*
Y05096*
X03179Y05087*
X03139*
M02*