%FSTAX23Y23*%
%MOIN*%
%SFA1B1*%

%IPPOS*%
%AMD38*
4,1,8,0.032500,-0.088800,0.032500,0.088800,0.016300,0.104900,-0.016300,0.104900,-0.032500,0.088800,-0.032500,-0.088800,-0.016300,-0.104900,0.016300,-0.104900,0.032500,-0.088800,0.0*
1,1,0.032283,0.016300,-0.088800*
1,1,0.032283,0.016300,0.088800*
1,1,0.032283,-0.016300,0.088800*
1,1,0.032283,-0.016300,-0.088800*
%
%AMD39*
4,1,8,-0.088800,-0.032500,0.088800,-0.032500,0.104900,-0.016300,0.104900,0.016300,0.088800,0.032500,-0.088800,0.032500,-0.104900,0.016300,-0.104900,-0.016300,-0.088800,-0.032500,0.0*
1,1,0.032283,-0.088800,-0.016300*
1,1,0.032283,0.088800,-0.016300*
1,1,0.032283,0.088800,0.016300*
1,1,0.032283,-0.088800,0.016300*
%
%AMD50*
4,1,8,0.026000,0.034400,-0.026000,0.034400,-0.043300,0.017100,-0.043300,-0.017100,-0.026000,-0.034400,0.026000,-0.034400,0.043300,-0.017100,0.043300,0.017100,0.026000,0.034400,0.0*
1,1,0.034646,0.026000,0.017100*
1,1,0.034646,-0.026000,0.017100*
1,1,0.034646,-0.026000,-0.017100*
1,1,0.034646,0.026000,-0.017100*
%
%ADD21R,0.027559X0.041339*%
%ADD22R,0.051181X0.059055*%
%ADD23R,0.059055X0.051181*%
%ADD24R,0.023622X0.057087*%
%ADD25O,0.023622X0.057087*%
%ADD26R,0.055118X0.049212*%
%ADD27R,0.043307X0.051181*%
%ADD28R,0.049212X0.055118*%
%ADD29R,0.053150X0.070866*%
%ADD30R,0.070866X0.053150*%
%ADD31R,0.047244X0.027559*%
%ADD32R,0.059055X0.084645*%
%ADD33R,0.149606X0.084645*%
%ADD34R,0.135039X0.064960*%
%ADD35R,0.050000X0.100000*%
%ADD36R,0.096457X0.062992*%
%ADD37R,0.050000X0.114960*%
G04~CAMADD=38~8~0.0~0.0~2098.4~649.6~161.4~0.0~15~0.0~0.0~0.0~0.0~0~0.0~0.0~0.0~0.0~0~0.0~0.0~0.0~270.0~650.0~2098.0*
%ADD38D38*%
G04~CAMADD=39~8~0.0~0.0~2098.4~649.6~161.4~0.0~15~0.0~0.0~0.0~0.0~0~0.0~0.0~0.0~0.0~0~0.0~0.0~0.0~180.0~2098.0~649.0*
%ADD39D39*%
%ADD40O,0.064960X0.027559*%
%ADD41R,0.043307X0.027559*%
%ADD42R,0.071653X0.054724*%
%ADD43R,0.054724X0.071653*%
%ADD44R,0.070866X0.011811*%
%ADD45O,0.070866X0.011811*%
%ADD46O,0.011811X0.070866*%
%ADD47R,0.133858X0.043307*%
%ADD48R,0.100000X0.050000*%
%ADD49R,0.064960X0.135039*%
G04~CAMADD=50~8~0.0~0.0~866.1~689.0~173.2~0.0~15~0.0~0.0~0.0~0.0~0~0.0~0.0~0.0~0.0~0~0.0~0.0~0.0~0.0~866.1~689.0*
%ADD50D50*%
%ADD51R,0.078740X0.078740*%
%ADD52O,0.059055X0.013780*%
%ADD53R,0.078740X0.255905*%
%ADD54R,0.025591X0.033465*%
%ADD55R,0.066929X0.062992*%
%ADD56R,0.041339X0.015748*%
%LNslave-1*%
%LPD*%
G54D21*
X05789Y0488D03*
X05864D03*
Y04776D03*
X05826D03*
X05789D03*
G54D22*
X09472Y05879D03*
X09543D03*
X09472Y05722D03*
X09543D03*
X09472Y05563D03*
X09543D03*
X09472Y05405D03*
X09543D03*
X09472Y05248D03*
X09543D03*
X09472Y05089D03*
X09543D03*
X09472Y04931D03*
X09543D03*
X09472Y04774D03*
X09543D03*
X09472Y04615D03*
X09543D03*
X09472Y04457D03*
X09543D03*
X09472Y04299D03*
X09543D03*
X09472Y04141D03*
X09543D03*
X06049Y05284D03*
X0612D03*
X07029Y05293D03*
X06958D03*
X06273Y05284D03*
X06202D03*
X05688Y04142D03*
X05618D03*
X05859Y04572D03*
X05788D03*
X05789Y04679D03*
X0586D03*
X07937Y04095D03*
X07866D03*
X07898Y04647D03*
X07969D03*
X06468Y05284D03*
X06397D03*
X07029Y04501D03*
X06958D03*
X09717Y05802D03*
X09648D03*
X09717Y05641D03*
X09648D03*
X09717Y05483D03*
X09648D03*
X09717Y05325D03*
X09648D03*
X09717Y05168D03*
X09648D03*
X09717Y0501D03*
X09648D03*
X09717Y04852D03*
X09648D03*
X09717Y04694D03*
X09648D03*
X09717Y04536D03*
X09648D03*
X09717Y04378D03*
X09648D03*
X09717Y0422D03*
X09648D03*
X09717Y04062D03*
X09648D03*
X09871Y05879D03*
X09802D03*
X09871Y05722D03*
X09802D03*
X09871Y05563D03*
X09802D03*
X09871Y05405D03*
X09802D03*
X09871Y05248D03*
X09802D03*
X09871Y05089D03*
X09802D03*
X09871Y04931D03*
X09802D03*
X09871Y04774D03*
X09802D03*
X09871Y04615D03*
X09802D03*
X09871Y04457D03*
X09802D03*
X09871Y04299D03*
X09802D03*
X09871Y04141D03*
X09802D03*
X08125Y04472D03*
X08056D03*
X05798Y05169D03*
X05729D03*
X07211Y0439D03*
X07142D03*
X0729D03*
X07359D03*
X07212Y05017D03*
X07144D03*
X07212Y04496D03*
X07143D03*
X0729D03*
X07359D03*
X07212Y04602D03*
X07143D03*
X0729D03*
X07359D03*
X07212Y04708D03*
X07144D03*
X07291D03*
X0736D03*
X07144Y04887D03*
X07212D03*
X07291D03*
X0736D03*
X07212Y05145D03*
X07144D03*
X07291D03*
X0736D03*
X05857Y04142D03*
X05788D03*
X0572Y04982D03*
X05789D03*
X04721Y04659D03*
X0479D03*
X04541Y04922D03*
X04612D03*
X06513Y04478D03*
X06582D03*
X06729D03*
X0666D03*
G54D23*
X0938Y05844D03*
Y05915D03*
Y05686D03*
Y05757D03*
Y05528D03*
Y05599D03*
Y0537D03*
Y05441D03*
X06629Y04974D03*
Y05045D03*
X05962Y04679D03*
Y0475D03*
X0666Y04564D03*
Y04635D03*
X05685Y05404D03*
Y05333D03*
X06514Y04564D03*
Y04635D03*
X05456Y04747D03*
Y04676D03*
X04879Y04747D03*
Y04818D03*
X04655Y04039D03*
Y0411D03*
X05505Y04494D03*
Y04423D03*
X0938Y05212D03*
Y05283D03*
Y05054D03*
Y05125D03*
Y04896D03*
Y04967D03*
Y04738D03*
Y04809D03*
Y0458D03*
Y04651D03*
Y04422D03*
Y04493D03*
Y04264D03*
Y04335D03*
Y04106D03*
Y04177D03*
X0797Y04401D03*
Y04472D03*
X07663Y05145D03*
Y05074D03*
X07566Y05145D03*
Y05074D03*
X07468Y05145D03*
Y05074D03*
X05698Y04811D03*
Y04881D03*
X12498Y05797D03*
Y05728D03*
Y05657D03*
Y05588D03*
Y05518D03*
Y0545D03*
X09966Y04694D03*
Y04763D03*
Y04536D03*
Y04605D03*
Y04378D03*
Y04447D03*
Y0422D03*
Y04289D03*
Y04062D03*
Y04131D03*
X12498Y05379D03*
Y05311D03*
Y0524D03*
Y05172D03*
Y05102D03*
Y05033D03*
Y04962D03*
Y04893D03*
Y04822D03*
Y04753D03*
Y04683D03*
Y04614D03*
Y04543D03*
Y04474D03*
Y04404D03*
Y04335D03*
Y04265D03*
Y04196D03*
X09966Y05802D03*
Y05871D03*
Y05641D03*
Y0571D03*
Y05483D03*
Y05552D03*
Y05325D03*
Y05394D03*
Y05168D03*
Y05237D03*
Y0501D03*
Y05079D03*
Y04852D03*
Y04921D03*
X04698Y04866D03*
Y04797D03*
X08074Y04647D03*
X08075Y04578D03*
X07559Y04292D03*
Y04224D03*
X05905Y05404D03*
Y05335D03*
X05905Y05169D03*
Y05238D03*
X05545Y04747D03*
Y04678D03*
Y05097D03*
Y05166D03*
X05688Y0398D03*
Y04049D03*
X05601Y04492D03*
Y04423D03*
X05929Y04303D03*
Y04372D03*
X06039Y0398D03*
Y04049D03*
X06145D03*
Y0398D03*
X07144Y05327D03*
Y05258D03*
X07252Y05327D03*
Y05258D03*
X0736Y05327D03*
Y05258D03*
Y05733D03*
Y05801D03*
X04698Y05047D03*
Y04978D03*
X04564Y04039D03*
Y0411D03*
G54D24*
X05688Y0423D03*
G54D25*
X05738Y0423D03*
X05788D03*
X05838D03*
X05688Y04444D03*
X05738D03*
X05788D03*
X05838D03*
G54D26*
X1242Y05728D03*
X12333D03*
Y05588D03*
X1242D03*
Y0545D03*
X12333D03*
Y05311D03*
X1242D03*
Y05172D03*
X12333D03*
Y05033D03*
X1242D03*
Y04893D03*
X12333D03*
Y04753D03*
X1242D03*
Y04614D03*
X12333D03*
Y04474D03*
X1242D03*
Y04335D03*
X12333D03*
Y04196D03*
X1242D03*
X05545Y04996D03*
X05458D03*
Y04846D03*
X05545D03*
X05788Y0398D03*
X05875D03*
X05688Y04572D03*
X05601D03*
X05807Y05083D03*
X0572D03*
X04638Y04658D03*
X04551D03*
G54D27*
X13665Y05618D03*
Y05724D03*
G54D28*
X07558Y04385D03*
Y04472D03*
X05905Y04982D03*
Y05068D03*
G54D29*
X15718Y05803D03*
X15608D03*
X13356Y05874D03*
X13466D03*
X10994Y05803D03*
X11104D03*
X08631Y05805D03*
X08742D03*
X11104Y04212D03*
X10994D03*
X13466D03*
X13356D03*
X15718Y04216D03*
X15608D03*
X07664Y04095D03*
X07775D03*
G54D30*
X06269Y05783D03*
Y05893D03*
X04419Y05708D03*
Y05818D03*
X06269Y04122D03*
Y04232D03*
X08631Y04234D03*
Y04124D03*
X16753Y05265D03*
Y05375D03*
Y0475D03*
Y04639D03*
G54D31*
X10164Y05679D03*
X10059Y05641D03*
Y05716D03*
Y05558D03*
Y05483D03*
X10164Y05521D03*
Y05363D03*
X10059Y05325D03*
Y054D03*
Y05242D03*
Y05168D03*
X10164Y05205D03*
Y05047D03*
X10059Y0501D03*
Y05085D03*
Y04927D03*
Y04852D03*
X10164Y04889D03*
Y04731D03*
X10059Y04694D03*
Y04769D03*
Y04611D03*
Y04536D03*
X10164Y04574D03*
Y04416D03*
X10059Y04378D03*
Y04453D03*
Y04295D03*
Y0422D03*
X10164Y04258D03*
Y041D03*
X10059Y04062D03*
Y04137D03*
Y05877D03*
Y05802D03*
X10164Y05839D03*
G54D32*
X07684Y04224D03*
X07775D03*
X07865D03*
X04564Y04263D03*
X04655D03*
X04746D03*
G54D33*
X07775Y04472D03*
X04655Y04511D03*
G54D34*
X06616Y05738D03*
X07159D03*
X15459Y04735D03*
X14445D03*
G54D35*
X06769Y05553D03*
X06887D03*
X07005D03*
Y05923D03*
X06887D03*
X06769D03*
G54D36*
X15413Y04854D03*
X14492D03*
G54D37*
X14598Y0495D03*
X14716D03*
X14834D03*
X14952D03*
X1507D03*
X15188D03*
X15307D03*
Y05133D03*
X15188D03*
X1507D03*
X14952D03*
X14834D03*
X14716D03*
X14598D03*
G54D38*
X13086Y05377D03*
X12986D03*
X16317Y04716D03*
X16417D03*
G54D39*
X07304Y04124D03*
Y04224D03*
X04791Y05848D03*
Y05748D03*
X07553Y05701D03*
Y05801D03*
G54D40*
X05366Y04747D03*
Y04797D03*
Y04847D03*
Y04897D03*
Y04947D03*
Y04997D03*
Y05047D03*
Y05097D03*
X04983Y04747D03*
Y04797D03*
Y04847D03*
Y04897D03*
Y04947D03*
Y04997D03*
Y05047D03*
Y05097D03*
G54D41*
X0434Y04602D03*
X04419Y04629D03*
Y04574D03*
G54D42*
X08234Y04578D03*
Y04472D03*
G54D43*
X13558Y05816D03*
X13665D03*
X12594Y04265D03*
X12701D03*
X12594Y04404D03*
X12701D03*
X12594Y04543D03*
X12701D03*
X12594Y04683D03*
X12701D03*
X12594Y04822D03*
X12701D03*
X12594Y04962D03*
X12701D03*
X12594Y05102D03*
X12701D03*
X12594Y0524D03*
X12701D03*
X12594Y05379D03*
X12701D03*
X12594Y05518D03*
X12701D03*
X12594Y05657D03*
X12701D03*
X12594Y05797D03*
X12701D03*
X12594Y04125D03*
X12701D03*
G54D44*
X06514Y04809D03*
G54D45*
X06514Y04828D03*
Y04848D03*
Y04868D03*
Y04887D03*
Y04907D03*
Y04927D03*
Y04946D03*
Y04966D03*
Y04986D03*
Y05005D03*
Y05025D03*
Y05045D03*
Y05064D03*
Y05084D03*
Y05104D03*
X06063D03*
Y05084D03*
Y05064D03*
Y05045D03*
Y05025D03*
Y05005D03*
Y04986D03*
Y04966D03*
Y04946D03*
Y04927D03*
Y04907D03*
Y04887D03*
Y04868D03*
Y04848D03*
Y04828D03*
Y04809D03*
G54D46*
X06437Y05181D03*
X06417D03*
X06397D03*
X06377D03*
X06358D03*
X06338D03*
X06318D03*
X06299D03*
X06279D03*
X06259D03*
X0624D03*
X0622D03*
X062D03*
X06181D03*
X06161D03*
X06141D03*
Y04731D03*
X06161D03*
X06181D03*
X062D03*
X0622D03*
X0624D03*
X06259D03*
X06279D03*
X06299D03*
X06318D03*
X06338D03*
X06358D03*
X06377D03*
X06397D03*
X06417D03*
X06437D03*
G54D47*
X12161Y04265D03*
Y04211D03*
Y05797D03*
Y05742D03*
Y05657D03*
Y05602D03*
Y05518D03*
Y05464D03*
Y05379D03*
Y05325D03*
Y0524D03*
Y05186D03*
Y05102D03*
Y05047D03*
Y04962D03*
Y04907D03*
Y04822D03*
Y04768D03*
Y04683D03*
Y04628D03*
Y04543D03*
Y04488D03*
Y04404D03*
Y0435D03*
X11736Y05797D03*
Y05742D03*
Y05657D03*
Y05602D03*
Y05518D03*
Y05464D03*
Y05379D03*
Y05325D03*
Y0524D03*
Y05186D03*
Y05102D03*
Y05047D03*
Y04962D03*
Y04907D03*
Y04822D03*
Y04768D03*
Y04683D03*
Y04628D03*
Y04543D03*
Y04488D03*
Y04404D03*
Y0435D03*
Y04265D03*
Y04211D03*
X11948Y05797D03*
Y05742D03*
Y05657D03*
Y05602D03*
Y05518D03*
Y05464D03*
Y05379D03*
Y05325D03*
Y0524D03*
Y05186D03*
Y05102D03*
Y05047D03*
Y04962D03*
Y04907D03*
Y04822D03*
Y04768D03*
Y04683D03*
Y04628D03*
Y04543D03*
Y04488D03*
Y04404D03*
Y0435D03*
Y04265D03*
Y04211D03*
G54D48*
X04419Y04338D03*
Y0422D03*
X04049Y04338D03*
Y0422D03*
Y04982D03*
Y04864D03*
X04419Y04982D03*
Y04864D03*
G54D49*
X04234Y04491D03*
Y04067D03*
Y05135D03*
Y04711D03*
G54D50*
X14173Y04894D03*
Y04794D03*
Y04694D03*
Y04594D03*
Y04494D03*
Y04394D03*
Y04294D03*
X13779D03*
Y04394D03*
Y04494D03*
Y04594D03*
Y04694D03*
Y04794D03*
Y04894D03*
X14173Y05721D03*
Y05621D03*
Y05521D03*
Y05421D03*
Y05321D03*
Y05221D03*
Y05121D03*
X13779D03*
Y05221D03*
Y05321D03*
Y05421D03*
Y05521D03*
Y05621D03*
Y05721D03*
G54D51*
X05685Y05543D03*
X05905D03*
G54D52*
X07786Y05206D03*
Y05187D03*
Y05167D03*
Y05147D03*
Y05127D03*
Y05108D03*
Y05088D03*
Y05068D03*
Y05049D03*
Y05029D03*
Y05009D03*
Y0499D03*
Y0497D03*
Y0495D03*
Y04931D03*
Y04911D03*
Y04891D03*
Y04872D03*
Y04852D03*
Y04832D03*
Y04812D03*
Y04793D03*
Y04773D03*
Y04753D03*
X08075Y05206D03*
Y05187D03*
Y05167D03*
Y05147D03*
Y05127D03*
Y05108D03*
Y05088D03*
Y05068D03*
Y05049D03*
Y05029D03*
Y05009D03*
Y0499D03*
Y0497D03*
Y0495D03*
Y04931D03*
Y04911D03*
Y04891D03*
Y04872D03*
Y04852D03*
Y04832D03*
Y04812D03*
Y04793D03*
Y04773D03*
Y04753D03*
G54D53*
X06958Y0469D03*
Y05104D03*
G54D54*
X09271Y04344D03*
Y04255D03*
Y04097D03*
Y04186D03*
Y05924D03*
Y05835D03*
Y05677D03*
Y05766D03*
Y05608D03*
Y05519D03*
Y05361D03*
Y0545D03*
Y05292D03*
Y05203D03*
Y05045D03*
Y05134D03*
Y04975D03*
Y04887D03*
Y04729D03*
Y04818D03*
Y0466D03*
Y04571D03*
Y04413D03*
Y04501D03*
G54D55*
X04879Y04659D03*
Y04553D03*
G54D56*
X04905Y04946D03*
Y04898D03*
X04785D03*
Y04946D03*
M02*