%FSTAX23Y23*%
%MOIN*%
%SFA1B1*%

%IPPOS*%
%AMD38*
4,1,8,0.032500,-0.088800,0.032500,0.088800,0.016300,0.104900,-0.016300,0.104900,-0.032500,0.088800,-0.032500,-0.088800,-0.016300,-0.104900,0.016300,-0.104900,0.032500,-0.088800,0.0*
1,1,0.032283,0.016300,-0.088800*
1,1,0.032283,0.016300,0.088800*
1,1,0.032283,-0.016300,0.088800*
1,1,0.032283,-0.016300,-0.088800*
%
%AMD39*
4,1,8,-0.088800,-0.032500,0.088800,-0.032500,0.104900,-0.016300,0.104900,0.016300,0.088800,0.032500,-0.088800,0.032500,-0.104900,0.016300,-0.104900,-0.016300,-0.088800,-0.032500,0.0*
1,1,0.032283,-0.088800,-0.016300*
1,1,0.032283,0.088800,-0.016300*
1,1,0.032283,0.088800,0.016300*
1,1,0.032283,-0.088800,0.016300*
%
%AMD50*
4,1,8,0.026000,0.034400,-0.026000,0.034400,-0.043300,0.017100,-0.043300,-0.017100,-0.026000,-0.034400,0.026000,-0.034400,0.043300,-0.017100,0.043300,0.017100,0.026000,0.034400,0.0*
1,1,0.034646,0.026000,0.017100*
1,1,0.034646,-0.026000,0.017100*
1,1,0.034646,-0.026000,-0.017100*
1,1,0.034646,0.026000,-0.017100*
%
%ADD13C,0.009843*%
%ADD21R,0.027559X0.041339*%
%ADD22R,0.051181X0.059055*%
%ADD23R,0.059055X0.051181*%
%ADD24R,0.023622X0.057087*%
%ADD25O,0.023622X0.057087*%
%ADD26R,0.055118X0.049212*%
%ADD27R,0.043307X0.051181*%
%ADD28R,0.049212X0.055118*%
%ADD29R,0.053150X0.070866*%
%ADD30R,0.070866X0.053150*%
%ADD31R,0.047244X0.027559*%
%ADD32R,0.059055X0.084645*%
%ADD33R,0.149606X0.084645*%
%ADD34R,0.135039X0.064960*%
%ADD35R,0.050000X0.100000*%
%ADD36R,0.096457X0.062992*%
%ADD37R,0.050000X0.114960*%
G04~CAMADD=38~8~0.0~0.0~2098.4~649.6~161.4~0.0~15~0.0~0.0~0.0~0.0~0~0.0~0.0~0.0~0.0~0~0.0~0.0~0.0~270.0~650.0~2098.0*
%ADD38D38*%
G04~CAMADD=39~8~0.0~0.0~2098.4~649.6~161.4~0.0~15~0.0~0.0~0.0~0.0~0~0.0~0.0~0.0~0.0~0~0.0~0.0~0.0~180.0~2098.0~649.0*
%ADD39D39*%
%ADD40O,0.064960X0.027559*%
%ADD41R,0.043307X0.027559*%
%ADD42R,0.071653X0.054724*%
%ADD43R,0.054724X0.071653*%
%ADD44R,0.070866X0.011811*%
%ADD45O,0.070866X0.011811*%
%ADD46O,0.011811X0.070866*%
%ADD47R,0.133858X0.043307*%
%ADD48R,0.100000X0.050000*%
%ADD49R,0.064960X0.135039*%
G04~CAMADD=50~8~0.0~0.0~866.1~689.0~173.2~0.0~15~0.0~0.0~0.0~0.0~0~0.0~0.0~0.0~0.0~0~0.0~0.0~0.0~0.0~866.1~689.0*
%ADD50D50*%
%ADD51R,0.078740X0.078740*%
%ADD52O,0.059055X0.013780*%
%ADD53R,0.078740X0.255905*%
%ADD54R,0.025591X0.033465*%
%ADD55R,0.066929X0.062992*%
%ADD56R,0.041339X0.015748*%
%ADD96C,0.027559*%
%ADD97C,0.019685*%
%ADD98C,0.015748*%
%ADD99C,0.013780*%
%ADD100C,0.047244*%
%ADD101C,0.148031*%
%ADD102C,0.236220*%
%ADD103C,0.027559*%
%LNslave-1*%
%LPD*%
G36*
X06824Y05787D02*
X06718D01*
X06714Y0579*
Y05984*
X06729*
X06734Y05979*
Y05928*
X06769*
X06804*
Y05979*
Y05983*
X06809Y05984*
X06824*
Y05787*
G37*
G36*
X07942Y05934D02*
X07942Y05934D01*
X07927Y05926*
X07914Y05916*
X07904Y05903*
X07896Y05888*
X07891Y05872*
X0789Y05856*
X07891Y05839*
X07896Y05824*
X07904Y05809*
X07914Y05796*
X07927Y05786*
X07942Y05778*
X07942Y05777*
Y05724*
X07942Y05724*
X07927Y05716*
X07914Y05705*
X07904Y05692*
X07896Y05678*
X07891Y05662*
X0789Y05646*
X07891Y05629*
X07896Y05613*
X07904Y05599*
X07914Y05586*
X07927Y05575*
X07942Y05568*
X07942Y05567*
Y05263*
X07742*
X07736Y05261*
X0773Y05258*
X0772Y05248*
X07716Y05242*
X07715Y05235*
Y05198*
X07716Y05192*
X0772Y05186*
X07732Y05174*
X07737Y0517*
X07742Y0517*
X07746Y05167*
X07748Y0516*
X0775Y05157*
X07748Y05153*
X07746Y05147*
X07748Y0514*
X0775Y05137*
X07748Y05134*
X07746Y05127*
X07748Y05121*
X0775Y05118*
X07748Y05114*
X07753*
X07757Y05111*
X07763Y0511*
X07809*
X07815Y05111*
X0782Y05114*
X07825*
X07822Y05118*
X07825Y05121*
X07826Y05127*
X07825Y05134*
X07822Y05137*
X07825Y0514*
X07826Y05147*
X07825Y05153*
X07822Y05157*
X07825Y0516*
X07826Y05167*
X07825Y05173*
X07822Y05177*
X07825Y0518*
X07826Y05187*
X07825Y05189*
X0783Y0519*
X07835Y05194*
X0785Y05209*
X07942*
Y04687*
X07903*
Y04647*
Y04607*
X07942*
Y04507*
X07931*
Y04496*
X07859*
Y04524*
X07698*
Y04555*
X07851Y04708*
X07854Y04713*
X07855Y04719*
Y0494*
X07854Y04946*
X07851Y04951*
X07841Y04961*
X07836Y04964*
X0783Y04965*
X07829*
X07826Y04969*
Y0497*
X07825Y04976*
X07822Y0498*
X07825Y04983*
X07826Y0499*
X07825Y04996*
X07822Y05*
X07825Y05003*
X07826Y05009*
X07825Y05016*
X07822Y05019*
X07825Y05022*
X07826Y05029*
X07825Y05035*
X07822Y05039*
X07825Y05042*
X07826Y05049*
X07825Y05055*
X07822Y05059*
X07825Y05062*
X07826Y05068*
X07825Y05075*
X07822Y05078*
X07824Y05081*
X0782*
X07815Y05084*
X07809Y05085*
X07763*
X07757Y05084*
X07752Y05081*
X07748*
X0775Y05078*
X07748Y05075*
X07746Y05068*
X07748Y05062*
X0775Y05059*
X07748Y05055*
X07746Y05049*
Y05048*
X07743Y05044*
X07702*
Y0511*
Y0514*
X07663*
X07624*
Y0511*
Y05039*
X07648*
X07649Y05037*
X07652Y05032*
X07655Y05029*
X07653Y05024*
X07596*
X07587Y05034*
X07589Y05039*
X07606*
Y0511*
Y0514*
X07566*
X07527*
Y05117*
X07522Y05114*
X07521Y05115*
X07517Y05116*
X07507*
Y0514*
X07468*
Y05145*
X07463*
Y05181*
X07435*
X07431Y05184*
Y05281*
Y05765*
X0743Y05769*
X07428Y05772*
X07425Y05775*
X07421Y05775*
X07399*
Y05785*
X07438*
Y05785*
X07439Y05777*
X07442Y05771*
X07446Y05766*
X07451Y05762*
X07457Y05759*
X07464Y05758*
X07642*
X07649Y05759*
X07655Y05762*
X07661Y05766*
X07664Y05771*
X07667Y05777*
X07668Y05785*
Y05817*
X07667Y05824*
X07664Y0583*
X07661Y05836*
X07655Y0584*
X07649Y05842*
X07642Y05843*
X07464*
X07457Y05842*
X07451Y0584*
X07446Y05836*
X07442Y0583*
X07439Y05824*
X07438Y05817*
Y05816*
X07399*
Y05837*
X0732*
Y05817*
X06911*
X06907Y05816*
X06905Y05817*
X06903Y05819*
X06903Y0582*
Y05863*
X06922*
Y05983*
X06926Y05985*
X06966*
X0697Y05983*
Y0598*
Y05863*
X0704*
Y05907*
X07058*
X07059Y05905*
X07067Y059*
X07076Y05898*
X07086Y059*
X07094Y05905*
X07099Y05913*
X07101Y05923*
X07099Y05932*
X07094Y0594*
X07086Y05945*
X07076Y05947*
X07067Y05945*
X07059Y0594*
X07058Y05938*
X0704*
Y0598*
Y05983*
X07044Y05985*
X07942*
Y05934*
G37*
G36*
X06301Y06016D02*
X06252Y05968D01*
X06247Y0596*
X06245Y0595*
Y0593*
X06224*
Y05857*
X06314*
Y0593*
X06294*
Y0594*
X06338Y05985*
X067*
X06704Y0598*
Y0579*
X06704Y05788*
X06705Y05787*
X06706Y05785*
X06707Y05783*
X0671Y0578*
X06712Y05779*
X06714Y05777*
X06716Y05777*
X06718Y05777*
X06818*
X06819Y05772*
X06558Y05511*
X06555Y05506*
X06553Y055*
Y05323*
X06551Y05322*
X0655Y05318*
X06544Y0532*
Y05683*
X06543Y05688*
X06542Y0569*
X06545Y05695*
X06694*
Y0578*
X06539*
Y05701*
X06534Y057*
X06464Y05769*
X06465Y05771*
X06463Y05781*
X06458Y05788*
X0645Y05794*
X0644Y05796*
X06431Y05794*
X06423Y05788*
X06418Y05781*
X06416Y05771*
X06418Y05762*
X06423Y05754*
X06431Y05749*
X0644Y05747*
X06443Y05748*
X06514Y05676*
Y05251*
X06509Y05246*
X06503Y05248*
Y05279*
X06468*
Y05284*
X06463*
Y05324*
X06453*
Y05372*
X06452Y05375*
X0645Y05379*
X06446Y05381*
X06442Y05382*
X06399*
X06398Y05387*
X06412Y054*
X0643Y0542*
X06444Y05442*
X06456Y05465*
X06464Y0549*
X0647Y05516*
X06472Y05543*
X0647Y05569*
X06464Y05595*
X06456Y0562*
X06444Y05644*
X0643Y05666*
X06412Y05686*
X06392Y05703*
X0637Y05718*
X06347Y0573*
X06322Y05738*
X06305Y05741*
X06306Y05746*
X06314*
Y0582*
X06224*
Y05746*
X06233*
X06233Y05741*
X06217Y05738*
X06192Y0573*
X06168Y05718*
X06146Y05703*
X06126Y05686*
X06109Y05666*
X06094Y05644*
X06082Y0562*
X06074Y05595*
X06069Y05569*
X06067Y05543*
X06069Y05516*
X06074Y0549*
X06082Y05465*
X06094Y05442*
X06109Y0542*
X06126Y054*
X06146Y05382*
X06168Y05368*
X06192Y05356*
X06217Y05348*
X06243Y05342*
X06269Y0534*
X06296Y05342*
X06322Y05348*
X06336Y05352*
X0634Y05349*
Y05232*
X06338Y05228*
X06335Y05227*
X06332Y05226*
X06328Y05224*
X06325Y05226*
X06318Y05227*
X06312Y05226*
X06309Y05224*
X06305Y05226*
X06299Y05227*
X06292Y05226*
X06289Y05224*
X06285Y05226*
X06279Y05227*
X06273Y05226*
X06269Y05224*
X06266Y05226*
X06259Y05227*
X06253Y05226*
X0625Y05224*
X06246Y05226*
X0624Y05227*
X06233Y05226*
X0623Y05224*
X06226Y05226*
X0622Y05227*
X06214Y05226*
X06212Y05225*
X06209Y05227*
X06208Y05232*
X06213Y05237*
X06216Y05242*
X06217Y05244*
X06268*
Y05284*
Y05324*
X06176*
Y05336*
X06175Y05342*
X06172Y05347*
X06167Y0535*
X06161Y05351*
X06155Y0535*
X0615Y05347*
X06147Y05342*
X06146Y05336*
Y05324*
X06054*
Y05284*
X06044*
Y05324*
X06023*
Y05389*
X06022Y05393*
X0602Y05396*
X06017Y05399*
X06013Y054*
X05944*
Y0544*
X0592*
Y05494*
X05954*
Y05592*
X0592*
Y05794*
X06027Y05899*
X06029Y05898*
X06038Y059*
X06046Y05905*
X06051Y05913*
X06053Y05923*
X06051Y05932*
X06046Y0594*
X06038Y05945*
X06029Y05947*
X0602Y05945*
X06012Y0594*
X06007Y05932*
X06005Y05923*
X06005Y05921*
X05894Y05811*
X05894*
X05892Y05809*
X0589Y05806*
X0589Y05803*
X05889Y058*
Y05592*
X05855*
Y05494*
X0589*
Y0544*
X05866*
Y05419*
X05831*
X05825Y05418*
X0582Y05415*
X05754Y05348*
X05724*
Y05368*
Y05399*
X05685*
X05645*
Y05368*
Y05307*
X05644Y05307*
X0564Y05305*
X05634Y05304*
X05559Y05379*
Y0545*
X05561Y05451*
X05566Y05459*
X05568Y05468*
X05566Y05477*
X05561Y05485*
X05559Y05487*
Y05683*
X05558Y05689*
X05555Y05694*
X05445Y05804*
X05429Y05819*
X05427Y05821*
Y0602*
X06299*
X06301Y06016*
G37*
G36*
X05105Y05798D02*
X0511Y05794D01*
X05116Y05793*
X05412*
X05431Y05774*
X05529Y05677*
Y05487*
X05527Y05485*
X05522Y05477*
X0552Y05468*
X05522Y05459*
X05527Y05451*
X05529Y0545*
Y054*
X05492*
X05488Y05399*
X05485Y05396*
X05482Y05393*
X05481Y05389*
Y05102*
Y05083*
Y05061*
Y05033*
Y05031*
X05427*
Y05033*
X05334*
Y05061*
X05427*
Y05083*
X05334*
Y05111*
X05427*
Y05687*
X053*
X05296Y0569*
Y05693*
X05295Y05709*
X0529Y05725*
X05282Y0574*
X05272Y05753*
X05259Y05763*
X05244Y05771*
X05229Y05775*
X05212Y05777*
X05196Y05775*
X0518Y05771*
X05165Y05763*
X05152Y05753*
X05142Y0574*
X05134Y05725*
X05129Y05709*
X05128Y05693*
Y0569*
X05125Y05687*
X04663*
Y05809*
X0469*
X04696Y05806*
X04703Y05805*
X0488*
X04887Y05806*
X04893Y05809*
X05094*
X05105Y05798*
G37*
G36*
X06852Y05983D02*
Y05863D01*
X06872*
Y05825*
X06839Y05792*
X06835Y05794*
Y05984*
X06836Y05985*
X06848*
X06852Y05983*
G37*
G36*
X07421Y05683D02*
Y0561D01*
Y05281*
Y05175*
X07395*
Y05185*
X07255*
Y05175*
X07248*
Y05185*
X07108*
Y05175*
X07021*
Y05253*
X07064*
Y05284*
X07104*
Y05263*
X07183*
Y05284*
X07212*
Y05263*
X07291*
Y05284*
X07303*
Y05406*
X07307Y05409*
X07311Y05408*
X07313Y05409*
X07344Y05377*
Y05363*
X0732*
Y05292*
Y05275*
Y05263*
X07399*
Y05275*
Y05284*
Y05292*
Y05363*
X07375*
Y05383*
X07374Y05389*
X0737Y05394*
X07334Y0543*
X07335Y05433*
X07333Y05442*
X07328Y0545*
X0732Y05455*
X07311Y05457*
X07308Y05456*
X07303Y05462*
Y0561*
X0704*
Y05612*
X0697*
Y0561*
X06922*
Y05612*
X06852*
X06848Y05614*
Y05683*
X07303*
Y05765*
X0732*
Y05738*
X07399*
Y05765*
X07421*
Y05683*
G37*
G36*
X0732Y05775D02*
X07303D01*
X07299Y05775*
X07296Y05772*
X07293Y05769*
X07292Y05765*
Y05693*
X0724*
X07236Y05695*
Y05698*
Y0578*
X07081*
Y05698*
Y05695*
X07077Y05693*
X06848*
X06844Y05692*
X06841Y0569*
X06838Y05687*
X06838Y05683*
Y05614*
Y05614*
X06838Y05612*
X06838Y0561*
X06839Y0561*
X0684Y05609*
X06841Y05607*
X06841Y05607*
X06843Y05606*
X06844Y05605*
X06844*
X06849Y05603*
X06851Y05603*
X06852*
Y05568*
X06852*
X06846Y05567*
X06841Y05563*
X06818Y0554*
X06814Y05535*
X06813Y05529*
Y05462*
X06593Y05243*
X0659Y05243*
X06588Y05248*
X06616Y05277*
X0662Y05282*
X06621Y05288*
Y0549*
X06729Y05598*
X06734Y05596*
Y05558*
X06764*
Y05612*
X0675*
X06749Y05617*
X06918Y05786*
X0732*
Y05775*
G37*
G36*
X0697Y05493D02*
X0699D01*
Y05484*
X06981Y05475*
X06883*
X06877Y05474*
X06873Y05471*
X06623Y05221*
X06617Y05223*
Y05224*
X06839Y05446*
X06842Y0545*
X06844Y05456*
Y05523*
X06848Y05527*
X06852Y05525*
Y05493*
X06922*
Y056*
X0697*
Y05493*
G37*
G36*
X07292Y05479D02*
X07288Y05477D01*
X07261Y05504*
Y05562*
X07263Y05563*
X07268Y05571*
X0727Y0558*
X07268Y0559*
X07264Y05594*
X07267Y056*
X07292*
Y05479*
G37*
G36*
X07227Y05594D02*
X07223Y0559D01*
X07221Y0558*
X07223Y05571*
X07228Y05563*
X0723Y05562*
Y05498*
X07231Y05492*
X07235Y05487*
X07269Y05453*
X07267Y05448*
X07004*
X07002Y05453*
X07016Y05467*
X0702Y05472*
X07021Y05478*
Y05493*
X0704*
Y056*
X07224*
X07227Y05594*
G37*
G36*
X13429Y05828D02*
X13503D01*
Y05849*
X13513*
X13517Y0585*
X13521Y05847*
Y05822*
X13553*
Y05862*
X13543*
X13541Y05867*
X13553Y05879*
X1361*
Y05253*
X13031*
Y05844*
X13001*
Y05859*
X13003Y0586*
X13008Y05868*
X1301Y05877*
X13008Y05887*
X13003Y05895*
X12995Y059*
X12986Y05902*
X12976Y059*
X12968Y05895*
X12963Y05887*
X12961Y05877*
X12963Y05868*
X12968Y0586*
X1297Y05859*
Y05844*
X12858*
Y05914*
X13319*
Y05828*
X13331*
Y05744*
X13329Y05743*
X13303Y05738*
X13278Y0573*
X13255Y05718*
X13233Y05703*
X13213Y05686*
X13195Y05666*
X13181Y05644*
X13169Y0562*
X13161Y05595*
X13155Y05569*
X13153Y05543*
X13155Y05516*
X13161Y0549*
X13169Y05465*
X13181Y05442*
X13195Y0542*
X13213Y054*
X13233Y05382*
X13255Y05368*
X13278Y05356*
X13303Y05348*
X13329Y05342*
X13356Y0534*
X13382Y05342*
X13408Y05348*
X13433Y05356*
X13457Y05368*
X13479Y05382*
X13499Y054*
X13516Y0542*
X13531Y05442*
X13543Y05465*
X13551Y0549*
X13556Y05516*
X13558Y05543*
X13556Y05569*
X13551Y05595*
X13543Y0562*
X13531Y05644*
X13516Y05666*
X13499Y05686*
X13479Y05703*
X13457Y05718*
X13433Y0573*
X13408Y05738*
X13382Y05743*
X1338Y05744*
Y05828*
X13392*
Y05914*
X13429*
Y05828*
G37*
G36*
X06013Y05314D02*
X06013D01*
Y05244*
X06114*
Y05284*
X06125*
Y05244*
X06146*
Y0523*
X06142Y05227*
X06141Y05227*
X06135Y05226*
X0613Y05223*
X06126Y05217*
X06125Y05211*
Y05187*
X06141*
Y05181*
X06145*
Y05152*
X06146Y05146*
X06146Y05146*
Y05137*
X06148*
X06151Y0514*
X06155Y05137*
X06155*
Y05116*
X06104*
X06099Y05119*
X06093Y0512*
X06034*
X06028Y05119*
X06023Y05116*
X05921*
Y05133*
X05945*
Y05202*
Y05233*
X05905*
X05866*
Y05202*
Y05133*
X0589*
Y05116*
X05844*
Y05117*
X05769*
Y05116*
X05757*
Y05117*
X05683*
Y05048*
Y05032*
X05705*
Y05021*
X05685*
Y04942*
X05784*
Y04982*
Y05021*
X05735*
Y05032*
X05836*
Y04846*
X05816*
X05812Y0485*
Y04851*
Y04875*
X05789*
X05765*
Y04851*
Y0485*
X05762Y04846*
X05738*
Y04876*
X05659*
Y04846*
Y04837*
X05659Y04836*
Y04785*
X05659Y04784*
Y04775*
X05659Y0477*
Y0477*
Y04607*
X0565*
Y04603*
X05639*
Y04607*
X05564*
Y04603*
X05496*
Y0464*
Y04711*
Y04742*
X05456*
Y04752*
X05496*
Y04783*
X05476*
X05473Y04788*
X05474Y04789*
X05529*
Y04783*
X05505*
Y04711*
Y04683*
X05584*
Y04711*
Y04783*
X0556*
Y04789*
X05604*
Y04872*
X05607Y04875*
X05616Y04877*
X05624Y04882*
X05629Y0489*
X05631Y04899*
X05629Y04909*
X05624Y04916*
X05616Y04922*
X05607Y04924*
X05604Y04928*
Y05027*
X05582*
Y05031*
X0556*
Y05061*
X05584*
Y0513*
Y05161*
X05545*
X05505*
Y0513*
Y05061*
X05529*
Y05031*
X05507*
Y05027*
X05496*
Y05031*
X05492*
Y05389*
X05529*
Y05373*
X0553Y05367*
X05533Y05362*
X05664Y05231*
X05669Y05227*
X05675Y05226*
X05759*
X05773Y05213*
X05771Y05208*
X05735*
Y05169*
Y05129*
X05834*
Y05208*
X05814*
Y05209*
X05812Y05215*
X05809Y0522*
X05777Y05252*
X05772Y05256*
X05766Y05257*
X05681*
X05646Y05292*
X05648Y05298*
X05724*
Y05318*
X0576*
X05766Y05319*
X05771Y05322*
X05838Y05389*
X05866*
Y05368*
Y0534*
X05944*
Y05368*
Y05389*
X06013*
Y05314*
G37*
G36*
X07104Y05294D02*
X07064D01*
Y05332*
X07034*
Y05293*
X07024*
Y05332*
X06923*
Y05253*
X06943*
Y05242*
X06909*
Y05119*
X06881*
X06875Y05118*
X06871Y05114*
X06858Y05102*
X06853Y05104*
Y05154*
X06855Y05155*
X06861Y05163*
X06862Y05173*
X06861Y05182*
X06855Y0519*
X06848Y05195*
X06838Y05197*
X06829Y05195*
X06821Y0519*
X06816Y05182*
X06814Y05173*
X06816Y05163*
X06821Y05155*
X06823Y05154*
Y05102*
X06674Y04953*
X06669Y04955*
Y04969*
X06629*
Y04979*
X06669*
Y05012*
X06671Y05015*
X06674Y05017*
X06677Y05018*
X06681Y0502*
X06768Y05107*
X06771Y05111*
X06772Y05115*
Y05187*
X06811Y05226*
X06893*
X06897Y05227*
X069Y05229*
X06903Y05233*
X06903Y05237*
Y05267*
X06903Y05271*
X069Y05274*
X06897Y05277*
X06893Y05277*
X06815*
X06814Y05282*
X06878Y05346*
X07057*
X07059Y05344*
X07066Y05339*
X07076Y05337*
X07085Y05339*
X07093Y05344*
X07094Y05346*
X07104*
Y05294*
G37*
G36*
X06893Y05237D02*
X06807D01*
X06761Y05191*
Y05115*
X06674Y05027*
X06669Y05029*
Y0504*
X06629*
Y05045*
X06624*
Y0508*
X06619*
X06617Y05085*
X0669Y05159*
X06757Y05225*
X06799Y05267*
X06893*
Y05237*
G37*
G36*
X06442Y05324D02*
X06402D01*
Y05284*
Y05244*
X06417*
X06418Y05239*
X06417Y05239*
X06406Y05227*
X06405Y05225*
X06403Y05226*
X06402*
Y0522*
X06401Y05217*
Y05216*
X06401Y05211*
Y05181*
X06394*
Y05211*
X06392Y05217*
X06392Y05218*
Y05226*
X06391*
X06387Y05224*
X06384Y05226*
X06377Y05227*
X06371Y05226*
X06368Y05224*
X06364Y05226*
X06358Y05227*
X06355Y05227*
X0635Y05231*
Y05357*
X0637Y05368*
X06376Y05372*
X06442*
Y05324*
G37*
G36*
X06288Y05067D02*
X06296Y05062D01*
X06305Y0506*
X06314Y05062*
X06322Y05067*
X06326*
X06327Y05065*
X06374Y0502*
X06373Y05017*
X06375Y05008*
X0638Y05*
X06384Y04998*
Y04993*
X0638Y0499*
X06375Y04983*
X06373Y04973*
X06375Y04964*
X0638Y04956*
X06384Y04953*
Y04949*
X0638Y04946*
X06375Y04938*
X06373Y04929*
X06375Y0492*
X0638Y04912*
X06384Y04909*
Y04905*
X0638Y04902*
X06375Y04894*
X06373Y04885*
X06375Y04875*
X0638Y04868*
X06384Y04865*
Y04861*
X0638Y04858*
X06375Y0485*
X06373Y04841*
X06375Y04831*
X0638Y04824*
X06384Y04821*
Y04816*
X0638Y04814*
X06379Y04812*
X06375*
X0637Y04811*
X06365Y04807*
X06347Y0479*
X06344Y04785*
X06343Y04781*
X06338Y04777*
X06332Y04775*
X06328Y04773*
X06325Y04775*
X06318Y04777*
X06312Y04775*
X06309Y04773*
X06305Y04775*
X06299Y04777*
X06292Y04775*
X06289Y04773*
X06285Y04775*
X06279Y04777*
X06279Y04776*
X06275Y04779*
Y04824*
X06274Y0483*
X0627Y04835*
X06232Y04873*
Y05066*
X06234Y05067*
X06235Y0507*
X0624*
X06242Y05067*
X0625Y05062*
X06259Y0506*
X06269Y05062*
X06277Y05067*
X06279Y05071*
X06285*
X06288Y05067*
G37*
G36*
X06018Y05104D02*
X06019Y05098D01*
X06022Y05094*
X06019Y0509*
X06018Y05084*
X06019Y05078*
X06022Y05074*
X06019Y05071*
X06018Y05064*
X06019Y05058*
X06022Y05055*
X06019Y05051*
X06018Y05045*
X06019Y05038*
X06022Y05035*
X06019Y05031*
X06018Y05025*
X06019Y05019*
X06022Y05015*
X06019Y05012*
X06018Y05008*
X06013Y05005*
X06013*
X06009Y05008*
X06Y0501*
X0599Y05008*
X05982Y05003*
X05977Y04995*
X05975Y04986*
X05977Y04976*
X05978Y04974*
X05975Y04971*
X05953Y04992*
X05948Y04996*
X05942Y04997*
X0594*
Y05019*
X05871*
Y04944*
X0594*
Y04956*
X05945Y04958*
X05967Y04936*
X05965Y0493*
X05961Y04929*
X05953Y04924*
X05948Y04916*
X05946Y04907*
X05948Y04898*
X05953Y0489*
X05961Y04885*
X0597Y04883*
X05972Y04883*
X05978Y04877*
X05972Y04872*
X0597Y04872*
X05961Y0487*
X05953Y04865*
X05948Y04857*
X05946Y04848*
X05948Y04838*
X05953Y04831*
X05955Y0483*
X05953Y04825*
X05907*
X05903Y04824*
X059Y04822*
X05898Y04818*
X05897Y04814*
Y0479*
X05892Y04787*
X05889*
X05887Y04788*
Y04807*
X05831*
Y04776*
X05821*
Y04807*
X05765*
Y04785*
X05738*
X05669*
Y04836*
X05699*
X057Y04831*
X05698*
X05694Y04827*
X05688Y04821*
X05684Y04816*
X05683Y04811*
X05684Y04805*
X05688Y048*
X05692Y04796*
X05698Y04795*
X05704Y04796*
X05709Y048*
X05715Y04805*
X05698*
Y04816*
X05719*
X0572Y04816*
X05718Y04822*
X05715Y04827*
X0571Y04831*
X05709*
X0571Y04836*
X05762*
X05763*
X05763*
X05765Y04836*
X05766Y04837*
X05766Y04837*
X05767*
X05768Y04838*
X05769Y04839*
X0577Y04839*
X0577Y0484*
X05773Y04844*
X05774Y04845*
X05775Y04846*
Y04846*
X05775Y04847*
Y04848*
Y0485*
X05803*
Y04848*
Y04847*
X05803Y04846*
Y04846*
X05804Y04845*
X05805Y04844*
X05807Y0484*
X05808Y04839*
X05809Y04839*
X05809Y04838*
X05811Y04837*
X05811*
X05812Y04837*
X05813Y04836*
X05814Y04836*
X05815*
X05816*
X05836*
X0584Y04837*
X05843Y04839*
X05846Y04842*
X05846Y04846*
Y0485*
X05887*
Y04911*
X05846*
Y05032*
X05846Y05036*
X05843Y0504*
X0584Y05042*
X05836Y05042*
X05735*
Y05048*
X05757*
Y05105*
X05769*
Y05088*
X05844*
Y05105*
X05871*
Y05031*
X0594*
Y05105*
X06016*
X06018Y05104*
G37*
G36*
X07517Y05029D02*
X07356D01*
X07284Y05101*
X07286Y05106*
X07517*
Y05029*
G37*
G36*
X07108Y05164D02*
Y0515D01*
X07144*
Y05145*
X07149*
Y05106*
X07159*
X07179*
X07238*
X07241Y05101*
X07308Y05034*
X07306Y05029*
X07288*
X07285Y05031*
X07279Y05033*
X07248*
Y05057*
X07177*
X07159*
X07149*
Y05017*
Y04978*
X07165*
X07169Y04974*
Y04926*
X07149*
Y04887*
Y04847*
X07165*
X07169Y04844*
Y04748*
X07149*
Y04708*
Y04669*
X07165*
X07169Y04665*
Y04641*
X07148*
Y04602*
Y04562*
X07165*
X07169Y04559*
Y04535*
X07148*
Y04496*
Y04456*
X07165*
X07169Y04453*
Y04429*
X07148*
Y0439*
Y0435*
X07165*
X07169Y04347*
X07168Y04139*
X07086*
Y0414*
X06928Y0414*
X06916Y04146*
X069Y04151*
X06883Y04153*
X06867Y04151*
X06851Y04146*
X06839Y0414*
X06358Y04141*
Y04204*
X06844*
X06851Y04201*
X06867Y04196*
X06883Y04194*
X069Y04196*
X06916Y04201*
X06922Y04204*
X07086*
Y05164*
X07108*
G37*
G36*
X07014Y05168D02*
X07017Y05165D01*
X07021Y05164*
X07076*
Y04214*
X06945*
X06944Y04216*
X06944Y0422*
X06953Y04232*
X06961Y04246*
X06966Y04262*
X06968Y04279*
X06966Y04295*
X06961Y04311*
X06953Y04325*
X06943Y04338*
X0693Y04349*
X06916Y04357*
X069Y04361*
X06883Y04363*
X06867Y04361*
X06851Y04357*
X06837Y04349*
X06824Y04338*
X06813Y04325*
X06805Y04311*
X06801Y04295*
X06799Y04279*
X06801Y04262*
X06805Y04246*
X06813Y04232*
X06823Y0422*
X06823Y04216*
X06822Y04214*
X06358*
X06354Y04214*
X06351Y04211*
X06348Y04208*
X06348Y04204*
Y04141*
X06348Y04139*
X06348Y04137*
X0635Y04136*
X06351Y04134*
X06352Y04133*
X06354Y04132*
X06356Y04131*
X06358Y04131*
X06819Y0413*
X06821Y04125*
X06813Y04115*
X06805Y04101*
X06801Y04085*
X06799Y04068*
X06801Y04052*
X06805Y04036*
X06813Y04022*
X06824Y04009*
X06837Y03998*
X06849Y03991*
X06848Y03987*
X06323*
X06294Y04016*
Y04085*
X06314*
Y04158*
X06224*
Y04085*
X06245*
Y04005*
X06247Y03996*
X06252Y03988*
X06279Y03961*
X06277Y03956*
X06185*
Y04013*
Y04044*
X06145*
Y04049*
X0614*
Y04084*
X06107*
Y04094*
X06106Y041*
X06103Y04105*
X06057Y04151*
X06057Y04153*
X06055Y04162*
X0605Y0417*
X06042Y04175*
X06033Y04177*
X06024Y04175*
X06016Y0417*
X06011Y04162*
X06009Y04153*
X06011Y04144*
X06016Y04136*
X06024Y04131*
X06033Y04129*
X06035Y04129*
X06042Y04123*
X0604Y04118*
X05893*
Y04137*
X05857*
Y04142*
X05852*
Y04181*
X05803*
Y04197*
X05804Y04198*
X05809Y04205*
X0581Y04213*
Y04247*
X05809Y04255*
X05804Y04262*
X05797Y04267*
X05788Y04269*
X05781Y04267*
X05776Y0427*
Y04377*
X05889*
Y04336*
Y04308*
X05929*
Y04303*
X05934*
Y04267*
X0596*
Y04198*
X0596Y04194*
X05962Y0419*
X05966Y04188*
X0597Y04187*
X0618*
X06184Y04188*
X06188Y0419*
X0619Y04194*
X0619Y04198*
Y04264*
X0619Y04268*
X06188Y04271*
X06184Y04273*
X0618Y04274*
X06055*
Y04533*
X06055Y04535*
X06054Y04537*
X06053Y04538*
X06052Y0454*
X0605Y04541*
X06049Y04542*
X06047Y04542*
X06045Y04543*
X05895*
Y04567*
X05859*
Y04572*
X05854*
Y04612*
X05825*
Y04639*
X05855*
Y04679*
X0586*
Y04684*
X05895*
Y04707*
X05898Y04708*
X059Y04709*
X05903Y04707*
X05907Y04706*
X05923*
Y04684*
X06001*
Y04706*
X06116*
X0612Y04707*
X0612*
X06125Y04704*
Y04701*
X06126Y04695*
X0613Y0469*
X06135Y04686*
X06141Y04685*
X06148Y04686*
X06151Y04689*
X06155Y04686*
X06161Y04685*
X06167Y04686*
X06171Y04689*
X06174Y04686*
X06181Y04685*
X06187Y04686*
X0619Y04689*
X06194Y04686*
X062Y04685*
X06207Y04686*
X0621Y04689*
X06214Y04686*
X0622Y04685*
X06226Y04686*
X0623Y04689*
X06233Y04686*
X0624Y04685*
X06246Y04686*
X0625Y04689*
X06253Y04686*
X06259Y04685*
X06266Y04686*
X06269Y04689*
X06273Y04686*
X06279Y04685*
X06285Y04686*
X06289Y04689*
X06292Y04686*
X06299Y04685*
X06305Y04686*
X06309Y04689*
X06312Y04686*
X06318Y04685*
X06325Y04686*
X06328Y04689*
X06332Y04686*
X06338Y04685*
X06344Y04686*
X06348Y04689*
X06351Y04686*
X06358Y04685*
X06364Y04686*
X06368Y04689*
X06371Y04686*
X06377Y04685*
X06384Y04686*
X06387Y04689*
X06391Y04686*
X06397Y04685*
X06403Y04686*
X06407Y04689*
X06411Y04686*
X06412*
Y04695*
X06412Y04695*
X06413Y04701*
Y04731*
X0642*
Y04701*
X06422Y04695*
X06422Y04695*
Y04686*
X06423*
X06424Y04687*
X06426Y04687*
X06429Y04685*
Y04675*
Y04638*
X06429Y04635*
X06429Y04633*
Y0462*
X0643Y04616*
X06432Y04612*
X06435Y0461*
X06439Y04609*
X06475*
Y046*
Y0457*
X06554*
Y046*
Y04609*
X0662*
Y046*
Y0457*
X0666*
Y04564*
X06665*
Y04529*
X0669*
Y04517*
X06624*
Y04493*
X06618*
Y04517*
X06518*
Y04478*
Y04438*
X06595*
X06597Y04434*
X06547Y04383*
X06545Y04384*
X06535Y04382*
X06527Y04377*
X06522Y04369*
X0652Y0436*
X06522Y0435*
X06527Y04342*
X06535Y04337*
X06545Y04335*
X06554Y04337*
X06562Y04342*
X06567Y0435*
X06569Y0436*
X06568Y04362*
X0663Y04424*
X06634Y04429*
X06635Y04435*
Y04438*
X0669*
Y04424*
X06691Y0442*
X06693Y04417*
X06696Y04415*
X067Y04414*
X06777*
X06781Y04415*
X06784Y04417*
X06787Y0442*
X06787Y04424*
Y04679*
X06787Y04683*
X06784Y04686*
X06781Y04688*
X06777Y04689*
X06573*
Y04789*
Y0479*
Y0479*
X06572Y04791*
X06572Y04793*
X06572Y04793*
X06571Y04794*
X0657Y04795*
X0657Y04796*
X06569Y04796*
X06569Y04797*
X06564Y04801*
X06562Y04801*
X06561Y04802*
X06561*
X0656Y04803*
X0656*
Y04824*
X0656Y04828*
X0656Y04829*
X06559Y04835*
X06556Y04838*
X06559Y04842*
X0656Y04848*
X06559Y04854*
X06556Y04858*
X06559Y04861*
X0656Y04868*
X0656Y04868*
X06563Y04872*
X06678*
X06871Y0468*
X06875Y04676*
X06881Y04675*
X06909*
Y04553*
X06943*
Y04541*
X06923*
Y04462*
X07024*
Y04501*
Y04541*
X06974*
Y04553*
X07007*
Y04828*
X06909*
Y04706*
X06888*
X06696Y04897*
X06888Y05088*
X06909*
Y04966*
X07007*
Y05168*
X07012Y0517*
X07014Y05168*
G37*
G36*
X07298Y04977D02*
X07296Y04973D01*
X07282*
X07276Y04972*
X07271Y04968*
X07241Y04937*
X07237Y04933*
X07236Y04927*
Y04926*
X07183*
X07179Y04929*
Y04974*
X07183Y04978*
X07248*
Y05002*
X07273*
X07298Y04977*
G37*
G36*
X07561Y04919D02*
X07559Y04914D01*
X07555Y04913*
X07547Y04908*
X07542Y049*
X0754Y04891*
X07542Y04882*
X07547Y04874*
X07553Y0487*
Y04864*
X07547Y04861*
X07542Y04853*
X0754Y04844*
X07542Y04834*
X07547Y04826*
X07553Y04823*
Y04817*
X07547Y04813*
X07542Y04805*
X0754Y04796*
X07542Y04787*
X07547Y04779*
X07553Y04775*
Y0477*
X07547Y04766*
X07542Y04758*
X0754Y04749*
X07542Y04739*
X07547Y04731*
X07553Y04728*
Y04722*
X07547Y04718*
X07546Y04716*
X07533*
X07475Y04774*
X0747Y04777*
X07465Y04779*
X07267*
X07261Y04777*
X07257Y04774*
X07241Y04759*
X07238Y04753*
X07237Y04748*
Y04748*
X07183*
X07179Y04751*
Y04844*
X07183Y04847*
X07248*
Y04871*
X07255*
Y04847*
X07355*
Y04887*
Y04926*
X07279*
X07277Y04931*
X07288Y04942*
X07537*
X07561Y04919*
G37*
G36*
X05443Y04961D02*
X05444Y04955D01*
X05448Y0495*
X05461Y04936*
X05466Y04933*
X05472Y04932*
X05553*
X05583Y04901*
X05583Y04899*
X05585Y0489*
X0559Y04882*
X05592Y04881*
X05594Y04876*
X05594Y04875*
X05594Y04873*
Y04873*
Y04872*
Y04799*
X0556*
Y04812*
X05582*
Y04881*
X05557*
X05555Y04886*
X05557Y0489*
X05559Y04899*
X05557Y04909*
X05552Y04916*
X05544Y04922*
X05535Y04924*
X05525Y04922*
X05518Y04916*
X05516Y04914*
X05475*
X05469Y04913*
X05464Y0491*
X05448Y04893*
X05444Y04888*
X05443Y04883*
Y04881*
X05427*
Y04962*
X05443*
Y04961*
G37*
G36*
X062Y05067D02*
X06201Y05066D01*
Y04867*
X06203Y04861*
X06206Y04856*
X06244Y04818*
Y04779*
X0624Y04776*
X0624Y04777*
X06233Y04775*
X0623Y04773*
X06226Y04775*
X0622Y04777*
X06214Y04775*
X0621Y04773*
X06207Y04775*
X062Y04777*
X06194Y04775*
X0619Y04773*
X06187Y04775*
X06181Y04777*
X06174Y04775*
X06171Y04773*
X06167Y04775*
X06161Y04777*
X06161Y04776*
X06157Y04779*
Y04816*
X06185Y04844*
X06188Y04849*
X06189Y04855*
Y05066*
X06191Y05067*
X06193Y0507*
X06198*
X062Y05067*
G37*
G36*
X05869Y04746D02*
X05887D01*
Y04771*
X05891Y04774*
X05897*
Y04722*
X05893Y04718*
X05814*
Y04718*
X05794*
Y04679*
Y04639*
X05814*
Y04612*
X05793*
Y04572*
Y04533*
X05814*
X06045*
Y04264*
X0618*
Y04198*
X0597*
Y04387*
X05968*
Y04407*
X05944*
Y04413*
X05943Y04419*
X05939Y04424*
X05908Y04455*
X05903Y04459*
X05897Y0446*
X0586*
Y04461*
X05859Y0447*
X05854Y04477*
X05847Y04482*
X05838Y04483*
X05829Y04482*
X05822Y04477*
X05818Y0447*
X05816Y04461*
Y04427*
X05818Y04419*
X05822Y04412*
X05829Y04407*
X05838Y04405*
X05847Y04407*
X05854Y04412*
X05859Y04419*
X0586Y04427*
Y04429*
X05891*
X05908Y04412*
X05906Y04407*
X05889*
Y04387*
X05814*
X05669*
Y04409*
X05674Y04411*
X05679Y04407*
X05688Y04405*
X05697Y04407*
X05704Y04412*
X05709Y04419*
X0571Y04427*
Y04461*
X05709Y0447*
X05704Y04477*
X05703Y04477*
Y04538*
X05725*
Y04607*
X05669*
Y0477*
X05674Y04775*
X05765*
Y04746*
X05784*
Y04776*
X05794*
Y04746*
X05859*
Y04776*
X05869*
Y04746*
G37*
G36*
X06016Y04814D02*
X06027D01*
X06028Y04813*
X06034Y04812*
X06063*
Y04809*
X06068*
Y04792*
X06093*
X06099Y04794*
X06105Y04797*
X06108Y04802*
X06109Y04809*
X0611Y0481*
X06112Y0481*
X06116Y04806*
Y04716*
X06001*
Y04744*
X05923*
Y04716*
X05907*
Y04722*
Y04765*
Y04814*
X06015*
X06016Y04814*
G37*
G36*
X07516Y0469D02*
X07521Y04687D01*
X07527Y04686*
X07546*
X07547Y04684*
X07553Y0468*
Y04674*
X07547Y04671*
X07542Y04663*
X0754Y04655*
X07459Y04573*
X07395*
Y04597*
X07359*
Y04602*
X07354*
Y04641*
X07255*
Y04617*
X07248*
Y04641*
X07183*
X07179Y04645*
Y04665*
X07183Y04669*
X07248*
Y04693*
X07255*
Y04669*
X07355*
Y04708*
X0736*
Y04713*
X07395*
Y04748*
X074Y04748*
X07458*
X07516Y0469*
G37*
G36*
X07824Y04739D02*
X07825Y04738D01*
Y04725*
X07672Y04572*
X07668Y04567*
X07667Y04561*
Y04275*
X07644*
Y04238*
X07598*
Y04257*
Y04328*
X07574*
Y04347*
X07593*
Y04422*
X07524*
Y04347*
X07543*
Y04328*
X07519*
Y04257*
Y04188*
X07598*
Y04208*
X07644*
Y04171*
X07724*
Y04275*
X07698*
Y04419*
X0775*
Y04275*
X07735*
Y04171*
X07814*
Y04275*
X07799*
Y04419*
X07859*
Y04447*
X07931*
Y04436*
Y04405*
X0797*
Y04396*
X07931*
Y04365*
X07942*
Y04134*
X07942*
Y04095*
Y04055*
X07942*
Y03987*
X07792*
X0779Y03991*
X07794Y03997*
X07796Y04006*
X07794Y04016*
X07788Y04024*
X07781Y04029*
X07771Y04031*
X07762Y04029*
X07754Y04024*
X07753Y04022*
X07588*
X07475Y04134*
X0747Y04138*
X07464Y04139*
X07419*
Y0414*
X07418Y04147*
X07416Y04153*
X07412Y04159*
X07406Y04162*
X074Y04165*
X07393Y04166*
X07216*
X07209Y04165*
X07202Y04162*
X07197Y04159*
X07193Y04153*
X0719Y04147*
X07189Y0414*
Y04107*
X0719Y041*
X07193Y04094*
X07197Y04088*
X07202Y04085*
X07209Y04082*
X07216Y04081*
X07393*
X074Y04082*
X07406Y04085*
X07412Y04088*
X07416Y04094*
X07418Y041*
X07419Y04107*
Y04108*
X07458*
X0757Y03996*
X07575Y03992*
X0758Y03991*
X07579Y03987*
X06919*
X06918Y03991*
X0693Y03998*
X06943Y04009*
X06953Y04022*
X06961Y04036*
X06966Y04052*
X06968Y04068*
X06966Y04085*
X06961Y04101*
X06953Y04115*
X06946Y04125*
X06948Y0413*
X07085Y04129*
X07086Y04129*
X07168*
X0717Y04129*
X07172Y0413*
X07174Y04131*
X07176Y04132*
X07177Y04134*
X07178Y04135*
X07178Y04137*
X07179Y04139*
X07179Y04347*
X07183Y0435*
X07247*
Y04374*
X07254*
Y0435*
X07354*
Y0439*
X07359*
Y04395*
X07394*
Y04422*
X0745*
X07455Y04424*
X0746Y04427*
X07519Y04485*
X07524Y04483*
Y04476*
X07553*
Y04509*
X07549*
X07547Y04514*
X07568Y04535*
X07576Y04536*
X07584Y04541*
X07589Y04549*
X07591Y04559*
X0759Y04561*
X07766Y04736*
X07809*
X07815Y04737*
X0782Y0474*
X07824Y04739*
G37*
G36*
X05461Y0464D02*
X05485D01*
Y04603*
X05486Y04599*
X05488Y04596*
X05492Y04593*
X05496Y04592*
X05564*
Y04538*
X05587*
Y04527*
X05562*
Y04459*
X05545*
Y04488*
X05505*
X05466*
Y04459*
X05452*
X05448Y04458*
X05445Y04455*
X05443Y04452*
X05442Y04448*
Y0419*
X05443Y04187*
X05445Y04183*
X05448Y04181*
X05452Y0418*
X05582*
Y04147*
X05618*
Y04142*
X05622*
Y04102*
X05638*
Y04084*
X05639Y0408*
X05642Y04077*
X05645Y04075*
X05649Y04074*
Y04013*
Y03956*
X05427*
Y04206*
X05324*
Y04253*
X05427*
Y0464*
X05451*
Y04676*
X05461*
Y0464*
G37*
G36*
X07512Y04522D02*
X07443Y04453D01*
X07399*
X07395Y04456*
Y0449*
X07359*
Y04501*
X07395*
Y04526*
X07507*
X07509*
X07512Y04522*
G37*
G36*
X05666Y04427D02*
X05667Y04423D01*
X05665Y04418*
X05663Y04417*
X05662Y04416*
X05661Y04414*
X05659Y04413*
X05659Y04411*
X05659Y04409*
Y04387*
X05659Y04383*
X05662Y0438*
X05665Y04378*
X05669Y04377*
X05766*
Y04247*
Y04213*
Y04181*
X05753*
Y04102*
X05893*
Y04108*
X06057*
X06066Y04098*
Y04084*
X06044*
Y04049*
X06039*
Y04044*
X06*
Y04017*
X05728*
Y04044*
X05688*
Y04049*
X05683*
Y04084*
X05649*
Y04102*
X05683*
Y04142*
Y04181*
X05649*
Y0419*
X05649Y0419*
X05452*
Y04448*
X05466*
Y04428*
X05505*
X05545*
Y04448*
X05562*
Y04428*
X05641*
Y04448*
X05666*
Y04427*
G37*
G36*
X06469Y04814D02*
X06478D01*
X06479Y04813*
X06485Y04812*
X06514*
Y04809*
X06519*
Y04793*
X06557*
X06562Y04789*
Y04679*
X06777*
Y04424*
X067*
Y04438*
X06724*
Y04478*
Y04517*
X067*
Y0462*
X067*
Y0463*
X0662*
Y0462*
X06554*
Y0463*
X06475*
Y0462*
X06439*
Y04675*
Y04686*
X06443Y04686*
X06448Y0469*
X06451Y04695*
X06453Y04701*
Y04726*
X06437*
Y04736*
X06453*
Y04761*
X06451Y04766*
X06448Y04772*
X06443Y04775*
X06439Y04776*
Y04818*
X06469*
Y04814*
G37*
G36*
X06Y03956D02*
X05912D01*
Y03975*
X05875*
Y03985*
X05912*
Y04007*
X06*
Y03956*
G37*
%LNslave-2*%
%LPC*%
G36*
X06804Y05918D02*
X06774D01*
Y05863*
X06804*
Y05918*
G37*
G36*
X06764D02*
X06734D01*
Y05863*
X06764*
Y05918*
G37*
G36*
X07642Y05743D02*
X07558D01*
Y05706*
X07668*
Y05717*
X07667Y05724*
X07664Y0573*
X07661Y05736*
X07655Y0574*
X07649Y05742*
X07642Y05743*
G37*
G36*
X07548D02*
X07464D01*
X07457Y05742*
X07451Y0574*
X07446Y05736*
X07442Y0573*
X07439Y05724*
X07438Y05717*
Y05706*
X07548*
Y05743*
G37*
G36*
X07668Y05696D02*
X07558D01*
Y05658*
X07642*
X07649Y05659*
X07655Y05662*
X07661Y05666*
X07664Y05671*
X07667Y05677*
X07668Y05685*
Y05696*
G37*
G36*
X07548D02*
X07438D01*
Y05685*
X07439Y05677*
X07442Y05671*
X07446Y05666*
X07451Y05662*
X07457Y05659*
X07464Y05658*
X07548*
Y05696*
G37*
G36*
X07507Y05181D02*
X07473D01*
Y0515*
X07507*
Y05181*
G37*
G36*
X07702D02*
X07668D01*
Y0515*
X07702*
Y05181*
G37*
G36*
X07606D02*
X07572D01*
Y0515*
X07606*
Y05181*
G37*
G36*
X07561D02*
X07527D01*
Y0515*
X07561*
Y05181*
G37*
G36*
X07658D02*
X07624D01*
Y0515*
X07658*
Y05181*
G37*
G36*
X07893Y04687D02*
X07862D01*
Y04652*
X07893*
Y04687*
G37*
G36*
Y04642D02*
X07862D01*
Y04607*
X07893*
Y04642*
G37*
G36*
X05734Y05592D02*
X0569D01*
Y05548*
X05734*
Y05592*
G37*
G36*
X05679D02*
X05635D01*
Y05548*
X05679*
Y05592*
G37*
G36*
X05734Y05538D02*
X0569D01*
Y05494*
X05734*
Y05538*
G37*
G36*
X05679D02*
X05635D01*
Y05494*
X05679*
Y05538*
G37*
G36*
X05724Y0544D02*
X0569D01*
Y05409*
X05724*
Y0544*
G37*
G36*
X05679D02*
X05645D01*
Y05409*
X05679*
Y0544*
G37*
G36*
X06309Y05324D02*
X06278D01*
Y05289*
X06309*
Y05324*
G37*
G36*
X06503D02*
X06473D01*
Y05289*
X06503*
Y05324*
G37*
G36*
X06309Y05279D02*
X06278D01*
Y05244*
X06309*
Y05279*
G37*
G36*
X0488Y0579D02*
X04796D01*
Y05753*
X04906*
Y05764*
X04905Y05771*
X04903Y05777*
X04899Y05783*
X04893Y05787*
X04887Y0579*
X0488Y0579*
G37*
G36*
X04786D02*
X04703D01*
X04696Y0579*
X04689Y05787*
X04684Y05783*
X0468Y05777*
X04677Y05771*
X04676Y05764*
Y05753*
X04786*
Y0579*
G37*
G36*
X04906Y05743D02*
X04796D01*
Y05705*
X0488*
X04887Y05706*
X04893Y05709*
X04899Y05713*
X04903Y05718*
X04905Y05725*
X04906Y05732*
Y05743*
G37*
G36*
X04786D02*
X04676D01*
Y05732*
X04677Y05725*
X0468Y05718*
X04684Y05713*
X04689Y05709*
X04696Y05706*
X04703Y05705*
X04786*
Y05743*
G37*
G36*
X07399Y05727D02*
X07365D01*
Y05697*
X07399*
Y05727*
G37*
G36*
X07355D02*
X0732D01*
Y05697*
X07355*
Y05727*
G37*
G36*
X07399Y05253D02*
X07365D01*
Y05223*
X07399*
Y05253*
G37*
G36*
X07355D02*
X0732D01*
Y05223*
X07355*
Y05253*
G37*
G36*
X07291D02*
X07257D01*
Y05223*
X07291*
Y05253*
G37*
G36*
X07247D02*
X07212D01*
Y05223*
X07247*
Y05253*
G37*
G36*
X07183D02*
X07149D01*
Y05223*
X07183*
Y05253*
G37*
G36*
X07138D02*
X07104D01*
Y05223*
X07138*
Y05253*
G37*
G36*
X06804Y05612D02*
X06774D01*
Y05558*
X06804*
Y05612*
G37*
G36*
Y05548D02*
X06774D01*
Y05493*
X06804*
Y05548*
G37*
G36*
X06764D02*
X06734D01*
Y05493*
X06764*
Y05548*
G37*
G36*
X13596Y05862D02*
X13563D01*
Y05822*
X13596*
Y05862*
G37*
G36*
Y05811D02*
X13563D01*
Y05771*
X13596*
Y05811*
G37*
G36*
X13553D02*
X13521D01*
Y05771*
X13553*
Y05811*
G37*
G36*
X13102Y05492D02*
X13091D01*
Y05382*
X13128*
Y05466*
X13127Y05473*
X13125Y05479*
X13121Y05485*
X13115Y05488*
X13109Y05491*
X13102Y05492*
G37*
G36*
X13081D02*
X1307D01*
X13062Y05491*
X13056Y05488*
X13051Y05485*
X13047Y05479*
X13044Y05473*
X13043Y05466*
Y05382*
X13081*
Y05492*
G37*
G36*
X13128Y05372D02*
X13091D01*
Y05262*
X13102*
X13109Y05263*
X13115Y05266*
X13121Y0527*
X13125Y05275*
X13127Y05281*
X13128Y05288*
Y05372*
G37*
G36*
X13081D02*
X13043D01*
Y05288*
X13044Y05281*
X13047Y05275*
X13051Y0527*
X13056Y05266*
X13062Y05263*
X1307Y05262*
X13081*
Y05372*
G37*
G36*
X05944Y0533D02*
X0591D01*
Y053*
X05944*
Y0533*
G37*
G36*
X059D02*
X05866D01*
Y053*
X059*
Y0533*
G37*
G36*
X05945Y05273D02*
X05911D01*
Y05243*
X05945*
Y05273*
G37*
G36*
X05901D02*
X05866D01*
Y05243*
X05901*
Y05273*
G37*
G36*
X05724Y05208D02*
X05694D01*
Y05174*
X05724*
Y05208*
G37*
G36*
X05584Y05201D02*
X0555D01*
Y05171*
X05584*
Y05201*
G37*
G36*
X0554D02*
X05505D01*
Y05171*
X0554*
Y05201*
G37*
G36*
X06136Y05177D02*
X06125D01*
Y05152*
X06126Y05146*
X0613Y0514*
X06135Y05137*
X06136*
Y05177*
G37*
G36*
X05724Y05164D02*
X05694D01*
Y05129*
X05724*
Y05164*
G37*
G36*
X05824Y05021D02*
X05794D01*
Y04987*
X05824*
Y05021*
G37*
G36*
Y04977D02*
X05794D01*
Y04942*
X05824*
Y04977*
G37*
G36*
X05738Y04917D02*
X05703D01*
Y04887*
X05738*
Y04917*
G37*
G36*
X05693D02*
X05659D01*
Y04887*
X05693*
Y04917*
G37*
G36*
X05812Y04911D02*
X05794D01*
Y04885*
X05812*
Y04911*
G37*
G36*
X05784D02*
X05765D01*
Y04885*
X05784*
Y04911*
G37*
G36*
X05584Y04673D02*
X0555D01*
Y04642*
X05584*
Y04673*
G37*
G36*
X0554D02*
X05505D01*
Y04642*
X0554*
Y04673*
G37*
G36*
X06669Y0508D02*
X06635D01*
Y0505*
X06669*
Y0508*
G37*
G36*
X06392Y05324D02*
X06362D01*
Y05289*
X06392*
Y05324*
G37*
G36*
Y05279D02*
X06362D01*
Y05244*
X06392*
Y05279*
G37*
G36*
X05844Y05078D02*
X05812D01*
Y05048*
X05844*
Y05078*
G37*
G36*
X05801D02*
X05769D01*
Y05048*
X05801*
Y05078*
G37*
G36*
X07367Y05096D02*
Y05077D01*
X07385*
X07384Y05082*
X07379Y0509*
X07371Y05095*
X07367Y05096*
G37*
G36*
X07357D02*
X07352Y05095D01*
X07344Y0509*
X07339Y05082*
X07338Y05077*
X07357*
Y05096*
G37*
G36*
X07385Y05067D02*
X07367D01*
Y05049*
X07371Y0505*
X07379Y05055*
X07384Y05063*
X07385Y05067*
G37*
G36*
X07357D02*
X07338D01*
X07339Y05063*
X07344Y05055*
X07352Y0505*
X07357Y05049*
Y05067*
G37*
G36*
X07138Y0514D02*
X07108D01*
Y05106*
X07138*
Y0514*
G37*
G36*
Y05057D02*
X07108D01*
Y05022*
X07138*
Y05057*
G37*
G36*
Y05012D02*
X07108D01*
Y04978*
X07138*
Y05012*
G37*
G36*
Y04926D02*
X07108D01*
Y04892*
X07138*
Y04926*
G37*
G36*
Y04881D02*
X07108D01*
Y04847*
X07138*
Y04881*
G37*
G36*
Y04748D02*
X07108D01*
Y04713*
X07138*
Y04748*
G37*
G36*
Y04703D02*
X07108D01*
Y04669*
X07138*
Y04703*
G37*
G36*
X07138Y04641D02*
X07108D01*
Y04607*
X07138*
Y04641*
G37*
G36*
Y04597D02*
X07108D01*
Y04562*
X07138*
Y04597*
G37*
G36*
Y04535D02*
X07108D01*
Y04501*
X07138*
Y04535*
G37*
G36*
Y0449D02*
X07108D01*
Y04456*
X07138*
Y0449*
G37*
G36*
X07138Y04429D02*
X07107D01*
Y04395*
X07138*
Y04429*
G37*
G36*
Y04385D02*
X07107D01*
Y0435*
X07138*
Y04385*
G37*
G36*
X06001Y04674D02*
X05967D01*
Y04643*
X06001*
Y04674*
G37*
G36*
X05957D02*
X05923D01*
Y04643*
X05957*
Y04674*
G37*
G36*
X05895D02*
X05865D01*
Y04639*
X05895*
Y04674*
G37*
G36*
X05895Y04612D02*
X05864D01*
Y04577*
X05895*
Y04612*
G37*
G36*
X06655Y04559D02*
X0662D01*
Y04529*
X06655*
Y04559*
G37*
G36*
X06554D02*
X06519D01*
Y04529*
X06554*
Y04559*
G37*
G36*
X06509D02*
X06475D01*
Y04529*
X06509*
Y04559*
G37*
G36*
X07064Y04541D02*
X07034D01*
Y04507*
X07064*
Y04541*
G37*
G36*
X06508Y04517D02*
X06478D01*
Y04483*
X06508*
Y04517*
G37*
G36*
X07064Y04496D02*
X07034D01*
Y04462*
X07064*
Y04496*
G37*
G36*
X06508Y04473D02*
X06478D01*
Y04438*
X06508*
Y04473*
G37*
G36*
X05924Y04298D02*
X05889D01*
Y04267*
X05924*
Y04298*
G37*
G36*
X05843Y04268D02*
Y04235D01*
X0586*
Y04247*
X05859Y04255*
X05854Y04262*
X05847Y04267*
X05843Y04268*
G37*
G36*
X05833D02*
X05829Y04267D01*
X05822Y04262*
X05818Y04255*
X05816Y04247*
Y04235*
X05833*
Y04268*
G37*
G36*
X06269Y04674D02*
X06243Y04672D01*
X06217Y04667*
X06192Y04659*
X06168Y04647*
X06146Y04633*
X06126Y04615*
X06109Y04595*
X06094Y04573*
X06082Y0455*
X06074Y04524*
X06069Y04498*
X06067Y04472*
X06069Y04446*
X06074Y0442*
X06082Y04394*
X06094Y04371*
X06109Y04349*
X06126Y04329*
X06146Y04311*
X06168Y04297*
X06192Y04285*
X06217Y04277*
X06233Y04274*
X06233Y04268*
X06224*
Y04195*
X06314*
Y04268*
X06306*
X06305Y04274*
X06322Y04277*
X06347Y04285*
X0637Y04297*
X06392Y04311*
X06412Y04329*
X0643Y04349*
X06444Y04371*
X06456Y04394*
X06464Y0442*
X0647Y04446*
X06472Y04472*
X0647Y04498*
X06464Y04524*
X06456Y0455*
X06444Y04573*
X0643Y04595*
X06412Y04615*
X06392Y04633*
X0637Y04647*
X06347Y04659*
X06322Y04667*
X06296Y04672*
X06269Y04674*
G37*
G36*
X0586Y04225D02*
X05843D01*
Y04192*
X05847Y04192*
X05854Y04198*
X05859Y04205*
X0586Y04213*
Y04225*
G37*
G36*
X05833D02*
X05816D01*
Y04213*
X05818Y04205*
X05822Y04198*
X05829Y04192*
X05833Y04192*
Y04225*
G37*
G36*
X05893Y04181D02*
X05862D01*
Y04147*
X05893*
Y04181*
G37*
G36*
X06185Y04084D02*
X0615D01*
Y04054*
X06185*
Y04084*
G37*
G36*
X07395Y04926D02*
X07365D01*
Y04892*
X07395*
Y04926*
G37*
G36*
Y04881D02*
X07365D01*
Y04847*
X07395*
Y04881*
G37*
G36*
X05784Y04718D02*
X05753D01*
Y04684*
X05784*
Y04718*
G37*
G36*
Y04674D02*
X05753D01*
Y04639*
X05784*
Y04674*
G37*
G36*
X05783Y04612D02*
X05753D01*
Y04577*
X05783*
Y04612*
G37*
G36*
Y04567D02*
X05753D01*
Y04533*
X05783*
Y04567*
G37*
G36*
X05743Y04482D02*
Y0445D01*
X0576*
Y04461*
X05759Y0447*
X05754Y04477*
X05747Y04482*
X05743Y04482*
G37*
G36*
X05783D02*
X05779Y04482D01*
X05772Y04477*
X05768Y0447*
X05766Y04461*
Y0445*
X05783*
Y04482*
G37*
G36*
X05733D02*
X05729Y04482D01*
X05722Y04477*
X05718Y0447*
X05716Y04461*
Y0445*
X05733*
Y04482*
G37*
G36*
X05793D02*
Y04444D01*
Y04407*
X05797Y04407*
X05804Y04412*
X05809Y04419*
X05809Y04424*
X0581*
Y04424*
X0581Y04427*
Y04461*
X05809Y04465*
X05809Y0447*
X05804Y04477*
X05797Y04482*
X05793Y04482*
G37*
G36*
X0576Y04439D02*
X05743D01*
Y04407*
X05747Y04407*
X05754Y04412*
X05759Y04419*
X0576Y04427*
Y04439*
G37*
G36*
X05783D02*
X05766D01*
Y04427*
X05768Y04419*
X05772Y04412*
X05779Y04407*
X05783Y04407*
Y04439*
G37*
G36*
X05733D02*
X05716D01*
Y04427*
X05718Y04419*
X05722Y04412*
X05729Y04407*
X05733Y04407*
Y04439*
G37*
G36*
X06059Y04803D02*
X06019D01*
Y04802*
X06022Y04797*
X06028Y04794*
X06034Y04792*
X06059*
Y04803*
G37*
G36*
X06001Y04785D02*
X05967D01*
Y04755*
X06001*
Y04785*
G37*
G36*
X05957D02*
X05923D01*
Y04755*
X05957*
Y04785*
G37*
G36*
X07395Y04703D02*
X07365D01*
Y04669*
X07395*
Y04703*
G37*
G36*
X07395Y04641D02*
X07364D01*
Y04607*
X07395*
Y04641*
G37*
G36*
X07593Y04509D02*
X07563D01*
Y04476*
X07593*
Y04509*
G37*
G36*
Y04466D02*
X07563D01*
Y04434*
X07593*
Y04466*
G37*
G36*
X07553D02*
X07524D01*
Y04434*
X07553*
Y04466*
G37*
G36*
X07394Y04385D02*
X07364D01*
Y0435*
X07394*
Y04385*
G37*
G36*
X07393Y04266D02*
X07309D01*
Y04229*
X07419*
Y0424*
X07418Y04247*
X07416Y04253*
X07412Y04259*
X07406Y04262*
X074Y04265*
X07393Y04266*
G37*
G36*
X07299D02*
X07216D01*
X07209Y04265*
X07202Y04262*
X07197Y04259*
X07193Y04253*
X0719Y04247*
X07189Y0424*
Y04229*
X07299*
Y04266*
G37*
G36*
X07419Y04218D02*
X07309D01*
Y04181*
X07393*
X074Y04182*
X07406Y04185*
X07412Y04188*
X07416Y04194*
X07418Y042*
X07419Y04207*
Y04218*
G37*
G36*
X07299D02*
X07189D01*
Y04207*
X0719Y042*
X07193Y04194*
X07197Y04188*
X07202Y04185*
X07209Y04182*
X07216Y04181*
X07299*
Y04218*
G37*
G36*
X07905Y04275D02*
X07825D01*
Y04171*
X07842*
Y04134*
X0783*
Y04119*
X07811*
Y0414*
X07738*
Y0405*
X07811*
Y0407*
X0783*
Y04055*
X07932*
Y04095*
Y04134*
X0789*
Y04171*
X07905*
Y04275*
G37*
G36*
X07701Y0414D02*
X07628D01*
Y04119*
X07572*
X07563Y04117*
X07555Y04112*
X0755Y04104*
X07548Y04095*
X0755Y04085*
X07555Y04078*
X07563Y04072*
X07572Y0407*
X07628*
Y0405*
X07701*
Y0414*
G37*
G36*
X05545Y04529D02*
X05511D01*
Y04499*
X05545*
Y04529*
G37*
G36*
X055D02*
X05466D01*
Y04499*
X055*
Y04529*
G37*
G36*
X05612Y04137D02*
X05582D01*
Y04102*
X05612*
Y04137*
G37*
G36*
X05641Y04418D02*
X05607D01*
Y04387*
X05641*
Y04418*
G37*
G36*
X05597D02*
X05562D01*
Y04387*
X05597*
Y04418*
G37*
G36*
X05545D02*
X05511D01*
Y04387*
X05545*
Y04418*
G37*
G36*
X055D02*
X05466D01*
Y04387*
X055*
Y04418*
G37*
G36*
X05743Y04268D02*
Y04235D01*
X0576*
Y04247*
X05759Y04255*
X05754Y04262*
X05747Y04267*
X05743Y04268*
G37*
G36*
X0571Y04268D02*
X05693D01*
Y04235*
X0571*
Y04268*
G37*
G36*
X05683D02*
X05666D01*
Y04235*
X05683*
Y04268*
G37*
G36*
X05733Y04268D02*
X05729Y04267D01*
X05722Y04262*
X05718Y04255*
X05716Y04247*
Y04235*
X05733*
Y04268*
G37*
G36*
X05738Y0423D02*
D01*
G37*
G36*
X0576Y04225D02*
X05743D01*
Y04192*
X05747Y04192*
X05754Y04198*
X05759Y04205*
X0576Y04213*
Y04225*
G37*
G36*
X05733D02*
X05716D01*
Y04213*
X05718Y04205*
X05722Y04198*
X05729Y04192*
X05733Y04192*
Y04225*
G37*
G36*
X0571D02*
X05693D01*
Y04191*
X0571*
Y04225*
G37*
G36*
X05683D02*
X05666D01*
Y04191*
X05683*
Y04225*
G37*
G36*
X05724Y04181D02*
X05693D01*
Y04147*
X05724*
Y04181*
G37*
G36*
Y04137D02*
X05693D01*
Y04102*
X05724*
Y04137*
G37*
G36*
X05728Y04084D02*
X05693D01*
Y04054*
X05728*
Y04084*
G37*
G36*
X06034D02*
X06D01*
Y04054*
X06034*
Y04084*
G37*
G36*
X06509Y04803D02*
X06469D01*
Y04793*
X06509*
Y04803*
G37*
G36*
X067Y04671D02*
X06665D01*
Y0464*
X067*
Y04671*
G37*
G36*
X06655D02*
X0662D01*
Y0464*
X06655*
Y04671*
G37*
G36*
X06554D02*
X06519D01*
Y0464*
X06554*
Y04671*
G37*
G36*
X06509D02*
X06475D01*
Y0464*
X06509*
Y04671*
G37*
G36*
X06764Y04517D02*
X06734D01*
Y04483*
X06764*
Y04517*
G37*
G36*
Y04473D02*
X06734D01*
Y04438*
X06764*
Y04473*
G37*
%LNslave-3*%
%LPD*%
G54D13*
X05418Y05809D02*
X05544Y05683D01*
X05116Y05809D02*
X05418D01*
X05076Y05848D02*
X05116Y05809D01*
X04785Y04946D02*
Y05009D01*
X04748Y05047D02*
X04785Y05009D01*
X04698Y05047D02*
X04748D01*
X04698Y04797D02*
X04699Y04797D01*
X04746*
X04785Y04836*
Y04872*
D01*
Y04898D01*
Y04946D02*
D01*
X04419Y04982D02*
X04421Y0498D01*
X04478*
X04545Y05047*
X04698*
X04494Y04844D02*
X04541Y04797D01*
X04698*
X04494Y04236D02*
Y04844D01*
X04474Y04864D02*
X04494Y04844D01*
X04419Y04864D02*
X04474D01*
X04478Y0422D02*
X04494Y04236D01*
X04419Y0422D02*
X04478D01*
X04419Y04629D02*
Y04864D01*
Y04338D02*
Y04574D01*
Y04982D02*
D01*
X04332D02*
X04419D01*
X04303Y04952D02*
X04332Y04982D01*
X04303Y04377D02*
Y04952D01*
Y04377D02*
X04342Y04338D01*
X04419*
X05458Y04846D02*
Y04883D01*
X14257Y05849D02*
X15829D01*
X16317Y05361*
X06606Y05496D02*
X06911Y05801D01*
X06606Y05288D02*
Y05496D01*
X06439Y05121D02*
X06606Y05288D01*
X06145Y04904D02*
X06146Y04905D01*
X06145Y04864D02*
Y04904D01*
X06109Y04828D02*
X06145Y04864D01*
X06063Y04828D02*
X06109D01*
X06116Y04862D02*
Y05068D01*
X06102Y04848D02*
X06116Y04862D01*
X06063Y04848D02*
X06102D01*
X06174Y04855D02*
Y05084D01*
X06141Y04822D02*
X06174Y04855D01*
X06141Y04731D02*
Y04822D01*
X06116Y05068D02*
X06131Y05084D01*
X05559Y04947D02*
X05607Y04899D01*
X05472Y04947D02*
X05559D01*
X05698Y04811D02*
X05704Y04816D01*
X06583Y04974D02*
X06629D01*
X06569Y04987D02*
X06583Y04974D01*
X06569Y04987D02*
Y05009D01*
X06553Y05025D02*
X06569Y05009D01*
X06553Y05025D02*
D01*
X06514D02*
X06553D01*
X0774Y04773D02*
X07786D01*
X07564Y04598D02*
X0774Y04773D01*
X07507Y04541D02*
X07564Y04598D01*
X07267Y04541D02*
X07507D01*
X05544Y05468D02*
Y05683D01*
Y05373D02*
X05675Y05242D01*
X05766*
X05798Y05209*
Y05169D02*
Y05209D01*
X07683Y0424D02*
X07702Y0422D01*
X0784Y04719D02*
Y0494D01*
X07683Y04561D02*
X0784Y04719D01*
X07683Y0424D02*
Y04561D01*
X07464Y04124D02*
X07581Y04006D01*
X07771*
X07304Y04124D02*
X07464D01*
X07558Y04385D02*
X07559Y04384D01*
Y04292D02*
Y04384D01*
X07761Y04753D02*
X07786D01*
X07251Y0439D02*
Y04424D01*
X07264Y04438*
X0745*
X07566Y04555*
X07251Y04496D02*
Y04525D01*
X07267Y04541*
X07564Y04657D02*
X077Y04793D01*
X07465Y04558D02*
X07564Y04657D01*
X07266Y04558D02*
X07465D01*
X077Y04793D02*
X07786D01*
X07251Y04572D02*
Y04602D01*
Y04572D02*
X07266Y04558D01*
X06887Y05818D02*
Y05923D01*
X0644Y05771D02*
X06529Y05683D01*
Y05244D02*
Y05683D01*
X06466Y05181D02*
X06529Y05244D01*
X06988Y0546D02*
X07005Y05478D01*
X06883Y0546D02*
X06988D01*
X06606Y05183D02*
X06883Y0546D01*
X0736Y05145D02*
X07468D01*
X16317Y04716D02*
Y04866D01*
X12986Y05377D02*
Y05877D01*
X06161Y05181D02*
Y05336D01*
X06049Y05284D02*
X06049D01*
X07564Y04701D02*
X07566D01*
X07677Y04812D02*
X07748D01*
X07566Y04701D02*
X07677Y04812D01*
X07282Y04957D02*
X07544D01*
X07323Y04973D02*
X07555D01*
X07279Y05017D02*
X07323Y04973D01*
X07251Y04927D02*
X07282Y04957D01*
X07555Y04973D02*
X07598Y04931D01*
X07544Y04957D02*
X0759Y04911D01*
X07527Y04701D02*
X07564D01*
X07465Y04763D02*
X07527Y04701D01*
X07267Y04763D02*
X07465D01*
X07564Y04749D02*
X07648Y04832D01*
X07564Y04796D02*
X0762Y04852D01*
X07648Y04832D02*
X07786D01*
X0762Y04852D02*
X07786D01*
X07592Y04872D02*
X07786D01*
X07564Y04844D02*
X07592Y04872D01*
X07566Y04559D02*
X07761Y04753D01*
X07566Y04555D02*
Y04559D01*
X06181Y05227D02*
X06202Y05248D01*
X06181Y05181D02*
Y05227D01*
X06202Y05248D02*
Y05284D01*
X04791Y05848D02*
X05076D01*
X06569Y055D02*
X06887Y05818D01*
X06569Y05305D02*
Y055D01*
X07246Y05498D02*
Y0558D01*
Y05498D02*
X07311Y05433D01*
X06911Y05801D02*
X0736D01*
X07361Y05801*
X07553*
X05544Y05373D02*
Y05468D01*
X0659Y05218D02*
X06828Y05456D01*
X06569Y05104D02*
X06898Y05433D01*
X06572Y05084D02*
X06877Y05389D01*
X06574Y05064D02*
X06872Y05362D01*
X06514Y05104D02*
X06569D01*
X06514Y05084D02*
X06572D01*
X06514Y05064D02*
X06574D01*
X06828Y05456D02*
Y05529D01*
X06852Y05553*
X06887*
X07005Y05478D02*
Y05553D01*
X06392Y05121D02*
X06439D01*
X06437Y05181D02*
X06466D01*
X06428Y05228D02*
X06449D01*
X06417Y05217D02*
X06428Y05228D01*
X06417Y05181D02*
Y05217D01*
X06468Y05284D02*
X06469Y05283D01*
Y05248D02*
Y05283D01*
X06449Y05228D02*
X06469Y05248D01*
X06838Y05096D02*
Y05173D01*
X06669Y04927D02*
X06838Y05096D01*
X06514Y05045D02*
X06629D01*
X06958Y045D02*
Y0469D01*
X06881D02*
X06958D01*
X06881Y05104D02*
X06958D01*
X07144Y05327D02*
Y05356D01*
X07138Y05362D02*
X07144Y05356D01*
X07076Y05362D02*
X07138D01*
X06872D02*
X07076D01*
X13988Y05795D02*
X15381D01*
X16417Y04716D02*
Y04866D01*
X06377Y05135D02*
X06392Y05121D01*
X06377Y05135D02*
Y05181D01*
X0736Y05327D02*
Y05383D01*
X07311Y05433D02*
X0736Y05383D01*
X06898Y05433D02*
X07311D01*
X07226Y05389D02*
X07252Y05363D01*
X06877Y05389D02*
X07226D01*
X07252Y05327D02*
Y05363D01*
X06092Y0398D02*
Y04094D01*
X06033Y04153D02*
X06092Y04094D01*
X05788Y04142D02*
Y0423D01*
X0772Y0496D02*
X0773Y0497D01*
X07679Y0496D02*
X0772D01*
X0773Y0497D02*
X07786D01*
X12161Y04211D02*
X12263D01*
X12277Y04196*
X12333*
X12274Y04335D02*
X12333D01*
X12259Y0435D02*
X12274Y04335D01*
X12161Y0435D02*
X12259D01*
X12161Y04488D02*
X12265D01*
X12279Y04474*
X12333*
X12274Y04614D02*
X12333D01*
X12259Y04628D02*
X12274Y04614D01*
X12161Y04628D02*
X12259D01*
X12275Y04753D02*
X12333D01*
X12261Y04768D02*
X12275Y04753D01*
X12161Y04768D02*
X12261D01*
X12161Y04907D02*
X12274D01*
X12288Y04893*
X12333*
X12331Y05035D02*
X12333Y05033D01*
X12277Y05035D02*
X12331D01*
X12265Y05047D02*
X12277Y05035D01*
X12161Y05047D02*
X12265D01*
X12161Y05186D02*
X12262D01*
X12276Y05172*
X12333*
X12277Y05311D02*
X12333D01*
X12263Y05325D02*
X12277Y05311D01*
X12161Y05325D02*
X12263D01*
X12333Y0545D02*
X12333Y0545D01*
X12273Y0545D02*
X12333D01*
X1226Y05464D02*
X12273Y0545D01*
X12161Y05464D02*
X1226D01*
X12161Y05602D02*
X12163Y056D01*
X12255*
X12267Y05588*
X12333*
X07252Y05112D02*
X07374Y0499D01*
X07786*
X0759Y04911D02*
X07786D01*
X07598Y04931D02*
X07786D01*
Y0495D02*
X0783D01*
X0784Y0494*
X07677Y05029D02*
X07786D01*
X07663Y05043D02*
X07677Y05029D01*
X07663Y05043D02*
Y05074D01*
X07566Y05033D02*
Y05074D01*
Y05033D02*
X0759Y05009D01*
X07786*
X06685Y04907D02*
X06881Y05104D01*
X06514Y04907D02*
X06685D01*
X07251Y04887D02*
X07291D01*
X07564Y04891D02*
X07786D01*
X12161Y05742D02*
X12259D01*
X12273Y05728*
X12333*
X1242D02*
X12498D01*
X1242Y04196D02*
X12498D01*
X07559Y04224D02*
X07684D01*
X06514Y04927D02*
X06669D01*
X06358Y04779D02*
X06375Y04797D01*
X06397*
Y04973D02*
X06429Y05005D01*
X06397Y04929D02*
X06454Y04986D01*
X06514*
X06397Y04885D02*
Y04888D01*
X06475Y04966D02*
X06514D01*
X06397Y04888D02*
X06475Y04966D01*
X06481Y04946D02*
X06514D01*
X06438Y04904D02*
X06481Y04946D01*
X06438Y04882D02*
Y04904D01*
X06397Y04841D02*
X06438Y04882D01*
X06338Y05076D02*
X06397Y05017D01*
X06338Y05076D02*
Y05181D01*
X06429Y05005D02*
X06514D01*
X06358Y04731D02*
Y04779D01*
X07786Y0497D02*
D01*
X0662Y04478D02*
X0666D01*
X06582D02*
X0662D01*
X06545Y0436D02*
X0662Y04435D01*
Y04478*
X06958Y0469D02*
D01*
X07005Y05923D02*
X07076D01*
X05905Y058D02*
X06029Y05923D01*
X05905Y05543D02*
Y058D01*
X06217Y04867D02*
Y05084D01*
X06259D02*
X06299Y05124D01*
Y05181*
X06358Y05124D02*
X06397Y05084D01*
X06358Y05124D02*
Y05181D01*
X06305Y05084D02*
X06318Y05097D01*
X06092Y0398D02*
X06145D01*
X06039D02*
X06092D01*
X06Y04986D02*
X06063D01*
X06259Y04731D02*
Y04824D01*
X06217Y04867D02*
X06259Y04824D01*
X06318Y05097D02*
Y05181D01*
X07212Y05017D02*
X07279D01*
X07252Y05145D02*
X07291D01*
X07212D02*
X07252D01*
Y05112D02*
Y05145D01*
X07251Y04887D02*
Y04927D01*
X07212Y04887D02*
X07251D01*
X07748Y04812D02*
D01*
X07786*
X07252Y04708D02*
X07291D01*
X07212D02*
X07252D01*
Y04748D02*
X07267Y04763D01*
X07252Y04708D02*
Y04748D01*
X07251Y04602D02*
X0729D01*
X07212D02*
X07251D01*
Y04496D02*
X0729D01*
X07212D02*
X07251D01*
X05831Y05404D02*
X05905D01*
X0576Y05333D02*
X05831Y05404D01*
X05685Y05333D02*
X0576D01*
X05905Y05543D02*
X05905Y05542D01*
Y05404D02*
Y05542D01*
X0597Y04848D02*
X0599Y04868D01*
X0597Y04907D02*
X0599Y04887D01*
Y04868D02*
X06063D01*
X0599Y04887D02*
X06063D01*
X06017Y04907D02*
X06063D01*
X05942Y04982D02*
X06017Y04907D01*
X05905Y04982D02*
X05942D01*
X06685Y04887D02*
X06881Y0469D01*
X06514Y04887D02*
X06685D01*
X06958Y05104D02*
D01*
Y05293*
X1242Y04335D02*
X12498D01*
X1242Y04474D02*
X12498D01*
X1242Y04614D02*
X12498D01*
X1242Y04753D02*
X12498D01*
X1242Y04893D02*
X1242Y04893D01*
X12498*
X1242Y05033D02*
X12498D01*
X1242Y05172D02*
X12498D01*
X1242Y05311D02*
X12498D01*
X1242Y0545D02*
X12498D01*
X1242Y05588D02*
X12498D01*
X07251Y0439D02*
X0729D01*
X07211D02*
X07251D01*
X05905Y05068D02*
Y05169D01*
X05458Y04883D02*
X05475Y04899D01*
X05535*
X05458Y04961D02*
X05472Y04947D01*
X0572Y04982D02*
Y05083D01*
X05601Y04572D02*
X05601Y04572D01*
X05789Y04776D02*
D01*
X05788Y04678D02*
X05789Y04679D01*
X05688Y04445D02*
X05688Y04444D01*
X05688Y04445D02*
Y04572D01*
X05601Y04492D02*
Y04572D01*
X05929Y04372D02*
Y04413D01*
X05897Y04444D02*
X05929Y04413D01*
X05838Y04444D02*
X05897D01*
X05688Y0398D02*
X05788D01*
X05788Y04229D02*
X05788Y0423D01*
X05458Y04961D02*
Y04996D01*
X05544Y05097D02*
X05545Y05096D01*
Y04996D02*
Y05096D01*
Y04747D02*
Y04846D01*
X05457Y04847D02*
X05458Y04846D01*
X05457Y04997D02*
X05458Y04996D01*
G54D21*
X05789Y0488D03*
X05864D03*
Y04776D03*
X05826D03*
X05789D03*
G54D22*
X09472Y05879D03*
X09543D03*
X09472Y05722D03*
X09543D03*
X09472Y05563D03*
X09543D03*
X09472Y05405D03*
X09543D03*
X09472Y05248D03*
X09543D03*
X09472Y05089D03*
X09543D03*
X09472Y04931D03*
X09543D03*
X09472Y04774D03*
X09543D03*
X09472Y04615D03*
X09543D03*
X09472Y04457D03*
X09543D03*
X09472Y04299D03*
X09543D03*
X09472Y04141D03*
X09543D03*
X06049Y05284D03*
X0612D03*
X07029Y05293D03*
X06958D03*
X06273Y05284D03*
X06202D03*
X05688Y04142D03*
X05618D03*
X05859Y04572D03*
X05788D03*
X05789Y04679D03*
X0586D03*
X07937Y04095D03*
X07866D03*
X07898Y04647D03*
X07969D03*
X06468Y05284D03*
X06397D03*
X07029Y04501D03*
X06958D03*
X09717Y05802D03*
X09648D03*
X09717Y05641D03*
X09648D03*
X09717Y05483D03*
X09648D03*
X09717Y05325D03*
X09648D03*
X09717Y05168D03*
X09648D03*
X09717Y0501D03*
X09648D03*
X09717Y04852D03*
X09648D03*
X09717Y04694D03*
X09648D03*
X09717Y04536D03*
X09648D03*
X09717Y04378D03*
X09648D03*
X09717Y0422D03*
X09648D03*
X09717Y04062D03*
X09648D03*
X09871Y05879D03*
X09802D03*
X09871Y05722D03*
X09802D03*
X09871Y05563D03*
X09802D03*
X09871Y05405D03*
X09802D03*
X09871Y05248D03*
X09802D03*
X09871Y05089D03*
X09802D03*
X09871Y04931D03*
X09802D03*
X09871Y04774D03*
X09802D03*
X09871Y04615D03*
X09802D03*
X09871Y04457D03*
X09802D03*
X09871Y04299D03*
X09802D03*
X09871Y04141D03*
X09802D03*
X08125Y04472D03*
X08056D03*
X05798Y05169D03*
X05729D03*
X07211Y0439D03*
X07142D03*
X0729D03*
X07359D03*
X07212Y05017D03*
X07144D03*
X07212Y04496D03*
X07143D03*
X0729D03*
X07359D03*
X07212Y04602D03*
X07143D03*
X0729D03*
X07359D03*
X07212Y04708D03*
X07144D03*
X07291D03*
X0736D03*
X07144Y04887D03*
X07212D03*
X07291D03*
X0736D03*
X07212Y05145D03*
X07144D03*
X07291D03*
X0736D03*
X05857Y04142D03*
X05788D03*
X0572Y04982D03*
X05789D03*
X04721Y04659D03*
X0479D03*
X04541Y04922D03*
X04612D03*
X06513Y04478D03*
X06582D03*
X06729D03*
X0666D03*
G54D23*
X0938Y05844D03*
Y05915D03*
Y05686D03*
Y05757D03*
Y05528D03*
Y05599D03*
Y0537D03*
Y05441D03*
X06629Y04974D03*
Y05045D03*
X05962Y04679D03*
Y0475D03*
X0666Y04564D03*
Y04635D03*
X05685Y05404D03*
Y05333D03*
X06514Y04564D03*
Y04635D03*
X05456Y04747D03*
Y04676D03*
X04879Y04747D03*
Y04818D03*
X04655Y04039D03*
Y0411D03*
X05505Y04494D03*
Y04423D03*
X0938Y05212D03*
Y05283D03*
Y05054D03*
Y05125D03*
Y04896D03*
Y04967D03*
Y04738D03*
Y04809D03*
Y0458D03*
Y04651D03*
Y04422D03*
Y04493D03*
Y04264D03*
Y04335D03*
Y04106D03*
Y04177D03*
X0797Y04401D03*
Y04472D03*
X07663Y05145D03*
Y05074D03*
X07566Y05145D03*
Y05074D03*
X07468Y05145D03*
Y05074D03*
X05698Y04811D03*
Y04881D03*
X12498Y05797D03*
Y05728D03*
Y05657D03*
Y05588D03*
Y05518D03*
Y0545D03*
X09966Y04694D03*
Y04763D03*
Y04536D03*
Y04605D03*
Y04378D03*
Y04447D03*
Y0422D03*
Y04289D03*
Y04062D03*
Y04131D03*
X12498Y05379D03*
Y05311D03*
Y0524D03*
Y05172D03*
Y05102D03*
Y05033D03*
Y04962D03*
Y04893D03*
Y04822D03*
Y04753D03*
Y04683D03*
Y04614D03*
Y04543D03*
Y04474D03*
Y04404D03*
Y04335D03*
Y04265D03*
Y04196D03*
X09966Y05802D03*
Y05871D03*
Y05641D03*
Y0571D03*
Y05483D03*
Y05552D03*
Y05325D03*
Y05394D03*
Y05168D03*
Y05237D03*
Y0501D03*
Y05079D03*
Y04852D03*
Y04921D03*
X04698Y04866D03*
Y04797D03*
X08074Y04647D03*
X08075Y04578D03*
X07559Y04292D03*
Y04224D03*
X05905Y05404D03*
Y05335D03*
X05905Y05169D03*
Y05238D03*
X05545Y04747D03*
Y04678D03*
Y05097D03*
Y05166D03*
X05688Y0398D03*
Y04049D03*
X05601Y04492D03*
Y04423D03*
X05929Y04303D03*
Y04372D03*
X06039Y0398D03*
Y04049D03*
X06145D03*
Y0398D03*
X07144Y05327D03*
Y05258D03*
X07252Y05327D03*
Y05258D03*
X0736Y05327D03*
Y05258D03*
Y05733D03*
Y05801D03*
X04698Y05047D03*
Y04978D03*
X04564Y04039D03*
Y0411D03*
G54D24*
X05688Y0423D03*
G54D25*
X05738Y0423D03*
X05788D03*
X05838D03*
X05688Y04444D03*
X05738D03*
X05788D03*
X05838D03*
G54D26*
X1242Y05728D03*
X12333D03*
Y05588D03*
X1242D03*
Y0545D03*
X12333D03*
Y05311D03*
X1242D03*
Y05172D03*
X12333D03*
Y05033D03*
X1242D03*
Y04893D03*
X12333D03*
Y04753D03*
X1242D03*
Y04614D03*
X12333D03*
Y04474D03*
X1242D03*
Y04335D03*
X12333D03*
Y04196D03*
X1242D03*
X05545Y04996D03*
X05458D03*
Y04846D03*
X05545D03*
X05788Y0398D03*
X05875D03*
X05688Y04572D03*
X05601D03*
X05807Y05083D03*
X0572D03*
X04638Y04658D03*
X04551D03*
G54D27*
X13665Y05618D03*
Y05724D03*
G54D28*
X07558Y04385D03*
Y04472D03*
X05905Y04982D03*
Y05068D03*
G54D29*
X15718Y05803D03*
X15608D03*
X13356Y05874D03*
X13466D03*
X10994Y05803D03*
X11104D03*
X08631Y05805D03*
X08742D03*
X11104Y04212D03*
X10994D03*
X13466D03*
X13356D03*
X15718Y04216D03*
X15608D03*
X07664Y04095D03*
X07775D03*
G54D30*
X06269Y05783D03*
Y05893D03*
X04419Y05708D03*
Y05818D03*
X06269Y04122D03*
Y04232D03*
X08631Y04234D03*
Y04124D03*
X16753Y05265D03*
Y05375D03*
Y0475D03*
Y04639D03*
G54D31*
X10164Y05679D03*
X10059Y05641D03*
Y05716D03*
Y05558D03*
Y05483D03*
X10164Y05521D03*
Y05363D03*
X10059Y05325D03*
Y054D03*
Y05242D03*
Y05168D03*
X10164Y05205D03*
Y05047D03*
X10059Y0501D03*
Y05085D03*
Y04927D03*
Y04852D03*
X10164Y04889D03*
Y04731D03*
X10059Y04694D03*
Y04769D03*
Y04611D03*
Y04536D03*
X10164Y04574D03*
Y04416D03*
X10059Y04378D03*
Y04453D03*
Y04295D03*
Y0422D03*
X10164Y04258D03*
Y041D03*
X10059Y04062D03*
Y04137D03*
Y05877D03*
Y05802D03*
X10164Y05839D03*
G54D32*
X07684Y04224D03*
X07775D03*
X07865D03*
X04564Y04263D03*
X04655D03*
X04746D03*
G54D33*
X07775Y04472D03*
X04655Y04511D03*
G54D34*
X06616Y05738D03*
X07159D03*
X15459Y04735D03*
X14445D03*
G54D35*
X06769Y05553D03*
X06887D03*
X07005D03*
Y05923D03*
X06887D03*
X06769D03*
G54D36*
X15413Y04854D03*
X14492D03*
G54D37*
X14598Y0495D03*
X14716D03*
X14834D03*
X14952D03*
X1507D03*
X15188D03*
X15307D03*
Y05133D03*
X15188D03*
X1507D03*
X14952D03*
X14834D03*
X14716D03*
X14598D03*
G54D38*
X13086Y05377D03*
X12986D03*
X16317Y04716D03*
X16417D03*
G54D39*
X07304Y04124D03*
Y04224D03*
X04791Y05848D03*
Y05748D03*
X07553Y05701D03*
Y05801D03*
G54D40*
X05366Y04747D03*
Y04797D03*
Y04847D03*
Y04897D03*
Y04947D03*
Y04997D03*
Y05047D03*
Y05097D03*
X04983Y04747D03*
Y04797D03*
Y04847D03*
Y04897D03*
Y04947D03*
Y04997D03*
Y05047D03*
Y05097D03*
G54D41*
X0434Y04602D03*
X04419Y04629D03*
Y04574D03*
G54D42*
X08234Y04578D03*
Y04472D03*
G54D43*
X13558Y05816D03*
X13665D03*
X12594Y04265D03*
X12701D03*
X12594Y04404D03*
X12701D03*
X12594Y04543D03*
X12701D03*
X12594Y04683D03*
X12701D03*
X12594Y04822D03*
X12701D03*
X12594Y04962D03*
X12701D03*
X12594Y05102D03*
X12701D03*
X12594Y0524D03*
X12701D03*
X12594Y05379D03*
X12701D03*
X12594Y05518D03*
X12701D03*
X12594Y05657D03*
X12701D03*
X12594Y05797D03*
X12701D03*
X12594Y04125D03*
X12701D03*
G54D44*
X06514Y04809D03*
G54D45*
X06514Y04828D03*
Y04848D03*
Y04868D03*
Y04887D03*
Y04907D03*
Y04927D03*
Y04946D03*
Y04966D03*
Y04986D03*
Y05005D03*
Y05025D03*
Y05045D03*
Y05064D03*
Y05084D03*
Y05104D03*
X06063D03*
Y05084D03*
Y05064D03*
Y05045D03*
Y05025D03*
Y05005D03*
Y04986D03*
Y04966D03*
Y04946D03*
Y04927D03*
Y04907D03*
Y04887D03*
Y04868D03*
Y04848D03*
Y04828D03*
Y04809D03*
G54D46*
X06437Y05181D03*
X06417D03*
X06397D03*
X06377D03*
X06358D03*
X06338D03*
X06318D03*
X06299D03*
X06279D03*
X06259D03*
X0624D03*
X0622D03*
X062D03*
X06181D03*
X06161D03*
X06141D03*
Y04731D03*
X06161D03*
X06181D03*
X062D03*
X0622D03*
X0624D03*
X06259D03*
X06279D03*
X06299D03*
X06318D03*
X06338D03*
X06358D03*
X06377D03*
X06397D03*
X06417D03*
X06437D03*
G54D47*
X12161Y04265D03*
Y04211D03*
Y05797D03*
Y05742D03*
Y05657D03*
Y05602D03*
Y05518D03*
Y05464D03*
Y05379D03*
Y05325D03*
Y0524D03*
Y05186D03*
Y05102D03*
Y05047D03*
Y04962D03*
Y04907D03*
Y04822D03*
Y04768D03*
Y04683D03*
Y04628D03*
Y04543D03*
Y04488D03*
Y04404D03*
Y0435D03*
X11736Y05797D03*
Y05742D03*
Y05657D03*
Y05602D03*
Y05518D03*
Y05464D03*
Y05379D03*
Y05325D03*
Y0524D03*
Y05186D03*
Y05102D03*
Y05047D03*
Y04962D03*
Y04907D03*
Y04822D03*
Y04768D03*
Y04683D03*
Y04628D03*
Y04543D03*
Y04488D03*
Y04404D03*
Y0435D03*
Y04265D03*
Y04211D03*
X11948Y05797D03*
Y05742D03*
Y05657D03*
Y05602D03*
Y05518D03*
Y05464D03*
Y05379D03*
Y05325D03*
Y0524D03*
Y05186D03*
Y05102D03*
Y05047D03*
Y04962D03*
Y04907D03*
Y04822D03*
Y04768D03*
Y04683D03*
Y04628D03*
Y04543D03*
Y04488D03*
Y04404D03*
Y0435D03*
Y04265D03*
Y04211D03*
G54D48*
X04419Y04338D03*
Y0422D03*
X04049Y04338D03*
Y0422D03*
Y04982D03*
Y04864D03*
X04419Y04982D03*
Y04864D03*
G54D49*
X04234Y04491D03*
Y04067D03*
Y05135D03*
Y04711D03*
G54D50*
X14173Y04894D03*
Y04794D03*
Y04694D03*
Y04594D03*
Y04494D03*
Y04394D03*
Y04294D03*
X13779D03*
Y04394D03*
Y04494D03*
Y04594D03*
Y04694D03*
Y04794D03*
Y04894D03*
X14173Y05721D03*
Y05621D03*
Y05521D03*
Y05421D03*
Y05321D03*
Y05221D03*
Y05121D03*
X13779D03*
Y05221D03*
Y05321D03*
Y05421D03*
Y05521D03*
Y05621D03*
Y05721D03*
G54D51*
X05685Y05543D03*
X05905D03*
G54D52*
X07786Y05206D03*
Y05187D03*
Y05167D03*
Y05147D03*
Y05127D03*
Y05108D03*
Y05088D03*
Y05068D03*
Y05049D03*
Y05029D03*
Y05009D03*
Y0499D03*
Y0497D03*
Y0495D03*
Y04931D03*
Y04911D03*
Y04891D03*
Y04872D03*
Y04852D03*
Y04832D03*
Y04812D03*
Y04793D03*
Y04773D03*
Y04753D03*
X08075Y05206D03*
Y05187D03*
Y05167D03*
Y05147D03*
Y05127D03*
Y05108D03*
Y05088D03*
Y05068D03*
Y05049D03*
Y05029D03*
Y05009D03*
Y0499D03*
Y0497D03*
Y0495D03*
Y04931D03*
Y04911D03*
Y04891D03*
Y04872D03*
Y04852D03*
Y04832D03*
Y04812D03*
Y04793D03*
Y04773D03*
Y04753D03*
G54D53*
X06958Y0469D03*
Y05104D03*
G54D54*
X09271Y04344D03*
Y04255D03*
Y04097D03*
Y04186D03*
Y05924D03*
Y05835D03*
Y05677D03*
Y05766D03*
Y05608D03*
Y05519D03*
Y05361D03*
Y0545D03*
Y05292D03*
Y05203D03*
Y05045D03*
Y05134D03*
Y04975D03*
Y04887D03*
Y04729D03*
Y04818D03*
Y0466D03*
Y04571D03*
Y04413D03*
Y04501D03*
G54D55*
X04879Y04659D03*
Y04553D03*
G54D56*
X04905Y04946D03*
Y04898D03*
X04785D03*
Y04946D03*
G54D96*
X04551Y04719D02*
X04552Y0472D01*
X04539Y04922D02*
X0454Y04921D01*
X04551Y04658D02*
Y04719D01*
X04552Y0472D02*
X04733D01*
X04879Y04375D02*
Y04553D01*
Y04375D02*
X05025Y0423D01*
X04915Y05047D02*
X04983D01*
X04889Y05072D02*
X04915Y05047D01*
X04914Y05097D02*
X04983D01*
X04889Y05072D02*
X04914Y05097D01*
X04733Y0472D02*
X04831Y04818D01*
X04879Y04659D02*
Y04747D01*
X04425Y04922D02*
X04539D01*
X04791Y04442D02*
Y04658D01*
X04746Y04396D02*
X04791Y04442D01*
X04746Y04263D02*
Y04396D01*
X0479Y04659D02*
X04791Y04658D01*
X04831Y04818D02*
X04879D01*
X0434Y04602D02*
Y0472D01*
X04944Y04797D02*
X04983D01*
X04925Y04816D02*
X04944Y04797D01*
X04882Y04816D02*
X04925D01*
X04879Y04818D02*
X04882Y04816D01*
X05366Y04797D02*
X05447D01*
X04655Y04511D02*
Y04571D01*
X04628Y04598D02*
X04655Y04571D01*
X0457Y04598D02*
X04628D01*
X04551Y04617D02*
X0457Y04598D01*
X04551Y04617D02*
Y04658D01*
X04638D02*
X04638Y04659D01*
X04721*
X0479D02*
X04879D01*
X04835Y04039D02*
X05025Y0423D01*
X04655Y04039D02*
X04835D01*
X04655Y04039D02*
X04655Y04039D01*
X04564Y04039D02*
X04655D01*
X04879Y04747D02*
X04983D01*
X04655Y04263D02*
Y04511D01*
X04564Y0411D02*
X04805D01*
X04564D02*
Y04263D01*
X04374Y0411D02*
X04564D01*
X04805D02*
X04925Y0423D01*
X04125Y0422D02*
X04263D01*
X04005Y04431D02*
X04049Y04387D01*
Y04501D02*
Y04864D01*
Y04338D02*
Y04387D01*
Y0422D02*
X04112D01*
X05366Y04997D02*
X05457D01*
X05366Y04847D02*
X05457D01*
X05347Y04747D02*
X05456D01*
X13861Y05121D02*
X13862Y0512D01*
X08234Y04387D02*
Y04472D01*
X04159Y04324D02*
Y04391D01*
Y04324D02*
X04263Y0422D01*
X14255Y05721D02*
X14824D01*
X15307Y05238*
X14173Y05621D02*
X14805D01*
X14173Y05521D02*
X14787D01*
X14834Y05133D02*
Y05238D01*
X14726Y05346D02*
X14834Y05238D01*
X14281Y05346D02*
X14726D01*
X14324Y05289D02*
X14665D01*
X15011Y05112D02*
X15032Y05133D01*
X15011Y04169D02*
Y05112D01*
X15032Y05133D02*
X1507D01*
X15188D02*
Y05238D01*
X14805Y05621D02*
X15188Y05238D01*
X04244Y04982D02*
D01*
X04049D02*
X04244D01*
X04263Y0422D02*
X04374Y0411D01*
X05456Y04747D02*
D01*
X04515Y06045D02*
X14657D01*
X04419Y05948D02*
X04515Y06045D01*
X13779Y04294D02*
X13862D01*
X12701Y04122D02*
X12781D01*
X08075Y04648D02*
Y04746D01*
X08074Y04647D02*
X08075Y04648D01*
X07969Y04647D02*
X08074D01*
X07865Y04224D02*
X07866Y04223D01*
Y04095D02*
Y04223D01*
X15529Y05803D02*
X15608D01*
X1525Y05523D02*
X15529Y05803D01*
X06328Y06009D02*
X14775D01*
X06269Y0595D02*
X06328Y06009D01*
X0896Y05974D02*
X14893D01*
X08791Y05805D02*
X0896Y05974D01*
X11291Y05938D02*
X15011D01*
X11155Y05803D02*
X11291Y05938D01*
X13543Y05903D02*
X15129D01*
X13513Y05874D02*
X13543Y05903D01*
X13665Y05816D02*
X13665Y05816D01*
X13665Y05724D02*
Y05816D01*
X13776Y05718D02*
X13779Y05721D01*
X1372Y05718D02*
X13776D01*
X13714Y05724D02*
X1372Y05718D01*
X13665Y05724D02*
X13714D01*
X13665Y05618D02*
X13667Y05616D01*
X1371*
X13715Y05621*
X13779*
X13466Y05874D02*
X13513D01*
X12498Y04822D02*
X12594D01*
X12498Y04265D02*
X12594D01*
X12498Y04543D02*
X12594D01*
X07572Y04095D02*
X07664D01*
X12498Y04125D02*
X12594D01*
X11159Y04212D02*
X11338Y04033D01*
X14893*
X09966Y04062D02*
X10059D01*
X11616Y05742D02*
X11736D01*
X11948*
X12161*
X1165Y04211D02*
X11736D01*
Y04265D02*
X11948D01*
X12161*
X12498*
Y05797D02*
X12594D01*
X12161D02*
X12498D01*
X11948D02*
X12161D01*
X11736D02*
X11948D01*
X10173Y05757D02*
X10232D01*
X10128Y05802D02*
X10173Y05757D01*
X10059Y05802D02*
X10128D01*
X10169Y04177D02*
X10232D01*
X10125Y0422D02*
X10169Y04177D01*
X10059Y0422D02*
X10125D01*
X10171Y04335D02*
X10232D01*
X10128Y04378D02*
X10171Y04335D01*
X10059Y04378D02*
X10128D01*
X1017Y04493D02*
X10232D01*
X10126Y04536D02*
X1017Y04493D01*
X10059Y04536D02*
X10126D01*
X10169Y04651D02*
X10232D01*
X10126Y04694D02*
X10169Y04651D01*
X10059Y04694D02*
X10126D01*
X10168Y04809D02*
X10232D01*
X10125Y04852D02*
X10168Y04809D01*
X10059Y04852D02*
X10125D01*
X10168Y04967D02*
X10232D01*
X10125Y0501D02*
X10168Y04967D01*
X10059Y0501D02*
X10125D01*
X10172Y05125D02*
X10232D01*
X10129Y05168D02*
X10172Y05125D01*
X10059Y05168D02*
X10129D01*
X10173Y05283D02*
X10232D01*
X1013Y05325D02*
X10173Y05283D01*
X10059Y05325D02*
X1013D01*
X10172Y05441D02*
X10232D01*
X1013Y05483D02*
X10172Y05441D01*
X10059Y05483D02*
X1013D01*
X10172Y05599D02*
X10232D01*
X10129Y05641D02*
X10172Y05599D01*
X10059Y05641D02*
X10129D01*
X10059Y04062D02*
X10232D01*
X1117Y0469D02*
X1165Y04211D01*
X10801Y0469D02*
X1117D01*
X10761Y05324D02*
X11198D01*
X10246Y05839D02*
X10761Y05324D01*
X10164Y05839D02*
X10246D01*
X11198Y05324D02*
X11616Y05742D01*
X11596Y05602D02*
X11736D01*
X11263Y05269D02*
X11596Y05602D01*
X10649Y05269D02*
X11263D01*
X10238Y05679D02*
X10649Y05269D01*
X10164Y05679D02*
X10238D01*
X11596Y05464D02*
X11736D01*
X11345Y05213D02*
X11596Y05464D01*
X10548Y05213D02*
X11345D01*
X11587Y05325D02*
X11736D01*
X1142Y05158D02*
X11587Y05325D01*
X10485Y05158D02*
X1142D01*
X1024Y05521D02*
X10548Y05213D01*
X10164Y05521D02*
X1024D01*
X10279Y05363D02*
X10485Y05158D01*
X10164Y05363D02*
X10279D01*
X10416Y05102D02*
X11474D01*
X10314Y05205D02*
X10416Y05102D01*
X10164Y05205D02*
X10314D01*
X11558Y05186D02*
X11736D01*
X11474Y05102D02*
X11558Y05186D01*
X11621Y04488D02*
X11736D01*
X113Y04809D02*
X11621Y04488D01*
X10662Y04809D02*
X113D01*
X11572Y04628D02*
X11736D01*
X11331Y04869D02*
X11572Y04628D01*
X10574Y04869D02*
X11331D01*
X11469Y04987D02*
X11549Y04907D01*
X11736*
X11417Y04928D02*
X11577Y04768D01*
X11736*
X11224Y0475D02*
X11624Y0435D01*
X11736*
X10322Y04889D02*
X1042Y04987D01*
X10164Y04889D02*
X10322D01*
X10297Y04731D02*
X10494Y04928D01*
X10164Y04731D02*
X10297D01*
X10279Y04574D02*
X10574Y04869D01*
X10164Y04574D02*
X10279D01*
X10268Y04416D02*
X10662Y04809D01*
X10164Y04416D02*
X10268D01*
X10164Y04258D02*
X10249D01*
X10741Y0475*
X10164Y041D02*
X1021D01*
X10801Y0469*
X11735Y05047D02*
X11736Y05047D01*
X10177Y05047D02*
X11735D01*
X10176Y05047D02*
X10177Y05047D01*
X10164Y05047D02*
X10176D01*
X10494Y04928D02*
X11417D01*
X1042Y04987D02*
X11469D01*
X10741Y0475D02*
X11224D01*
X11736Y04211D02*
X11948D01*
X11736Y0435D02*
X11948D01*
X11736Y04404D02*
X11948D01*
X11736Y04543D02*
X11948D01*
X11736Y04488D02*
X11948D01*
X11736Y04628D02*
X11948D01*
X11736Y04683D02*
X11948D01*
X11736Y04768D02*
X11948D01*
X11736Y04822D02*
X11948D01*
X11736Y04907D02*
X11948D01*
X11736Y04962D02*
X11948D01*
X11736Y05047D02*
X11948D01*
X11736Y05102D02*
X11948D01*
X11736Y0524D02*
X11948D01*
X11736Y05186D02*
X11948D01*
X11736Y05325D02*
X11948D01*
X11736Y05379D02*
X11948D01*
X11736Y05464D02*
X11948D01*
X11736Y05518D02*
X11948D01*
X11736Y05602D02*
X11948D01*
X11736Y05657D02*
X11948D01*
Y04211D02*
X12161D01*
X11948Y0435D02*
X12161D01*
X11948Y04488D02*
X12161D01*
X11948Y04628D02*
X12161D01*
X11948Y04768D02*
X12161D01*
X11948Y04907D02*
X12161D01*
X11948Y05047D02*
X12161D01*
X11948Y05186D02*
X12161D01*
X11948Y05325D02*
X12161D01*
X11948Y05464D02*
X12161D01*
X11948Y05602D02*
X12161D01*
Y04404D02*
X12498D01*
X11948D02*
X12161D01*
X11948Y04543D02*
X12161D01*
X12498*
X12161Y04683D02*
X12498D01*
X11948D02*
X12161D01*
X11948Y04822D02*
X12161D01*
X12498*
X12161Y04962D02*
X12498D01*
X11948D02*
X12161D01*
Y05102D02*
X12498D01*
X11948D02*
X12161D01*
X11948Y0524D02*
X12161D01*
X12498*
X11948Y05379D02*
X12161D01*
X12498*
X12161Y05518D02*
X12498D01*
X11948D02*
X12161D01*
X11948Y05657D02*
X12161D01*
X12498*
X09966Y0422D02*
X10059D01*
X09966Y04378D02*
X10059D01*
X09966Y04536D02*
X10059D01*
X09966Y04694D02*
X10059D01*
X09966Y04852D02*
X10059D01*
X09966Y0501D02*
X10059D01*
X09966Y05168D02*
X10059D01*
X09966Y05325D02*
X10059D01*
X09966Y05483D02*
X10059D01*
X09966Y05641D02*
X10059D01*
X09717Y0422D02*
X09966D01*
X09717Y04378D02*
X09966D01*
X09717Y04536D02*
X09966D01*
X09717Y04694D02*
X09966D01*
X09717Y04852D02*
X09966D01*
X09717Y0501D02*
X09966D01*
X09717Y05168D02*
X09966D01*
X09717Y05325D02*
X09966D01*
X09717Y05483D02*
X09966D01*
X09717Y05641D02*
X09966D01*
X09717Y05802D02*
X09966D01*
X10059*
X04049Y04501D02*
X04159Y04391D01*
X16753Y05375D02*
X17076D01*
X16637Y04978D02*
X16753Y04862D01*
Y0475D02*
Y04862D01*
Y04639D02*
X17076D01*
X07775Y04095D02*
X07866D01*
X07775Y04224D02*
Y04472D01*
X0797*
X08056*
X08075Y04578D02*
X08234D01*
X08125Y04472D02*
X08234D01*
X06269Y04005D02*
X06312Y03962D01*
X14657*
X08673Y03998D02*
X14775D01*
X14915Y04072D02*
X15011Y04169D01*
X13547Y04072D02*
X14915D01*
X13466Y04153D02*
X13547Y04072D01*
X13466Y04153D02*
Y04212D01*
X12701Y04265D02*
X12781D01*
X12701Y04404D02*
X12781D01*
X12701Y04543D02*
X12781D01*
X12701Y04683D02*
X12781D01*
X12701Y04822D02*
X12781D01*
X12701Y04962D02*
X12781D01*
X12701Y05102D02*
X12781D01*
X12701Y0524D02*
X12781D01*
X12701Y05379D02*
X12781D01*
X12701Y05518D02*
X12781D01*
X12701Y05657D02*
X12781D01*
X12701Y05797D02*
X12781D01*
X12498Y04404D02*
X12594D01*
X12498Y04683D02*
X12594D01*
X12498Y04962D02*
X12594D01*
X12498Y05102D02*
X12594D01*
X12498Y0524D02*
X12594D01*
X12498Y05379D02*
X12594D01*
X12498Y05518D02*
X12594D01*
X12498Y05657D02*
X12594D01*
X15127Y04598D02*
Y05112D01*
X15148Y05133*
X15188*
X14893Y04112D02*
Y05112D01*
X14914Y05133*
X14952*
X14775Y04112D02*
Y05112D01*
X14796Y05133*
X14834*
X14678D02*
X14716D01*
X14657Y05112D02*
X14678Y05133D01*
X14657Y04112D02*
Y05112D01*
X15726Y05265D02*
X15856D01*
X15624Y05163D02*
X15726Y05265D01*
X15856D02*
X16753D01*
X13862Y04895D02*
Y0512D01*
X13861Y04394D02*
X13862Y04395D01*
X13779Y04394D02*
X13861D01*
Y04494D02*
X13862Y04495D01*
X13779Y04494D02*
X13861D01*
Y04594D02*
X13862Y04595D01*
X13779Y04594D02*
X13861D01*
Y04694D02*
X13862Y04695D01*
X13779Y04694D02*
X13861D01*
Y04794D02*
X13862Y04795D01*
X13779Y04794D02*
X13861D01*
Y04894D02*
X13862Y04895D01*
X13779Y04894D02*
X13861D01*
X13779Y05121D02*
X13861D01*
Y05221D02*
X13862Y05222D01*
X13779Y05221D02*
X13861D01*
Y05321D02*
X13862Y05322D01*
X13779Y05321D02*
X13861D01*
Y05421D02*
X13862Y05422D01*
X13779Y05421D02*
X13861D01*
Y05521D02*
X13862Y05522D01*
X13779Y05521D02*
X13861D01*
Y05621D02*
X13862Y05622D01*
X13779Y05621D02*
X13861D01*
Y05721D02*
X13862Y05722D01*
X13779Y05721D02*
X13861D01*
X14173Y04894D02*
X14255D01*
Y05121*
X14665Y05289D02*
X14716Y05238D01*
X14255Y05221D02*
X14324Y05289D01*
X15718Y05543D02*
Y05803D01*
X08742Y05805D02*
X08791D01*
X11104Y05803D02*
X11155D01*
X06269Y05893D02*
Y0595D01*
X04419Y05818D02*
Y05948D01*
X14173Y05721D02*
X14255D01*
X08631Y05543D02*
Y05805D01*
X10994Y05543D02*
Y05803D01*
X15307Y05238D02*
X15566Y04978D01*
X16637*
X15509Y04216D02*
X15608D01*
X15127Y04598D02*
X15509Y04216D01*
X14598Y04846D02*
Y0495D01*
X14716Y04846D02*
Y0495D01*
X13356Y04212D02*
Y04472D01*
X11104Y04212D02*
X11159D01*
X10994D02*
Y04472D01*
X08631Y04039D02*
X08673Y03998D01*
X08631Y04039D02*
Y04124D01*
X13356Y05543D02*
Y05874D01*
X15718Y04216D02*
Y04472D01*
X14255Y05121D02*
X14372Y05238D01*
X14598*
X14255Y05321D02*
X14281Y05346D01*
X14173Y05421D02*
X14769D01*
X14952Y05238*
X14787Y05521D02*
X1507Y05238D01*
X14952Y04846D02*
Y0495D01*
X14834Y04846D02*
D01*
X14598Y0495D02*
Y05133D01*
X14173Y04294D02*
X14255D01*
X14173Y04394D02*
X14255D01*
X14173Y04494D02*
X14255D01*
X14173Y04594D02*
X14255D01*
X14173Y04694D02*
X14255D01*
X14173Y04794D02*
X14255D01*
X14173Y05121D02*
X14255D01*
X14173Y05221D02*
X14255D01*
X14173Y05321D02*
X14255D01*
X14834Y04846D02*
Y0495D01*
X1507Y04846D02*
Y0495D01*
X15188Y04846D02*
Y0495D01*
X15307Y04846D02*
Y0495D01*
Y05133D02*
Y05238D01*
X1507Y05133D02*
Y05238D01*
X14952Y05133D02*
Y05238D01*
X14716Y05133D02*
Y05238D01*
X14598Y05133D02*
Y05238D01*
X08631Y04234D02*
Y04472D01*
X06269Y04005D02*
Y04122D01*
Y04232D02*
D01*
Y04472*
Y05543D02*
Y05783D01*
D01*
X04094Y05708D02*
X04419D01*
G54D97*
X0472Y04638D02*
X04721Y04639D01*
X0454Y04921D02*
X04541Y04922D01*
X04677D02*
X04698Y049D01*
Y04866D02*
Y049D01*
Y04943D02*
Y04978D01*
X04677Y04922D02*
X04698Y04943D01*
X04612Y04922D02*
X04677D01*
X05447Y04797D02*
X05447Y04797D01*
X09543Y05722D02*
X09602D01*
X0947Y0422D02*
X09648D01*
X0938D02*
X0947D01*
X09472Y04222*
Y04299*
X09468Y04378D02*
X09648D01*
X09381D02*
X09468D01*
X09472Y04382*
Y04457*
Y04536D02*
X09648D01*
X09381D02*
X09472D01*
Y04615*
Y04694D02*
X09648D01*
X09381D02*
X09472D01*
Y04774*
Y04852D02*
X09648D01*
X09381D02*
X09472D01*
Y04931*
Y0501D02*
X09648D01*
X0938D02*
X09472D01*
Y05089*
Y05168D02*
X09648D01*
X09381D02*
X09472D01*
Y05248*
Y05325D02*
X09648D01*
X09381D02*
X09472D01*
Y05405*
Y05485D02*
X09647D01*
X0938D02*
X09472D01*
Y05563*
X0947Y05641D02*
X09648D01*
X0938D02*
X0947D01*
X09472Y05643*
Y05722*
X09717Y04062D02*
X09966D01*
X09472D02*
X09648D01*
X0938D02*
X09472D01*
D01*
Y04141D01*
X0938Y04106D02*
Y04105D01*
Y04062D02*
Y04105D01*
Y05485D02*
Y05528D01*
Y04379D02*
Y04422D01*
Y04335D02*
Y04379D01*
Y04537D02*
Y0458D01*
Y04493D02*
Y04537D01*
Y04694D02*
Y04738D01*
Y04651D02*
Y04694D01*
Y04852D02*
Y04896D01*
Y04809D02*
Y04852D01*
Y05009D02*
Y05054D01*
Y04967D02*
Y05009D01*
Y05168D02*
Y05212D01*
Y05125D02*
Y05168D01*
Y05326D02*
Y0537D01*
Y05283D02*
Y05326D01*
Y05441D02*
Y05485D01*
Y05641D02*
Y05686D01*
Y05599D02*
Y05641D01*
Y0422D02*
Y04264D01*
Y04177D02*
Y0422D01*
X09472Y058D02*
X09647D01*
X09543Y04141D02*
X09602D01*
X09543Y04299D02*
X09602D01*
X09543Y04457D02*
X09602D01*
X09543Y04615D02*
X09602D01*
X09543Y04774D02*
X09602D01*
X09543Y04931D02*
X09602D01*
X09543Y05089D02*
X09602D01*
X09543Y05248D02*
X09602D01*
Y05405D02*
D01*
X09543D02*
X09602D01*
D01*
D01*
X09543Y05563D02*
X09602D01*
X09543Y05879D02*
X09602D01*
X0938Y058D02*
X09472D01*
D01*
Y05879D01*
X0938Y058D02*
Y05844D01*
Y05757D02*
Y058D01*
X09271Y05134D02*
X09318D01*
X09326Y05125*
X0938*
X09331Y05054D02*
X0938D01*
X09323Y05045D02*
X09331Y05054D01*
X09271Y05045D02*
X09323D01*
X09271Y05835D02*
X09319D01*
X09328Y05844*
X0938*
X09271Y05766D02*
X09316D01*
X09325Y05757*
X0938*
X09271Y04097D02*
X09318D01*
X09326Y04106*
X0938*
X09329Y04177D02*
X0938D01*
X0932Y04186D02*
X09329Y04177D01*
X09271Y04186D02*
X0932D01*
X09271Y04255D02*
X09316D01*
X09325Y04264*
X0938*
X09326Y04335D02*
X0938D01*
X09317Y04344D02*
X09326Y04335D01*
X09271Y04344D02*
X09317D01*
X09271Y04413D02*
X09316D01*
X09325Y04422*
X0938*
X09325Y04493D02*
X0938D01*
X09316Y04501D02*
X09325Y04493D01*
X09271Y04501D02*
X09316D01*
X09271Y04571D02*
X09318D01*
X09327Y0458*
X0938*
X09271Y0466D02*
X0932D01*
X09328Y04651*
X0938*
X09271Y04729D02*
X09318D01*
X09326Y04738*
X0938*
X09271Y04818D02*
X09324D01*
X09333Y04809*
X0938*
X09271Y04887D02*
X09321D01*
X0933Y04896*
X0938*
X09271Y04975D02*
X09316D01*
X09325Y04967*
X0938*
X09325Y05212D02*
X0938D01*
X09316Y05203D02*
X09325Y05212D01*
X09271Y05203D02*
X09316D01*
X09271Y05292D02*
X09315D01*
X09324Y05283*
X0938*
X09328Y05441D02*
X0938D01*
X09319Y0545D02*
X09328Y05441D01*
X09271Y0545D02*
X09319D01*
X09325Y0537D02*
X0938D01*
X09316Y05361D02*
X09325Y0537D01*
X09271Y05361D02*
X09316D01*
X09271Y05519D02*
X09321D01*
X09329Y05528*
X0938*
X09271Y05608D02*
X09324D01*
X09332Y05599*
X0938*
X09271Y05677D02*
X0932D01*
X09329Y05686*
X0938*
X0933Y05915D02*
X0938D01*
X09322Y05924D02*
X0933Y05915D01*
X09271Y05924D02*
X09322D01*
G54D98*
X04982Y04896D02*
X04983Y04897D01*
X0494Y04896D02*
X04982D01*
X04938Y04898D02*
X0494Y04896D01*
X04905Y04898D02*
X04938D01*
X04981Y04948D02*
X04983Y04947D01*
X04938Y04948D02*
X04981D01*
X04936Y04946D02*
X04938Y04948D01*
X04905Y04946D02*
X04936D01*
G54D99*
X07843Y05226D02*
X08245D01*
X07823Y05206D02*
X07843Y05226D01*
X07786Y05206D02*
X07823D01*
X07742Y05246D02*
X08237D01*
X07732Y05235D02*
X07742Y05246D01*
X07732Y05198D02*
Y05235D01*
X08237Y05246D02*
X08316Y05324D01*
X08245Y05226D02*
X08318Y053D01*
X08425*
X09169Y05766D02*
X09271D01*
X0895Y05547D02*
X09169Y05766D01*
X0895Y05466D02*
Y05547D01*
X0916Y05924D02*
X09271D01*
X08862Y05625D02*
X0916Y05924D01*
X08862Y05474D02*
Y05625D01*
X08909Y0559D02*
X09198Y05879D01*
X08909Y05474D02*
Y0559D01*
X08425Y053D02*
D01*
X08253Y05206D02*
X08319Y05272D01*
X08261Y05187D02*
X08321Y05246D01*
X08075Y05187D02*
X08261D01*
X08269Y05167D02*
X08322Y0522D01*
X08277Y05147D02*
X08324Y05194D01*
X08075Y05147D02*
X08277D01*
X08286Y05127D02*
X08326Y05168D01*
X08075Y05108D02*
X08294D01*
X08328Y05142*
X08075Y05088D02*
X08302D01*
X08329Y05116*
X09*
X08331Y05089D02*
X0904D01*
X0831Y05068D02*
X08331Y05089D01*
X0904D02*
X09198Y05248D01*
X08318Y05049D02*
X08332Y05062D01*
X08206Y04773D02*
D01*
X08232*
X08315Y0469*
X08075Y04793D02*
X08214D01*
X0824*
X08316Y04716*
X08222Y04812D02*
D01*
X08248*
X08318Y04743*
X08075Y04832D02*
X0823D01*
X08257*
X08319Y0477*
X08238Y04852D02*
D01*
X08265*
X0832Y04796*
X08247Y04872D02*
D01*
X08274*
X08322Y04823*
X08075Y04891D02*
X08255D01*
X08282*
X08323Y0485*
X08263Y04911D02*
D01*
X0829*
X08325Y04876*
X08075Y04931D02*
X08271D01*
X08298*
X08326Y04903*
X08307Y0495D02*
X08327Y04929D01*
X08279Y0495D02*
X08307D01*
X08279D02*
X08279D01*
X08075Y0497D02*
X08287D01*
X08075Y0499D02*
X08296D01*
X08075Y05009D02*
X08304D01*
X08075Y05029D02*
X08326D01*
X08304Y05009D02*
D01*
X08296Y0499D02*
D01*
X08287Y0497D02*
D01*
X08315D02*
X08329Y04956D01*
X08287Y0497D02*
X08315D01*
X08324Y0499D02*
X08331Y04983D01*
X08296Y0499D02*
X08324D01*
X08326Y05029D02*
X08333Y05036D01*
X08075Y05127D02*
X08286D01*
X08304Y05009D02*
X09271D01*
X08075Y05206D02*
X08253D01*
X08319Y05272D02*
X08756D01*
X10058Y04139D02*
X10059Y04137D01*
X10019Y04139D02*
X10058D01*
X10011Y04131D02*
X10019Y04139D01*
X09966Y04131D02*
X10011D01*
X09871Y04141D02*
X09872Y04143D01*
X09911*
X09923Y04131*
X09966*
X10019Y04295D02*
X10059D01*
X10013Y04289D02*
X10019Y04295D01*
X09966Y04289D02*
X10013D01*
X09871Y04299D02*
X09872Y04301D01*
X09909*
X0992Y04289*
X09966*
X10058Y04454D02*
X10059Y04453D01*
X10021Y04454D02*
X10058D01*
X10014Y04447D02*
X10021Y04454D01*
X09966Y04447D02*
X10014D01*
X09871Y04457D02*
X09872Y04458D01*
X09909*
X0992Y04447*
X09966*
X10023Y04611D02*
X10059D01*
X10017Y04605D02*
X10023Y04611D01*
X09966Y04605D02*
X10017D01*
X09871Y04615D02*
D01*
X09909*
X09919Y04605*
X09966*
Y04763D02*
X10013D01*
X10019Y04769*
X10059*
X09871Y04774D02*
D01*
X09911*
X09922Y04763*
X09966*
X10057Y04929D02*
X10059Y04927D01*
X10021Y04929D02*
X10057D01*
X10013Y04921D02*
X10021Y04929D01*
X09966Y04921D02*
X10013D01*
X09871Y04931D02*
X09872Y04933D01*
X09911*
X09923Y04921*
X09966*
X10058Y05086D02*
X10059Y05085D01*
X10021Y05086D02*
X10058D01*
X10014Y05079D02*
X10021Y05086D01*
X09966Y05079D02*
X10014D01*
X09871Y05089D02*
X09873Y05092D01*
X09911*
X09924Y05079*
X09966*
X10023Y05242D02*
X10059D01*
X10017Y05237D02*
X10023Y05242D01*
X09966Y05237D02*
X10017D01*
X09871Y05248D02*
D01*
X09911*
X09922Y05237*
X09966*
X10021Y054D02*
X10059D01*
X10015Y05394D02*
X10021Y054D01*
X09966Y05394D02*
X10015D01*
X09871Y05405D02*
D01*
X09911*
X09922Y05394*
X09966*
X10021Y05558D02*
X10059D01*
X10015Y05552D02*
X10021Y05558D01*
X09966Y05552D02*
X10015D01*
X09871Y05563D02*
X09909D01*
X0992Y05552*
X09966*
X09234Y04501D02*
X09271D01*
X08886Y0485D02*
X09234Y04501D01*
X08323Y0485D02*
X08886D01*
X08938Y04876D02*
X09198Y04615D01*
X08325Y04876D02*
X08938D01*
X09966Y0571D02*
X10013D01*
X10019Y05716*
X10059*
X09871Y05722D02*
X09871Y05722D01*
X09911*
X09923Y0571*
X09966*
X10021Y05877D02*
X10059D01*
X10015Y05871D02*
X10021Y05877D01*
X09966Y05871D02*
X10015D01*
X09965Y05872D02*
X09966Y05871D01*
X09923Y05872D02*
X09965D01*
X09915Y05879D02*
X09923Y05872D01*
X09871Y05879D02*
X09915D01*
X08842Y04421D02*
Y04559D01*
X08711Y0469D02*
X08842Y04559D01*
X08315Y0469D02*
X08711D01*
X08927Y04492D02*
Y04566D01*
X0875Y04743D02*
X08927Y04566D01*
X08318Y04743D02*
X0875D01*
X08885Y04454D02*
Y04561D01*
X08729Y04716D02*
X08885Y04561D01*
X08431Y04716D02*
X08729D01*
X08885Y04454D02*
X09198Y04141D01*
X08927Y04492D02*
X09233Y04186D01*
X09248Y04344D02*
X09271D01*
X08795Y04796D02*
X09248Y04344D01*
X0832Y04796D02*
X08795D01*
X09237Y0466D02*
X09271D01*
X08994Y04903D02*
X09237Y0466D01*
X08326Y04903D02*
X08994D01*
X09198Y04299D02*
Y0434D01*
X08733Y05298D02*
X08909Y05474D01*
X08756Y05272D02*
X0895Y05466D01*
X09198Y05663D02*
Y05722D01*
X08781Y05246D02*
X09198Y05663D01*
X08321Y05246D02*
X08781D01*
X09175Y05292D02*
X09271D01*
X09Y05116D02*
X09175Y05292D01*
X09198Y05377D02*
Y05405D01*
X08962Y05142D02*
X09198Y05377D01*
X08328Y05142D02*
X08962D01*
X09198Y05531D02*
Y05563D01*
X08861Y05194D02*
X09198Y05531D01*
X08324Y05194D02*
X08861D01*
X09196Y05608D02*
X09271D01*
X08809Y0522D02*
X09196Y05608D01*
X08322Y0522D02*
X08809D01*
X09195Y05451D02*
X0927D01*
X08912Y05168D02*
X09195Y05451D01*
X08326Y05168D02*
X08912D01*
X09165Y05134D02*
X09271D01*
X09094Y05062D02*
X09165Y05134D01*
X08332Y05062D02*
X09094D01*
X08842Y04421D02*
X09166Y04097D01*
X08425Y053D02*
X08733Y05298D01*
X08712Y05324D02*
X08862Y05474D01*
X08316Y05324D02*
X08712D01*
X08833Y04823D02*
X09198Y04457D01*
X08322Y04823D02*
X08833D01*
X08769Y0477D02*
X09198Y0434D01*
X08319Y0477D02*
X08769D01*
X09233Y04186D02*
X09271D01*
X09166Y04097D02*
X09271D01*
X09042Y04929D02*
X09198Y04774D01*
X08327Y04929D02*
X09042D01*
X09233Y04818D02*
X09271D01*
X09094Y04956D02*
X09233Y04818D01*
X08329Y04956D02*
X09094D01*
X09147Y04983D02*
X09198Y04931D01*
X08331Y04983D02*
X09147D01*
X09145Y05036D02*
X09198Y05089D01*
X08333Y05036D02*
X09145D01*
X0974Y04141D02*
X09802D01*
X0974Y04299D02*
X09802D01*
X0974Y04457D02*
X09802D01*
X0974Y04615D02*
X09802D01*
X0974Y04774D02*
X09802D01*
X0974Y04931D02*
X09802D01*
X0974Y05089D02*
X09802D01*
X0974Y05248D02*
X09802D01*
X0974Y05405D02*
X09802D01*
X0974Y05563D02*
X09802D01*
X098Y0572D02*
X09802Y05722D01*
X0974Y0572D02*
X098D01*
X0974Y05879D02*
X09802D01*
X09271Y04975D02*
Y05009D01*
X0938Y04379D02*
X09381Y04378D01*
X0938Y04537D02*
X09381Y04536D01*
X0938Y04694D02*
X09381Y04694D01*
X0938Y04852D02*
X09381Y04852D01*
X0938Y05009D02*
Y0501D01*
Y05168D02*
X09381Y05168D01*
X0938Y05326D02*
X09381Y05325D01*
X09271Y05013D02*
Y05045D01*
X0927Y05451D02*
X09271Y0545D01*
X07744Y05187D02*
X07786D01*
X07732Y05198D02*
X07744Y05187D01*
X08075Y05167D02*
X08269D01*
X08075Y04773D02*
X08206D01*
X08075Y04812D02*
X08222D01*
X08075Y04852D02*
X08238D01*
X08075Y04872D02*
X08247D01*
X08075Y04911D02*
X08263D01*
X08075Y0495D02*
X08279D01*
X08075Y05049D02*
X08318D01*
X08075Y05068D02*
X0831D01*
X08075Y05029D02*
D01*
Y0499D02*
D01*
Y04931D02*
D01*
Y04891D02*
D01*
Y04832D02*
D01*
X08316Y04716D02*
X08432D01*
G54D100*
X05525Y0423D03*
X05325D03*
X05025D03*
X04925D03*
G54D101*
X13141Y04956D03*
X12931D03*
X06883Y04068D03*
Y04279D03*
X16262Y05137D03*
X16472D03*
X05212Y05903D03*
Y05693D03*
X07974Y05646D03*
Y05856D03*
G54D102*
X13356Y04472D03*
X15718D03*
X17076Y05375D03*
X15718Y05543D03*
X13356D03*
X10994D03*
X08631D03*
X06269D03*
X04094Y05708D03*
X06269Y04472D03*
X08631D03*
X10994D03*
X17076Y04639D03*
G54D103*
X04551Y0472D03*
X04889Y05072D03*
X04425Y04922D03*
X0434Y0472D03*
X14257Y05849D03*
X08234Y04387D03*
X06856Y05842D03*
X06146Y04905D03*
X05607Y04899D03*
X05962Y04572D03*
X05793Y05549D03*
X07564Y04598D03*
X06582Y04559D03*
X05447Y04797D03*
X04244Y04982D03*
X05505Y04562D03*
X05454Y05073D03*
X05525Y04017D03*
X05486D03*
X05567D03*
X05486Y04057D03*
X05525D03*
X05567D03*
X07885Y05057D03*
Y05099D03*
Y05138D03*
X07771Y04006D03*
X07564Y04653D03*
X07846Y05057D03*
Y05138D03*
Y05099D03*
X1525Y05523D03*
X06307Y0493D03*
X0619Y04818D03*
X07214Y04956D03*
X07277Y05509D03*
X07128Y05549D03*
X06946Y05552D03*
X07015Y05738D03*
X05917Y04876D03*
X07553Y05937D03*
X07446Y0439D03*
X16317Y05361D03*
Y04866D03*
X13125Y05877D03*
X12889D03*
X12986D03*
X06161Y05336D03*
X07425Y04627D03*
X05946Y0398D03*
Y04142D03*
X07468Y05258D03*
X0736Y04933D03*
X05468Y05466D03*
X07564Y04749D03*
Y04796D03*
X07566Y04559D03*
X07446Y04496D03*
X05445Y04923D03*
X06887Y05647D03*
X06767Y05818D03*
X07246Y0558D03*
X05544Y05468D03*
X06874Y05251D03*
X07068Y05226D03*
X06569Y05305D03*
X0659Y05218D03*
X06606Y05183D03*
X05984Y05284D03*
X06397Y05342D03*
X06838Y05173D03*
X06789D03*
X07076Y05362D03*
X06726Y05173D03*
X06453Y04635D03*
X06066Y05185D03*
Y0475D03*
X13988Y05795D03*
X15381D03*
X16417Y04866D03*
X0644Y05771D03*
X07311Y05433D03*
X07226Y05389D03*
X06401Y04175D03*
X06144Y0423D03*
X07572Y04095D03*
X07679Y0496D03*
X07362Y05072D03*
X07143Y05081D03*
X12498Y04125D03*
X10232Y04062D03*
Y04177D03*
Y04335D03*
Y04493D03*
Y04651D03*
Y04809D03*
Y04967D03*
Y05125D03*
Y05283D03*
Y05441D03*
Y05599D03*
Y05757D03*
X0974Y04141D03*
Y04299D03*
Y04457D03*
Y04615D03*
Y04774D03*
Y04931D03*
Y05089D03*
Y05248D03*
Y05405D03*
Y05563D03*
Y0572D03*
Y05879D03*
X09602D03*
Y04141D03*
Y04299D03*
Y04457D03*
Y04615D03*
Y04774D03*
Y04931D03*
Y05089D03*
Y05248D03*
Y05405D03*
Y05563D03*
Y05722D03*
X09198Y04141D03*
Y04299D03*
Y04457D03*
Y04615D03*
Y04774D03*
Y04931D03*
Y05089D03*
Y05248D03*
Y05405D03*
Y05563D03*
Y05722D03*
Y05879D03*
X04005Y04431D03*
X07564Y04701D03*
X06397Y05017D03*
Y04929D03*
Y04841D03*
Y04885D03*
Y04973D03*
Y04797D03*
X06545Y0436D03*
X07076Y05923D03*
X06029D03*
X06217Y05084D03*
X06259D03*
X06174D03*
X06033Y04153D03*
X06Y04986D03*
X06131Y05084D03*
X07564Y04844D03*
Y04891D03*
X06397Y05084D03*
X06305D03*
X0597Y04848D03*
Y04907D03*
X05535Y04899D03*
X14775Y03998D03*
X14657Y03962D03*
X12781Y04122D03*
Y04265D03*
Y04404D03*
Y04543D03*
Y04683D03*
Y04822D03*
Y04962D03*
Y05102D03*
Y0524D03*
Y05379D03*
Y05518D03*
Y05657D03*
Y05797D03*
X15624Y05163D03*
X13862Y05622D03*
Y05522D03*
Y05422D03*
Y05322D03*
Y05222D03*
Y05122D03*
Y04795D03*
Y04695D03*
Y04595D03*
Y04495D03*
Y04395D03*
Y04295D03*
Y05722D03*
Y04895D03*
X14255Y04894D03*
X15129Y05903D03*
X15011Y05938D03*
X14893Y05974D03*
X14775Y06009D03*
X14657Y06045D03*
X14598Y04846D03*
X14716D03*
X14893Y04112D03*
X14775D03*
X14657D03*
X14893Y04033D03*
X14952Y04846D03*
X14834D03*
X14255Y04294D03*
Y04394D03*
Y04494D03*
Y04594D03*
Y04694D03*
Y04794D03*
Y05121D03*
Y05221D03*
X15307Y04846D03*
X15188D03*
X1507D03*
X15307Y05238D03*
X14716D03*
X14598D03*
M02*