G04*
G04 #@! TF.GenerationSoftware,Altium Limited,Altium Designer,18.1.9 (240)*
G04*
G04 Layer_Color=16711935*
%FSLAX42Y42*%
%MOMM*%
G71*
G01*
G75*
%ADD13C,0.25*%
%ADD14C,0.20*%
%ADD104C,0.15*%
D13*
X10000Y9005D02*
X10152Y9056D01*
X10000Y9005D02*
X10152Y8954D01*
X43563D02*
X43715Y9005D01*
X43563Y9056D02*
X43715Y9005D01*
X10000D02*
X26370D01*
X27264D02*
X43715D01*
X10000Y8980D02*
Y9965D01*
X43715Y8980D02*
Y11350D01*
X8010Y15440D02*
X8061Y15288D01*
X7959D02*
X8010Y15440D01*
X7959Y10152D02*
X8010Y10000D01*
X8061Y10152D01*
X8010Y13063D02*
Y15440D01*
Y10000D02*
Y12296D01*
X7985Y15440D02*
X9965D01*
X7985Y10000D02*
X9965D01*
D14*
X43715Y11385D02*
Y14055D01*
X42775D02*
X43715D01*
X42775Y11385D02*
X43715D01*
X42775Y10000D02*
Y11385D01*
Y14055D02*
Y15440D01*
X10400Y14500D02*
X11040D01*
X10000Y15440D02*
X42775D01*
X10000Y10000D02*
X42775D01*
X10000D02*
Y15440D01*
D104*
X26411Y9041D02*
X26436Y9066D01*
X26487D01*
X26512Y9041D01*
Y9015D01*
X26487Y8990D01*
X26461D01*
X26487D01*
X26512Y8964D01*
Y8939D01*
X26487Y8914D01*
X26436D01*
X26411Y8939D01*
X26563Y9041D02*
X26588Y9066D01*
X26639D01*
X26665Y9041D01*
Y9015D01*
X26639Y8990D01*
X26614D01*
X26639D01*
X26665Y8964D01*
Y8939D01*
X26639Y8914D01*
X26588D01*
X26563Y8939D01*
X26715Y9066D02*
X26817D01*
Y9041D01*
X26715Y8939D01*
Y8914D01*
X26868D02*
Y8939D01*
X26893D01*
Y8914D01*
X26868D01*
X26995D02*
X27045D01*
X27020D01*
Y9066D01*
X26995Y9041D01*
X27223Y9066D02*
X27122D01*
Y8990D01*
X27172Y9015D01*
X27198D01*
X27223Y8990D01*
Y8939D01*
X27198Y8914D01*
X27147D01*
X27122Y8939D01*
X7949Y12438D02*
Y12337D01*
X8025D01*
X8000Y12387D01*
Y12413D01*
X8025Y12438D01*
X8076D01*
X8101Y12413D01*
Y12362D01*
X8076Y12337D01*
X8101Y12565D02*
X7949D01*
X8025Y12489D01*
Y12590D01*
X8101Y12641D02*
X8076D01*
Y12667D01*
X8101D01*
Y12641D01*
Y12844D02*
X7949D01*
X8025Y12768D01*
Y12870D01*
X7974Y12921D02*
X7949Y12946D01*
Y12997D01*
X7974Y13022D01*
X8076D01*
X8101Y12997D01*
Y12946D01*
X8076Y12921D01*
X7974D01*
M02*
