M48
;Layer_Color=9474304
;FILE_FORMAT=4:2
METRIC,LZ
;TYPE=PLATED
T1F00S00C0.30
T2F00S00C0.70
T3F00S00C3.76
T4F00S00C4.00
%
T01
X010175Y011255
X013985Y01159
X015145Y011615
X015105Y010521
X015325Y01055
X015607Y010745
X015105Y01011
X014142Y010205
Y010305
X014035
Y010205
X013935
Y010305
X01626Y010605
X016625Y011075
X01672Y01158
X016391Y011775
X01886Y011755
X018914Y01142
Y011151
X01922Y01158
X019215Y01168
Y011821
X019235Y010402
X01974Y010177
X020915Y011145
X023365Y011323
Y010921
Y01052
Y011724
X02439
X02474Y011724
Y011323
X02439Y011323
Y010921
X02474Y010921
Y01052
X02439
X02599Y01061
Y01032
Y011011
Y011413
Y011814
X031745Y010478
X032465Y010472
Y010835
Y011188
Y01154
Y011895
X03521Y011672
Y011418
Y011164
Y01091
X03621Y010908
Y011162
Y011416
Y01167
X03723Y010445
X03753
Y010155
X03783Y010245
Y010445
X03723Y010065
X041446Y01236
X0417
X041446Y013618
X039685Y013115
X03888Y013305
X038735Y01403
X03907Y01472
X03843Y014995
X03813Y015085
X03783Y015175
X03753Y015265
X03723Y015355
X036215Y014858
X03621Y013262
Y013008
Y012432
Y012178
Y011924
X03708Y01231
X03738
X03768
X03798
X03828
X03858
X03888
X03738Y013305
X03708
X03521Y013264
Y013518
Y013772
Y014026
Y01428
Y014534
X03553Y01472
X03521Y01301
Y012434
Y01218
Y011926
X032465Y01225
Y012605
Y01296
Y013312
Y013665
Y014018
Y01437
Y014725
X03274Y01493
X032985
X03334
X02599Y014624
Y014222
Y013821
Y01342
Y013018
Y012617
Y012216
X02474Y012126
X02439Y012126
Y012527
X02474Y012527
Y012928
X02439Y012928
Y01333
X02474Y01333
Y013731
X02439Y01373
Y014132
X02474Y014132
Y01453
X02439Y014535
Y014935
X02474Y014935
X023365
Y014534
Y014132
Y013731
Y01333
Y012928
Y012527
Y012126
X02003Y012845
X01993
Y012952
X02003
Y013052
X01993
X019505Y0126
X019215Y012425
Y012304
Y012183
Y012063
Y011942
X018695Y01253
X0187Y012885
X018145Y012907
X018325Y012589
X017955Y013275
X017974Y01362
X018355Y01369
X01857Y0138
X018485Y013993
X018405Y014175
X018106Y014095
X017645Y014104
X017493Y014345
X017819Y014575
X017975Y015045
X017415Y014841
X01719Y01478
X01636Y01466
X01625Y01357
X016686Y013475
X01674Y013255
X01678Y013165
X017085Y01314
X017245
X01737
X01746Y01334
X01897Y013357
X019185Y01508
X01625Y012915
X01625Y012745
X01625Y012633
Y012521
Y012409
Y012297
X01625Y012185
X01602Y012523
X016017Y012915
X0159
X015792
X015683
X015575
X01541Y01317
X0152Y013423
X01565Y013555
X015612Y01246
X015725Y01224
X01541Y012065
X015165Y012315
Y012465
X01503Y012387
X01524Y012665
X014243Y012445
X01406
X013831Y012505
X013837Y012185
X013855Y012887
X013889Y013885
X014082Y01389
X014716Y014095
X015315Y015045
X01242Y012885
X011242Y012503
X01078Y012655
X011025Y01199
X011562
T02
X012511Y010745
X012765
X013527
X014035
T03
X017485Y010335
Y010869
X041306Y01305
X04184
X033379Y01259
X032845
X020255Y014341
Y014875
X01324Y014995
Y014461
T04
X015925Y01136
X021925
X027925
X033925
X039925
X043375Y011785
Y013655
X039925Y01408
X033925
X027925
X021925
X015925
X0104Y0145
M30
