G04*
G04 #@! TF.GenerationSoftware,Altium Limited,Altium Designer,18.1.9 (240)*
G04*
G04 Layer_Physical_Order=1*
G04 Layer_Color=255*
%FSLAX42Y42*%
%MOMM*%
G71*
G01*
G75*
%ADD13C,0.25*%
%ADD21R,0.70X1.05*%
%ADD22R,1.30X1.50*%
%ADD23R,1.50X1.30*%
%ADD24R,0.60X1.45*%
%ADD25O,0.60X1.45*%
%ADD26R,1.40X1.25*%
%ADD27R,1.10X1.30*%
%ADD28R,1.25X1.40*%
%ADD29R,1.35X1.80*%
%ADD30R,1.80X1.35*%
%ADD31R,1.20X0.70*%
%ADD32R,1.50X2.15*%
%ADD33R,3.80X2.15*%
%ADD34R,3.43X1.65*%
%ADD35R,1.27X2.54*%
%ADD36R,2.45X1.60*%
%ADD37R,1.27X2.92*%
G04:AMPARAMS|DCode=38|XSize=5.33mm|YSize=1.65mm|CornerRadius=0.41mm|HoleSize=0mm|Usage=FLASHONLY|Rotation=270.000|XOffset=0mm|YOffset=0mm|HoleType=Round|Shape=RoundedRectangle|*
%AMROUNDEDRECTD38*
21,1,5.33,0.83,0,0,270.0*
21,1,4.51,1.65,0,0,270.0*
1,1,0.83,-0.41,-2.25*
1,1,0.83,-0.41,2.25*
1,1,0.83,0.41,2.25*
1,1,0.83,0.41,-2.25*
%
%ADD38ROUNDEDRECTD38*%
G04:AMPARAMS|DCode=39|XSize=5.33mm|YSize=1.65mm|CornerRadius=0.41mm|HoleSize=0mm|Usage=FLASHONLY|Rotation=180.000|XOffset=0mm|YOffset=0mm|HoleType=Round|Shape=RoundedRectangle|*
%AMROUNDEDRECTD39*
21,1,5.33,0.83,0,0,180.0*
21,1,4.51,1.65,0,0,180.0*
1,1,0.83,-2.25,0.41*
1,1,0.83,2.25,0.41*
1,1,0.83,2.25,-0.41*
1,1,0.83,-2.25,-0.41*
%
%ADD39ROUNDEDRECTD39*%
%ADD40O,1.65X0.70*%
%ADD41R,1.10X0.70*%
%ADD42R,1.82X1.39*%
%ADD43R,1.39X1.82*%
%ADD44R,1.80X0.30*%
%ADD45O,1.80X0.30*%
%ADD46O,0.30X1.80*%
%ADD47R,3.40X1.10*%
%ADD48R,2.54X1.27*%
%ADD49R,1.65X3.43*%
G04:AMPARAMS|DCode=50|XSize=2.2mm|YSize=1.75mm|CornerRadius=0.44mm|HoleSize=0mm|Usage=FLASHONLY|Rotation=0.000|XOffset=0mm|YOffset=0mm|HoleType=Round|Shape=RoundedRectangle|*
%AMROUNDEDRECTD50*
21,1,2.20,0.88,0,0,0.0*
21,1,1.33,1.75,0,0,0.0*
1,1,0.88,0.66,-0.44*
1,1,0.88,-0.66,-0.44*
1,1,0.88,-0.66,0.44*
1,1,0.88,0.66,0.44*
%
%ADD50ROUNDEDRECTD50*%
%ADD51R,2.00X2.00*%
%ADD52O,1.50X0.35*%
%ADD53R,2.00X6.50*%
%ADD54R,0.65X0.85*%
%ADD55R,1.70X1.60*%
%ADD56R,1.05X0.40*%
%ADD96C,0.70*%
%ADD97C,0.50*%
%ADD98C,0.40*%
%ADD99C,0.35*%
%ADD100C,1.20*%
%ADD101C,3.76*%
%ADD102C,6.00*%
%ADD103C,0.70*%
G36*
X17335Y14700D02*
X17064Y14700D01*
X17055Y14709D01*
X17055Y15200D01*
X17094D01*
X17106Y15187D01*
Y15058D01*
X17195D01*
X17284D01*
Y15187D01*
X17284Y15197D01*
X17296Y15200D01*
X17335D01*
X17335Y14700D01*
D02*
G37*
G36*
X20175Y15074D02*
X20173Y15073D01*
X20136Y15053D01*
X20103Y15027D01*
X20077Y14994D01*
X20057Y14957D01*
X20045Y14917D01*
X20041Y14875D01*
X20045Y14833D01*
X20057Y14793D01*
X20077Y14756D01*
X20103Y14723D01*
X20136Y14697D01*
X20173Y14677D01*
X20175Y14676D01*
Y14540D01*
X20173Y14539D01*
X20136Y14519D01*
X20103Y14493D01*
X20077Y14460D01*
X20057Y14423D01*
X20045Y14383D01*
X20041Y14341D01*
X20045Y14299D01*
X20057Y14259D01*
X20077Y14222D01*
X20103Y14189D01*
X20136Y14163D01*
X20173Y14143D01*
X20175Y14142D01*
Y13369D01*
X19666D01*
X19650Y13365D01*
X19636Y13356D01*
X19609Y13330D01*
X19600Y13316D01*
X19597Y13299D01*
Y13205D01*
X19600Y13188D01*
X19609Y13174D01*
X19640Y13144D01*
X19654Y13134D01*
X19665Y13132D01*
X19677Y13125D01*
X19680Y13108D01*
X19685Y13100D01*
X19680Y13091D01*
X19677Y13075D01*
X19680Y13058D01*
X19685Y13050D01*
X19680Y13041D01*
X19677Y13025D01*
X19680Y13008D01*
X19685Y13000D01*
X19680Y12991D01*
X19693D01*
X19704Y12984D01*
X19720Y12981D01*
X19835D01*
X19852Y12984D01*
X19863Y12991D01*
X19876D01*
X19870Y13000D01*
X19876Y13008D01*
X19879Y13025D01*
X19876Y13041D01*
X19870Y13050D01*
X19876Y13058D01*
X19879Y13075D01*
X19876Y13091D01*
X19870Y13100D01*
X19876Y13108D01*
X19879Y13125D01*
X19876Y13141D01*
X19870Y13150D01*
X19876Y13158D01*
X19879Y13175D01*
X19878Y13182D01*
X19889Y13184D01*
X19903Y13194D01*
X19940Y13231D01*
X20175D01*
Y11905D01*
X20076D01*
Y11805D01*
Y11704D01*
X20175D01*
Y11449D01*
X20145D01*
Y11420D01*
X19964D01*
Y11491D01*
X19554D01*
Y11571D01*
X19943Y11960D01*
X19951Y11972D01*
X19954Y11987D01*
Y12550D01*
X19951Y12564D01*
X19943Y12577D01*
X19918Y12602D01*
X19905Y12610D01*
X19890Y12613D01*
X19887D01*
X19879Y12623D01*
X19879Y12625D01*
X19876Y12641D01*
X19870Y12650D01*
X19876Y12658D01*
X19879Y12675D01*
X19876Y12691D01*
X19870Y12700D01*
X19876Y12708D01*
X19879Y12725D01*
X19876Y12741D01*
X19870Y12750D01*
X19876Y12758D01*
X19879Y12775D01*
X19876Y12791D01*
X19870Y12800D01*
X19876Y12808D01*
X19879Y12825D01*
X19876Y12841D01*
X19870Y12850D01*
X19876Y12858D01*
X19879Y12875D01*
X19876Y12891D01*
X19870Y12900D01*
X19875Y12907D01*
X19863D01*
X19852Y12915D01*
X19835Y12918D01*
X19720D01*
X19704Y12915D01*
X19692Y12907D01*
X19680D01*
X19685Y12900D01*
X19680Y12891D01*
X19677Y12875D01*
X19680Y12858D01*
X19685Y12850D01*
X19680Y12841D01*
X19677Y12825D01*
X19677Y12823D01*
X19669Y12813D01*
X19565D01*
Y12980D01*
Y13057D01*
X19465D01*
X19365D01*
Y12980D01*
Y12800D01*
X19428D01*
X19429Y12795D01*
X19438Y12782D01*
X19444Y12775D01*
X19440Y12763D01*
X19296D01*
X19272Y12788D01*
X19277Y12800D01*
X19320D01*
Y12980D01*
Y13057D01*
X19220D01*
X19120D01*
Y12999D01*
X19107Y12992D01*
X19105Y12994D01*
X19095Y12995D01*
X19070D01*
Y13057D01*
X18970D01*
Y13070D01*
X18957D01*
Y13160D01*
X18885D01*
X18876Y13169D01*
X18876Y13414D01*
X18876Y13414D01*
Y14645D01*
X18874Y14655D01*
X18868Y14663D01*
X18860Y14669D01*
X18850Y14671D01*
X18795D01*
Y14696D01*
X18894D01*
Y14694D01*
X18896Y14676D01*
X18903Y14660D01*
X18913Y14646D01*
X18927Y14636D01*
X18943Y14629D01*
X18961Y14627D01*
X19411D01*
X19429Y14629D01*
X19445Y14636D01*
X19459Y14646D01*
X19469Y14660D01*
X19476Y14676D01*
X19478Y14694D01*
Y14776D01*
X19476Y14794D01*
X19469Y14810D01*
X19459Y14824D01*
X19445Y14834D01*
X19429Y14841D01*
X19411Y14843D01*
X18961D01*
X18943Y14841D01*
X18927Y14834D01*
X18913Y14824D01*
X18903Y14810D01*
X18896Y14794D01*
X18894Y14776D01*
Y14774D01*
X18795D01*
Y14827D01*
X18595D01*
Y14776D01*
X17556D01*
X17546Y14774D01*
X17541Y14777D01*
X17536Y14781D01*
X17534Y14784D01*
Y14893D01*
X17584D01*
Y15197D01*
X17594Y15203D01*
X17696D01*
X17706Y15197D01*
X17706Y15191D01*
Y14893D01*
X17884D01*
Y15006D01*
X17928D01*
X17931Y15001D01*
X17951Y14988D01*
X17975Y14983D01*
X17999Y14988D01*
X18019Y15001D01*
X18032Y15021D01*
X18037Y15045D01*
X18032Y15069D01*
X18019Y15089D01*
X17999Y15102D01*
X17975Y15107D01*
X17951Y15102D01*
X17931Y15089D01*
X17928Y15084D01*
X17884D01*
Y15191D01*
X17884Y15197D01*
X17894Y15203D01*
X20175D01*
Y15074D01*
D02*
G37*
G36*
X16005Y15282D02*
X15881Y15159D01*
X15868Y15139D01*
X15863Y15115D01*
Y15063D01*
X15810D01*
Y14877D01*
X16040D01*
Y15063D01*
X15987D01*
Y15089D01*
X16101Y15203D01*
X17018D01*
X17029Y15191D01*
X17029Y14709D01*
X17029Y14709D01*
X17029Y14709D01*
X17030Y14704D01*
X17031Y14699D01*
X17031Y14699D01*
X17031Y14699D01*
X17034Y14695D01*
X17036Y14691D01*
X17036Y14691D01*
X17036Y14691D01*
X17045Y14682D01*
X17045Y14682D01*
X17045Y14682D01*
X17050Y14679D01*
X17054Y14676D01*
X17054Y14676D01*
X17054Y14676D01*
X17059Y14675D01*
X17064Y14674D01*
X17064Y14674D01*
X17064Y14674D01*
X17318Y14674D01*
X17322Y14662D01*
X16658Y13998D01*
X16650Y13986D01*
X16647Y13971D01*
Y13522D01*
X16642Y13519D01*
X16637Y13510D01*
X16624Y13514D01*
Y14435D01*
X16621Y14450D01*
X16618Y14454D01*
X16625Y14467D01*
X17003D01*
Y14683D01*
X16610D01*
Y14483D01*
X16597Y14478D01*
X16420Y14654D01*
X16422Y14660D01*
X16417Y14684D01*
X16404Y14704D01*
X16384Y14717D01*
X16360Y14722D01*
X16336Y14717D01*
X16316Y14704D01*
X16303Y14684D01*
X16298Y14660D01*
X16303Y14636D01*
X16316Y14616D01*
X16336Y14603D01*
X16360Y14598D01*
X16366Y14600D01*
X16546Y14419D01*
Y13338D01*
X16533Y13325D01*
X16520Y13330D01*
Y13410D01*
X16430D01*
Y13423D01*
X16417D01*
Y13523D01*
X16391D01*
Y13645D01*
X16389Y13655D01*
X16383Y13663D01*
X16375Y13669D01*
X16365Y13671D01*
X16255D01*
X16251Y13684D01*
X16288Y13717D01*
X16333Y13767D01*
X16370Y13823D01*
X16400Y13883D01*
X16421Y13947D01*
X16434Y14013D01*
X16439Y14080D01*
X16434Y14147D01*
X16421Y14213D01*
X16400Y14277D01*
X16370Y14337D01*
X16333Y14393D01*
X16288Y14443D01*
X16238Y14488D01*
X16182Y14525D01*
X16122Y14555D01*
X16058Y14576D01*
X16017Y14584D01*
X16018Y14597D01*
X16040D01*
Y14783D01*
X15810D01*
Y14597D01*
X15832D01*
X15833Y14584D01*
X15792Y14576D01*
X15728Y14555D01*
X15668Y14525D01*
X15612Y14488D01*
X15562Y14443D01*
X15517Y14393D01*
X15480Y14337D01*
X15450Y14277D01*
X15429Y14213D01*
X15416Y14147D01*
X15411Y14080D01*
X15416Y14013D01*
X15429Y13947D01*
X15450Y13883D01*
X15480Y13823D01*
X15517Y13767D01*
X15562Y13717D01*
X15612Y13672D01*
X15668Y13635D01*
X15728Y13605D01*
X15792Y13584D01*
X15858Y13571D01*
X15925Y13566D01*
X15992Y13571D01*
X16058Y13584D01*
X16094Y13596D01*
X16104Y13588D01*
Y13291D01*
X16101Y13281D01*
X16093Y13277D01*
X16084Y13276D01*
X16075Y13269D01*
X16066Y13276D01*
X16050Y13279D01*
X16034Y13276D01*
X16025Y13269D01*
X16016Y13276D01*
X16000Y13279D01*
X15984Y13276D01*
X15975Y13269D01*
X15966Y13276D01*
X15950Y13279D01*
X15934Y13276D01*
X15925Y13269D01*
X15916Y13276D01*
X15900Y13279D01*
X15884Y13276D01*
X15875Y13269D01*
X15866Y13276D01*
X15850Y13279D01*
X15834Y13276D01*
X15825Y13269D01*
X15816Y13276D01*
X15800Y13279D01*
X15784Y13276D01*
X15781Y13274D01*
X15772Y13278D01*
X15770Y13291D01*
X15782Y13304D01*
X15791Y13317D01*
X15792Y13322D01*
X15922D01*
Y13423D01*
Y13523D01*
X15689D01*
Y13555D01*
X15686Y13570D01*
X15677Y13582D01*
X15665Y13591D01*
X15650Y13594D01*
X15635Y13591D01*
X15623Y13582D01*
X15614Y13570D01*
X15611Y13555D01*
Y13523D01*
X15378D01*
Y13423D01*
X15352D01*
Y13523D01*
X15300D01*
X15300Y13690D01*
X15298Y13700D01*
X15293Y13708D01*
X15284Y13714D01*
X15274Y13716D01*
X15100D01*
Y13818D01*
X15039D01*
Y13955D01*
X15124D01*
Y14205D01*
X15038D01*
Y14718D01*
X15309Y14985D01*
X15315Y14983D01*
X15339Y14988D01*
X15359Y15001D01*
X15372Y15021D01*
X15377Y15045D01*
X15372Y15069D01*
X15359Y15089D01*
X15339Y15102D01*
X15315Y15107D01*
X15291Y15102D01*
X15271Y15089D01*
X15258Y15069D01*
X15253Y15045D01*
X15254Y15040D01*
X14972Y14761D01*
X14971Y14761D01*
X14971Y14761D01*
X14967Y14755D01*
X14963Y14749D01*
X14963Y14749D01*
X14963Y14749D01*
X14961Y14741D01*
X14960Y14734D01*
X14960Y14734D01*
X14960Y14734D01*
Y14205D01*
X14873D01*
Y13955D01*
X14961D01*
Y13818D01*
X14900D01*
Y13766D01*
X14812D01*
X14798Y13763D01*
X14785Y13755D01*
X14616Y13586D01*
X14540D01*
Y13637D01*
Y13715D01*
X14440D01*
X14340D01*
Y13637D01*
Y13482D01*
X14336Y13481D01*
X14327Y13475D01*
X14311Y13474D01*
X14121Y13664D01*
Y13843D01*
X14126Y13846D01*
X14139Y13866D01*
X14144Y13890D01*
X14139Y13914D01*
X14126Y13934D01*
X14121Y13937D01*
Y14437D01*
X14118Y14452D01*
X14110Y14464D01*
X13831Y14743D01*
X13792Y14782D01*
X13785Y14787D01*
Y15293D01*
X16000D01*
X16005Y15282D01*
D02*
G37*
G36*
X12968Y14728D02*
X12980Y14719D01*
X12995Y14716D01*
X13748D01*
X13797Y14668D01*
X14044Y14421D01*
Y13937D01*
X14039Y13934D01*
X14026Y13914D01*
X14021Y13890D01*
X14026Y13866D01*
X14039Y13846D01*
X14044Y13843D01*
Y13716D01*
X13950D01*
X13940Y13714D01*
X13932Y13708D01*
X13926Y13700D01*
X13924Y13690D01*
X13924Y12960D01*
X13924Y12912D01*
D01*
Y12855D01*
D01*
Y12785D01*
D01*
Y12780D01*
X13785D01*
Y12785D01*
X13550D01*
Y12855D01*
X13785D01*
Y12912D01*
X13550D01*
Y12982D01*
X13785D01*
Y14445D01*
X13462D01*
X13454Y14454D01*
X13454Y14461D01*
X13450Y14503D01*
X13438Y14543D01*
X13418Y14580D01*
X13392Y14613D01*
X13359Y14639D01*
X13322Y14659D01*
X13282Y14671D01*
X13240Y14675D01*
X13198Y14671D01*
X13158Y14659D01*
X13121Y14639D01*
X13088Y14613D01*
X13062Y14580D01*
X13042Y14543D01*
X13030Y14503D01*
X13026Y14461D01*
X13026Y14454D01*
X13018Y14445D01*
X11845D01*
Y14755D01*
X11913D01*
X11928Y14749D01*
X11946Y14747D01*
X12396D01*
X12414Y14749D01*
X12429Y14755D01*
X12940D01*
X12968Y14728D01*
D02*
G37*
G36*
X17406Y15197D02*
Y14893D01*
X17456D01*
Y14796D01*
X17373Y14713D01*
X17361Y14717D01*
X17361Y15200D01*
X17364Y15203D01*
X17396D01*
X17406Y15197D01*
D02*
G37*
G36*
X18850Y14435D02*
Y14250D01*
Y13414D01*
X18850Y13414D01*
X18850Y13145D01*
X18785D01*
Y13170D01*
X18430D01*
Y13145D01*
X18411D01*
Y13170D01*
X18056D01*
Y13145D01*
X17835Y13145D01*
X17835Y13345D01*
X17945D01*
Y13422D01*
X18046D01*
Y13370D01*
X18246D01*
Y13423D01*
X18320D01*
Y13370D01*
X18521D01*
Y13423D01*
X18550D01*
Y13732D01*
X18560Y13740D01*
X18570Y13738D01*
X18576Y13740D01*
X18656Y13659D01*
Y13623D01*
X18595D01*
Y13442D01*
Y13400D01*
Y13370D01*
X18795D01*
Y13400D01*
Y13423D01*
Y13442D01*
Y13623D01*
X18734D01*
Y13675D01*
X18731Y13690D01*
X18722Y13702D01*
X18630Y13794D01*
X18632Y13800D01*
X18627Y13824D01*
X18614Y13844D01*
X18594Y13857D01*
X18570Y13862D01*
X18564Y13860D01*
X18550Y13875D01*
Y14250D01*
X17884D01*
Y14257D01*
X17706D01*
Y14250D01*
X17584D01*
Y14257D01*
X17406D01*
Y14257D01*
X17395Y14261D01*
Y14435D01*
X18550D01*
Y14645D01*
X18595D01*
Y14575D01*
X18795D01*
Y14645D01*
X18850D01*
Y14435D01*
D02*
G37*
G36*
X18595Y14671D02*
X18550D01*
X18540Y14669D01*
X18532Y14663D01*
X18526Y14655D01*
X18524Y14645D01*
Y14461D01*
X18391D01*
X18380Y14467D01*
X18380Y14474D01*
Y14683D01*
X17987D01*
Y14474D01*
X17987Y14467D01*
X17976Y14461D01*
X17395D01*
X17385Y14459D01*
X17377Y14453D01*
X17371Y14445D01*
X17369Y14435D01*
Y14261D01*
X17369Y14261D01*
X17369Y14260D01*
X17370Y14256D01*
X17371Y14251D01*
X17371Y14251D01*
X17372Y14250D01*
X17374Y14247D01*
X17377Y14243D01*
X17377Y14243D01*
X17378Y14242D01*
X17382Y14240D01*
X17385Y14237D01*
X17386Y14237D01*
X17386Y14237D01*
X17398Y14233D01*
X17402Y14232D01*
X17406Y14232D01*
Y14144D01*
X17405D01*
X17390Y14141D01*
X17378Y14132D01*
X17318Y14072D01*
X17309Y14060D01*
X17306Y14045D01*
Y13876D01*
X16748Y13318D01*
X16740Y13319D01*
X16735Y13332D01*
X16807Y13405D01*
X16816Y13417D01*
X16819Y13432D01*
Y13945D01*
X17094Y14221D01*
X17106Y14216D01*
Y14118D01*
X17182D01*
Y14257D01*
X17147D01*
X17143Y14269D01*
X17572Y14698D01*
X18595D01*
Y14671D01*
D02*
G37*
G36*
X17706Y13953D02*
X17756D01*
Y13931D01*
X17734Y13909D01*
X17485D01*
X17470Y13906D01*
X17458Y13897D01*
X16823Y13263D01*
X16809Y13267D01*
X16809Y13269D01*
X17372Y13833D01*
X17381Y13845D01*
X17384Y13860D01*
Y14029D01*
X17394Y14039D01*
X17406Y14035D01*
Y13953D01*
X17584D01*
Y14224D01*
X17706D01*
Y13953D01*
D02*
G37*
G36*
X18524Y13917D02*
X18512Y13913D01*
X18444Y13981D01*
Y14128D01*
X18449Y14131D01*
X18462Y14151D01*
X18467Y14175D01*
X18462Y14199D01*
X18453Y14211D01*
X18460Y14224D01*
X18524D01*
Y13917D01*
D02*
G37*
G36*
X18357Y14211D02*
X18348Y14199D01*
X18343Y14175D01*
X18348Y14151D01*
X18361Y14131D01*
X18366Y14128D01*
Y13965D01*
X18369Y13950D01*
X18378Y13938D01*
X18464Y13851D01*
X18460Y13839D01*
X17792D01*
X17786Y13852D01*
X17822Y13888D01*
X17831Y13900D01*
X17834Y13915D01*
Y13953D01*
X17884D01*
Y14224D01*
X18350D01*
X18357Y14211D01*
D02*
G37*
G36*
X34112Y14805D02*
X34298D01*
Y14858D01*
X34325D01*
X34335Y14860D01*
X34345Y14852D01*
Y14788D01*
X34427D01*
Y14891D01*
X34400D01*
X34395Y14903D01*
X34426Y14933D01*
X34570D01*
Y13345D01*
X33100Y13345D01*
Y14845D01*
X33024D01*
Y14883D01*
X33029Y14886D01*
X33042Y14906D01*
X33047Y14930D01*
X33042Y14954D01*
X33029Y14974D01*
X33009Y14987D01*
X32985Y14992D01*
X32961Y14987D01*
X32941Y14974D01*
X32928Y14954D01*
X32923Y14930D01*
X32928Y14906D01*
X32941Y14886D01*
X32946Y14883D01*
Y14845D01*
X32660D01*
Y15023D01*
X33832D01*
Y14805D01*
X33863D01*
Y14590D01*
X33858Y14589D01*
X33792Y14576D01*
X33728Y14555D01*
X33668Y14525D01*
X33612Y14488D01*
X33562Y14443D01*
X33517Y14393D01*
X33480Y14337D01*
X33450Y14277D01*
X33429Y14213D01*
X33416Y14147D01*
X33411Y14080D01*
X33416Y14013D01*
X33429Y13947D01*
X33450Y13883D01*
X33480Y13823D01*
X33517Y13767D01*
X33562Y13717D01*
X33612Y13672D01*
X33668Y13635D01*
X33728Y13605D01*
X33792Y13584D01*
X33858Y13571D01*
X33925Y13566D01*
X33992Y13571D01*
X34058Y13584D01*
X34122Y13605D01*
X34182Y13635D01*
X34238Y13672D01*
X34288Y13717D01*
X34333Y13767D01*
X34370Y13823D01*
X34400Y13883D01*
X34421Y13947D01*
X34434Y14013D01*
X34439Y14080D01*
X34434Y14147D01*
X34421Y14213D01*
X34400Y14277D01*
X34370Y14337D01*
X34333Y14393D01*
X34288Y14443D01*
X34238Y14488D01*
X34182Y14525D01*
X34122Y14555D01*
X34058Y14576D01*
X33992Y14589D01*
X33987Y14590D01*
Y14805D01*
X34018D01*
Y15023D01*
X34112D01*
Y14805D01*
D02*
G37*
G36*
X15274Y13500D02*
X15275D01*
Y13322D01*
X15532D01*
Y13423D01*
X15558D01*
Y13322D01*
X15611D01*
Y13286D01*
X15601Y13278D01*
X15600Y13279D01*
X15584Y13276D01*
X15571Y13267D01*
X15562Y13253D01*
X15559Y13238D01*
Y13175D01*
X15600D01*
Y13162D01*
X15609D01*
Y13087D01*
X15612Y13072D01*
X15613Y13071D01*
Y13049D01*
X15616Y13049D01*
X15625Y13056D01*
X15634Y13049D01*
X15635Y13049D01*
Y12995D01*
X15505D01*
X15493Y13003D01*
X15477Y13006D01*
X15327D01*
X15312Y13003D01*
X15300Y12995D01*
X15040D01*
Y13040D01*
X15102D01*
Y13215D01*
Y13292D01*
X15001D01*
X14901D01*
Y13215D01*
Y13040D01*
X14963D01*
Y12995D01*
X14845D01*
Y12999D01*
X14655D01*
Y12995D01*
X14625D01*
Y12999D01*
X14435D01*
Y12824D01*
X14435D01*
Y12783D01*
X14491D01*
Y12755D01*
X14440D01*
Y12555D01*
X14692D01*
Y12655D01*
Y12755D01*
X14569D01*
Y12783D01*
X14825D01*
X14825Y12310D01*
X14773D01*
X14765Y12320D01*
X14765Y12323D01*
Y12385D01*
X14705D01*
X14645D01*
Y12323D01*
X14645Y12320D01*
X14637Y12310D01*
X14575D01*
Y12387D01*
X14375D01*
Y12310D01*
Y12286D01*
X14374Y12284D01*
X14374Y12155D01*
X14375Y12153D01*
Y12130D01*
X14375Y12130D01*
X14375D01*
X14374Y12117D01*
X14374Y12117D01*
X14374Y12116D01*
X14374Y12116D01*
Y11703D01*
X14353D01*
Y11692D01*
X14324D01*
Y11703D01*
X14133D01*
Y11692D01*
X13960D01*
Y11788D01*
X13960D01*
Y11968D01*
Y12046D01*
X13860D01*
Y12071D01*
X13960D01*
Y12149D01*
X13910D01*
X13903Y12162D01*
X13905Y12165D01*
X14046D01*
Y12149D01*
X13985D01*
Y11968D01*
Y11896D01*
X14185D01*
Y11968D01*
Y12149D01*
X14124D01*
Y12165D01*
X14235D01*
Y12377D01*
X14243Y12383D01*
X14267Y12388D01*
X14287Y12401D01*
X14300Y12421D01*
X14305Y12445D01*
X14300Y12469D01*
X14287Y12489D01*
X14267Y12502D01*
X14243Y12507D01*
X14235Y12518D01*
Y12770D01*
X14180Y12770D01*
Y12780D01*
X14124D01*
Y12857D01*
X14185D01*
Y13032D01*
Y13110D01*
X14085D01*
X13985D01*
Y13032D01*
Y12857D01*
X14046D01*
Y12780D01*
X13990D01*
Y12770D01*
X13960D01*
Y12780D01*
X13950D01*
X13950Y13690D01*
X14044D01*
Y13648D01*
X14047Y13633D01*
X14055Y13620D01*
X14388Y13288D01*
X14400Y13279D01*
X14415Y13276D01*
X14630D01*
X14664Y13242D01*
X14660Y13230D01*
X14567D01*
Y13130D01*
Y13030D01*
X14820D01*
Y13230D01*
X14768D01*
Y13232D01*
X14765Y13247D01*
X14757Y13260D01*
X14674Y13342D01*
X14661Y13351D01*
X14646Y13354D01*
X14431D01*
X14341Y13444D01*
X14346Y13457D01*
X14540D01*
Y13509D01*
X14632D01*
X14647Y13512D01*
X14660Y13520D01*
X14829Y13689D01*
X14900D01*
Y13637D01*
Y13565D01*
X15100D01*
Y13637D01*
Y13690D01*
X15274D01*
X15274Y13500D01*
D02*
G37*
G36*
X18046Y13448D02*
X17945D01*
Y13545D01*
X17868D01*
Y13445D01*
X17842D01*
Y13545D01*
X17585D01*
Y13345D01*
X17636D01*
Y13315D01*
X17550D01*
Y13004D01*
X17480D01*
X17465Y13001D01*
X17453Y12992D01*
X17421Y12961D01*
X17409Y12965D01*
Y13093D01*
X17414Y13096D01*
X17427Y13116D01*
X17432Y13140D01*
X17427Y13164D01*
X17414Y13184D01*
X17394Y13197D01*
X17370Y13202D01*
X17346Y13197D01*
X17326Y13184D01*
X17313Y13164D01*
X17308Y13140D01*
X17313Y13116D01*
X17326Y13096D01*
X17331Y13093D01*
Y12961D01*
X16952Y12582D01*
X16940Y12587D01*
Y12622D01*
X16840D01*
Y12648D01*
X16940D01*
Y12733D01*
X16945Y12739D01*
X16952Y12744D01*
X16962Y12746D01*
X16970Y12751D01*
X17193Y12974D01*
X17199Y12983D01*
X17201Y12993D01*
X17201Y13176D01*
X17301Y13276D01*
X17510Y13276D01*
X17520Y13278D01*
X17528Y13284D01*
X17534Y13292D01*
X17536Y13302D01*
Y13380D01*
X17534Y13390D01*
X17528Y13398D01*
X17520Y13404D01*
X17510Y13406D01*
X17312Y13406D01*
X17308Y13418D01*
X17471Y13581D01*
X17927D01*
X17930Y13576D01*
X17950Y13563D01*
X17974Y13558D01*
X17997Y13563D01*
X18017Y13576D01*
X18020Y13581D01*
X18046D01*
Y13448D01*
D02*
G37*
G36*
X17510Y13302D02*
X17290Y13302D01*
X17175Y13187D01*
X17175Y12993D01*
X16952Y12770D01*
X16940Y12774D01*
Y12802D01*
X16840D01*
Y12815D01*
X16827D01*
Y12905D01*
X16814D01*
X16809Y12917D01*
X16995Y13105D01*
X17163Y13273D01*
X17270Y13380D01*
X17510Y13380D01*
Y13302D01*
D02*
G37*
G36*
X16365Y13523D02*
X16263D01*
Y13423D01*
Y13322D01*
X16300D01*
X16304Y13309D01*
X16301Y13308D01*
X16273Y13279D01*
X16269Y13274D01*
X16266Y13276D01*
X16263Y13276D01*
Y13259D01*
X16261Y13252D01*
Y13249D01*
X16259Y13237D01*
Y13162D01*
X16241D01*
Y13237D01*
X16238Y13253D01*
X16237Y13254D01*
Y13276D01*
X16234Y13276D01*
X16225Y13269D01*
X16216Y13276D01*
X16200Y13279D01*
X16184Y13276D01*
X16175Y13269D01*
X16166Y13276D01*
X16150Y13279D01*
X16143Y13277D01*
X16130Y13287D01*
Y13609D01*
X16182Y13635D01*
X16197Y13645D01*
X16365D01*
Y13523D01*
D02*
G37*
G36*
X15973Y12871D02*
X15993Y12858D01*
X16017Y12853D01*
X16040Y12858D01*
X16060Y12871D01*
X16069D01*
X16073Y12867D01*
X16190Y12751D01*
X16188Y12745D01*
X16193Y12721D01*
X16206Y12701D01*
X16216Y12695D01*
Y12683D01*
X16206Y12677D01*
X16193Y12657D01*
X16188Y12633D01*
X16193Y12609D01*
X16206Y12589D01*
X16216Y12583D01*
Y12571D01*
X16206Y12565D01*
X16193Y12545D01*
X16188Y12521D01*
X16193Y12497D01*
X16206Y12477D01*
X16216Y12471D01*
Y12459D01*
X16206Y12453D01*
X16193Y12433D01*
X16188Y12409D01*
X16193Y12385D01*
X16206Y12365D01*
X16216Y12359D01*
Y12347D01*
X16206Y12341D01*
X16193Y12321D01*
X16188Y12297D01*
X16193Y12273D01*
X16206Y12253D01*
X16216Y12247D01*
Y12235D01*
X16206Y12229D01*
X16203Y12224D01*
X16195D01*
X16180Y12221D01*
X16168Y12212D01*
X16123Y12167D01*
X16114Y12155D01*
X16112Y12144D01*
X16100Y12134D01*
X16100Y12134D01*
X16084Y12131D01*
X16075Y12124D01*
X16066Y12131D01*
X16050Y12134D01*
X16034Y12131D01*
X16025Y12124D01*
X16016Y12131D01*
X16000Y12134D01*
X15984Y12131D01*
X15975Y12124D01*
X15966Y12131D01*
X15950Y12134D01*
X15949Y12133D01*
X15939Y12141D01*
Y12255D01*
X15936Y12270D01*
X15927Y12282D01*
X15831Y12379D01*
Y12868D01*
X15835Y12871D01*
X15839Y12878D01*
X15852D01*
X15856Y12871D01*
X15876Y12858D01*
X15900Y12853D01*
X15924Y12858D01*
X15944Y12871D01*
X15951Y12882D01*
X15966D01*
X15973Y12871D01*
D02*
G37*
G36*
X15286Y12965D02*
X15289Y12949D01*
X15296Y12940D01*
X15289Y12931D01*
X15286Y12915D01*
X15289Y12899D01*
X15296Y12890D01*
X15289Y12881D01*
X15286Y12865D01*
X15289Y12849D01*
X15296Y12840D01*
X15289Y12831D01*
X15286Y12815D01*
X15289Y12799D01*
X15296Y12790D01*
X15289Y12781D01*
X15286Y12765D01*
X15289Y12749D01*
X15296Y12740D01*
X15289Y12731D01*
X15288Y12721D01*
X15275Y12715D01*
X15274Y12715D01*
X15264Y12722D01*
X15240Y12727D01*
X15216Y12722D01*
X15196Y12709D01*
X15183Y12689D01*
X15178Y12665D01*
X15183Y12641D01*
X15186Y12636D01*
X15177Y12628D01*
X15122Y12682D01*
X15110Y12691D01*
X15095Y12694D01*
X15089D01*
Y12750D01*
X14914D01*
Y12560D01*
X15089D01*
Y12589D01*
X15101Y12594D01*
X15157Y12538D01*
X15153Y12524D01*
X15141Y12522D01*
X15121Y12509D01*
X15108Y12489D01*
X15103Y12465D01*
X15108Y12441D01*
X15121Y12421D01*
X15141Y12408D01*
X15165Y12403D01*
X15171Y12405D01*
X15185Y12390D01*
X15171Y12375D01*
X15165Y12377D01*
X15141Y12372D01*
X15121Y12359D01*
X15108Y12339D01*
X15103Y12315D01*
X15108Y12291D01*
X15121Y12271D01*
X15126Y12269D01*
X15122Y12256D01*
X15005D01*
X14995Y12254D01*
X14987Y12248D01*
X14981Y12240D01*
X14979Y12230D01*
Y12169D01*
X14968Y12159D01*
X14960Y12159D01*
X14955Y12164D01*
Y12210D01*
X14813D01*
Y12132D01*
X14787D01*
Y12210D01*
X14645D01*
Y12155D01*
D01*
X14575D01*
D01*
X14400Y12155D01*
X14400Y12284D01*
X14476D01*
X14478Y12271D01*
X14475Y12271D01*
X14463Y12262D01*
X14448Y12247D01*
X14439Y12235D01*
X14436Y12220D01*
X14439Y12205D01*
X14448Y12193D01*
X14460Y12184D01*
X14475Y12181D01*
X14490Y12184D01*
X14502Y12193D01*
X14517Y12207D01*
X14475D01*
Y12233D01*
X14528D01*
X14529Y12235D01*
X14526Y12250D01*
X14517Y12262D01*
X14505Y12271D01*
X14502Y12271D01*
X14504Y12284D01*
X14637D01*
X14639Y12284D01*
X14640Y12284D01*
X14644Y12285D01*
X14647Y12286D01*
X14648Y12287D01*
X14650Y12287D01*
X14653Y12290D01*
X14655Y12292D01*
X14656Y12293D01*
X14658Y12294D01*
X14665Y12304D01*
X14667Y12307D01*
X14669Y12310D01*
X14669Y12311D01*
X14670Y12313D01*
X14670Y12316D01*
X14670Y12320D01*
Y12320D01*
X14740D01*
Y12320D01*
X14740Y12316D01*
X14740Y12313D01*
X14741Y12311D01*
X14741Y12310D01*
X14743Y12307D01*
X14745Y12304D01*
X14752Y12294D01*
X14754Y12293D01*
X14755Y12292D01*
X14757Y12290D01*
X14760Y12287D01*
X14762Y12287D01*
X14763Y12286D01*
X14766Y12285D01*
X14770Y12284D01*
X14771Y12284D01*
X14773Y12284D01*
X14825D01*
X14835Y12286D01*
X14843Y12292D01*
X14849Y12300D01*
X14851Y12310D01*
Y12320D01*
X14955D01*
Y12475D01*
X14851D01*
X14851Y12783D01*
X14849Y12793D01*
X14843Y12802D01*
X14835Y12807D01*
X14825Y12809D01*
X14569D01*
Y12824D01*
X14625D01*
Y12969D01*
X14655D01*
Y12924D01*
X14845D01*
Y12969D01*
X14914D01*
Y12780D01*
X15089D01*
Y12969D01*
X15283D01*
X15286Y12965D01*
D02*
G37*
G36*
X19095Y12775D02*
X18685D01*
X18502Y12958D01*
X18507Y12970D01*
X19095D01*
Y12775D01*
D02*
G37*
G36*
X18056Y13119D02*
Y13083D01*
X18146D01*
Y13070D01*
X18159D01*
Y12970D01*
X18184D01*
X18184Y12970D01*
X18236Y12970D01*
X18385D01*
X18393Y12957D01*
X18563Y12787D01*
X18558Y12775D01*
X18514D01*
X18505Y12781D01*
X18490Y12784D01*
X18411D01*
Y12845D01*
X18231D01*
Y12845D01*
X18184D01*
Y12845D01*
X18159D01*
Y12745D01*
Y12645D01*
X18201D01*
X18210Y12636D01*
X18210Y12513D01*
X18159D01*
Y12413D01*
Y12313D01*
X18201D01*
X18210Y12304D01*
X18210Y12060D01*
X18159D01*
Y11960D01*
Y11860D01*
X18201D01*
X18210Y11851D01*
X18210Y11790D01*
X18158D01*
Y11690D01*
Y11590D01*
X18201D01*
X18210Y11581D01*
X18210Y11520D01*
X18158D01*
Y11420D01*
Y11320D01*
X18201D01*
X18210Y11311D01*
X18210Y11251D01*
X18156D01*
Y11151D01*
Y11051D01*
X18201D01*
X18210Y11042D01*
X18209Y10515D01*
X18000Y10515D01*
Y10516D01*
X17598Y10517D01*
X17567Y10533D01*
X17527Y10545D01*
X17485Y10549D01*
X17443Y10545D01*
X17403Y10533D01*
X17373Y10517D01*
X16150Y10520D01*
Y10680D01*
X17386D01*
X17403Y10671D01*
X17443Y10659D01*
X17485Y10655D01*
X17527Y10659D01*
X17567Y10671D01*
X17584Y10680D01*
X18000D01*
X18000Y13119D01*
X18056Y13119D01*
D02*
G37*
G36*
X17817Y13127D02*
X17825Y13121D01*
X17835Y13119D01*
X17974Y13119D01*
X17974Y10706D01*
X17641D01*
X17639Y10710D01*
X17638Y10719D01*
X17663Y10750D01*
X17683Y10787D01*
X17695Y10827D01*
X17699Y10869D01*
X17695Y10911D01*
X17683Y10951D01*
X17663Y10988D01*
X17637Y11021D01*
X17604Y11047D01*
X17567Y11067D01*
X17527Y11079D01*
X17485Y11083D01*
X17443Y11079D01*
X17403Y11067D01*
X17366Y11047D01*
X17333Y11021D01*
X17307Y10988D01*
X17287Y10951D01*
X17275Y10911D01*
X17271Y10869D01*
X17275Y10827D01*
X17287Y10787D01*
X17307Y10750D01*
X17332Y10719D01*
X17331Y10710D01*
X17329Y10706D01*
X16150D01*
X16140Y10704D01*
X16132Y10698D01*
X16126Y10690D01*
X16124Y10680D01*
Y10520D01*
X16125Y10515D01*
X16126Y10510D01*
X16126Y10510D01*
X16126Y10510D01*
X16129Y10506D01*
X16132Y10502D01*
X16132Y10502D01*
X16132Y10502D01*
X16136Y10499D01*
X16140Y10496D01*
X16140Y10496D01*
X16140Y10496D01*
X16145Y10495D01*
X16150Y10494D01*
X17321Y10491D01*
X17327Y10479D01*
X17307Y10454D01*
X17287Y10417D01*
X17275Y10377D01*
X17271Y10335D01*
X17275Y10293D01*
X17287Y10253D01*
X17307Y10216D01*
X17333Y10183D01*
X17366Y10157D01*
X17398Y10139D01*
X17395Y10127D01*
X16061D01*
X15987Y10201D01*
Y10377D01*
X16040D01*
Y10563D01*
X15810D01*
Y10377D01*
X15863D01*
Y10175D01*
X15868Y10151D01*
X15881Y10131D01*
X15951Y10062D01*
X15946Y10050D01*
X15710D01*
Y10195D01*
Y10272D01*
X15610D01*
Y10285D01*
X15597D01*
Y10375D01*
X15514D01*
Y10400D01*
X15511Y10415D01*
X15502Y10427D01*
X15385Y10544D01*
X15387Y10550D01*
X15382Y10574D01*
X15369Y10594D01*
X15349Y10607D01*
X15325Y10612D01*
X15301Y10607D01*
X15281Y10594D01*
X15268Y10574D01*
X15263Y10550D01*
X15268Y10526D01*
X15281Y10506D01*
X15301Y10493D01*
X15325Y10488D01*
X15331Y10490D01*
X15347Y10473D01*
X15343Y10461D01*
X14969D01*
Y10509D01*
X14879D01*
Y10521D01*
X14866D01*
Y10622D01*
X14742D01*
Y10662D01*
X14743Y10663D01*
X14755Y10681D01*
X14759Y10703D01*
Y10788D01*
X14755Y10809D01*
X14743Y10827D01*
X14725Y10840D01*
X14703Y10844D01*
X14685Y10840D01*
X14672Y10848D01*
Y11119D01*
X14960D01*
Y11015D01*
Y10943D01*
X15060D01*
Y10930D01*
X15073D01*
Y10840D01*
X15139D01*
Y10663D01*
X15140Y10653D01*
X15146Y10644D01*
X15155Y10639D01*
X15164Y10637D01*
X15699D01*
X15709Y10639D01*
X15718Y10644D01*
X15723Y10653D01*
X15725Y10663D01*
Y10831D01*
X15723Y10841D01*
X15718Y10850D01*
X15709Y10855D01*
X15699Y10857D01*
X15381Y10857D01*
X15381Y11514D01*
X15380Y11519D01*
X15379Y11524D01*
X15379Y11524D01*
X15379Y11524D01*
X15376Y11529D01*
X15373Y11533D01*
X15373Y11533D01*
X15373Y11533D01*
X15369Y11536D01*
X15365Y11538D01*
X15365Y11538D01*
X15365Y11538D01*
X15360Y11539D01*
X15355Y11540D01*
X14974D01*
Y11602D01*
X14884D01*
Y11615D01*
X14871D01*
Y11715D01*
X14796D01*
Y11785D01*
X14872D01*
Y11885D01*
X14885D01*
Y11898D01*
X14975D01*
Y11956D01*
X14982Y11959D01*
X14988Y11961D01*
X14995Y11956D01*
X15005Y11954D01*
X15045D01*
Y11898D01*
X15245D01*
Y11954D01*
X15537Y11954D01*
X15546Y11956D01*
X15547Y11956D01*
X15559Y11949D01*
Y11943D01*
X15562Y11927D01*
X15571Y11913D01*
X15584Y11904D01*
X15600Y11901D01*
X15616Y11904D01*
X15625Y11911D01*
X15634Y11904D01*
X15650Y11901D01*
X15666Y11904D01*
X15675Y11911D01*
X15684Y11904D01*
X15700Y11901D01*
X15716Y11904D01*
X15725Y11911D01*
X15734Y11904D01*
X15750Y11901D01*
X15766Y11904D01*
X15775Y11911D01*
X15784Y11904D01*
X15800Y11901D01*
X15816Y11904D01*
X15825Y11911D01*
X15834Y11904D01*
X15850Y11901D01*
X15866Y11904D01*
X15875Y11911D01*
X15884Y11904D01*
X15900Y11901D01*
X15916Y11904D01*
X15925Y11911D01*
X15934Y11904D01*
X15950Y11901D01*
X15966Y11904D01*
X15975Y11911D01*
X15984Y11904D01*
X16000Y11901D01*
X16016Y11904D01*
X16025Y11911D01*
X16034Y11904D01*
X16050Y11901D01*
X16066Y11904D01*
X16075Y11911D01*
X16084Y11904D01*
X16100Y11901D01*
X16116Y11904D01*
X16125Y11911D01*
X16134Y11904D01*
X16150Y11901D01*
X16166Y11904D01*
X16175Y11911D01*
X16184Y11904D01*
X16200Y11901D01*
X16216Y11904D01*
X16225Y11911D01*
X16234Y11904D01*
X16250Y11901D01*
X16266Y11904D01*
X16275Y11911D01*
X16284Y11904D01*
X16287Y11904D01*
Y11926D01*
X16288Y11927D01*
X16291Y11943D01*
Y12018D01*
X16309D01*
Y11943D01*
X16312Y11927D01*
X16313Y11926D01*
Y11904D01*
X16316Y11904D01*
X16319Y11907D01*
X16324Y11905D01*
X16331Y11900D01*
Y11875D01*
X16331Y11875D01*
X16331Y11782D01*
X16330Y11775D01*
X16331Y11768D01*
Y11735D01*
X16333Y11725D01*
X16339Y11717D01*
X16347Y11711D01*
X16357Y11709D01*
X16447D01*
Y11685D01*
Y11608D01*
X16648D01*
Y11685D01*
Y11709D01*
X16817D01*
Y11685D01*
Y11608D01*
X16918D01*
Y11595D01*
X16930D01*
Y11505D01*
X16994D01*
Y11475D01*
X16827D01*
Y11414D01*
X16810D01*
Y11475D01*
X16558D01*
Y11375D01*
Y11275D01*
X16753D01*
X16758Y11263D01*
X16631Y11135D01*
X16625Y11137D01*
X16601Y11132D01*
X16581Y11119D01*
X16568Y11099D01*
X16563Y11075D01*
X16568Y11051D01*
X16581Y11031D01*
X16601Y11018D01*
X16625Y11013D01*
X16649Y11018D01*
X16669Y11031D01*
X16682Y11051D01*
X16687Y11075D01*
X16685Y11081D01*
X16842Y11238D01*
X16851Y11250D01*
X16854Y11265D01*
Y11275D01*
X16994D01*
Y11239D01*
X16996Y11229D01*
X17002Y11220D01*
X17010Y11215D01*
X17020Y11213D01*
X17215D01*
X17225Y11215D01*
X17233Y11220D01*
X17239Y11229D01*
X17241Y11239D01*
Y11885D01*
X17239Y11895D01*
X17233Y11903D01*
X17225Y11909D01*
X17215Y11911D01*
X16696D01*
X16696Y12165D01*
X16696Y12167D01*
X16696Y12168D01*
X16695Y12171D01*
X16694Y12175D01*
X16693Y12176D01*
X16692Y12178D01*
X16690Y12180D01*
X16688Y12183D01*
X16687Y12184D01*
X16686Y12185D01*
X16673Y12195D01*
X16670Y12197D01*
X16667Y12199D01*
X16666Y12199D01*
X16664Y12200D01*
X16663Y12200D01*
Y12255D01*
X16663D01*
X16664Y12265D01*
X16663Y12268D01*
X16661Y12281D01*
X16654Y12290D01*
X16661Y12299D01*
X16664Y12315D01*
X16661Y12331D01*
X16654Y12340D01*
X16661Y12349D01*
X16664Y12365D01*
X16663Y12366D01*
X16671Y12376D01*
X16964D01*
X17453Y11888D01*
X17465Y11879D01*
X17480Y11876D01*
X17550D01*
Y11565D01*
X17636D01*
Y11535D01*
X17585D01*
Y11335D01*
X17842D01*
Y11435D01*
Y11535D01*
X17714D01*
Y11565D01*
X17800D01*
Y12265D01*
X17550D01*
Y11954D01*
X17496D01*
X17010Y12440D01*
X17496Y12926D01*
X17550D01*
Y12615D01*
X17800D01*
Y13129D01*
X17813Y13132D01*
X17817Y13127D01*
D02*
G37*
G36*
X18537Y12643D02*
X18532Y12632D01*
X18498D01*
X18483Y12629D01*
X18470Y12620D01*
X18393Y12542D01*
X18384Y12530D01*
X18381Y12515D01*
Y12513D01*
X18245D01*
X18236Y12522D01*
X18236Y12636D01*
X18236Y12636D01*
X18247Y12645D01*
X18411D01*
Y12706D01*
X18474D01*
X18537Y12643D01*
D02*
G37*
G36*
X19205Y12496D02*
X19201Y12483D01*
X19191Y12481D01*
X19171Y12468D01*
X19158Y12448D01*
X19153Y12425D01*
X19158Y12401D01*
X19171Y12381D01*
X19186Y12372D01*
Y12357D01*
X19171Y12347D01*
X19158Y12328D01*
X19153Y12304D01*
X19158Y12280D01*
X19171Y12260D01*
X19186Y12251D01*
Y12236D01*
X19171Y12227D01*
X19158Y12207D01*
X19153Y12183D01*
X19158Y12160D01*
X19171Y12140D01*
X19186Y12130D01*
Y12116D01*
X19171Y12106D01*
X19158Y12086D01*
X19153Y12063D01*
X19158Y12039D01*
X19171Y12019D01*
X19186Y12010D01*
Y11995D01*
X19171Y11986D01*
X19168Y11981D01*
X19136D01*
X18989Y12127D01*
X18976Y12136D01*
X18962Y12139D01*
X18460D01*
X18445Y12136D01*
X18433Y12127D01*
X18393Y12088D01*
X18385Y12075D01*
X18382Y12061D01*
Y12060D01*
X18245D01*
X18236Y12069D01*
X18236Y12304D01*
X18236Y12304D01*
X18247Y12313D01*
X18411D01*
Y12374D01*
X18430D01*
Y12313D01*
X18682D01*
Y12413D01*
Y12513D01*
X18490D01*
X18485Y12525D01*
X18514Y12554D01*
X19146D01*
X19205Y12496D01*
D02*
G37*
G36*
X13826Y12601D02*
X13829Y12587D01*
X13838Y12574D01*
X13873Y12539D01*
X13885Y12531D01*
X13900Y12528D01*
X14105D01*
X14183Y12451D01*
X14182Y12445D01*
X14186Y12421D01*
X14200Y12401D01*
X14205Y12398D01*
X14211Y12387D01*
X14210Y12383D01*
X14209Y12379D01*
X14209Y12378D01*
X14209Y12377D01*
Y12191D01*
X14124D01*
Y12223D01*
X14180D01*
Y12399D01*
X14117D01*
X14110Y12412D01*
X14117Y12421D01*
X14122Y12445D01*
X14117Y12469D01*
X14104Y12489D01*
X14084Y12502D01*
X14060Y12507D01*
X14036Y12502D01*
X14016Y12489D01*
X14013Y12484D01*
X13907D01*
X13892Y12481D01*
X13880Y12472D01*
X13838Y12430D01*
X13829Y12418D01*
X13826Y12403D01*
Y12399D01*
X13785D01*
Y12604D01*
X13826D01*
Y12601D01*
D02*
G37*
G36*
X15748Y12871D02*
X15753Y12868D01*
Y12363D01*
X15756Y12348D01*
X15764Y12336D01*
X15861Y12239D01*
Y12141D01*
X15851Y12133D01*
X15850Y12134D01*
X15834Y12131D01*
X15825Y12124D01*
X15816Y12131D01*
X15800Y12134D01*
X15784Y12131D01*
X15775Y12124D01*
X15766Y12131D01*
X15750Y12134D01*
X15734Y12131D01*
X15725Y12124D01*
X15716Y12131D01*
X15700Y12134D01*
X15684Y12131D01*
X15675Y12124D01*
X15666Y12131D01*
X15650Y12134D01*
X15649Y12133D01*
X15639Y12141D01*
Y12234D01*
X15711Y12306D01*
X15719Y12318D01*
X15722Y12333D01*
Y12868D01*
X15727Y12871D01*
X15731Y12878D01*
X15744D01*
X15748Y12871D01*
D02*
G37*
G36*
X14908Y12055D02*
X14955D01*
Y12119D01*
X14964Y12128D01*
X14979Y12128D01*
X14979Y11995D01*
X14970Y11986D01*
X14770Y11986D01*
Y11985D01*
X14718D01*
Y11885D01*
Y11785D01*
X14770D01*
Y11715D01*
X14716D01*
Y11615D01*
Y11514D01*
X14770D01*
Y11514D01*
X15355D01*
X15355Y10831D01*
X15699Y10831D01*
Y10663D01*
X15164D01*
Y11145D01*
X15160D01*
Y11195D01*
X15099D01*
Y11210D01*
X15096Y11225D01*
X15087Y11237D01*
X15007Y11317D01*
X14995Y11326D01*
X14980Y11329D01*
X14886D01*
Y11332D01*
X14882Y11354D01*
X14870Y11372D01*
X14852Y11385D01*
X14830Y11389D01*
X14808Y11385D01*
X14790Y11372D01*
X14778Y11354D01*
X14773Y11332D01*
Y11247D01*
X14778Y11226D01*
X14790Y11208D01*
X14808Y11195D01*
X14830Y11191D01*
X14852Y11195D01*
X14870Y11208D01*
X14882Y11226D01*
X14886Y11247D01*
Y11251D01*
X14964D01*
X15008Y11207D01*
X15003Y11195D01*
X14960D01*
Y11145D01*
X14770D01*
D01*
X14400D01*
Y11200D01*
X14413Y11205D01*
X14427Y11195D01*
X14449Y11191D01*
X14471Y11195D01*
X14489Y11208D01*
X14501Y11226D01*
X14505Y11247D01*
Y11332D01*
X14501Y11354D01*
X14489Y11372D01*
X14487Y11374D01*
Y11527D01*
X14544D01*
Y11703D01*
X14400D01*
Y12116D01*
X14413Y12129D01*
X14645Y12129D01*
Y12055D01*
X14692D01*
Y12132D01*
X14718D01*
Y12055D01*
X14882D01*
Y12132D01*
X14908D01*
Y12055D01*
D02*
G37*
G36*
X15281Y12228D02*
X15311D01*
X15312Y12227D01*
X15327Y12224D01*
X15402D01*
Y12215D01*
X15415D01*
Y12174D01*
X15477D01*
X15493Y12177D01*
X15507Y12186D01*
X15516Y12199D01*
X15519Y12215D01*
X15521Y12218D01*
X15525Y12219D01*
X15537Y12208D01*
X15537Y11980D01*
X15245Y11980D01*
Y12052D01*
X15045D01*
Y11980D01*
X15005D01*
Y11995D01*
X15005Y11995D01*
X15005Y12105D01*
Y12230D01*
X15279Y12230D01*
X15281Y12228D01*
D02*
G37*
G36*
X19092Y11915D02*
X19105Y11906D01*
X19120Y11903D01*
X19168D01*
X19171Y11898D01*
X19186Y11889D01*
X19186Y11874D01*
X19171Y11865D01*
X19158Y11845D01*
X19154Y11824D01*
X18947Y11617D01*
X18784D01*
Y11677D01*
X18694D01*
Y11690D01*
X18681D01*
Y11790D01*
X18429D01*
Y11729D01*
X18410D01*
Y11790D01*
X18245D01*
X18236Y11799D01*
X18236Y11851D01*
X18236Y11851D01*
X18246Y11860D01*
X18411D01*
Y11921D01*
X18430D01*
Y11860D01*
X18682D01*
Y11960D01*
X18695D01*
Y11973D01*
X18785D01*
Y12060D01*
X18798Y12061D01*
X18945D01*
X19092Y11915D01*
D02*
G37*
G36*
X19873Y12039D02*
X19876Y12036D01*
Y12003D01*
X19488Y11614D01*
X19479Y11602D01*
X19476Y11587D01*
Y10861D01*
X19418D01*
Y10767D01*
X19301D01*
Y10813D01*
Y10994D01*
X19239D01*
Y11043D01*
X19287D01*
Y11234D01*
X19111D01*
Y11043D01*
X19161D01*
Y10994D01*
X19100D01*
Y10813D01*
Y10638D01*
X19301D01*
Y10690D01*
X19418D01*
Y10596D01*
X19619D01*
Y10861D01*
X19554D01*
Y11226D01*
X19687D01*
Y10861D01*
X19648D01*
Y10596D01*
X19849D01*
Y10861D01*
X19810D01*
Y11226D01*
X19964D01*
Y11297D01*
X20145D01*
Y11268D01*
Y11191D01*
X20245D01*
Y11166D01*
X20145D01*
Y11088D01*
X20175D01*
Y10502D01*
X20173D01*
Y10402D01*
Y10302D01*
X20175D01*
Y10127D01*
X19794D01*
X19787Y10139D01*
X19797Y10154D01*
X19802Y10177D01*
X19797Y10201D01*
X19784Y10221D01*
X19764Y10234D01*
X19740Y10239D01*
X19716Y10234D01*
X19696Y10221D01*
X19693Y10216D01*
X19274D01*
X18987Y10502D01*
X18975Y10511D01*
X18960Y10514D01*
X18846D01*
Y10516D01*
X18844Y10534D01*
X18837Y10550D01*
X18827Y10564D01*
X18813Y10574D01*
X18797Y10581D01*
X18779Y10583D01*
X18329D01*
X18311Y10581D01*
X18295Y10574D01*
X18281Y10564D01*
X18271Y10550D01*
X18264Y10534D01*
X18262Y10516D01*
Y10434D01*
X18264Y10416D01*
X18271Y10400D01*
X18281Y10386D01*
X18295Y10376D01*
X18311Y10369D01*
X18329Y10367D01*
X18779D01*
X18797Y10369D01*
X18813Y10376D01*
X18827Y10386D01*
X18837Y10400D01*
X18844Y10416D01*
X18846Y10434D01*
Y10436D01*
X18944D01*
X19230Y10150D01*
X19243Y10141D01*
X19254Y10139D01*
X19253Y10127D01*
X17575D01*
X17572Y10139D01*
X17604Y10157D01*
X17637Y10183D01*
X17663Y10216D01*
X17683Y10253D01*
X17695Y10293D01*
X17699Y10335D01*
X17695Y10377D01*
X17683Y10417D01*
X17663Y10454D01*
X17644Y10478D01*
X17650Y10491D01*
X17997Y10490D01*
X18000Y10489D01*
X18209Y10489D01*
X18214Y10490D01*
X18219Y10491D01*
X18219Y10491D01*
X18219Y10491D01*
X18223Y10494D01*
X18228Y10497D01*
X18228Y10497D01*
X18228Y10497D01*
X18231Y10501D01*
X18233Y10505D01*
X18233Y10505D01*
X18233Y10505D01*
X18234Y10510D01*
X18235Y10515D01*
X18236Y11042D01*
X18236Y11042D01*
X18246Y11051D01*
X18409D01*
Y11112D01*
X18427D01*
Y11051D01*
X18680D01*
Y11151D01*
X18693D01*
Y11164D01*
X18783D01*
Y11234D01*
X18923D01*
X18938Y11237D01*
X18950Y11246D01*
X19099Y11394D01*
X19111Y11389D01*
Y11371D01*
X19186D01*
Y11454D01*
X19175D01*
X19171Y11466D01*
X19224Y11519D01*
X19244Y11523D01*
X19264Y11536D01*
X19277Y11556D01*
X19282Y11580D01*
X19280Y11586D01*
X19726Y12031D01*
X19835D01*
X19852Y12034D01*
X19864Y12042D01*
X19873Y12039D01*
D02*
G37*
G36*
X13873Y11788D02*
X13934D01*
Y11692D01*
X13936Y11682D01*
X13942Y11674D01*
X13950Y11668D01*
X13960Y11666D01*
X14133D01*
Y11527D01*
X14191D01*
Y11500D01*
X14129D01*
Y11326D01*
X14085D01*
Y11402D01*
X13985D01*
X13885D01*
Y11326D01*
X13850D01*
X13840Y11324D01*
X13832Y11318D01*
X13826Y11310D01*
X13824Y11300D01*
Y10645D01*
X13826Y10635D01*
X13832Y10627D01*
X13840Y10621D01*
X13850Y10619D01*
X14179D01*
Y10534D01*
X14270D01*
Y10521D01*
X14282D01*
Y10421D01*
X14323D01*
Y10375D01*
X14325Y10365D01*
X14331Y10357D01*
X14339Y10351D01*
X14349Y10350D01*
Y10195D01*
Y10050D01*
X13785D01*
Y10685D01*
X13525D01*
Y10805D01*
X13785D01*
Y11788D01*
X13847D01*
Y11878D01*
X13873D01*
Y11788D01*
D02*
G37*
G36*
X19081Y11486D02*
X18907Y11312D01*
X18794D01*
X18784Y11320D01*
Y11407D01*
X18694D01*
Y11433D01*
X18784D01*
Y11497D01*
X19070D01*
X19074Y11497D01*
X19081Y11486D01*
D02*
G37*
G36*
X14392Y11247D02*
X14395Y11235D01*
X14390Y11224D01*
X14386Y11221D01*
X14382Y11218D01*
X14382Y11218D01*
X14382Y11218D01*
X14379Y11214D01*
X14376Y11210D01*
X14376Y11210D01*
X14376Y11210D01*
X14375Y11205D01*
X14374Y11200D01*
X14374Y11200D01*
X14374Y11200D01*
Y11145D01*
X14376Y11135D01*
X14382Y11127D01*
X14390Y11121D01*
X14400Y11119D01*
X14646D01*
Y10788D01*
Y10703D01*
Y10622D01*
X14613D01*
Y10421D01*
X14969D01*
Y10435D01*
X15385D01*
X15410Y10410D01*
Y10375D01*
X15353D01*
Y10285D01*
X15340D01*
Y10272D01*
X15240D01*
Y10204D01*
X14550D01*
Y10272D01*
X14449D01*
Y10285D01*
X14437D01*
Y10375D01*
X14349D01*
Y10421D01*
X14437D01*
Y10521D01*
Y10622D01*
X14349D01*
Y10644D01*
X14350Y10645D01*
X13850D01*
Y11300D01*
X13885D01*
Y11248D01*
X13985D01*
X14085D01*
Y11300D01*
X14129D01*
Y11248D01*
X14330D01*
Y11300D01*
X14392D01*
Y11247D01*
D02*
G37*
G36*
X16432Y12228D02*
X16456D01*
X16457Y12227D01*
X16473Y12224D01*
X16548D01*
Y12215D01*
X16560D01*
Y12175D01*
X16657D01*
X16670Y12165D01*
X16670Y11885D01*
X17215D01*
Y11239D01*
X17020D01*
Y11275D01*
X17080D01*
Y11375D01*
Y11475D01*
X17020D01*
X17020Y11735D01*
X17018D01*
Y11762D01*
X16817D01*
Y11735D01*
X16648D01*
Y11762D01*
X16447D01*
Y11735D01*
X16357D01*
X16357Y11875D01*
X16357D01*
Y11903D01*
X16366Y11904D01*
X16379Y11913D01*
X16388Y11927D01*
X16391Y11943D01*
Y12005D01*
X16350D01*
Y12030D01*
X16391D01*
Y12093D01*
X16388Y12108D01*
X16379Y12122D01*
X16366Y12131D01*
X16357Y12132D01*
Y12240D01*
X16432D01*
Y12228D01*
D02*
G37*
G36*
X15240Y10050D02*
X15019D01*
Y10097D01*
X14924D01*
Y10123D01*
X15019D01*
Y10178D01*
X15240D01*
Y10050D01*
D02*
G37*
%LPC*%
G36*
X17284Y15032D02*
X17208D01*
Y14893D01*
X17284D01*
Y15032D01*
D02*
G37*
G36*
X17182D02*
X17106D01*
Y14893D01*
X17182D01*
Y15032D01*
D02*
G37*
G36*
X19411Y14589D02*
X19199D01*
Y14494D01*
X19478D01*
Y14522D01*
X19476Y14540D01*
X19469Y14556D01*
X19459Y14570D01*
X19445Y14580D01*
X19429Y14587D01*
X19411Y14589D01*
D02*
G37*
G36*
X19173D02*
X18961D01*
X18943Y14587D01*
X18927Y14580D01*
X18913Y14570D01*
X18903Y14556D01*
X18896Y14540D01*
X18894Y14522D01*
Y14494D01*
X19173D01*
Y14589D01*
D02*
G37*
G36*
X19478Y14468D02*
X19199D01*
Y14373D01*
X19411D01*
X19429Y14375D01*
X19445Y14382D01*
X19459Y14392D01*
X19469Y14406D01*
X19476Y14422D01*
X19478Y14440D01*
Y14468D01*
D02*
G37*
G36*
X19173D02*
X18894D01*
Y14440D01*
X18896Y14422D01*
X18903Y14406D01*
X18913Y14392D01*
X18927Y14382D01*
X18943Y14375D01*
X18961Y14373D01*
X19173D01*
Y14468D01*
D02*
G37*
G36*
X19070Y13160D02*
X18983D01*
Y13083D01*
X19070D01*
Y13160D01*
D02*
G37*
G36*
X19565D02*
X19478D01*
Y13083D01*
X19565D01*
Y13160D01*
D02*
G37*
G36*
X19320D02*
X19233D01*
Y13083D01*
X19320D01*
Y13160D01*
D02*
G37*
G36*
X19207D02*
X19120D01*
Y13083D01*
X19207D01*
Y13160D01*
D02*
G37*
G36*
X19452D02*
X19365D01*
Y13083D01*
X19452D01*
Y13160D01*
D02*
G37*
G36*
X20050Y11905D02*
X19972D01*
Y11817D01*
X20050D01*
Y11905D01*
D02*
G37*
G36*
Y11792D02*
X19972D01*
Y11704D01*
X20050D01*
Y11792D01*
D02*
G37*
G36*
X14565Y14205D02*
X14453D01*
Y14093D01*
X14565D01*
Y14205D01*
D02*
G37*
G36*
X14427D02*
X14315D01*
Y14093D01*
X14427D01*
Y14205D01*
D02*
G37*
G36*
X14565Y14067D02*
X14453D01*
Y13955D01*
X14565D01*
Y14067D01*
D02*
G37*
G36*
X14427D02*
X14315D01*
Y13955D01*
X14427D01*
Y14067D01*
D02*
G37*
G36*
X14540Y13818D02*
X14453D01*
Y13740D01*
X14540D01*
Y13818D01*
D02*
G37*
G36*
X14427D02*
X14340D01*
Y13740D01*
X14427D01*
Y13818D01*
D02*
G37*
G36*
X16025Y13523D02*
X15948D01*
Y13435D01*
X16025D01*
Y13523D01*
D02*
G37*
G36*
X16520D02*
X16443D01*
Y13435D01*
X16520D01*
Y13523D01*
D02*
G37*
G36*
X16025Y13410D02*
X15948D01*
Y13322D01*
X16025D01*
Y13410D01*
D02*
G37*
G36*
X12396Y14709D02*
X12184D01*
Y14614D01*
X12463D01*
Y14642D01*
X12461Y14660D01*
X12454Y14676D01*
X12444Y14690D01*
X12430Y14700D01*
X12414Y14707D01*
X12396Y14709D01*
D02*
G37*
G36*
X12158D02*
X11946D01*
X11928Y14707D01*
X11912Y14700D01*
X11898Y14690D01*
X11888Y14676D01*
X11881Y14660D01*
X11879Y14642D01*
Y14614D01*
X12158D01*
Y14709D01*
D02*
G37*
G36*
X12463Y14588D02*
X12184D01*
Y14493D01*
X12396D01*
X12414Y14495D01*
X12430Y14502D01*
X12444Y14512D01*
X12454Y14526D01*
X12461Y14542D01*
X12463Y14560D01*
Y14588D01*
D02*
G37*
G36*
X12158D02*
X11879D01*
Y14560D01*
X11881Y14542D01*
X11888Y14526D01*
X11898Y14512D01*
X11912Y14502D01*
X11928Y14495D01*
X11946Y14493D01*
X12158D01*
Y14588D01*
D02*
G37*
G36*
X18795Y14549D02*
X18708D01*
Y14472D01*
X18795D01*
Y14549D01*
D02*
G37*
G36*
X18682D02*
X18595D01*
Y14472D01*
X18682D01*
Y14549D01*
D02*
G37*
G36*
X18795Y13345D02*
X18708D01*
Y13267D01*
X18795D01*
Y13345D01*
D02*
G37*
G36*
X18682D02*
X18595D01*
Y13267D01*
X18682D01*
Y13345D01*
D02*
G37*
G36*
X18521D02*
X18433D01*
Y13267D01*
X18521D01*
Y13345D01*
D02*
G37*
G36*
X18408D02*
X18320D01*
Y13267D01*
X18408D01*
Y13345D01*
D02*
G37*
G36*
X18246D02*
X18159D01*
Y13267D01*
X18246D01*
Y13345D01*
D02*
G37*
G36*
X18133D02*
X18046D01*
Y13267D01*
X18133D01*
Y13345D01*
D02*
G37*
G36*
X17284Y14257D02*
X17208D01*
Y14118D01*
X17284D01*
Y14257D01*
D02*
G37*
G36*
Y14092D02*
X17208D01*
Y13953D01*
X17284D01*
Y14092D01*
D02*
G37*
G36*
X17182D02*
X17106D01*
Y13953D01*
X17182D01*
Y14092D01*
D02*
G37*
G36*
X34534Y14891D02*
X34452D01*
Y14788D01*
X34534D01*
Y14891D01*
D02*
G37*
G36*
Y14762D02*
X34452D01*
Y14659D01*
X34534D01*
Y14762D01*
D02*
G37*
G36*
X34427D02*
X34345D01*
Y14659D01*
X34427D01*
Y14762D01*
D02*
G37*
G36*
X33280Y13951D02*
X33252D01*
Y13672D01*
X33347D01*
Y13884D01*
X33345Y13902D01*
X33338Y13918D01*
X33328Y13932D01*
X33314Y13942D01*
X33298Y13949D01*
X33280Y13951D01*
D02*
G37*
G36*
X33226D02*
X33198D01*
X33180Y13949D01*
X33164Y13942D01*
X33150Y13932D01*
X33140Y13918D01*
X33133Y13902D01*
X33131Y13884D01*
Y13672D01*
X33226D01*
Y13951D01*
D02*
G37*
G36*
X33347Y13646D02*
X33252D01*
Y13367D01*
X33280D01*
X33298Y13369D01*
X33314Y13376D01*
X33328Y13386D01*
X33338Y13400D01*
X33345Y13416D01*
X33347Y13434D01*
Y13646D01*
D02*
G37*
G36*
X33226D02*
X33131D01*
Y13434D01*
X33133Y13416D01*
X33140Y13400D01*
X33150Y13386D01*
X33164Y13376D01*
X33180Y13369D01*
X33198Y13367D01*
X33226D01*
Y13646D01*
D02*
G37*
G36*
X15100Y13540D02*
X15013D01*
Y13462D01*
X15100D01*
Y13540D01*
D02*
G37*
G36*
X14987D02*
X14900D01*
Y13462D01*
X14987D01*
Y13540D01*
D02*
G37*
G36*
X15102Y13395D02*
X15014D01*
Y13318D01*
X15102D01*
Y13395D01*
D02*
G37*
G36*
X14989D02*
X14901D01*
Y13318D01*
X14989D01*
Y13395D01*
D02*
G37*
G36*
X14541Y13230D02*
X14464D01*
Y13143D01*
X14541D01*
Y13230D01*
D02*
G37*
G36*
X14185Y13213D02*
X14098D01*
Y13135D01*
X14185D01*
Y13213D01*
D02*
G37*
G36*
X14072D02*
X13985D01*
Y13135D01*
X14072D01*
Y13213D01*
D02*
G37*
G36*
X15587Y13150D02*
X15559D01*
Y13088D01*
X15562Y13072D01*
X15571Y13058D01*
X15584Y13049D01*
X15587Y13049D01*
Y13150D01*
D02*
G37*
G36*
X14541Y13117D02*
X14464D01*
Y13030D01*
X14541D01*
Y13117D01*
D02*
G37*
G36*
X14795Y12755D02*
X14718D01*
Y12668D01*
X14795D01*
Y12755D01*
D02*
G37*
G36*
Y12642D02*
X14718D01*
Y12555D01*
X14795D01*
Y12642D01*
D02*
G37*
G36*
X14575Y12490D02*
X14488D01*
Y12413D01*
X14575D01*
Y12490D01*
D02*
G37*
G36*
X14462D02*
X14375D01*
Y12413D01*
X14462D01*
Y12490D01*
D02*
G37*
G36*
X14765Y12475D02*
X14718D01*
Y12410D01*
X14765D01*
Y12475D01*
D02*
G37*
G36*
X14692D02*
X14645D01*
Y12410D01*
X14692D01*
Y12475D01*
D02*
G37*
G36*
X14185Y11871D02*
X14098D01*
Y11793D01*
X14185D01*
Y11871D01*
D02*
G37*
G36*
X14072D02*
X13985D01*
Y11793D01*
X14072D01*
Y11871D01*
D02*
G37*
G36*
X16940Y12905D02*
X16853D01*
Y12828D01*
X16940D01*
Y12905D01*
D02*
G37*
G36*
X16237Y13523D02*
X16160D01*
Y13435D01*
X16237D01*
Y13523D01*
D02*
G37*
G36*
Y13410D02*
X16160D01*
Y13322D01*
X16237D01*
Y13410D01*
D02*
G37*
G36*
X14845Y12899D02*
X14763D01*
Y12824D01*
X14845D01*
Y12899D01*
D02*
G37*
G36*
X14737D02*
X14655D01*
Y12824D01*
X14737D01*
Y12899D01*
D02*
G37*
G36*
X18713Y12944D02*
Y12898D01*
X18759D01*
X18757Y12909D01*
X18744Y12929D01*
X18724Y12942D01*
X18713Y12944D01*
D02*
G37*
G36*
X18687D02*
X18676Y12942D01*
X18656Y12929D01*
X18643Y12909D01*
X18641Y12898D01*
X18687D01*
Y12944D01*
D02*
G37*
G36*
X18759Y12872D02*
X18713D01*
Y12826D01*
X18724Y12828D01*
X18744Y12841D01*
X18757Y12861D01*
X18759Y12872D01*
D02*
G37*
G36*
X18687D02*
X18641D01*
X18643Y12861D01*
X18656Y12841D01*
X18676Y12828D01*
X18687Y12826D01*
Y12872D01*
D02*
G37*
G36*
X18133Y13057D02*
X18056D01*
Y12970D01*
X18133D01*
Y13057D01*
D02*
G37*
G36*
Y12845D02*
X18056D01*
Y12758D01*
X18133D01*
Y12845D01*
D02*
G37*
G36*
Y12732D02*
X18056D01*
Y12645D01*
X18133D01*
Y12732D01*
D02*
G37*
G36*
X18133Y12513D02*
X18056D01*
Y12426D01*
X18133D01*
Y12513D01*
D02*
G37*
G36*
Y12400D02*
X18056D01*
Y12313D01*
X18133D01*
Y12400D01*
D02*
G37*
G36*
X18133Y12060D02*
X18056D01*
Y11973D01*
X18133D01*
Y12060D01*
D02*
G37*
G36*
Y11947D02*
X18056D01*
Y11860D01*
X18133D01*
Y11947D01*
D02*
G37*
G36*
X18132Y11790D02*
X18055D01*
Y11703D01*
X18132D01*
Y11790D01*
D02*
G37*
G36*
Y11677D02*
X18055D01*
Y11590D01*
X18132D01*
Y11677D01*
D02*
G37*
G36*
Y11520D02*
X18055D01*
Y11433D01*
X18132D01*
Y11520D01*
D02*
G37*
G36*
Y11407D02*
X18055D01*
Y11320D01*
X18132D01*
Y11407D01*
D02*
G37*
G36*
X18131Y11251D02*
X18053D01*
Y11164D01*
X18131D01*
Y11251D01*
D02*
G37*
G36*
Y11138D02*
X18053D01*
Y11051D01*
X18131D01*
Y11138D01*
D02*
G37*
G36*
X15245Y11872D02*
X15158D01*
Y11795D01*
X15245D01*
Y11872D01*
D02*
G37*
G36*
X15132D02*
X15045D01*
Y11795D01*
X15132D01*
Y11872D01*
D02*
G37*
G36*
X14975D02*
X14898D01*
Y11785D01*
X14975D01*
Y11872D01*
D02*
G37*
G36*
X14974Y11715D02*
X14896D01*
Y11628D01*
X14974D01*
Y11715D01*
D02*
G37*
G36*
X16905Y11582D02*
X16817D01*
Y11505D01*
X16905D01*
Y11582D01*
D02*
G37*
G36*
X16648D02*
X16560D01*
Y11505D01*
X16648D01*
Y11582D01*
D02*
G37*
G36*
X16535D02*
X16447D01*
Y11505D01*
X16535D01*
Y11582D01*
D02*
G37*
G36*
X17945Y11535D02*
X17868D01*
Y11448D01*
X17945D01*
Y11535D01*
D02*
G37*
G36*
X16532Y11475D02*
X16455D01*
Y11388D01*
X16532D01*
Y11475D01*
D02*
G37*
G36*
X17945Y11422D02*
X17868D01*
Y11335D01*
X17945D01*
Y11422D01*
D02*
G37*
G36*
X16532Y11362D02*
X16455D01*
Y11275D01*
X16532D01*
Y11362D01*
D02*
G37*
G36*
X15047Y10917D02*
X14960D01*
Y10840D01*
X15047D01*
Y10917D01*
D02*
G37*
G36*
X14843Y10841D02*
Y10758D01*
X14886D01*
Y10788D01*
X14882Y10809D01*
X14870Y10827D01*
X14852Y10840D01*
X14843Y10841D01*
D02*
G37*
G36*
X14817D02*
X14808Y10840D01*
X14790Y10827D01*
X14778Y10809D01*
X14773Y10788D01*
Y10758D01*
X14817D01*
Y10841D01*
D02*
G37*
G36*
X15925Y11874D02*
X15858Y11869D01*
X15792Y11856D01*
X15728Y11835D01*
X15668Y11805D01*
X15612Y11768D01*
X15562Y11723D01*
X15517Y11673D01*
X15480Y11617D01*
X15450Y11557D01*
X15429Y11493D01*
X15416Y11427D01*
X15411Y11360D01*
X15416Y11293D01*
X15429Y11227D01*
X15450Y11163D01*
X15480Y11103D01*
X15517Y11047D01*
X15562Y10997D01*
X15612Y10952D01*
X15668Y10915D01*
X15728Y10885D01*
X15792Y10864D01*
X15833Y10856D01*
X15832Y10843D01*
X15810D01*
Y10657D01*
X16040D01*
Y10843D01*
X16018D01*
X16017Y10856D01*
X16058Y10864D01*
X16122Y10885D01*
X16182Y10915D01*
X16238Y10952D01*
X16288Y10997D01*
X16333Y11047D01*
X16370Y11103D01*
X16400Y11163D01*
X16421Y11227D01*
X16434Y11293D01*
X16439Y11360D01*
X16434Y11427D01*
X16421Y11493D01*
X16400Y11557D01*
X16370Y11617D01*
X16333Y11673D01*
X16288Y11723D01*
X16238Y11768D01*
X16182Y11805D01*
X16122Y11835D01*
X16058Y11856D01*
X15992Y11869D01*
X15925Y11874D01*
D02*
G37*
G36*
X14886Y10732D02*
X14843D01*
Y10649D01*
X14852Y10650D01*
X14870Y10663D01*
X14882Y10681D01*
X14886Y10703D01*
Y10732D01*
D02*
G37*
G36*
X14817D02*
X14773D01*
Y10703D01*
X14778Y10681D01*
X14790Y10663D01*
X14808Y10650D01*
X14817Y10649D01*
Y10732D01*
D02*
G37*
G36*
X14969Y10622D02*
X14891D01*
Y10534D01*
X14969D01*
Y10622D01*
D02*
G37*
G36*
X15710Y10375D02*
X15623D01*
Y10298D01*
X15710D01*
Y10375D01*
D02*
G37*
G36*
X18785Y12513D02*
X18708D01*
Y12426D01*
X18785D01*
Y12513D01*
D02*
G37*
G36*
Y12400D02*
X18708D01*
Y12313D01*
X18785D01*
Y12400D01*
D02*
G37*
G36*
X14692Y11985D02*
X14615D01*
Y11898D01*
X14692D01*
Y11985D01*
D02*
G37*
G36*
Y11872D02*
X14615D01*
Y11785D01*
X14692D01*
Y11872D01*
D02*
G37*
G36*
X14691Y11715D02*
X14613D01*
Y11628D01*
X14691D01*
Y11715D01*
D02*
G37*
G36*
Y11602D02*
X14613D01*
Y11514D01*
X14691D01*
Y11602D01*
D02*
G37*
G36*
X14589Y11386D02*
Y11303D01*
X14632D01*
Y11332D01*
X14628Y11354D01*
X14616Y11372D01*
X14598Y11385D01*
X14589Y11386D01*
D02*
G37*
G36*
X14690D02*
X14681Y11385D01*
X14663Y11372D01*
X14651Y11354D01*
X14646Y11332D01*
Y11303D01*
X14690D01*
Y11386D01*
D02*
G37*
G36*
X14563D02*
X14554Y11385D01*
X14536Y11372D01*
X14524Y11354D01*
X14519Y11332D01*
Y11303D01*
X14563D01*
Y11386D01*
D02*
G37*
G36*
X14716D02*
Y11290D01*
Y11194D01*
X14725Y11195D01*
X14743Y11208D01*
X14755Y11226D01*
X14757Y11237D01*
X14758Y11237D01*
X14758Y11239D01*
X14759Y11247D01*
Y11332D01*
X14757Y11343D01*
D01*
X14755Y11354D01*
X14743Y11372D01*
X14725Y11385D01*
X14716Y11386D01*
D02*
G37*
G36*
X14632Y11277D02*
X14589D01*
Y11194D01*
X14598Y11195D01*
X14616Y11208D01*
X14628Y11226D01*
X14632Y11247D01*
Y11277D01*
D02*
G37*
G36*
X14690D02*
X14646D01*
Y11247D01*
X14651Y11226D01*
X14663Y11208D01*
X14681Y11195D01*
X14690Y11194D01*
Y11277D01*
D02*
G37*
G36*
X14563D02*
X14519D01*
Y11247D01*
X14524Y11226D01*
X14536Y11208D01*
X14554Y11195D01*
X14563Y11194D01*
Y11277D01*
D02*
G37*
G36*
X15390Y12202D02*
X15289D01*
X15289Y12199D01*
X15298Y12186D01*
X15312Y12177D01*
X15327Y12174D01*
X15390D01*
Y12202D01*
D02*
G37*
G36*
X15245Y12155D02*
X15158D01*
Y12078D01*
X15245D01*
Y12155D01*
D02*
G37*
G36*
X15132D02*
X15045D01*
Y12078D01*
X15132D01*
Y12155D01*
D02*
G37*
G36*
X18785Y11947D02*
X18708D01*
Y11860D01*
X18785D01*
Y11947D01*
D02*
G37*
G36*
X18784Y11790D02*
X18707D01*
Y11703D01*
X18784D01*
Y11790D01*
D02*
G37*
G36*
X19287Y11454D02*
X19211D01*
Y11371D01*
X19287D01*
Y11454D01*
D02*
G37*
G36*
Y11346D02*
X19211D01*
Y11263D01*
X19287D01*
Y11346D01*
D02*
G37*
G36*
X19186D02*
X19111D01*
Y11263D01*
X19186D01*
Y11346D01*
D02*
G37*
G36*
X18783Y11138D02*
X18705D01*
Y11051D01*
X18783D01*
Y11138D01*
D02*
G37*
G36*
X18779Y10837D02*
X18567D01*
Y10742D01*
X18846D01*
Y10770D01*
X18844Y10788D01*
X18837Y10804D01*
X18827Y10818D01*
X18813Y10828D01*
X18797Y10835D01*
X18779Y10837D01*
D02*
G37*
G36*
X18541D02*
X18329D01*
X18311Y10835D01*
X18295Y10828D01*
X18281Y10818D01*
X18271Y10804D01*
X18264Y10788D01*
X18262Y10770D01*
Y10742D01*
X18541D01*
Y10837D01*
D02*
G37*
G36*
X18846Y10716D02*
X18567D01*
Y10621D01*
X18779D01*
X18797Y10623D01*
X18813Y10630D01*
X18827Y10640D01*
X18837Y10654D01*
X18844Y10670D01*
X18846Y10688D01*
Y10716D01*
D02*
G37*
G36*
X18541D02*
X18262D01*
Y10688D01*
X18264Y10670D01*
X18271Y10654D01*
X18281Y10640D01*
X18295Y10630D01*
X18311Y10623D01*
X18329Y10621D01*
X18541D01*
Y10716D01*
D02*
G37*
G36*
X20079Y10861D02*
X19878D01*
Y10596D01*
X19919D01*
Y10502D01*
X19890D01*
Y10464D01*
X19842D01*
Y10517D01*
X19656D01*
Y10287D01*
X19842D01*
Y10340D01*
X19890D01*
Y10302D01*
X20148D01*
Y10402D01*
Y10502D01*
X20042D01*
Y10596D01*
X20079D01*
Y10861D01*
D02*
G37*
G36*
X19562Y10517D02*
X19376D01*
Y10464D01*
X19235D01*
X19211Y10459D01*
X19191Y10446D01*
X19178Y10426D01*
X19173Y10402D01*
X19178Y10378D01*
X19191Y10359D01*
X19211Y10345D01*
X19235Y10340D01*
X19376D01*
Y10287D01*
X19562D01*
Y10517D01*
D02*
G37*
G36*
X14085Y11505D02*
X13998D01*
Y11428D01*
X14085D01*
Y11505D01*
D02*
G37*
G36*
X13972D02*
X13885D01*
Y11428D01*
X13972D01*
Y11505D01*
D02*
G37*
G36*
X14257Y10509D02*
X14179D01*
Y10421D01*
X14257D01*
Y10509D01*
D02*
G37*
G36*
X14330Y11222D02*
X14242D01*
Y11145D01*
X14330D01*
Y11222D01*
D02*
G37*
G36*
X14217D02*
X14129D01*
Y11145D01*
X14217D01*
Y11222D01*
D02*
G37*
G36*
X14085Y11222D02*
X13998D01*
Y11145D01*
X14085D01*
Y11222D01*
D02*
G37*
G36*
X13972D02*
X13885D01*
Y11145D01*
X13972D01*
Y11222D01*
D02*
G37*
G36*
X14589Y10841D02*
Y10758D01*
X14632D01*
Y10788D01*
X14628Y10809D01*
X14616Y10827D01*
X14598Y10840D01*
X14589Y10841D01*
D02*
G37*
G36*
X14504Y10843D02*
X14462D01*
Y10758D01*
X14504D01*
Y10843D01*
D02*
G37*
G36*
X14436D02*
X14394D01*
Y10758D01*
X14436D01*
Y10843D01*
D02*
G37*
G36*
X14563Y10841D02*
X14554Y10840D01*
X14536Y10827D01*
X14524Y10809D01*
X14519Y10788D01*
Y10758D01*
X14563D01*
Y10841D01*
D02*
G37*
G36*
X14576Y10745D02*
D01*
D01*
D01*
D02*
G37*
G36*
X14632Y10732D02*
X14589D01*
Y10649D01*
X14598Y10650D01*
X14616Y10663D01*
X14628Y10681D01*
X14632Y10703D01*
Y10732D01*
D02*
G37*
G36*
X14563D02*
X14519D01*
Y10703D01*
X14524Y10681D01*
X14536Y10663D01*
X14554Y10650D01*
X14563Y10649D01*
Y10732D01*
D02*
G37*
G36*
X14504D02*
X14462D01*
Y10647D01*
X14504D01*
Y10732D01*
D02*
G37*
G36*
X14436D02*
X14394D01*
Y10647D01*
X14436D01*
Y10732D01*
D02*
G37*
G36*
X14540Y10622D02*
X14462D01*
Y10534D01*
X14540D01*
Y10622D01*
D02*
G37*
G36*
Y10509D02*
X14462D01*
Y10421D01*
X14540D01*
Y10509D01*
D02*
G37*
G36*
X14550Y10375D02*
X14462D01*
Y10298D01*
X14550D01*
Y10375D01*
D02*
G37*
G36*
X15327D02*
X15240D01*
Y10298D01*
X15327D01*
Y10375D01*
D02*
G37*
G36*
X16535Y12202D02*
X16432D01*
Y12175D01*
X16535D01*
Y12202D01*
D02*
G37*
G36*
X17018Y11865D02*
X16930D01*
Y11788D01*
X17018D01*
Y11865D01*
D02*
G37*
G36*
X16905D02*
X16817D01*
Y11788D01*
X16905D01*
Y11865D01*
D02*
G37*
G36*
X16648D02*
X16560D01*
Y11788D01*
X16648D01*
Y11865D01*
D02*
G37*
G36*
X16535D02*
X16447D01*
Y11788D01*
X16535D01*
Y11865D01*
D02*
G37*
G36*
X17183Y11475D02*
X17105D01*
Y11388D01*
X17183D01*
Y11475D01*
D02*
G37*
G36*
Y11362D02*
X17105D01*
Y11275D01*
X17183D01*
Y11362D01*
D02*
G37*
%LPD*%
D13*
X13764Y14755D02*
X14082Y14437D01*
X12995Y14755D02*
X13764D01*
X12895Y14855D02*
X12995Y14755D01*
X12155Y12563D02*
Y12725D01*
X12060Y12821D02*
X12155Y12725D01*
X11935Y12821D02*
X12060D01*
X11935Y12186D02*
X11936Y12185D01*
X12055D01*
X12155Y12285D01*
Y12375D01*
X12155Y12375D02*
X12155Y12375D01*
X12155Y12375D02*
Y12443D01*
Y12563D02*
X12155Y12563D01*
X11225Y12655D02*
X11230Y12650D01*
X11375D01*
X11546Y12821D01*
X11935D01*
X11415Y12305D02*
X11535Y12186D01*
X11935D01*
X11415Y10760D02*
Y12305D01*
X11365Y12355D02*
X11415Y12305D01*
X11225Y12355D02*
X11365D01*
X11375Y10720D02*
X11415Y10760D01*
X11225Y10720D02*
X11375D01*
X11225Y11760D02*
Y12355D01*
Y11020D02*
Y11620D01*
X11225Y12655D02*
X11225Y12655D01*
X11005Y12655D02*
X11225D01*
X10930Y12580D02*
X11005Y12655D01*
X10930Y11120D02*
Y12580D01*
Y11120D02*
X11030Y11020D01*
X11225D01*
X13865Y12311D02*
Y12403D01*
X36215Y14858D02*
X40207D01*
X41446Y13618D01*
X16780Y13961D02*
X17556Y14737D01*
X16780Y13432D02*
Y13961D01*
X16356Y13008D02*
X16780Y13432D01*
X15609Y12457D02*
X15612Y12460D01*
X15609Y12355D02*
Y12457D01*
X15519Y12265D02*
X15609Y12355D01*
X15402Y12265D02*
X15519D01*
X15535Y12350D02*
Y12875D01*
X15500Y12315D02*
X15535Y12350D01*
X15402Y12315D02*
X15500D01*
X15683Y12333D02*
Y12915D01*
X15600Y12250D02*
X15683Y12333D01*
X15600Y12018D02*
Y12250D01*
X15535Y12875D02*
X15575Y12915D01*
X14122Y12567D02*
X14243Y12445D01*
X13900Y12567D02*
X14122D01*
X14475Y12220D02*
X14490Y12235D01*
X16721Y12635D02*
X16840D01*
X16687Y12669D02*
X16721Y12635D01*
X16687Y12669D02*
Y12723D01*
X16645Y12765D02*
X16687Y12723D01*
X16645Y12765D02*
X16645Y12765D01*
X16548Y12765D02*
X16645D01*
X19660Y12125D02*
X19778D01*
X19215Y11680D02*
X19660Y12125D01*
X19070Y11535D02*
X19215Y11680D01*
X18460Y11535D02*
X19070D01*
X14082Y13890D02*
Y14437D01*
Y13648D02*
X14415Y13315D01*
X14646D01*
X14729Y13232D01*
Y13130D02*
Y13232D01*
X19515Y10770D02*
X19564Y10721D01*
X19915Y11987D02*
Y12550D01*
X19515Y11587D02*
X19915Y11987D01*
X19515Y10770D02*
Y11587D01*
X18960Y10475D02*
X19258Y10177D01*
X19740D01*
X18554Y10475D02*
X18960D01*
X19199Y11139D02*
X19200Y11137D01*
Y10904D02*
Y11137D01*
X19714Y12074D02*
X19778D01*
X18418Y11151D02*
Y11239D01*
X18452Y11273D01*
X18923D01*
X19220Y11570D01*
X18420Y11420D02*
Y11495D01*
X18460Y11535D01*
X19215Y11830D02*
X19560Y12175D01*
X18963Y11578D02*
X19215Y11830D01*
X18456Y11578D02*
X18963D01*
X19560Y12175D02*
X19778D01*
X18420Y11614D02*
Y11690D01*
Y11614D02*
X18456Y11578D01*
X17495Y14780D02*
Y15045D01*
X16360Y14660D02*
X16585Y14435D01*
Y13322D02*
Y14435D01*
X16426Y13162D02*
X16585Y13322D01*
X17750Y13870D02*
X17795Y13915D01*
X17485Y13870D02*
X17750D01*
X16780Y13165D02*
X17485Y13870D01*
X18695Y13070D02*
X18970D01*
X41446Y11981D02*
Y12360D01*
X32985Y13659D02*
Y14930D01*
X15650Y13162D02*
Y13555D01*
X15365Y13423D02*
X15366Y13423D01*
X19215Y11942D02*
X19220D01*
X19502Y12225D02*
X19680D01*
X19220Y11942D02*
X19502Y12225D01*
X18498Y12593D02*
X19162D01*
X18602Y12633D02*
X19192D01*
X18490Y12745D02*
X18602Y12633D01*
X18420Y12515D02*
X18498Y12593D01*
X19192Y12633D02*
X19300Y12525D01*
X19162Y12593D02*
X19280Y12475D01*
X19120Y11942D02*
X19215D01*
X18962Y12100D02*
X19120Y11942D01*
X18460Y12100D02*
X18962D01*
X19215Y12063D02*
X19427Y12275D01*
X19215Y12183D02*
X19356Y12325D01*
X19427Y12275D02*
X19778D01*
X19356Y12325D02*
X19778D01*
X19286Y12375D02*
X19778D01*
X19215Y12304D02*
X19286Y12375D01*
X19220Y11580D02*
X19714Y12074D01*
X19220Y11570D02*
Y11580D01*
X15700Y13277D02*
X15755Y13332D01*
X15700Y13162D02*
Y13277D01*
X15755Y13332D02*
Y13423D01*
X12171Y14855D02*
X12895D01*
X16686Y13971D02*
X17495Y14780D01*
X16686Y13475D02*
Y13971D01*
X18405Y13965D02*
Y14175D01*
Y13965D02*
X18570Y13800D01*
X17556Y14737D02*
X18695D01*
X18697Y14735D01*
X19186D01*
X14082Y13648D02*
Y13890D01*
X16740Y13255D02*
X17345Y13860D01*
X16686Y12965D02*
X17521Y13800D01*
X16693Y12915D02*
X17468Y13690D01*
X16700Y12865D02*
X17455Y13620D01*
X16548Y12965D02*
X16686D01*
X16548Y12915D02*
X16693D01*
X16548Y12865D02*
X16700D01*
X17345Y13860D02*
Y14045D01*
X17405Y14105D01*
X17495D01*
X17795Y13915D02*
Y14105D01*
X16237Y13008D02*
X16356D01*
X16350Y13162D02*
X16426D01*
X16329Y13280D02*
X16381D01*
X16300Y13252D02*
X16329Y13280D01*
X16300Y13162D02*
Y13252D01*
X16430Y13423D02*
X16432Y13420D01*
Y13332D02*
Y13420D01*
X16381Y13280D02*
X16432Y13332D01*
X17370Y12945D02*
Y13140D01*
X16940Y12515D02*
X17370Y12945D01*
X16548Y12815D02*
X16840D01*
X17675Y11430D02*
Y11915D01*
X17480Y11915D02*
X17675D01*
X17480Y12965D02*
X17675D01*
X18146Y13532D02*
Y13606D01*
X18132Y13620D02*
X18146Y13606D01*
X17974Y13620D02*
X18132D01*
X17455D02*
X17974D01*
X35530Y14720D02*
X39070D01*
X41700Y11981D02*
Y12360D01*
X16200Y13045D02*
X16237Y13008D01*
X16200Y13045D02*
Y13162D01*
X18695Y13532D02*
Y13675D01*
X18570Y13800D02*
X18695Y13675D01*
X17521Y13800D02*
X18570D01*
X18355Y13690D02*
X18421Y13624D01*
X17468Y13690D02*
X18355D01*
X18421Y13532D02*
Y13624D01*
X15475Y10110D02*
Y10400D01*
X15325Y10550D02*
X15475Y10400D01*
X14704Y10521D02*
Y10745D01*
X19610Y12600D02*
X19635Y12625D01*
X19505Y12600D02*
X19610D01*
X19635Y12625D02*
X19778D01*
X30890Y10696D02*
X31149D01*
X31185Y10660D01*
X31328D01*
X31177Y11012D02*
X31328D01*
X31140Y11049D02*
X31177Y11012D01*
X30890Y11049D02*
X31140D01*
X30890Y11401D02*
X31154D01*
X31190Y11365D01*
X31328D01*
X31177Y11720D02*
X31328D01*
X31140Y11756D02*
X31177Y11720D01*
X30890Y11756D02*
X31140D01*
X31180Y12075D02*
X31328D01*
X31144Y12111D02*
X31180Y12075D01*
X30890Y12111D02*
X31144D01*
X30890Y12466D02*
X31177D01*
X31214Y12429D01*
X31328D01*
X31323Y12790D02*
X31328Y12785D01*
X31185Y12790D02*
X31323D01*
X31154Y12821D02*
X31185Y12790D01*
X30890Y12821D02*
X31154D01*
X30890Y13174D02*
X31146D01*
X31183Y13138D01*
X31328D01*
X31185Y13490D02*
X31328D01*
X31149Y13526D02*
X31185Y13490D01*
X30890Y13526D02*
X31149D01*
X31326Y13845D02*
X31328Y13843D01*
X31175Y13845D02*
X31326D01*
X31142Y13879D02*
X31175Y13845D01*
X30890Y13879D02*
X31142D01*
X30890Y14231D02*
X30896Y14225D01*
X31130D01*
X31160Y14195D01*
X31328D01*
X18421Y12985D02*
X18730Y12675D01*
X19778D01*
X19280Y12475D02*
X19778D01*
X19300Y12525D02*
X19778D01*
Y12575D02*
X19890D01*
X19915Y12550D01*
X19500Y12775D02*
X19778D01*
X19465Y12810D02*
X19500Y12775D01*
X19465Y12810D02*
Y12890D01*
X19220Y12785D02*
Y12890D01*
Y12785D02*
X19280Y12725D01*
X19778D01*
X16980Y12465D02*
X17480Y12965D01*
X16548Y12465D02*
X16980D01*
X18420Y12413D02*
X18520D01*
X19215Y12425D02*
X19778D01*
X30890Y14586D02*
X31139D01*
X31175Y14550D01*
X31328D01*
X31548D02*
X31745D01*
X31548Y10660D02*
X31745D01*
X19200Y10729D02*
X19519D01*
X16548Y12515D02*
X16940D01*
X16150Y12140D02*
X16195Y12185D01*
X16250D01*
X16250Y12633D02*
X16332Y12715D01*
X16250Y12521D02*
X16394Y12665D01*
X16548D01*
X16250Y12409D02*
Y12417D01*
X16448Y12615D02*
X16548D01*
X16250Y12417D02*
X16448Y12615D01*
X16462Y12565D02*
X16548D01*
X16355Y12458D02*
X16462Y12565D01*
X16355Y12402D02*
Y12458D01*
X16250Y12297D02*
X16355Y12402D01*
X16100Y12895D02*
X16250Y12745D01*
X16100Y12895D02*
Y13162D01*
X16332Y12715D02*
X16548D01*
X16150Y12018D02*
Y12140D01*
X19778Y12625D02*
X19778Y12625D01*
X16815Y11375D02*
X16918D01*
X16720D02*
X16815D01*
X16625Y11075D02*
X16815Y11265D01*
Y11375D01*
X17675Y11915D02*
X17675Y11915D01*
X17795Y15045D02*
X17975D01*
X14999Y14734D02*
X15315Y15045D01*
X14999Y14080D02*
Y14734D01*
X15792Y12363D02*
Y12915D01*
X15900D02*
X16000Y13015D01*
Y13162D01*
X16150Y13015D02*
X16250Y12915D01*
X16150Y13015D02*
Y13162D01*
X16017Y12915D02*
X16050Y12948D01*
X15475Y10110D02*
X15610D01*
X15340D02*
X15475D01*
X15240Y12665D02*
X15402D01*
X15900Y12018D02*
Y12255D01*
X15792Y12363D02*
X15900Y12255D01*
X16050Y12948D02*
Y13162D01*
X18321Y12745D02*
X18490D01*
X18421Y13070D02*
X18520D01*
X18321D02*
X18421D01*
Y12985D02*
Y13070D01*
X18420Y12413D02*
Y12515D01*
X18321Y12413D02*
X18420D01*
X19680Y12225D02*
X19680Y12225D01*
X19778D01*
X18421Y11960D02*
X18520D01*
X18321D02*
X18421D01*
Y12061D02*
X18460Y12100D01*
X18421Y11960D02*
Y12061D01*
X18420Y11690D02*
X18519D01*
X18320D02*
X18420D01*
Y11420D02*
X18519D01*
X18320D02*
X18420D01*
X14812Y13727D02*
X15000D01*
X14632Y13548D02*
X14812Y13727D01*
X14440Y13548D02*
X14632D01*
X14999Y14080D02*
X15000Y14079D01*
Y13727D02*
Y14079D01*
X15165Y12315D02*
X15215Y12365D01*
X15165Y12465D02*
X15215Y12415D01*
Y12365D02*
X15402D01*
X15215Y12415D02*
X15402D01*
X15285Y12465D02*
X15402D01*
X15095Y12655D02*
X15285Y12465D01*
X15001Y12655D02*
X15095D01*
X16980Y12415D02*
X17480Y11915D01*
X16548Y12415D02*
X16980D01*
X17675Y12965D02*
X17675Y12965D01*
Y13445D01*
X31548Y11012D02*
X31745D01*
X31548Y11365D02*
X31745D01*
X31548Y11720D02*
X31745D01*
X31548Y12075D02*
X31745D01*
X31548Y12429D02*
X31549Y12430D01*
X31745D01*
X31548Y12785D02*
X31745D01*
X31548Y13138D02*
X31745D01*
X31548Y13490D02*
X31745D01*
X31548Y13843D02*
X31745D01*
X31548Y14195D02*
X31745D01*
X18418Y11151D02*
X18518D01*
X18318D02*
X18418D01*
X15001Y12875D02*
Y13130D01*
X13865Y12403D02*
X13907Y12445D01*
X14060D01*
X13865Y12601D02*
X13900Y12567D01*
X14530Y12655D02*
Y12912D01*
X14228Y11615D02*
X14229Y11614D01*
X14705Y12132D02*
X14705Y12132D01*
X14704Y11883D02*
X14705Y11885D01*
X14448Y11291D02*
X14449Y11290D01*
X14448Y11291D02*
Y11615D01*
X14229Y11410D02*
Y11614D01*
X15060Y11105D02*
Y11210D01*
X14980Y11290D02*
X15060Y11210D01*
X14830Y11290D02*
X14980D01*
X14449Y10110D02*
X14704D01*
X14702Y10744D02*
X14704Y10745D01*
X13865Y12601D02*
Y12692D01*
X14082Y12948D02*
X14085Y12946D01*
Y12692D02*
Y12946D01*
Y12058D02*
Y12311D01*
X13863Y12312D02*
X13865Y12311D01*
X13863Y12693D02*
X13865Y12692D01*
D21*
X14705Y12397D02*
D03*
X14895D02*
D03*
Y12132D02*
D03*
X14800D02*
D03*
X14705D02*
D03*
D22*
X24060Y14935D02*
D03*
X24240D02*
D03*
X24060Y14534D02*
D03*
X24240D02*
D03*
X24060Y14132D02*
D03*
X24240D02*
D03*
X24060Y13731D02*
D03*
X24240D02*
D03*
X24060Y13330D02*
D03*
X24240D02*
D03*
X24060Y12928D02*
D03*
X24240D02*
D03*
X24060Y12527D02*
D03*
X24240D02*
D03*
X24060Y12126D02*
D03*
X24240D02*
D03*
X24060Y11724D02*
D03*
X24240D02*
D03*
X24060Y11323D02*
D03*
X24240D02*
D03*
X24060Y10921D02*
D03*
X24240D02*
D03*
X24060Y10520D02*
D03*
X24240D02*
D03*
X15365Y13423D02*
D03*
X15545D02*
D03*
X17855Y13445D02*
D03*
X17675D02*
D03*
X15935Y13423D02*
D03*
X15755D02*
D03*
X14449Y10521D02*
D03*
X14270D02*
D03*
X14884Y11615D02*
D03*
X14704D02*
D03*
X14705Y11885D02*
D03*
X14885D02*
D03*
X20160Y10402D02*
D03*
X19980D02*
D03*
X20063Y11805D02*
D03*
X20243D02*
D03*
X16430Y13423D02*
D03*
X16250D02*
D03*
X17855Y11435D02*
D03*
X17675D02*
D03*
X24682Y14738D02*
D03*
X24507D02*
D03*
X24682Y14330D02*
D03*
X24507D02*
D03*
X24682Y13929D02*
D03*
X24507D02*
D03*
X24682Y13528D02*
D03*
X24507D02*
D03*
X24682Y13127D02*
D03*
X24507D02*
D03*
X24682Y12726D02*
D03*
X24507D02*
D03*
X24682Y12325D02*
D03*
X24507D02*
D03*
X24682Y11924D02*
D03*
X24507D02*
D03*
X24682Y11523D02*
D03*
X24507D02*
D03*
X24682Y11122D02*
D03*
X24507D02*
D03*
X24682Y10721D02*
D03*
X24507D02*
D03*
X24682Y10320D02*
D03*
X24507D02*
D03*
X25073Y14935D02*
D03*
X24898D02*
D03*
X25073Y14534D02*
D03*
X24898D02*
D03*
X25073Y14132D02*
D03*
X24898D02*
D03*
X25073Y13731D02*
D03*
X24898D02*
D03*
X25073Y13330D02*
D03*
X24898D02*
D03*
X25073Y12928D02*
D03*
X24898D02*
D03*
X25073Y12527D02*
D03*
X24898D02*
D03*
X25073Y12126D02*
D03*
X24898D02*
D03*
X25073Y11724D02*
D03*
X24898D02*
D03*
X25073Y11323D02*
D03*
X24898D02*
D03*
X25073Y10921D02*
D03*
X24898D02*
D03*
X25073Y10520D02*
D03*
X24898D02*
D03*
X20638Y11359D02*
D03*
X20463D02*
D03*
X14729Y13130D02*
D03*
X14554D02*
D03*
X18318Y11151D02*
D03*
X18143D02*
D03*
X18518D02*
D03*
X18693D02*
D03*
X18321Y12745D02*
D03*
X18146D02*
D03*
X18320Y11420D02*
D03*
X18145D02*
D03*
X18519D02*
D03*
X18694D02*
D03*
X18320Y11690D02*
D03*
X18145D02*
D03*
X18519D02*
D03*
X18694D02*
D03*
X18321Y11960D02*
D03*
X18146D02*
D03*
X18520D02*
D03*
X18695D02*
D03*
X18146Y12413D02*
D03*
X18321D02*
D03*
X18520D02*
D03*
X18695D02*
D03*
X18321Y13070D02*
D03*
X18146D02*
D03*
X18520D02*
D03*
X18695D02*
D03*
X14879Y10521D02*
D03*
X14704D02*
D03*
X14530Y12655D02*
D03*
X14705D02*
D03*
X11993Y11835D02*
D03*
X12168D02*
D03*
X11535Y12502D02*
D03*
X11715D02*
D03*
X16545Y11375D02*
D03*
X16720D02*
D03*
X17093D02*
D03*
X16918D02*
D03*
D23*
X23827Y14845D02*
D03*
Y15025D02*
D03*
Y14444D02*
D03*
Y14624D02*
D03*
Y14042D02*
D03*
Y14222D02*
D03*
Y13641D02*
D03*
Y13821D02*
D03*
X16840Y12635D02*
D03*
Y12815D02*
D03*
X15145Y11885D02*
D03*
Y12065D02*
D03*
X16918Y11595D02*
D03*
Y11775D02*
D03*
X14440Y13727D02*
D03*
Y13548D02*
D03*
X16548Y11595D02*
D03*
Y11775D02*
D03*
X13860Y12058D02*
D03*
Y11878D02*
D03*
X12395Y12058D02*
D03*
Y12239D02*
D03*
X11825Y10261D02*
D03*
Y10441D02*
D03*
X13985Y11415D02*
D03*
Y11235D02*
D03*
X23827Y13240D02*
D03*
Y13420D02*
D03*
Y12838D02*
D03*
Y13018D02*
D03*
Y12437D02*
D03*
Y12617D02*
D03*
Y12036D02*
D03*
Y12216D02*
D03*
Y11634D02*
D03*
Y11814D02*
D03*
Y11233D02*
D03*
Y11413D02*
D03*
Y10831D02*
D03*
Y11011D02*
D03*
Y10430D02*
D03*
Y10610D02*
D03*
X20245Y11179D02*
D03*
Y11359D02*
D03*
X19465Y13070D02*
D03*
Y12890D02*
D03*
X19220Y13070D02*
D03*
Y12890D02*
D03*
X18970Y13070D02*
D03*
Y12890D02*
D03*
X14475Y12220D02*
D03*
Y12400D02*
D03*
X31745Y14725D02*
D03*
Y14550D02*
D03*
Y14370D02*
D03*
Y14195D02*
D03*
Y14018D02*
D03*
Y13843D02*
D03*
X25315Y11924D02*
D03*
Y12099D02*
D03*
Y11523D02*
D03*
Y11698D02*
D03*
Y11122D02*
D03*
Y11297D02*
D03*
Y10721D02*
D03*
Y10896D02*
D03*
Y10320D02*
D03*
Y10495D02*
D03*
X31745Y13665D02*
D03*
Y13490D02*
D03*
Y13312D02*
D03*
Y13138D02*
D03*
Y12960D02*
D03*
Y12785D02*
D03*
Y12605D02*
D03*
Y12430D02*
D03*
Y12250D02*
D03*
Y12075D02*
D03*
Y11895D02*
D03*
Y11720D02*
D03*
Y11540D02*
D03*
Y11365D02*
D03*
Y11188D02*
D03*
Y11012D02*
D03*
Y10835D02*
D03*
Y10660D02*
D03*
X25315Y14738D02*
D03*
Y14913D02*
D03*
Y14330D02*
D03*
Y14505D02*
D03*
Y13929D02*
D03*
Y14104D02*
D03*
Y13528D02*
D03*
Y13703D02*
D03*
Y13127D02*
D03*
Y13302D02*
D03*
Y12726D02*
D03*
Y12901D02*
D03*
Y12325D02*
D03*
Y12500D02*
D03*
X11935Y12361D02*
D03*
Y12186D02*
D03*
X20510Y11805D02*
D03*
X20513Y11630D02*
D03*
X19200Y10904D02*
D03*
Y10729D02*
D03*
X15000Y13727D02*
D03*
Y13552D02*
D03*
X15001Y13130D02*
D03*
Y13305D02*
D03*
X14085Y12058D02*
D03*
Y11883D02*
D03*
Y12948D02*
D03*
Y13123D02*
D03*
X14449Y10110D02*
D03*
Y10285D02*
D03*
X14229Y11410D02*
D03*
Y11235D02*
D03*
X15060Y10930D02*
D03*
Y11105D02*
D03*
X15340Y10110D02*
D03*
Y10285D02*
D03*
X15610D02*
D03*
Y10110D02*
D03*
X18146Y13532D02*
D03*
Y13357D02*
D03*
X18421Y13532D02*
D03*
Y13357D02*
D03*
X18695Y13532D02*
D03*
Y13357D02*
D03*
Y14562D02*
D03*
Y14737D02*
D03*
X11935Y12821D02*
D03*
Y12646D02*
D03*
X11595Y10260D02*
D03*
Y10440D02*
D03*
D24*
X14449Y10745D02*
D03*
D25*
X14576D02*
D03*
X14703D02*
D03*
X14830D02*
D03*
X14449Y11290D02*
D03*
X14576D02*
D03*
X14703D02*
D03*
X14830D02*
D03*
D26*
X31548Y14550D02*
D03*
X31328D02*
D03*
Y14195D02*
D03*
X31548D02*
D03*
Y13843D02*
D03*
X31328D02*
D03*
Y13490D02*
D03*
X31548D02*
D03*
Y13138D02*
D03*
X31328D02*
D03*
Y12785D02*
D03*
X31548D02*
D03*
Y12429D02*
D03*
X31328D02*
D03*
Y12075D02*
D03*
X31548D02*
D03*
Y11720D02*
D03*
X31328D02*
D03*
Y11365D02*
D03*
X31548D02*
D03*
Y11012D02*
D03*
X31328D02*
D03*
Y10660D02*
D03*
X31548D02*
D03*
X14085Y12692D02*
D03*
X13865D02*
D03*
Y12311D02*
D03*
X14085D02*
D03*
X14704Y10110D02*
D03*
X14924D02*
D03*
X14448Y11615D02*
D03*
X14228D02*
D03*
X14750Y12912D02*
D03*
X14530D02*
D03*
X11782Y11833D02*
D03*
X11562D02*
D03*
D27*
X34710Y14270D02*
D03*
Y14540D02*
D03*
D28*
X19199Y11139D02*
D03*
Y11359D02*
D03*
X15001Y12655D02*
D03*
Y12875D02*
D03*
D29*
X39925Y14740D02*
D03*
X39645D02*
D03*
X33925Y14920D02*
D03*
X34205D02*
D03*
X27925Y14740D02*
D03*
X28205D02*
D03*
X21925Y14745D02*
D03*
X22205D02*
D03*
X28205Y10700D02*
D03*
X27925D02*
D03*
X34205D02*
D03*
X33925D02*
D03*
X39925Y10710D02*
D03*
X39645D02*
D03*
X19469Y10402D02*
D03*
X19749D02*
D03*
D30*
X15925Y14690D02*
D03*
Y14970D02*
D03*
X11225Y14500D02*
D03*
Y14780D02*
D03*
X15925Y10470D02*
D03*
Y10750D02*
D03*
X21925Y10755D02*
D03*
Y10475D02*
D03*
X42555Y13375D02*
D03*
Y13655D02*
D03*
Y12065D02*
D03*
Y11785D02*
D03*
D31*
X25817Y14425D02*
D03*
X25552Y14330D02*
D03*
Y14520D02*
D03*
Y14119D02*
D03*
Y13929D02*
D03*
X25817Y14024D02*
D03*
Y13623D02*
D03*
X25552Y13528D02*
D03*
Y13718D02*
D03*
Y13317D02*
D03*
Y13127D02*
D03*
X25817Y13222D02*
D03*
Y12821D02*
D03*
X25552Y12726D02*
D03*
Y12916D02*
D03*
Y12515D02*
D03*
Y12325D02*
D03*
X25817Y12420D02*
D03*
Y12019D02*
D03*
X25552Y11924D02*
D03*
Y12114D02*
D03*
Y11713D02*
D03*
Y11523D02*
D03*
X25817Y11618D02*
D03*
Y11217D02*
D03*
X25552Y11122D02*
D03*
Y11312D02*
D03*
Y10911D02*
D03*
Y10721D02*
D03*
X25817Y10816D02*
D03*
Y10415D02*
D03*
X25552Y10320D02*
D03*
Y10510D02*
D03*
Y14928D02*
D03*
Y14738D02*
D03*
X25817Y14833D02*
D03*
D32*
X19519Y10729D02*
D03*
X19749D02*
D03*
X19979D02*
D03*
X11595Y10830D02*
D03*
X11825D02*
D03*
X12055D02*
D03*
D33*
X19749Y11359D02*
D03*
X11825Y11460D02*
D03*
D34*
X16807Y14575D02*
D03*
X18184D02*
D03*
X39268Y12028D02*
D03*
X36692D02*
D03*
D35*
X17195Y14105D02*
D03*
X17495D02*
D03*
X17795D02*
D03*
Y15045D02*
D03*
X17495D02*
D03*
X17195D02*
D03*
D36*
X39150Y12330D02*
D03*
X36810D02*
D03*
D37*
X37080Y12575D02*
D03*
X37380D02*
D03*
X37680D02*
D03*
X37980D02*
D03*
X38280D02*
D03*
X38580D02*
D03*
X38880D02*
D03*
Y13038D02*
D03*
X38580D02*
D03*
X38280D02*
D03*
X37980D02*
D03*
X37680D02*
D03*
X37380D02*
D03*
X37080D02*
D03*
D38*
X33239Y13659D02*
D03*
X32985D02*
D03*
X41446Y11981D02*
D03*
X41700D02*
D03*
D39*
X18554Y10475D02*
D03*
Y10729D02*
D03*
X12171Y14855D02*
D03*
Y14601D02*
D03*
X19186Y14481D02*
D03*
Y14735D02*
D03*
D40*
X13632Y12058D02*
D03*
Y12186D02*
D03*
Y12312D02*
D03*
Y12439D02*
D03*
Y12567D02*
D03*
Y12693D02*
D03*
Y12821D02*
D03*
Y12948D02*
D03*
X12657Y12058D02*
D03*
Y12186D02*
D03*
Y12312D02*
D03*
Y12439D02*
D03*
Y12567D02*
D03*
Y12693D02*
D03*
Y12821D02*
D03*
Y12948D02*
D03*
D41*
X11025Y11690D02*
D03*
X11225Y11760D02*
D03*
Y11620D02*
D03*
D42*
X20915Y11630D02*
D03*
Y11359D02*
D03*
D43*
X34439Y14775D02*
D03*
X34711D02*
D03*
X31989Y10835D02*
D03*
X32261D02*
D03*
X31989Y11188D02*
D03*
X32261D02*
D03*
X31989Y11540D02*
D03*
X32261D02*
D03*
X31989Y11895D02*
D03*
X32261D02*
D03*
X31989Y12250D02*
D03*
X32261D02*
D03*
X31989Y12605D02*
D03*
X32261D02*
D03*
X31989Y12960D02*
D03*
X32261D02*
D03*
X31989Y13312D02*
D03*
X32261D02*
D03*
X31989Y13665D02*
D03*
X32261D02*
D03*
X31989Y14018D02*
D03*
X32261D02*
D03*
X31989Y14370D02*
D03*
X32261D02*
D03*
X31989Y14725D02*
D03*
X32261D02*
D03*
X31989Y10478D02*
D03*
X32261D02*
D03*
D44*
X16548Y12215D02*
D03*
D45*
Y12265D02*
D03*
Y12315D02*
D03*
Y12365D02*
D03*
Y12415D02*
D03*
Y12465D02*
D03*
Y12515D02*
D03*
Y12565D02*
D03*
Y12615D02*
D03*
Y12665D02*
D03*
Y12715D02*
D03*
Y12765D02*
D03*
Y12815D02*
D03*
Y12865D02*
D03*
Y12915D02*
D03*
Y12965D02*
D03*
X15402D02*
D03*
Y12915D02*
D03*
Y12865D02*
D03*
Y12815D02*
D03*
Y12765D02*
D03*
Y12715D02*
D03*
Y12665D02*
D03*
Y12615D02*
D03*
Y12565D02*
D03*
Y12515D02*
D03*
Y12465D02*
D03*
Y12415D02*
D03*
Y12365D02*
D03*
Y12315D02*
D03*
Y12265D02*
D03*
Y12215D02*
D03*
D46*
X16350Y13162D02*
D03*
X16300D02*
D03*
X16250D02*
D03*
X16200D02*
D03*
X16150D02*
D03*
X16100D02*
D03*
X16050D02*
D03*
X16000D02*
D03*
X15950D02*
D03*
X15900D02*
D03*
X15850D02*
D03*
X15800D02*
D03*
X15750D02*
D03*
X15700D02*
D03*
X15650D02*
D03*
X15600D02*
D03*
Y12018D02*
D03*
X15650D02*
D03*
X15700D02*
D03*
X15750D02*
D03*
X15800D02*
D03*
X15850D02*
D03*
X15900D02*
D03*
X15950D02*
D03*
X16000D02*
D03*
X16050D02*
D03*
X16100D02*
D03*
X16150D02*
D03*
X16200D02*
D03*
X16250D02*
D03*
X16300D02*
D03*
X16350D02*
D03*
D47*
X30890Y10835D02*
D03*
Y10696D02*
D03*
Y14725D02*
D03*
Y14586D02*
D03*
Y14370D02*
D03*
Y14231D02*
D03*
Y14018D02*
D03*
Y13879D02*
D03*
Y13665D02*
D03*
Y13526D02*
D03*
Y13312D02*
D03*
Y13174D02*
D03*
Y12960D02*
D03*
Y12821D02*
D03*
Y12605D02*
D03*
Y12466D02*
D03*
Y12250D02*
D03*
Y12111D02*
D03*
Y11895D02*
D03*
Y11756D02*
D03*
Y11540D02*
D03*
Y11401D02*
D03*
Y11188D02*
D03*
Y11049D02*
D03*
X29810Y14725D02*
D03*
Y14586D02*
D03*
Y14370D02*
D03*
Y14231D02*
D03*
Y14018D02*
D03*
Y13879D02*
D03*
Y13665D02*
D03*
Y13526D02*
D03*
Y13312D02*
D03*
Y13174D02*
D03*
Y12960D02*
D03*
Y12821D02*
D03*
Y12605D02*
D03*
Y12466D02*
D03*
Y12250D02*
D03*
Y12111D02*
D03*
Y11895D02*
D03*
Y11756D02*
D03*
Y11540D02*
D03*
Y11401D02*
D03*
Y11188D02*
D03*
Y11049D02*
D03*
Y10835D02*
D03*
Y10696D02*
D03*
X30350Y14725D02*
D03*
Y14586D02*
D03*
Y14370D02*
D03*
Y14231D02*
D03*
Y14018D02*
D03*
Y13879D02*
D03*
Y13665D02*
D03*
Y13526D02*
D03*
Y13312D02*
D03*
Y13174D02*
D03*
Y12960D02*
D03*
Y12821D02*
D03*
Y12605D02*
D03*
Y12466D02*
D03*
Y12250D02*
D03*
Y12111D02*
D03*
Y11895D02*
D03*
Y11756D02*
D03*
Y11540D02*
D03*
Y11401D02*
D03*
Y11188D02*
D03*
Y11049D02*
D03*
Y10835D02*
D03*
Y10696D02*
D03*
D48*
X11225Y11020D02*
D03*
Y10720D02*
D03*
X10285Y11020D02*
D03*
Y10720D02*
D03*
Y12655D02*
D03*
Y12355D02*
D03*
X11225Y12655D02*
D03*
Y12355D02*
D03*
D49*
X10755Y11408D02*
D03*
Y10332D02*
D03*
Y13043D02*
D03*
Y11967D02*
D03*
D50*
X36000Y12432D02*
D03*
Y12178D02*
D03*
Y11924D02*
D03*
Y11670D02*
D03*
Y11416D02*
D03*
Y11162D02*
D03*
Y10908D02*
D03*
X35000D02*
D03*
Y11162D02*
D03*
Y11416D02*
D03*
Y11670D02*
D03*
Y11924D02*
D03*
Y12178D02*
D03*
Y12432D02*
D03*
X36000Y14532D02*
D03*
Y14278D02*
D03*
Y14024D02*
D03*
Y13770D02*
D03*
Y13516D02*
D03*
Y13262D02*
D03*
Y13008D02*
D03*
X35000D02*
D03*
Y13262D02*
D03*
Y13516D02*
D03*
Y13770D02*
D03*
Y14024D02*
D03*
Y14278D02*
D03*
Y14532D02*
D03*
D51*
X14440Y14080D02*
D03*
X14999D02*
D03*
D52*
X19778Y13225D02*
D03*
Y13175D02*
D03*
Y13125D02*
D03*
Y13075D02*
D03*
Y13025D02*
D03*
Y12975D02*
D03*
Y12925D02*
D03*
Y12875D02*
D03*
Y12825D02*
D03*
Y12775D02*
D03*
Y12725D02*
D03*
Y12675D02*
D03*
Y12625D02*
D03*
Y12575D02*
D03*
Y12525D02*
D03*
Y12475D02*
D03*
Y12425D02*
D03*
Y12375D02*
D03*
Y12325D02*
D03*
Y12275D02*
D03*
Y12225D02*
D03*
Y12175D02*
D03*
Y12125D02*
D03*
Y12075D02*
D03*
X20513Y13225D02*
D03*
Y13175D02*
D03*
Y13125D02*
D03*
Y13075D02*
D03*
Y13025D02*
D03*
Y12975D02*
D03*
Y12925D02*
D03*
Y12875D02*
D03*
Y12825D02*
D03*
Y12775D02*
D03*
Y12725D02*
D03*
Y12675D02*
D03*
Y12625D02*
D03*
Y12575D02*
D03*
Y12525D02*
D03*
Y12475D02*
D03*
Y12425D02*
D03*
Y12375D02*
D03*
Y12325D02*
D03*
Y12275D02*
D03*
Y12225D02*
D03*
Y12175D02*
D03*
Y12125D02*
D03*
Y12075D02*
D03*
D53*
X17675Y11915D02*
D03*
Y12965D02*
D03*
D54*
X23550Y11034D02*
D03*
Y10809D02*
D03*
Y10408D02*
D03*
Y10633D02*
D03*
Y15048D02*
D03*
Y14823D02*
D03*
Y14421D02*
D03*
Y14646D02*
D03*
Y14245D02*
D03*
Y14020D02*
D03*
Y13618D02*
D03*
Y13843D02*
D03*
Y13442D02*
D03*
Y13217D02*
D03*
Y12816D02*
D03*
Y13041D02*
D03*
Y12639D02*
D03*
Y12414D02*
D03*
Y12013D02*
D03*
Y12238D02*
D03*
Y11837D02*
D03*
Y11612D02*
D03*
Y11210D02*
D03*
Y11435D02*
D03*
D55*
X12395Y11835D02*
D03*
Y11565D02*
D03*
D56*
X12460Y12563D02*
D03*
Y12443D02*
D03*
X12155D02*
D03*
Y12563D02*
D03*
D96*
X11562Y11988D02*
X11563Y11990D01*
X11530Y12503D02*
X11533Y12500D01*
X11562Y11833D02*
Y11988D01*
X11563Y11990D02*
X12022D01*
X12395Y11115D02*
Y11565D01*
Y11115D02*
X12765Y10745D01*
X12485Y12821D02*
X12657D01*
X12420Y12885D02*
X12485Y12821D01*
X12482Y12948D02*
X12657D01*
X12420Y12885D02*
X12482Y12948D01*
X12022Y11990D02*
X12271Y12239D01*
X12395Y11835D02*
Y12058D01*
X11242Y12503D02*
X11530D01*
X12171Y11284D02*
Y11832D01*
X12055Y11168D02*
X12171Y11284D01*
X12055Y10830D02*
Y11168D01*
X12168Y11835D02*
X12171Y11832D01*
X12271Y12239D02*
X12395D01*
X11025Y11690D02*
Y11990D01*
X12559Y12186D02*
X12657D01*
X12512Y12233D02*
X12559Y12186D01*
X12401Y12233D02*
X12512D01*
X12395Y12239D02*
X12401Y12233D01*
X13632Y12186D02*
X13836D01*
X11825Y11460D02*
Y11612D01*
X11757Y11680D02*
X11825Y11612D01*
X11610Y11680D02*
X11757D01*
X11562Y11728D02*
X11610Y11680D01*
X11562Y11728D02*
Y11833D01*
X11782D02*
X11783Y11835D01*
X11993D01*
X12168D02*
X12395D01*
X12281Y10261D02*
X12765Y10745D01*
X11825Y10261D02*
X12281D01*
X11824Y10260D02*
X11825Y10261D01*
X11595Y10260D02*
X11824D01*
X12395Y12058D02*
X12657D01*
X11825Y10830D02*
Y11460D01*
X11595Y10440D02*
X12206D01*
X11595D02*
Y10830D01*
X11110Y10440D02*
X11595D01*
X12206D02*
X12511Y10745D01*
X10480Y10720D02*
X10830D01*
X10175Y11255D02*
X10285Y11145D01*
Y11435D02*
Y12355D01*
Y11020D02*
Y11145D01*
Y10720D02*
X10445D01*
X13632Y12693D02*
X13863D01*
X13632Y12312D02*
X13863D01*
X13582Y12058D02*
X13860D01*
X35208Y13008D02*
X35210Y13006D01*
X20915Y11145D02*
Y11359D01*
X10565Y10985D02*
Y11155D01*
Y10985D02*
X10830Y10720D01*
X36210Y14532D02*
X37653D01*
X38880Y13305D01*
X36000Y14278D02*
X37607D01*
X36000Y14024D02*
X37561D01*
X37680Y13038D02*
Y13305D01*
X37405Y13580D02*
X37680Y13305D01*
X36274Y13580D02*
X37405D01*
X36383Y13435D02*
X37250D01*
X38130Y12985D02*
X38183Y13038D01*
X38130Y10590D02*
Y12985D01*
X38183Y13038D02*
X38280D01*
X38580D02*
Y13305D01*
X37607Y14278D02*
X38580Y13305D01*
X10780Y12655D02*
X10780Y12655D01*
X10285Y12655D02*
X10780D01*
X10830Y10720D02*
X11110Y10440D01*
X13860Y12058D02*
X13860Y12058D01*
X11470Y15355D02*
X37230D01*
X11225Y15110D02*
X11470Y15355D01*
X35000Y10908D02*
X35210D01*
X32261Y10472D02*
X32465D01*
X20513Y11807D02*
Y12057D01*
X20510Y11805D02*
X20513Y11807D01*
X20243Y11805D02*
X20510D01*
X19979Y10729D02*
X19980Y10727D01*
Y10402D02*
Y10727D01*
X39445Y14740D02*
X39645D01*
X38735Y14030D02*
X39445Y14740D01*
X16075Y15265D02*
X37530D01*
X15925Y15115D02*
X16075Y15265D01*
X22760Y15175D02*
X37830D01*
X22330Y14745D02*
X22760Y15175D01*
X28680Y15085D02*
X38130D01*
X28335Y14740D02*
X28680Y15085D01*
X34400Y14995D02*
X38430D01*
X34325Y14920D02*
X34400Y14995D01*
X34710Y14774D02*
X34711Y14775D01*
X34710Y14540D02*
Y14774D01*
X34993Y14525D02*
X35000Y14532D01*
X34850Y14525D02*
X34993D01*
X34835Y14540D02*
X34850Y14525D01*
X34710Y14540D02*
X34835D01*
X34710Y14270D02*
X34715Y14265D01*
X34825D01*
X34838Y14278D01*
X35000D01*
X34205Y14920D02*
X34325D01*
X31745Y12250D02*
X31989D01*
X31745Y10835D02*
X31989D01*
X31745Y11540D02*
X31989D01*
X19235Y10402D02*
X19469D01*
X31745Y10478D02*
X31989D01*
X28345Y10700D02*
X28800Y10245D01*
X37830D01*
X25315Y10320D02*
X25552D01*
X29506Y14586D02*
X29810D01*
X30350D01*
X30890D01*
X29593Y10696D02*
X29810D01*
Y10835D02*
X30350D01*
X30890D01*
X31745D01*
Y14725D02*
X31989D01*
X30890D02*
X31745D01*
X30350D02*
X30890D01*
X29810D02*
X30350D01*
X25841Y14624D02*
X25990D01*
X25727Y14738D02*
X25841Y14624D01*
X25552Y14738D02*
X25727D01*
X25830Y10610D02*
X25990D01*
X25719Y10721D02*
X25830Y10610D01*
X25552Y10721D02*
X25719D01*
X25836Y11011D02*
X25990D01*
X25726Y11122D02*
X25836Y11011D01*
X25552Y11122D02*
X25726D01*
X25832Y11413D02*
X25990D01*
X25722Y11523D02*
X25832Y11413D01*
X25552Y11523D02*
X25722D01*
X25831Y11814D02*
X25990D01*
X25721Y11924D02*
X25831Y11814D01*
X25552Y11924D02*
X25721D01*
X25829Y12216D02*
X25990D01*
X25720Y12325D02*
X25829Y12216D01*
X25552Y12325D02*
X25720D01*
X25828Y12617D02*
X25990D01*
X25719Y12726D02*
X25828Y12617D01*
X25552Y12726D02*
X25719D01*
X25837Y13018D02*
X25990D01*
X25728Y13127D02*
X25837Y13018D01*
X25552Y13127D02*
X25728D01*
X25840Y13420D02*
X25990D01*
X25732Y13528D02*
X25840Y13420D01*
X25552Y13528D02*
X25732D01*
X25839Y13821D02*
X25990D01*
X25731Y13929D02*
X25839Y13821D01*
X25552Y13929D02*
X25731D01*
X25838Y14222D02*
X25990D01*
X25730Y14330D02*
X25838Y14222D01*
X25552Y14330D02*
X25730D01*
X25552Y10320D02*
X25990D01*
X28374Y11915D02*
X29593Y10696D01*
X27435Y11915D02*
X28374D01*
X27333Y13525D02*
X28445D01*
X26025Y14833D02*
X27333Y13525D01*
X25817Y14833D02*
X26025D01*
X28445Y13525D02*
X29506Y14586D01*
X29456Y14231D02*
X29810D01*
X28609Y13384D02*
X29456Y14231D01*
X27049Y13384D02*
X28609D01*
X26007Y14425D02*
X27049Y13384D01*
X25817Y14425D02*
X26007D01*
X29454Y13879D02*
X29810D01*
X28818Y13243D02*
X29454Y13879D01*
X26792Y13243D02*
X28818D01*
X29431Y13526D02*
X29810D01*
X29007Y13102D02*
X29431Y13526D01*
X26632Y13102D02*
X29007D01*
X26011Y14024D02*
X26792Y13243D01*
X25817Y14024D02*
X26011D01*
X26110Y13623D02*
X26632Y13102D01*
X25817Y13623D02*
X26110D01*
X26459Y12961D02*
X29146D01*
X26198Y13222D02*
X26459Y12961D01*
X25817Y13222D02*
X26198D01*
X29358Y13174D02*
X29810D01*
X29146Y12961D02*
X29358Y13174D01*
X29519Y11401D02*
X29810D01*
X28703Y12217D02*
X29519Y11401D01*
X27083Y12217D02*
X28703D01*
X29394Y11756D02*
X29810D01*
X28783Y12368D02*
X29394Y11756D01*
X26859Y12368D02*
X28783D01*
X29133Y12669D02*
X29336Y12466D01*
X29810D01*
X29000Y12518D02*
X29407Y12111D01*
X29810D01*
X28509Y12066D02*
X29526Y11049D01*
X29810D01*
X26218Y12420D02*
X26467Y12669D01*
X25817Y12420D02*
X26218D01*
X26156Y12019D02*
X26655Y12518D01*
X25817Y12019D02*
X26156D01*
X26109Y11618D02*
X26859Y12368D01*
X25817Y11618D02*
X26109D01*
X26083Y11217D02*
X27083Y12217D01*
X25817Y11217D02*
X26083D01*
X25817Y10816D02*
X26034D01*
X27284Y12066D01*
X25817Y10415D02*
X25935D01*
X27435Y11915D01*
X29809Y12820D02*
X29810Y12821D01*
X25850Y12820D02*
X29809D01*
X25849Y12821D02*
X25850Y12820D01*
X25817Y12821D02*
X25849D01*
X26655Y12518D02*
X29000D01*
X26467Y12669D02*
X29133D01*
X27284Y12066D02*
X28509D01*
X29810Y10696D02*
X30350D01*
X29810Y11049D02*
X30350D01*
X29810Y11188D02*
X30350D01*
X29810Y11540D02*
X30350D01*
X29810Y11401D02*
X30350D01*
X29810Y11756D02*
X30350D01*
X29810Y11895D02*
X30350D01*
X29810Y12111D02*
X30350D01*
X29810Y12250D02*
X30350D01*
X29810Y12466D02*
X30350D01*
X29810Y12605D02*
X30350D01*
X29810Y12821D02*
X30350D01*
X29810Y12960D02*
X30350D01*
X29810Y13312D02*
X30350D01*
X29810Y13174D02*
X30350D01*
X29810Y13526D02*
X30350D01*
X29810Y13665D02*
X30350D01*
X29810Y13879D02*
X30350D01*
X29810Y14018D02*
X30350D01*
X29810Y14231D02*
X30350D01*
X29810Y14370D02*
X30350D01*
Y10696D02*
X30890D01*
X30350Y11049D02*
X30890D01*
X30350Y11401D02*
X30890D01*
X30350Y11756D02*
X30890D01*
X30350Y12111D02*
X30890D01*
X30350Y12466D02*
X30890D01*
X30350Y12821D02*
X30890D01*
X30350Y13174D02*
X30890D01*
X30350Y13526D02*
X30890D01*
X30350Y13879D02*
X30890D01*
X30350Y14231D02*
X30890D01*
Y11188D02*
X31745D01*
X30350D02*
X30890D01*
X30350Y11540D02*
X30890D01*
X31745D01*
X30890Y11895D02*
X31745D01*
X30350D02*
X30890D01*
X30350Y12250D02*
X30890D01*
X31745D01*
X30890Y12605D02*
X31745D01*
X30350D02*
X30890D01*
Y12960D02*
X31745D01*
X30350D02*
X30890D01*
X30350Y13312D02*
X30890D01*
X31745D01*
X30350Y13665D02*
X30890D01*
X31745D01*
X30890Y14018D02*
X31745D01*
X30350D02*
X30890D01*
X30350Y14370D02*
X30890D01*
X31745D01*
X25315Y10721D02*
X25552D01*
X25315Y11122D02*
X25552D01*
X25315Y11523D02*
X25552D01*
X25315Y11924D02*
X25552D01*
X25315Y12325D02*
X25552D01*
X25315Y12726D02*
X25552D01*
X25315Y13127D02*
X25552D01*
X25315Y13528D02*
X25552D01*
X25315Y13929D02*
X25552D01*
X25315Y14330D02*
X25552D01*
X24682Y10721D02*
X25315D01*
X24682Y11122D02*
X25315D01*
X24682Y11523D02*
X25315D01*
X24682Y11924D02*
X25315D01*
X24682Y12325D02*
X25315D01*
X24682Y12726D02*
X25315D01*
X24682Y13127D02*
X25315D01*
X24682Y13528D02*
X25315D01*
X24682Y13929D02*
X25315D01*
X24682Y14330D02*
X25315D01*
X24682Y14738D02*
X25315D01*
X25315Y14738D01*
X25552D01*
X10285Y11435D02*
X10565Y11155D01*
X42555Y13655D02*
X43375D01*
X42260Y12645D02*
X42555Y12350D01*
Y12065D02*
Y12350D01*
Y11785D02*
X43375D01*
X19749Y10402D02*
X19980D01*
X19749Y10729D02*
Y11359D01*
X20245D01*
X20463D01*
X20513Y11630D02*
X20915D01*
X20638Y11359D02*
X20915D01*
X15925Y10175D02*
X16035Y10065D01*
X37230D01*
X22030Y10155D02*
X37530D01*
X37885Y10345D02*
X38130Y10590D01*
X34410Y10345D02*
X37885D01*
X34205Y10550D02*
X34410Y10345D01*
X34205Y10550D02*
Y10700D01*
X32261Y10835D02*
X32465D01*
X32261Y11188D02*
X32465D01*
X32261Y11540D02*
X32465D01*
X32261Y11895D02*
X32465D01*
X32261Y12250D02*
X32465D01*
X32261Y12605D02*
X32465D01*
X32261Y12960D02*
X32465D01*
X32261Y13312D02*
X32465D01*
X32261Y13665D02*
X32465D01*
X32261Y14018D02*
X32465D01*
X32261Y14370D02*
X32465D01*
X32261Y14725D02*
X32465D01*
X31745Y11188D02*
X31989D01*
X31745Y11895D02*
X31989D01*
X31745Y12605D02*
X31989D01*
X31745Y12960D02*
X31989D01*
X31745Y13312D02*
X31989D01*
X31745Y13665D02*
X31989D01*
X31745Y14018D02*
X31989D01*
X31745Y14370D02*
X31989D01*
X38425Y11680D02*
Y12985D01*
X38478Y13038D01*
X38580D01*
X37830Y10445D02*
Y12985D01*
X37883Y13038D01*
X37980D01*
X37530Y10445D02*
Y12985D01*
X37583Y13038D01*
X37680D01*
X37283D02*
X37380D01*
X37230Y12985D02*
X37283Y13038D01*
X37230Y10445D02*
Y12985D01*
X39945Y13375D02*
X40275D01*
X39685Y13115D02*
X39945Y13375D01*
X40275D02*
X42555Y13375D01*
X35210Y12434D02*
Y13006D01*
X35208Y11162D02*
X35210Y11164D01*
X35000Y11162D02*
X35208D01*
Y11416D02*
X35210Y11418D01*
X35000Y11416D02*
X35208D01*
Y11670D02*
X35210Y11672D01*
X35000Y11670D02*
X35208D01*
Y11924D02*
X35210Y11926D01*
X35000Y11924D02*
X35208D01*
Y12178D02*
X35210Y12180D01*
X35000Y12178D02*
X35208D01*
Y12432D02*
X35210Y12434D01*
X35000Y12432D02*
X35208D01*
X35000Y13008D02*
X35208D01*
Y13262D02*
X35210Y13264D01*
X35000Y13262D02*
X35208D01*
Y13516D02*
X35210Y13518D01*
X35000Y13516D02*
X35208D01*
Y13770D02*
X35210Y13772D01*
X35000Y13770D02*
X35208D01*
Y14024D02*
X35210Y14026D01*
X35000Y14024D02*
X35208D01*
Y14278D02*
X35210Y14280D01*
X35000Y14278D02*
X35208D01*
Y14532D02*
X35210Y14534D01*
X35000Y14532D02*
X35208D01*
X36000Y12432D02*
X36210D01*
Y13008D01*
X37250Y13435D02*
X37380Y13305D01*
X36210Y13262D02*
X36383Y13435D01*
X39925Y14080D02*
Y14740D01*
X22205Y14745D02*
X22330D01*
X28205Y14740D02*
X28335D01*
X15925Y14970D02*
Y15115D01*
X11225Y14780D02*
Y15110D01*
X36000Y14532D02*
X36210D01*
X21925Y14080D02*
Y14745D01*
X27925Y14080D02*
Y14740D01*
X38880Y13305D02*
X39540Y12645D01*
X42260D01*
X39395Y10710D02*
X39645D01*
X38425Y11680D02*
X39395Y10710D01*
X37080Y12310D02*
Y12575D01*
X37380Y12310D02*
Y12575D01*
X33925Y10700D02*
Y11360D01*
X28205Y10700D02*
X28345D01*
X27925D02*
Y11360D01*
X21925Y10260D02*
X22030Y10155D01*
X21925Y10260D02*
Y10475D01*
X33925Y14080D02*
Y14920D01*
X39925Y10710D02*
Y11360D01*
X36210Y13008D02*
X36507Y13305D01*
X37080D01*
X36210Y13516D02*
X36274Y13580D01*
X36000Y13770D02*
X37515D01*
X37980Y13305D01*
X37561Y14024D02*
X38280Y13305D01*
X37980Y12310D02*
Y12575D01*
X37680Y12310D02*
X37680Y12310D01*
X37080Y12575D02*
Y13038D01*
X36000Y10908D02*
X36210D01*
X36000Y11162D02*
X36210D01*
X36000Y11416D02*
X36210D01*
X36000Y11670D02*
X36210D01*
X36000Y11924D02*
X36210D01*
X36000Y12178D02*
X36210D01*
X36000Y13008D02*
X36210D01*
X36000Y13262D02*
X36210D01*
X36000Y13516D02*
X36210D01*
X37680Y12310D02*
Y12575D01*
X38280Y12310D02*
Y12575D01*
X38580Y12310D02*
Y12575D01*
X38880Y12310D02*
Y12575D01*
Y13038D02*
Y13305D01*
X38280Y13038D02*
Y13305D01*
X37980Y13038D02*
Y13305D01*
X37380Y13038D02*
Y13305D01*
X37080Y13038D02*
Y13305D01*
X21925Y10755D02*
Y11360D01*
X15925Y10175D02*
Y10470D01*
Y10750D02*
X15925Y10750D01*
Y11360D01*
Y14080D02*
Y14690D01*
X15925Y14690D02*
X15925Y14690D01*
X10400Y14500D02*
X11225D01*
D97*
X11991Y11783D02*
X11993Y11785D01*
X11533Y12500D02*
X11535Y12502D01*
X11880D02*
X11935Y12447D01*
Y12361D02*
Y12447D01*
Y12557D02*
Y12646D01*
X11880Y12502D02*
X11935Y12557D01*
X11715Y12502D02*
X11880D01*
X13836Y12186D02*
X13837Y12185D01*
X24240Y14534D02*
X24390D01*
X24055Y10721D02*
X24507D01*
X23827D02*
X24055D01*
X24060Y10726D01*
Y10921D01*
X24050Y11122D02*
X24507D01*
X23830D02*
X24050D01*
X24060Y11132D01*
Y11323D01*
X24060Y11523D02*
X24507D01*
X23829D02*
X24060D01*
X24060Y11523D01*
Y11724D01*
X24060Y11924D02*
X24507D01*
X23828D02*
X24060D01*
X24060Y11924D01*
Y12126D01*
X24060Y12325D02*
X24507D01*
X23828D02*
X24060D01*
X24060Y12325D01*
Y12527D01*
X24060Y12726D02*
X24507D01*
X23827D02*
X24060D01*
X24060Y12726D01*
Y12928D01*
X24060Y13127D02*
X24507D01*
X23829D02*
X24060D01*
X24060Y13127D01*
Y13330D01*
Y13528D02*
X24507D01*
X23829D02*
X24060D01*
Y13731D01*
X24060Y13932D02*
X24505D01*
X23827D02*
X24060D01*
X24060Y13932D01*
Y14132D01*
X24055Y14330D02*
X24507D01*
X23827D02*
X24055D01*
X24060Y14335D01*
Y14534D01*
X24682Y10320D02*
X25315D01*
X24060D02*
X24507D01*
X23827D02*
X24060D01*
X24060Y10320D02*
X24060Y10320D01*
X24060Y10320D02*
Y10520D01*
X23827Y10430D02*
X23827Y10429D01*
Y10320D02*
Y10429D01*
X23827Y13932D02*
Y14042D01*
Y11125D02*
Y11233D01*
Y11011D02*
Y11125D01*
Y11525D02*
Y11634D01*
Y11413D02*
Y11525D01*
Y11925D02*
Y12036D01*
Y11814D02*
Y11925D01*
Y12326D02*
Y12437D01*
Y12216D02*
Y12326D01*
Y12725D02*
Y12838D01*
Y12617D02*
Y12725D01*
Y13129D02*
Y13240D01*
Y13018D02*
Y13129D01*
Y13530D02*
Y13641D01*
Y13420D02*
Y13530D01*
Y13821D02*
Y13932D01*
Y14330D02*
Y14444D01*
Y14222D02*
Y14330D01*
Y10721D02*
Y10831D01*
Y10610D02*
Y10721D01*
X24060Y14734D02*
X24504Y14734D01*
X24240Y10520D02*
X24390D01*
X24240Y10921D02*
X24390D01*
X24240Y11323D02*
X24390D01*
X24240Y11724D02*
X24390D01*
X24240Y12126D02*
X24390D01*
X24240Y12527D02*
X24390D01*
X24240Y12928D02*
X24390D01*
X24240Y13330D02*
X24390D01*
X24390Y13731D02*
X24390Y13731D01*
X24240D02*
X24390D01*
X24390Y13731D02*
X24390Y13731D01*
X24390Y13731D02*
X24390D01*
X24240Y14132D02*
X24390D01*
X24240Y14935D02*
X24390D01*
X23827Y14734D02*
X24060D01*
X24060Y14734D02*
X24060Y14734D01*
X24060Y14734D02*
Y14935D01*
X23827Y14734D02*
Y14845D01*
Y14624D02*
Y14734D01*
X23550Y13041D02*
X23668D01*
X23690Y13018D01*
X23827D01*
X23703Y12838D02*
X23827D01*
X23681Y12816D02*
X23703Y12838D01*
X23550Y12816D02*
X23681D01*
X23550Y14823D02*
X23672D01*
X23695Y14845D01*
X23827D01*
X23550Y14646D02*
X23665D01*
X23687Y14624D01*
X23827D01*
X23550Y10408D02*
X23668D01*
X23690Y10430D01*
X23827D01*
X23696Y10610D02*
X23827D01*
X23673Y10633D02*
X23696Y10610D01*
X23550Y10633D02*
X23673D01*
X23550Y10809D02*
X23664D01*
X23687Y10831D01*
X23827D01*
X23689Y11011D02*
X23827D01*
X23666Y11034D02*
X23689Y11011D01*
X23550Y11034D02*
X23666D01*
X23550Y11210D02*
X23665D01*
X23688Y11233D01*
X23827D01*
X23688Y11413D02*
X23827D01*
X23665Y11435D02*
X23688Y11413D01*
X23550Y11435D02*
X23665D01*
X23550Y11612D02*
X23669D01*
X23691Y11634D01*
X23827D01*
X23550Y11837D02*
X23673D01*
X23695Y11814D01*
X23827D01*
X23550Y12013D02*
X23668D01*
X23690Y12036D01*
X23827D01*
X23550Y12238D02*
X23683D01*
X23706Y12216D01*
X23827D01*
X23550Y12414D02*
X23677D01*
X23700Y12437D01*
X23827D01*
X23550Y12639D02*
X23663D01*
X23686Y12617D01*
X23827D01*
X23686Y13240D02*
X23827D01*
X23664Y13217D02*
X23686Y13240D01*
X23550Y13217D02*
X23664D01*
X23550Y13442D02*
X23662D01*
X23685Y13420D01*
X23827D01*
X23694Y13821D02*
X23827D01*
X23672Y13843D02*
X23694Y13821D01*
X23550Y13843D02*
X23672D01*
X23687Y13641D02*
X23827D01*
X23664Y13618D02*
X23687Y13641D01*
X23550Y13618D02*
X23664D01*
X23550Y14020D02*
X23676D01*
X23698Y14042D01*
X23827D01*
X23550Y14245D02*
X23683D01*
X23705Y14222D01*
X23827D01*
X23550Y14421D02*
X23674D01*
X23696Y14444D01*
X23827D01*
X23700Y15025D02*
X23827D01*
X23678Y15048D02*
X23700Y15025D01*
X23550Y15048D02*
X23678D01*
D98*
X12655Y12437D02*
X12657Y12439D01*
X12550Y12437D02*
X12655D01*
X12544Y12443D02*
X12550Y12437D01*
X12460Y12443D02*
X12544D01*
X12654Y12570D02*
X12657Y12567D01*
X12545Y12570D02*
X12654D01*
X12538Y12563D02*
X12545Y12570D01*
X12460Y12563D02*
X12538D01*
D99*
X19922Y13275D02*
X20943D01*
X19872Y13225D02*
X19922Y13275D01*
X19778Y13225D02*
X19872D01*
X19666Y13325D02*
X20923D01*
X19640Y13299D02*
X19666Y13325D01*
X19640Y13205D02*
Y13299D01*
X20923Y13325D02*
X21123Y13525D01*
X20943Y13275D02*
X21130Y13462D01*
X21402D01*
X23291Y14646D02*
X23550D01*
X22735Y14090D02*
X23291Y14646D01*
X22735Y13885D02*
Y14090D01*
X23268Y15048D02*
X23550D01*
X22510Y14290D02*
X23268Y15048D01*
X22510Y13905D02*
Y14290D01*
X22630Y14200D02*
X23365Y14935D01*
X22630Y13905D02*
Y14200D01*
X21402Y13462D02*
X21402D01*
X20964Y13225D02*
X21132Y13392D01*
X20984Y13175D02*
X21136Y13326D01*
X20513Y13175D02*
X20984D01*
X21005Y13125D02*
X21140Y13260D01*
X21026Y13075D02*
X21145Y13194D01*
X20513Y13075D02*
X21026D01*
X21047Y13025D02*
X21149Y13127D01*
X20513Y12975D02*
X21067D01*
X21154Y13061D01*
X20513Y12925D02*
X21088D01*
X21158Y12995D01*
X22860D01*
X21161Y12927D02*
X22963D01*
X21109Y12875D02*
X21161Y12927D01*
X22963D02*
X23365Y13330D01*
X21129Y12825D02*
X21165Y12860D01*
X20844Y12125D02*
X20844Y12125D01*
X20910D01*
X21121Y11913D01*
X20513Y12175D02*
X20865D01*
X20865Y12175D01*
X20931D01*
X21125Y11980D01*
X20886Y12225D02*
X20886Y12225D01*
X20952D01*
X21128Y12049D01*
X20513Y12275D02*
X20906D01*
X20906Y12275D01*
X20973D01*
X21132Y12116D01*
X20927Y12325D02*
X20927Y12325D01*
X20994D01*
X21135Y12184D01*
X20948Y12375D02*
X20948Y12375D01*
X21016D01*
X21139Y12251D01*
X20513Y12425D02*
X20968D01*
X20968Y12425D01*
X21037D01*
X21142Y12319D01*
X20989Y12475D02*
X20989Y12475D01*
X21058D01*
X21146Y12387D01*
X20513Y12525D02*
X21010D01*
X21010Y12525D01*
X21079D01*
X21149Y12454D01*
X21101Y12575D02*
X21153Y12522D01*
X21031Y12575D02*
X21101D01*
X21030Y12575D02*
X21031Y12575D01*
X20513Y12625D02*
X21051D01*
X20513Y12675D02*
X21073D01*
X20513Y12725D02*
X21094D01*
X20513Y12775D02*
X21150D01*
X21094Y12725D02*
X21094Y12725D01*
X21073Y12675D02*
X21073Y12675D01*
X21051Y12625D02*
X21051Y12625D01*
X21121D02*
X21157Y12589D01*
X21051Y12625D02*
X21121D01*
X21143Y12675D02*
X21161Y12657D01*
X21073Y12675D02*
X21143D01*
X21150Y12775D02*
X21168Y12792D01*
X20513Y13025D02*
X21047D01*
X21094Y12725D02*
X23550D01*
X20513Y13225D02*
X20964D01*
X21132Y13392D02*
X22242D01*
X25548Y10515D02*
X25552Y10510D01*
X25450Y10515D02*
X25548D01*
X25430Y10495D02*
X25450Y10515D01*
X25315Y10495D02*
X25430D01*
X25073Y10520D02*
X25077Y10525D01*
X25175D01*
X25205Y10495D01*
X25315D01*
X25450Y10911D02*
X25552D01*
X25435Y10896D02*
X25450Y10911D01*
X25315Y10896D02*
X25435D01*
X25073Y10921D02*
X25076Y10925D01*
X25170D01*
X25199Y10896D01*
X25315D01*
X25549Y11315D02*
X25552Y11312D01*
X25455Y11315D02*
X25549D01*
X25437Y11297D02*
X25455Y11315D01*
X25315Y11297D02*
X25437D01*
X25073Y11323D02*
X25075Y11325D01*
X25170D01*
X25198Y11297D01*
X25315D01*
X25460Y11713D02*
X25552D01*
X25445Y11698D02*
X25460Y11713D01*
X25315Y11698D02*
X25445D01*
X25073Y11724D02*
X25073Y11724D01*
X25170D01*
X25196Y11698D01*
X25315D01*
Y12099D02*
X25435D01*
X25450Y12114D01*
X25552D01*
X25073Y12126D02*
X25073Y12126D01*
X25175D01*
X25202Y12099D01*
X25315D01*
X25547Y12520D02*
X25552Y12515D01*
X25455Y12520D02*
X25547D01*
X25435Y12500D02*
X25455Y12520D01*
X25315Y12500D02*
X25435D01*
X25073Y12527D02*
X25076Y12530D01*
X25175D01*
X25205Y12500D01*
X25315D01*
X25548Y12920D02*
X25552Y12916D01*
X25455Y12920D02*
X25548D01*
X25436Y12901D02*
X25455Y12920D01*
X25315Y12901D02*
X25436D01*
X25073Y12928D02*
X25079Y12935D01*
X25175D01*
X25209Y12901D01*
X25315D01*
X25460Y13317D02*
X25552D01*
X25445Y13302D02*
X25460Y13317D01*
X25315Y13302D02*
X25445D01*
X25073Y13330D02*
X25073Y13330D01*
X25175D01*
X25203Y13302D01*
X25315D01*
X25455Y13718D02*
X25552D01*
X25440Y13703D02*
X25455Y13718D01*
X25315Y13703D02*
X25440D01*
X25073Y13731D02*
X25073Y13731D01*
X25175D01*
X25203Y13703D01*
X25315D01*
X25455Y14119D02*
X25552D01*
X25440Y14104D02*
X25455Y14119D01*
X25315Y14104D02*
X25440D01*
X25073Y14132D02*
X25170D01*
X25198Y14104D01*
X25315D01*
X23455Y11435D02*
X23550D01*
X22571Y12319D02*
X23455Y11435D01*
X21142Y12319D02*
X22571D01*
X22703Y12387D02*
X23365Y11724D01*
X21146Y12387D02*
X22703D01*
X25315Y14505D02*
X25435D01*
X25450Y14520D01*
X25552D01*
X25073Y14534D02*
X25074Y14535D01*
X25175D01*
X25205Y14505D01*
X25315D01*
X25455Y14928D02*
X25552D01*
X25440Y14913D02*
X25455Y14928D01*
X25315Y14913D02*
X25440D01*
X25313Y14915D02*
X25315Y14913D01*
X25205Y14915D02*
X25313D01*
X25185Y14935D02*
X25205Y14915D01*
X25073Y14935D02*
X25185D01*
X22460Y11230D02*
Y11580D01*
X22127Y11913D02*
X22460Y11580D01*
X21121Y11913D02*
X22127D01*
X22675Y11410D02*
Y11600D01*
X22226Y12049D02*
X22675Y11600D01*
X21128Y12049D02*
X22226D01*
X22570Y11315D02*
Y11585D01*
X22174Y11981D02*
X22570Y11585D01*
X21417Y11981D02*
X22174Y11981D01*
X22570Y11315D02*
X23365Y10520D01*
X22675Y11410D02*
X23452Y10633D01*
X23491Y11034D02*
X23550D01*
X22341Y12184D02*
X23491Y11034D01*
X21135Y12184D02*
X22341D01*
X23464Y11837D02*
X23550D01*
X22846Y12454D02*
X23464Y11837D01*
X21149Y12454D02*
X22846D01*
X23365Y10921D02*
Y11025D01*
X22184Y13459D02*
X22630Y13905D01*
X22242Y13392D02*
X22735Y13885D01*
X23365Y14385D02*
Y14534D01*
X22306Y13326D02*
X23365Y14385D01*
X21136Y13326D02*
X22306D01*
X23307Y13442D02*
X23550D01*
X22860Y12995D02*
X23307Y13442D01*
X23365Y13660D02*
Y13731D01*
X22766Y13061D02*
X23365Y13660D01*
X21154Y13061D02*
X22766D01*
X23365Y14050D02*
Y14132D01*
X22509Y13194D02*
X23365Y14050D01*
X21145Y13194D02*
X22509D01*
X23360Y14245D02*
X23550D01*
X22375Y13260D02*
X23360Y14245D01*
X21140Y13260D02*
X22375D01*
X23356Y13846D02*
X23547D01*
X22637Y13127D02*
X23356Y13846D01*
X21149Y13127D02*
X22637D01*
X23281Y13041D02*
X23550D01*
X23100Y12860D02*
X23281Y13041D01*
X21165Y12860D02*
X23100D01*
X22460Y11230D02*
X23282Y10408D01*
X21402Y13462D02*
X22184Y13459D01*
X22130Y13525D02*
X22510Y13905D01*
X21123Y13525D02*
X22130D01*
X22436Y12251D02*
X23365Y11323D01*
X21139Y12251D02*
X22436D01*
X22274Y12116D02*
X23365Y11025D01*
X21132Y12116D02*
X22274D01*
X23452Y10633D02*
X23550D01*
X23282Y10408D02*
X23550D01*
X22969Y12522D02*
X23365Y12126D01*
X21153Y12522D02*
X22969D01*
X23452Y12238D02*
X23550D01*
X23101Y12589D02*
X23452Y12238D01*
X21157Y12589D02*
X23101D01*
X23235Y12657D02*
X23365Y12527D01*
X21161Y12657D02*
X23235D01*
X23229Y12792D02*
X23365Y12928D01*
X21168Y12792D02*
X23229D01*
X24740Y10520D02*
X24898D01*
X24740Y10921D02*
X24898D01*
X24740Y11323D02*
X24898D01*
X24740Y11724D02*
X24898D01*
X24740Y12126D02*
X24898D01*
X24740Y12527D02*
X24898D01*
X24740Y12928D02*
X24898D01*
X24740Y13330D02*
X24898D01*
X24740Y13731D02*
X24898D01*
X24740Y14132D02*
X24898D01*
X24894Y14530D02*
X24898Y14534D01*
X24740Y14530D02*
X24894D01*
X24740Y14935D02*
X24898D01*
X23550Y12639D02*
Y12725D01*
X23827Y11125D02*
X23830Y11122D01*
X23827Y11525D02*
X23829Y11523D01*
X23827Y11925D02*
X23828Y11924D01*
X23827Y12326D02*
X23828Y12325D01*
X23827Y12725D02*
X23827Y12726D01*
X23827Y13129D02*
X23829Y13127D01*
X23827Y13530D02*
X23829Y13528D01*
X23550Y12735D02*
Y12816D01*
X23547Y13846D02*
X23550Y13843D01*
X19671Y13175D02*
X19778D01*
X19640Y13205D02*
X19671Y13175D01*
X20513Y13125D02*
X21005D01*
X20513Y12125D02*
X20844D01*
X20513Y12225D02*
X20886D01*
X20513Y12325D02*
X20927D01*
X20513Y12375D02*
X20948D01*
X20513Y12475D02*
X20989D01*
X20513Y12575D02*
X21030D01*
X20513Y12825D02*
X21129D01*
X20513Y12875D02*
X21109D01*
X20513Y12775D02*
X20513Y12775D01*
X20513Y12675D02*
X20513Y12675D01*
X20513Y12525D02*
X20513Y12525D01*
X20513Y12425D02*
X20513Y12425D01*
X20513Y12275D02*
X20513Y12275D01*
X21125Y11980D02*
X21418D01*
D100*
X14035Y10745D02*
D03*
X13527D02*
D03*
X12765D02*
D03*
X12511D02*
D03*
D101*
X33379Y12590D02*
D03*
X32845D02*
D03*
X17485Y10335D02*
D03*
Y10869D02*
D03*
X41306Y13050D02*
D03*
X41840D02*
D03*
X13240Y14995D02*
D03*
Y14461D02*
D03*
X20255Y14341D02*
D03*
Y14875D02*
D03*
D102*
X33925Y11360D02*
D03*
X39925D02*
D03*
X43375Y13655D02*
D03*
X39925Y14080D02*
D03*
X33925D02*
D03*
X27925D02*
D03*
X21925D02*
D03*
X15925D02*
D03*
X10400Y14500D02*
D03*
X15925Y11360D02*
D03*
X21925D02*
D03*
X27925D02*
D03*
X43375Y11785D02*
D03*
D103*
X11562Y11990D02*
D03*
X12420Y12885D02*
D03*
X11242Y12503D02*
D03*
X11025Y11990D02*
D03*
X36215Y14858D02*
D03*
X20915Y11145D02*
D03*
X17415Y14841D02*
D03*
X15612Y12460D02*
D03*
X14243Y12445D02*
D03*
X15145Y11615D02*
D03*
X14716Y14095D02*
D03*
X19215Y11680D02*
D03*
X16720Y11580D02*
D03*
X13837Y12185D02*
D03*
X10780Y12655D02*
D03*
X13985Y11590D02*
D03*
X13855Y12887D02*
D03*
X14035Y10205D02*
D03*
X13935D02*
D03*
X14142D02*
D03*
X13935Y10305D02*
D03*
X14035D02*
D03*
X14142D02*
D03*
X20030Y12845D02*
D03*
Y12952D02*
D03*
Y13052D02*
D03*
X19740Y10177D02*
D03*
X19215Y11821D02*
D03*
X19930Y12845D02*
D03*
Y13052D02*
D03*
Y12952D02*
D03*
X38735Y14030D02*
D03*
X16020Y12523D02*
D03*
X15725Y12240D02*
D03*
X18325Y12589D02*
D03*
X18485Y13993D02*
D03*
X18106Y14095D02*
D03*
X17645Y14104D02*
D03*
X17819Y14575D02*
D03*
X15030Y12387D02*
D03*
X19185Y15080D02*
D03*
X18914Y11151D02*
D03*
X41446Y13618D02*
D03*
Y12360D02*
D03*
X33340Y14930D02*
D03*
X32740D02*
D03*
X32985D02*
D03*
X15650Y13555D02*
D03*
X18860Y11755D02*
D03*
X15105Y10110D02*
D03*
Y10521D02*
D03*
X18970Y13357D02*
D03*
X18695Y12530D02*
D03*
X13889Y13885D02*
D03*
X19215Y12063D02*
D03*
Y12183D02*
D03*
X19220Y11580D02*
D03*
X18914Y11420D02*
D03*
X13831Y12505D02*
D03*
X17493Y14345D02*
D03*
X17190Y14780D02*
D03*
X18405Y14175D02*
D03*
X14082Y13890D02*
D03*
X17460Y13340D02*
D03*
X17955Y13275D02*
D03*
X16686Y13475D02*
D03*
X16740Y13255D02*
D03*
X16780Y13165D02*
D03*
X15200Y13423D02*
D03*
X16250Y13570D02*
D03*
X17370Y13140D02*
D03*
X17245D02*
D03*
X17974Y13620D02*
D03*
X17085Y13140D02*
D03*
X16391Y11775D02*
D03*
X15410Y13170D02*
D03*
Y12065D02*
D03*
X35530Y14720D02*
D03*
X39070D02*
D03*
X41700Y12360D02*
D03*
X16360Y14660D02*
D03*
X18570Y13800D02*
D03*
X18355Y13690D02*
D03*
X16260Y10605D02*
D03*
X15607Y10745D02*
D03*
X19235Y10402D02*
D03*
X19505Y12600D02*
D03*
X18700Y12885D02*
D03*
X18145Y12907D02*
D03*
X31745Y10478D02*
D03*
X25990Y10320D02*
D03*
Y10610D02*
D03*
Y11011D02*
D03*
Y11413D02*
D03*
Y11814D02*
D03*
Y12216D02*
D03*
Y12617D02*
D03*
Y13018D02*
D03*
Y13420D02*
D03*
Y13821D02*
D03*
Y14222D02*
D03*
Y14624D02*
D03*
X24740Y10520D02*
D03*
Y10921D02*
D03*
Y11323D02*
D03*
Y11724D02*
D03*
Y12126D02*
D03*
Y12527D02*
D03*
Y12928D02*
D03*
Y13330D02*
D03*
Y13731D02*
D03*
Y14132D02*
D03*
Y14530D02*
D03*
Y14935D02*
D03*
X24390Y14935D02*
D03*
Y10520D02*
D03*
Y10921D02*
D03*
Y11323D02*
D03*
Y11724D02*
D03*
Y12126D02*
D03*
Y12527D02*
D03*
Y12928D02*
D03*
Y13330D02*
D03*
Y13730D02*
D03*
Y14132D02*
D03*
Y14535D02*
D03*
X23365Y10520D02*
D03*
Y10921D02*
D03*
Y11323D02*
D03*
Y11724D02*
D03*
Y12126D02*
D03*
Y12527D02*
D03*
Y12928D02*
D03*
Y13330D02*
D03*
Y13731D02*
D03*
Y14132D02*
D03*
Y14534D02*
D03*
Y14935D02*
D03*
X10175Y11255D02*
D03*
X19215Y11942D02*
D03*
X16250Y12745D02*
D03*
X16250Y12521D02*
D03*
Y12297D02*
D03*
Y12409D02*
D03*
Y12633D02*
D03*
X16250Y12185D02*
D03*
X16625Y11075D02*
D03*
X17975Y15045D02*
D03*
X15315D02*
D03*
X15792Y12915D02*
D03*
X15900D02*
D03*
X15683D02*
D03*
X15325Y10550D02*
D03*
X15240Y12665D02*
D03*
X15575Y12915D02*
D03*
X19215Y12304D02*
D03*
Y12425D02*
D03*
X16250Y12915D02*
D03*
X16017D02*
D03*
X15165Y12315D02*
D03*
Y12465D02*
D03*
X14060Y12445D02*
D03*
X37530Y10155D02*
D03*
X37230Y10065D02*
D03*
X32465Y10472D02*
D03*
Y10835D02*
D03*
Y11188D02*
D03*
Y11540D02*
D03*
Y11895D02*
D03*
Y12250D02*
D03*
Y12605D02*
D03*
Y12960D02*
D03*
Y13312D02*
D03*
Y13665D02*
D03*
Y14018D02*
D03*
Y14370D02*
D03*
Y14725D02*
D03*
X39685Y13115D02*
D03*
X35210Y14280D02*
D03*
Y14026D02*
D03*
Y13772D02*
D03*
Y13518D02*
D03*
Y13264D02*
D03*
Y13010D02*
D03*
Y12180D02*
D03*
Y11926D02*
D03*
Y11672D02*
D03*
Y11418D02*
D03*
Y11164D02*
D03*
Y10910D02*
D03*
Y14534D02*
D03*
Y12434D02*
D03*
X36210Y12432D02*
D03*
X38430Y14995D02*
D03*
X38130Y15085D02*
D03*
X37830Y15175D02*
D03*
X37530Y15265D02*
D03*
X37230Y15355D02*
D03*
X37080Y12310D02*
D03*
X37380D02*
D03*
X37830Y10445D02*
D03*
X37530D02*
D03*
X37230D02*
D03*
X37830Y10245D02*
D03*
X37980Y12310D02*
D03*
X37680D02*
D03*
X36210Y10908D02*
D03*
Y11162D02*
D03*
Y11416D02*
D03*
Y11670D02*
D03*
Y11924D02*
D03*
Y12178D02*
D03*
Y13008D02*
D03*
Y13262D02*
D03*
X38880Y12310D02*
D03*
X38580D02*
D03*
X38280D02*
D03*
X38880Y13305D02*
D03*
X37380D02*
D03*
X37080D02*
D03*
M02*
