G04*
G04 #@! TF.GenerationSoftware,Altium Limited,Altium Designer,18.1.9 (240)*
G04*
G04 Layer_Color=8388736*
%FSLAX42Y42*%
%MOMM*%
G71*
G01*
G75*
%ADD57R,0.90X1.25*%
%ADD58R,1.50X1.70*%
%ADD59R,1.70X1.50*%
%ADD60R,0.80X1.65*%
%ADD61O,0.80X1.65*%
%ADD62R,1.60X1.45*%
%ADD63R,1.30X1.50*%
%ADD64R,1.45X1.60*%
%ADD65R,1.55X2.00*%
%ADD66R,2.00X1.55*%
%ADD67R,1.40X0.90*%
%ADD68R,1.70X2.35*%
%ADD69R,4.00X2.35*%
%ADD70R,3.63X1.85*%
%ADD71R,1.47X2.74*%
%ADD72R,2.65X1.80*%
%ADD73R,1.47X3.12*%
G04:AMPARAMS|DCode=74|XSize=5.53mm|YSize=1.85mm|CornerRadius=0.51mm|HoleSize=0mm|Usage=FLASHONLY|Rotation=270.000|XOffset=0mm|YOffset=0mm|HoleType=Round|Shape=RoundedRectangle|*
%AMROUNDEDRECTD74*
21,1,5.53,0.83,0,0,270.0*
21,1,4.51,1.85,0,0,270.0*
1,1,1.03,-0.41,-2.25*
1,1,1.03,-0.41,2.25*
1,1,1.03,0.41,2.25*
1,1,1.03,0.41,-2.25*
%
%ADD74ROUNDEDRECTD74*%
G04:AMPARAMS|DCode=75|XSize=5.53mm|YSize=1.85mm|CornerRadius=0.51mm|HoleSize=0mm|Usage=FLASHONLY|Rotation=180.000|XOffset=0mm|YOffset=0mm|HoleType=Round|Shape=RoundedRectangle|*
%AMROUNDEDRECTD75*
21,1,5.53,0.83,0,0,180.0*
21,1,4.51,1.85,0,0,180.0*
1,1,1.03,-2.25,0.41*
1,1,1.03,2.25,0.41*
1,1,1.03,2.25,-0.41*
1,1,1.03,-2.25,-0.41*
%
%ADD75ROUNDEDRECTD75*%
%ADD76O,1.85X0.90*%
%ADD77R,1.30X0.90*%
%ADD78R,2.02X1.59*%
%ADD79R,1.59X2.02*%
%ADD80R,2.00X0.50*%
%ADD81O,2.00X0.50*%
%ADD82O,0.50X2.00*%
%ADD83R,3.60X1.30*%
%ADD84R,2.74X1.47*%
%ADD85R,1.85X3.63*%
G04:AMPARAMS|DCode=86|XSize=2.4mm|YSize=1.95mm|CornerRadius=0.54mm|HoleSize=0mm|Usage=FLASHONLY|Rotation=0.000|XOffset=0mm|YOffset=0mm|HoleType=Round|Shape=RoundedRectangle|*
%AMROUNDEDRECTD86*
21,1,2.40,0.88,0,0,0.0*
21,1,1.33,1.95,0,0,0.0*
1,1,1.08,0.66,-0.44*
1,1,1.08,-0.66,-0.44*
1,1,1.08,-0.66,0.44*
1,1,1.08,0.66,0.44*
%
%ADD86ROUNDEDRECTD86*%
%ADD87R,2.20X2.20*%
%ADD88O,1.70X0.55*%
%ADD89R,2.20X6.70*%
%ADD90R,0.85X1.05*%
%ADD91R,1.90X1.80*%
%ADD92R,1.25X0.60*%
%ADD93C,1.40*%
%ADD94C,3.96*%
%ADD95C,6.20*%
D57*
X14705Y12397D02*
D03*
X14895D02*
D03*
Y12132D02*
D03*
X14800D02*
D03*
X14705D02*
D03*
D58*
X24060Y14935D02*
D03*
X24240D02*
D03*
X24060Y14534D02*
D03*
X24240D02*
D03*
X24060Y14132D02*
D03*
X24240D02*
D03*
X24060Y13731D02*
D03*
X24240D02*
D03*
X24060Y13330D02*
D03*
X24240D02*
D03*
X24060Y12928D02*
D03*
X24240D02*
D03*
X24060Y12527D02*
D03*
X24240D02*
D03*
X24060Y12126D02*
D03*
X24240D02*
D03*
X24060Y11724D02*
D03*
X24240D02*
D03*
X24060Y11323D02*
D03*
X24240D02*
D03*
X24060Y10921D02*
D03*
X24240D02*
D03*
X24060Y10520D02*
D03*
X24240D02*
D03*
X15365Y13423D02*
D03*
X15545D02*
D03*
X17855Y13445D02*
D03*
X17675D02*
D03*
X15935Y13423D02*
D03*
X15755D02*
D03*
X14449Y10521D02*
D03*
X14270D02*
D03*
X14884Y11615D02*
D03*
X14704D02*
D03*
X14705Y11885D02*
D03*
X14885D02*
D03*
X20160Y10402D02*
D03*
X19980D02*
D03*
X20063Y11805D02*
D03*
X20243D02*
D03*
X16430Y13423D02*
D03*
X16250D02*
D03*
X17855Y11435D02*
D03*
X17675D02*
D03*
X24682Y14738D02*
D03*
X24507D02*
D03*
X24682Y14330D02*
D03*
X24507D02*
D03*
X24682Y13929D02*
D03*
X24507D02*
D03*
X24682Y13528D02*
D03*
X24507D02*
D03*
X24682Y13127D02*
D03*
X24507D02*
D03*
X24682Y12726D02*
D03*
X24507D02*
D03*
X24682Y12325D02*
D03*
X24507D02*
D03*
X24682Y11924D02*
D03*
X24507D02*
D03*
X24682Y11523D02*
D03*
X24507D02*
D03*
X24682Y11122D02*
D03*
X24507D02*
D03*
X24682Y10721D02*
D03*
X24507D02*
D03*
X24682Y10320D02*
D03*
X24507D02*
D03*
X25073Y14935D02*
D03*
X24898D02*
D03*
X25073Y14534D02*
D03*
X24898D02*
D03*
X25073Y14132D02*
D03*
X24898D02*
D03*
X25073Y13731D02*
D03*
X24898D02*
D03*
X25073Y13330D02*
D03*
X24898D02*
D03*
X25073Y12928D02*
D03*
X24898D02*
D03*
X25073Y12527D02*
D03*
X24898D02*
D03*
X25073Y12126D02*
D03*
X24898D02*
D03*
X25073Y11724D02*
D03*
X24898D02*
D03*
X25073Y11323D02*
D03*
X24898D02*
D03*
X25073Y10921D02*
D03*
X24898D02*
D03*
X25073Y10520D02*
D03*
X24898D02*
D03*
X20638Y11359D02*
D03*
X20463D02*
D03*
X14729Y13130D02*
D03*
X14554D02*
D03*
X18318Y11151D02*
D03*
X18143D02*
D03*
X18518D02*
D03*
X18693D02*
D03*
X18321Y12745D02*
D03*
X18146D02*
D03*
X18320Y11420D02*
D03*
X18145D02*
D03*
X18519D02*
D03*
X18694D02*
D03*
X18320Y11690D02*
D03*
X18145D02*
D03*
X18519D02*
D03*
X18694D02*
D03*
X18321Y11960D02*
D03*
X18146D02*
D03*
X18520D02*
D03*
X18695D02*
D03*
X18146Y12413D02*
D03*
X18321D02*
D03*
X18520D02*
D03*
X18695D02*
D03*
X18321Y13070D02*
D03*
X18146D02*
D03*
X18520D02*
D03*
X18695D02*
D03*
X14879Y10521D02*
D03*
X14704D02*
D03*
X14530Y12655D02*
D03*
X14705D02*
D03*
X11993Y11835D02*
D03*
X12168D02*
D03*
X11535Y12502D02*
D03*
X11715D02*
D03*
X16545Y11375D02*
D03*
X16720D02*
D03*
X17093D02*
D03*
X16918D02*
D03*
D59*
X23827Y14845D02*
D03*
Y15025D02*
D03*
Y14444D02*
D03*
Y14624D02*
D03*
Y14042D02*
D03*
Y14222D02*
D03*
Y13641D02*
D03*
Y13821D02*
D03*
X16840Y12635D02*
D03*
Y12815D02*
D03*
X15145Y11885D02*
D03*
Y12065D02*
D03*
X16918Y11595D02*
D03*
Y11775D02*
D03*
X14440Y13727D02*
D03*
Y13548D02*
D03*
X16548Y11595D02*
D03*
Y11775D02*
D03*
X13860Y12058D02*
D03*
Y11878D02*
D03*
X12395Y12058D02*
D03*
Y12239D02*
D03*
X11825Y10261D02*
D03*
Y10441D02*
D03*
X13985Y11415D02*
D03*
Y11235D02*
D03*
X23827Y13240D02*
D03*
Y13420D02*
D03*
Y12838D02*
D03*
Y13018D02*
D03*
Y12437D02*
D03*
Y12617D02*
D03*
Y12036D02*
D03*
Y12216D02*
D03*
Y11634D02*
D03*
Y11814D02*
D03*
Y11233D02*
D03*
Y11413D02*
D03*
Y10831D02*
D03*
Y11011D02*
D03*
Y10430D02*
D03*
Y10610D02*
D03*
X20245Y11179D02*
D03*
Y11359D02*
D03*
X19465Y13070D02*
D03*
Y12890D02*
D03*
X19220Y13070D02*
D03*
Y12890D02*
D03*
X18970Y13070D02*
D03*
Y12890D02*
D03*
X14475Y12220D02*
D03*
Y12400D02*
D03*
X31745Y14725D02*
D03*
Y14550D02*
D03*
Y14370D02*
D03*
Y14195D02*
D03*
Y14018D02*
D03*
Y13843D02*
D03*
X25315Y11924D02*
D03*
Y12099D02*
D03*
Y11523D02*
D03*
Y11698D02*
D03*
Y11122D02*
D03*
Y11297D02*
D03*
Y10721D02*
D03*
Y10896D02*
D03*
Y10320D02*
D03*
Y10495D02*
D03*
X31745Y13665D02*
D03*
Y13490D02*
D03*
Y13312D02*
D03*
Y13138D02*
D03*
Y12960D02*
D03*
Y12785D02*
D03*
Y12605D02*
D03*
Y12430D02*
D03*
Y12250D02*
D03*
Y12075D02*
D03*
Y11895D02*
D03*
Y11720D02*
D03*
Y11540D02*
D03*
Y11365D02*
D03*
Y11188D02*
D03*
Y11012D02*
D03*
Y10835D02*
D03*
Y10660D02*
D03*
X25315Y14738D02*
D03*
Y14913D02*
D03*
Y14330D02*
D03*
Y14505D02*
D03*
Y13929D02*
D03*
Y14104D02*
D03*
Y13528D02*
D03*
Y13703D02*
D03*
Y13127D02*
D03*
Y13302D02*
D03*
Y12726D02*
D03*
Y12901D02*
D03*
Y12325D02*
D03*
Y12500D02*
D03*
X11935Y12361D02*
D03*
Y12186D02*
D03*
X20510Y11805D02*
D03*
X20513Y11630D02*
D03*
X19200Y10904D02*
D03*
Y10729D02*
D03*
X15000Y13727D02*
D03*
Y13552D02*
D03*
X15001Y13130D02*
D03*
Y13305D02*
D03*
X14085Y12058D02*
D03*
Y11883D02*
D03*
Y12948D02*
D03*
Y13123D02*
D03*
X14449Y10110D02*
D03*
Y10285D02*
D03*
X14229Y11410D02*
D03*
Y11235D02*
D03*
X15060Y10930D02*
D03*
Y11105D02*
D03*
X15340Y10110D02*
D03*
Y10285D02*
D03*
X15610D02*
D03*
Y10110D02*
D03*
X18146Y13532D02*
D03*
Y13357D02*
D03*
X18421Y13532D02*
D03*
Y13357D02*
D03*
X18695Y13532D02*
D03*
Y13357D02*
D03*
Y14562D02*
D03*
Y14737D02*
D03*
X11935Y12821D02*
D03*
Y12646D02*
D03*
X11595Y10260D02*
D03*
Y10440D02*
D03*
D60*
X14449Y10745D02*
D03*
D61*
X14576D02*
D03*
X14703D02*
D03*
X14830D02*
D03*
X14449Y11290D02*
D03*
X14576D02*
D03*
X14703D02*
D03*
X14830D02*
D03*
D62*
X31548Y14550D02*
D03*
X31328D02*
D03*
Y14195D02*
D03*
X31548D02*
D03*
Y13843D02*
D03*
X31328D02*
D03*
Y13490D02*
D03*
X31548D02*
D03*
Y13138D02*
D03*
X31328D02*
D03*
Y12785D02*
D03*
X31548D02*
D03*
Y12429D02*
D03*
X31328D02*
D03*
Y12075D02*
D03*
X31548D02*
D03*
Y11720D02*
D03*
X31328D02*
D03*
Y11365D02*
D03*
X31548D02*
D03*
Y11012D02*
D03*
X31328D02*
D03*
Y10660D02*
D03*
X31548D02*
D03*
X14085Y12692D02*
D03*
X13865D02*
D03*
Y12311D02*
D03*
X14085D02*
D03*
X14704Y10110D02*
D03*
X14924D02*
D03*
X14448Y11615D02*
D03*
X14228D02*
D03*
X14750Y12912D02*
D03*
X14530D02*
D03*
X11782Y11833D02*
D03*
X11562D02*
D03*
D63*
X34710Y14270D02*
D03*
Y14540D02*
D03*
D64*
X19199Y11139D02*
D03*
Y11359D02*
D03*
X15001Y12655D02*
D03*
Y12875D02*
D03*
D65*
X39925Y14740D02*
D03*
X39645D02*
D03*
X33925Y14920D02*
D03*
X34205D02*
D03*
X27925Y14740D02*
D03*
X28205D02*
D03*
X21925Y14745D02*
D03*
X22205D02*
D03*
X28205Y10700D02*
D03*
X27925D02*
D03*
X34205D02*
D03*
X33925D02*
D03*
X39925Y10710D02*
D03*
X39645D02*
D03*
X19469Y10402D02*
D03*
X19749D02*
D03*
D66*
X15925Y14690D02*
D03*
Y14970D02*
D03*
X11225Y14500D02*
D03*
Y14780D02*
D03*
X15925Y10470D02*
D03*
Y10750D02*
D03*
X21925Y10755D02*
D03*
Y10475D02*
D03*
X42555Y13375D02*
D03*
Y13655D02*
D03*
Y12065D02*
D03*
Y11785D02*
D03*
D67*
X25817Y14425D02*
D03*
X25552Y14330D02*
D03*
Y14520D02*
D03*
Y14119D02*
D03*
Y13929D02*
D03*
X25817Y14024D02*
D03*
Y13623D02*
D03*
X25552Y13528D02*
D03*
Y13718D02*
D03*
Y13317D02*
D03*
Y13127D02*
D03*
X25817Y13222D02*
D03*
Y12821D02*
D03*
X25552Y12726D02*
D03*
Y12916D02*
D03*
Y12515D02*
D03*
Y12325D02*
D03*
X25817Y12420D02*
D03*
Y12019D02*
D03*
X25552Y11924D02*
D03*
Y12114D02*
D03*
Y11713D02*
D03*
Y11523D02*
D03*
X25817Y11618D02*
D03*
Y11217D02*
D03*
X25552Y11122D02*
D03*
Y11312D02*
D03*
Y10911D02*
D03*
Y10721D02*
D03*
X25817Y10816D02*
D03*
Y10415D02*
D03*
X25552Y10320D02*
D03*
Y10510D02*
D03*
Y14928D02*
D03*
Y14738D02*
D03*
X25817Y14833D02*
D03*
D68*
X19519Y10729D02*
D03*
X19749D02*
D03*
X19979D02*
D03*
X11595Y10830D02*
D03*
X11825D02*
D03*
X12055D02*
D03*
D69*
X19749Y11359D02*
D03*
X11825Y11460D02*
D03*
D70*
X16807Y14575D02*
D03*
X18184D02*
D03*
X39268Y12028D02*
D03*
X36692D02*
D03*
D71*
X17195Y14105D02*
D03*
X17495D02*
D03*
X17795D02*
D03*
Y15045D02*
D03*
X17495D02*
D03*
X17195D02*
D03*
D72*
X39150Y12330D02*
D03*
X36810D02*
D03*
D73*
X37080Y12575D02*
D03*
X37380D02*
D03*
X37680D02*
D03*
X37980D02*
D03*
X38280D02*
D03*
X38580D02*
D03*
X38880D02*
D03*
Y13038D02*
D03*
X38580D02*
D03*
X38280D02*
D03*
X37980D02*
D03*
X37680D02*
D03*
X37380D02*
D03*
X37080D02*
D03*
D74*
X33239Y13659D02*
D03*
X32985D02*
D03*
X41446Y11981D02*
D03*
X41700D02*
D03*
D75*
X18554Y10475D02*
D03*
Y10729D02*
D03*
X12171Y14855D02*
D03*
Y14601D02*
D03*
X19186Y14481D02*
D03*
Y14735D02*
D03*
D76*
X13632Y12058D02*
D03*
Y12186D02*
D03*
Y12312D02*
D03*
Y12439D02*
D03*
Y12567D02*
D03*
Y12693D02*
D03*
Y12821D02*
D03*
Y12948D02*
D03*
X12657Y12058D02*
D03*
Y12186D02*
D03*
Y12312D02*
D03*
Y12439D02*
D03*
Y12567D02*
D03*
Y12693D02*
D03*
Y12821D02*
D03*
Y12948D02*
D03*
D77*
X11025Y11690D02*
D03*
X11225Y11760D02*
D03*
Y11620D02*
D03*
D78*
X20915Y11630D02*
D03*
Y11359D02*
D03*
D79*
X34439Y14775D02*
D03*
X34711D02*
D03*
X31989Y10835D02*
D03*
X32261D02*
D03*
X31989Y11188D02*
D03*
X32261D02*
D03*
X31989Y11540D02*
D03*
X32261D02*
D03*
X31989Y11895D02*
D03*
X32261D02*
D03*
X31989Y12250D02*
D03*
X32261D02*
D03*
X31989Y12605D02*
D03*
X32261D02*
D03*
X31989Y12960D02*
D03*
X32261D02*
D03*
X31989Y13312D02*
D03*
X32261D02*
D03*
X31989Y13665D02*
D03*
X32261D02*
D03*
X31989Y14018D02*
D03*
X32261D02*
D03*
X31989Y14370D02*
D03*
X32261D02*
D03*
X31989Y14725D02*
D03*
X32261D02*
D03*
X31989Y10478D02*
D03*
X32261D02*
D03*
D80*
X16548Y12215D02*
D03*
D81*
Y12265D02*
D03*
Y12315D02*
D03*
Y12365D02*
D03*
Y12415D02*
D03*
Y12465D02*
D03*
Y12515D02*
D03*
Y12565D02*
D03*
Y12615D02*
D03*
Y12665D02*
D03*
Y12715D02*
D03*
Y12765D02*
D03*
Y12815D02*
D03*
Y12865D02*
D03*
Y12915D02*
D03*
Y12965D02*
D03*
X15402D02*
D03*
Y12915D02*
D03*
Y12865D02*
D03*
Y12815D02*
D03*
Y12765D02*
D03*
Y12715D02*
D03*
Y12665D02*
D03*
Y12615D02*
D03*
Y12565D02*
D03*
Y12515D02*
D03*
Y12465D02*
D03*
Y12415D02*
D03*
Y12365D02*
D03*
Y12315D02*
D03*
Y12265D02*
D03*
Y12215D02*
D03*
D82*
X16350Y13162D02*
D03*
X16300D02*
D03*
X16250D02*
D03*
X16200D02*
D03*
X16150D02*
D03*
X16100D02*
D03*
X16050D02*
D03*
X16000D02*
D03*
X15950D02*
D03*
X15900D02*
D03*
X15850D02*
D03*
X15800D02*
D03*
X15750D02*
D03*
X15700D02*
D03*
X15650D02*
D03*
X15600D02*
D03*
Y12018D02*
D03*
X15650D02*
D03*
X15700D02*
D03*
X15750D02*
D03*
X15800D02*
D03*
X15850D02*
D03*
X15900D02*
D03*
X15950D02*
D03*
X16000D02*
D03*
X16050D02*
D03*
X16100D02*
D03*
X16150D02*
D03*
X16200D02*
D03*
X16250D02*
D03*
X16300D02*
D03*
X16350D02*
D03*
D83*
X30890Y10835D02*
D03*
Y10696D02*
D03*
Y14725D02*
D03*
Y14586D02*
D03*
Y14370D02*
D03*
Y14231D02*
D03*
Y14018D02*
D03*
Y13879D02*
D03*
Y13665D02*
D03*
Y13526D02*
D03*
Y13312D02*
D03*
Y13174D02*
D03*
Y12960D02*
D03*
Y12821D02*
D03*
Y12605D02*
D03*
Y12466D02*
D03*
Y12250D02*
D03*
Y12111D02*
D03*
Y11895D02*
D03*
Y11756D02*
D03*
Y11540D02*
D03*
Y11401D02*
D03*
Y11188D02*
D03*
Y11049D02*
D03*
X29810Y14725D02*
D03*
Y14586D02*
D03*
Y14370D02*
D03*
Y14231D02*
D03*
Y14018D02*
D03*
Y13879D02*
D03*
Y13665D02*
D03*
Y13526D02*
D03*
Y13312D02*
D03*
Y13174D02*
D03*
Y12960D02*
D03*
Y12821D02*
D03*
Y12605D02*
D03*
Y12466D02*
D03*
Y12250D02*
D03*
Y12111D02*
D03*
Y11895D02*
D03*
Y11756D02*
D03*
Y11540D02*
D03*
Y11401D02*
D03*
Y11188D02*
D03*
Y11049D02*
D03*
Y10835D02*
D03*
Y10696D02*
D03*
X30350Y14725D02*
D03*
Y14586D02*
D03*
Y14370D02*
D03*
Y14231D02*
D03*
Y14018D02*
D03*
Y13879D02*
D03*
Y13665D02*
D03*
Y13526D02*
D03*
Y13312D02*
D03*
Y13174D02*
D03*
Y12960D02*
D03*
Y12821D02*
D03*
Y12605D02*
D03*
Y12466D02*
D03*
Y12250D02*
D03*
Y12111D02*
D03*
Y11895D02*
D03*
Y11756D02*
D03*
Y11540D02*
D03*
Y11401D02*
D03*
Y11188D02*
D03*
Y11049D02*
D03*
Y10835D02*
D03*
Y10696D02*
D03*
D84*
X11225Y11020D02*
D03*
Y10720D02*
D03*
X10285Y11020D02*
D03*
Y10720D02*
D03*
Y12655D02*
D03*
Y12355D02*
D03*
X11225Y12655D02*
D03*
Y12355D02*
D03*
D85*
X10755Y11408D02*
D03*
Y10332D02*
D03*
Y13043D02*
D03*
Y11967D02*
D03*
D86*
X36000Y12432D02*
D03*
Y12178D02*
D03*
Y11924D02*
D03*
Y11670D02*
D03*
Y11416D02*
D03*
Y11162D02*
D03*
Y10908D02*
D03*
X35000D02*
D03*
Y11162D02*
D03*
Y11416D02*
D03*
Y11670D02*
D03*
Y11924D02*
D03*
Y12178D02*
D03*
Y12432D02*
D03*
X36000Y14532D02*
D03*
Y14278D02*
D03*
Y14024D02*
D03*
Y13770D02*
D03*
Y13516D02*
D03*
Y13262D02*
D03*
Y13008D02*
D03*
X35000D02*
D03*
Y13262D02*
D03*
Y13516D02*
D03*
Y13770D02*
D03*
Y14024D02*
D03*
Y14278D02*
D03*
Y14532D02*
D03*
D87*
X14440Y14080D02*
D03*
X14999D02*
D03*
D88*
X19778Y13225D02*
D03*
Y13175D02*
D03*
Y13125D02*
D03*
Y13075D02*
D03*
Y13025D02*
D03*
Y12975D02*
D03*
Y12925D02*
D03*
Y12875D02*
D03*
Y12825D02*
D03*
Y12775D02*
D03*
Y12725D02*
D03*
Y12675D02*
D03*
Y12625D02*
D03*
Y12575D02*
D03*
Y12525D02*
D03*
Y12475D02*
D03*
Y12425D02*
D03*
Y12375D02*
D03*
Y12325D02*
D03*
Y12275D02*
D03*
Y12225D02*
D03*
Y12175D02*
D03*
Y12125D02*
D03*
Y12075D02*
D03*
X20513Y13225D02*
D03*
Y13175D02*
D03*
Y13125D02*
D03*
Y13075D02*
D03*
Y13025D02*
D03*
Y12975D02*
D03*
Y12925D02*
D03*
Y12875D02*
D03*
Y12825D02*
D03*
Y12775D02*
D03*
Y12725D02*
D03*
Y12675D02*
D03*
Y12625D02*
D03*
Y12575D02*
D03*
Y12525D02*
D03*
Y12475D02*
D03*
Y12425D02*
D03*
Y12375D02*
D03*
Y12325D02*
D03*
Y12275D02*
D03*
Y12225D02*
D03*
Y12175D02*
D03*
Y12125D02*
D03*
Y12075D02*
D03*
D89*
X17675Y11915D02*
D03*
Y12965D02*
D03*
D90*
X23550Y11034D02*
D03*
Y10809D02*
D03*
Y10408D02*
D03*
Y10633D02*
D03*
Y15048D02*
D03*
Y14823D02*
D03*
Y14421D02*
D03*
Y14646D02*
D03*
Y14245D02*
D03*
Y14020D02*
D03*
Y13618D02*
D03*
Y13843D02*
D03*
Y13442D02*
D03*
Y13217D02*
D03*
Y12816D02*
D03*
Y13041D02*
D03*
Y12639D02*
D03*
Y12414D02*
D03*
Y12013D02*
D03*
Y12238D02*
D03*
Y11837D02*
D03*
Y11612D02*
D03*
Y11210D02*
D03*
Y11435D02*
D03*
D91*
X12395Y11835D02*
D03*
Y11565D02*
D03*
D92*
X12460Y12563D02*
D03*
Y12443D02*
D03*
X12155D02*
D03*
Y12563D02*
D03*
D93*
X14035Y10745D02*
D03*
X13527D02*
D03*
X12765D02*
D03*
X12511D02*
D03*
D94*
X33379Y12590D02*
D03*
X32845D02*
D03*
X17485Y10335D02*
D03*
Y10869D02*
D03*
X41306Y13050D02*
D03*
X41840D02*
D03*
X13240Y14995D02*
D03*
Y14461D02*
D03*
X20255Y14341D02*
D03*
Y14875D02*
D03*
D95*
X33925Y11360D02*
D03*
X39925D02*
D03*
X43375Y13655D02*
D03*
X39925Y14080D02*
D03*
X33925D02*
D03*
X27925D02*
D03*
X21925D02*
D03*
X15925D02*
D03*
X10400Y14500D02*
D03*
X15925Y11360D02*
D03*
X21925D02*
D03*
X27925D02*
D03*
X43375Y11785D02*
D03*
M02*
